M48
; DRILL file {KiCad 5.1.5+dfsg1-2build2} date Mon 10 Oct 2022 15:32:09 BST
; FORMAT={-:-/ absolute / inch / decimal}
; #@! TF.CreationDate,2022-10-10T15:32:09+01:00
; #@! TF.GenerationSoftware,Kicad,Pcbnew,5.1.5+dfsg1-2build2
; #@! TF.FileFunction,Plated,1,4,PTH
FMAT,2
INCH
T1C0.0157
T2C0.0177
T3C0.0300
T4C0.0315
T5C0.0354
T6C0.0394
%
G90
G05
T1
X1.63Y-4.42
X1.63Y-4.81
X1.7082Y-4.3072
X1.71Y-4.61
X1.73Y-4.34
X1.76Y-4.45
X1.76Y-4.5
X1.7633Y-4.1778
X1.78Y-4.55
X1.811Y-4.216
X1.85Y-4.31
X1.8689Y-4.128
X1.88Y-4.82
X1.91Y-4.54
X1.91Y-4.6
X1.9203Y-4.6889
X1.9252Y-4.9459
X1.93Y-4.46
X1.9537Y-5.13
X1.99Y-4.8539
X2.0229Y-4.2969
X2.0238Y-4.2567
X2.05Y-3.87
X2.0547Y-4.3371
X2.06Y-4.42
X2.07Y-5.09
X2.08Y-4.6
X2.08Y-4.69
X2.09Y-4.47
X2.1Y-4.26
X2.1Y-5.06
X2.1047Y-4.3371
X2.1079Y-4.91
X2.127Y-3.8865
X2.127Y-4.057
X2.1326Y-4.55
X2.15Y-5.0415
X2.1547Y-4.3371
X2.18Y-4.5
X2.2Y-4.69
X2.2047Y-4.8755
X2.2224Y-4.9803
X2.23Y-4.74
X2.26Y-3.92
X2.27Y-4.14
X2.27Y-4.7
X2.27Y-5.01
X2.2734Y-4.2713
X2.28Y-4.6
X2.29Y-5.14
X2.31Y-4.3
X2.35Y-4.97
X2.36Y-4.91
X2.3906Y-5.0885
X2.4Y-4.35
X2.4045Y-4.2618
X2.45Y-4.41
X2.45Y-4.96
X2.47Y-4.55
X2.47Y-4.6
X2.4773Y-4.7382
X2.48Y-4.46
X2.4824Y-4.6373
X2.49Y-4.51
X2.49Y-4.8926
X2.49Y-5.1
X2.5072Y-4.8355
X2.5102Y-4.7598
X2.5126Y-4.09
X2.52Y-4.29
X2.53Y-4.61
X2.53Y-4.68
X2.532Y-4.727
X2.59Y-4.48
X2.59Y-5.02
X2.64Y-4.8926
X2.65Y-4.41
X2.65Y-4.7131
X2.66Y-4.28
X2.66Y-4.81
X2.665Y-4.7674
X2.68Y-4.53
X2.6815Y-4.6
X2.6836Y-4.4212
X2.69Y-4.8395
X2.69Y-4.9
X2.71Y-4.12
X2.71Y-4.56
X2.71Y-4.71
X2.72Y-4.06
X2.7252Y-4.5087
X2.75Y-4.09
X2.78Y-5.0516
X2.79Y-4.22
X2.79Y-4.26
X2.8097Y-4.42
X2.8097Y-4.66
X2.85Y-4.73
X2.85Y-5.0693
X2.8866Y-4.7092
X2.89Y-4.6
X2.89Y-4.67
X2.9Y-4.78
X2.92Y-4.45
X2.93Y-4.8585
X2.9454Y-4.7254
X2.95Y-4.6
X2.95Y-4.8
X2.9682Y-4.4972
X2.99Y-4.53
X3.07Y-3.87
X3.08Y-4.65
X3.09Y-4.47
X3.1Y-4.26
X3.13Y-4.7461
X3.15Y-4.24
X3.15Y-4.85
X3.18Y-4.46
X3.24Y-5.0115
X3.24Y-5.08
X3.26Y-4.2
X3.3Y-4.6
X3.3Y-4.8
X3.3377Y-4.8187
X3.35Y-4.2157
X3.36Y-4.1528
X3.36Y-4.65
X3.3722Y-4.8378
X3.4Y-4.81
X3.47Y-4.27
X3.51Y-4.22
X3.51Y-4.7139
X3.52Y-4.54
X3.54Y-4.62
X3.54Y-4.68
X3.6Y-4.1796
X3.61Y-4.0614
X3.63Y-5.14
X3.65Y-5.04
X3.66Y-4.48
X3.71Y-4.66
X3.71Y-4.88
X3.74Y-4.27
X3.76Y-4.45
X3.76Y-4.65
X3.8Y-4.79
X3.81Y-4.71
X3.8115Y-4.52
X3.84Y-4.04
X3.87Y-4.21
X3.94Y-3.89
X3.95Y-5.13
X4.0Y-4.7274
X4.01Y-4.9
X4.03Y-4.3
X4.0374Y-4.3748
X4.07Y-4.33
X4.09Y-4.7259
X4.1194Y-4.6145
X4.21Y-4.21
T3
X3.6811Y-4.1654
X3.7795Y-4.1654
X3.878Y-3.9685
X3.9764Y-4.1654
X4.0748Y-4.1654
T4
X2.59Y-4.36
X2.59Y-4.96
X2.69Y-4.36
X2.69Y-4.96
X2.79Y-4.36
X2.79Y-4.96
X2.89Y-4.36
X2.89Y-4.96
X2.99Y-4.36
X2.99Y-4.96
X3.09Y-4.36
X3.09Y-4.96
X3.19Y-4.36
X3.19Y-4.96
X3.29Y-4.36
X3.29Y-4.96
X3.39Y-4.36
X3.39Y-4.96
X3.49Y-4.36
X3.49Y-4.96
X3.59Y-4.36
X3.59Y-4.96
X3.69Y-4.36
X3.69Y-4.96
X3.79Y-4.36
X3.79Y-4.96
X3.89Y-4.36
X3.89Y-4.96
X3.3071Y-3.937
X3.3071Y-4.037
X3.3071Y-4.137
T5
X2.4646Y-3.9173
X2.5646Y-3.9173
T6
X3.54Y-3.93
X3.54Y-4.03
X2.3457Y-5.2441
X2.3488Y-5.1441
X2.4457Y-5.1441
X2.4457Y-5.2441
X2.5457Y-5.1441
X2.5457Y-5.2441
X2.6457Y-5.1441
X2.6457Y-5.2441
X2.7457Y-5.1441
X2.7457Y-5.2441
X2.8457Y-5.1441
X2.8457Y-5.2441
X2.9457Y-5.1441
X2.9457Y-5.2441
X3.0457Y-5.1441
X3.0457Y-5.2441
T2
G00X2.6742Y-3.9291
M15
G01X2.6742Y-3.8976
M16
G05
G00X2.9557Y-3.8976
M15
G01X2.9557Y-3.9291
M16
G05
T0
M30
