G04 #@! TF.GenerationSoftware,KiCad,Pcbnew,5.1.5+dfsg1-2build2*
G04 #@! TF.CreationDate,2022-10-10T15:32:11+01:00*
G04 #@! TF.ProjectId,psion-speech-sp0256al2,7073696f-6e2d-4737-9065-6563682d7370,rev?*
G04 #@! TF.SameCoordinates,Original*
G04 #@! TF.FileFunction,Paste,Top*
G04 #@! TF.FilePolarity,Positive*
%FSLAX46Y46*%
G04 Gerber Fmt 4.6, Leading zero omitted, Abs format (unit mm)*
G04 Created by KiCad (PCBNEW 5.1.5+dfsg1-2build2) date 2022-10-10 15:32:11*
%MOMM*%
%LPD*%
G04 APERTURE LIST*
%ADD10C,0.100000*%
%ADD11R,1.060000X0.650000*%
%ADD12R,1.150000X1.450000*%
%ADD13R,1.750000X1.900000*%
%ADD14R,0.400000X1.400000*%
G04 APERTURE END LIST*
D10*
G36*
X104360505Y-117702204D02*
G01*
X104384773Y-117705804D01*
X104408572Y-117711765D01*
X104431671Y-117720030D01*
X104453850Y-117730520D01*
X104474893Y-117743132D01*
X104494599Y-117757747D01*
X104512777Y-117774223D01*
X104529253Y-117792401D01*
X104543868Y-117812107D01*
X104556480Y-117833150D01*
X104566970Y-117855329D01*
X104575235Y-117878428D01*
X104581196Y-117902227D01*
X104584796Y-117926495D01*
X104586000Y-117950999D01*
X104586000Y-118476001D01*
X104584796Y-118500505D01*
X104581196Y-118524773D01*
X104575235Y-118548572D01*
X104566970Y-118571671D01*
X104556480Y-118593850D01*
X104543868Y-118614893D01*
X104529253Y-118634599D01*
X104512777Y-118652777D01*
X104494599Y-118669253D01*
X104474893Y-118683868D01*
X104453850Y-118696480D01*
X104431671Y-118706970D01*
X104408572Y-118715235D01*
X104384773Y-118721196D01*
X104360505Y-118724796D01*
X104336001Y-118726000D01*
X103435999Y-118726000D01*
X103411495Y-118724796D01*
X103387227Y-118721196D01*
X103363428Y-118715235D01*
X103340329Y-118706970D01*
X103318150Y-118696480D01*
X103297107Y-118683868D01*
X103277401Y-118669253D01*
X103259223Y-118652777D01*
X103242747Y-118634599D01*
X103228132Y-118614893D01*
X103215520Y-118593850D01*
X103205030Y-118571671D01*
X103196765Y-118548572D01*
X103190804Y-118524773D01*
X103187204Y-118500505D01*
X103186000Y-118476001D01*
X103186000Y-117950999D01*
X103187204Y-117926495D01*
X103190804Y-117902227D01*
X103196765Y-117878428D01*
X103205030Y-117855329D01*
X103215520Y-117833150D01*
X103228132Y-117812107D01*
X103242747Y-117792401D01*
X103259223Y-117774223D01*
X103277401Y-117757747D01*
X103297107Y-117743132D01*
X103318150Y-117730520D01*
X103340329Y-117720030D01*
X103363428Y-117711765D01*
X103387227Y-117705804D01*
X103411495Y-117702204D01*
X103435999Y-117701000D01*
X104336001Y-117701000D01*
X104360505Y-117702204D01*
G37*
G36*
X104360505Y-119527204D02*
G01*
X104384773Y-119530804D01*
X104408572Y-119536765D01*
X104431671Y-119545030D01*
X104453850Y-119555520D01*
X104474893Y-119568132D01*
X104494599Y-119582747D01*
X104512777Y-119599223D01*
X104529253Y-119617401D01*
X104543868Y-119637107D01*
X104556480Y-119658150D01*
X104566970Y-119680329D01*
X104575235Y-119703428D01*
X104581196Y-119727227D01*
X104584796Y-119751495D01*
X104586000Y-119775999D01*
X104586000Y-120301001D01*
X104584796Y-120325505D01*
X104581196Y-120349773D01*
X104575235Y-120373572D01*
X104566970Y-120396671D01*
X104556480Y-120418850D01*
X104543868Y-120439893D01*
X104529253Y-120459599D01*
X104512777Y-120477777D01*
X104494599Y-120494253D01*
X104474893Y-120508868D01*
X104453850Y-120521480D01*
X104431671Y-120531970D01*
X104408572Y-120540235D01*
X104384773Y-120546196D01*
X104360505Y-120549796D01*
X104336001Y-120551000D01*
X103435999Y-120551000D01*
X103411495Y-120549796D01*
X103387227Y-120546196D01*
X103363428Y-120540235D01*
X103340329Y-120531970D01*
X103318150Y-120521480D01*
X103297107Y-120508868D01*
X103277401Y-120494253D01*
X103259223Y-120477777D01*
X103242747Y-120459599D01*
X103228132Y-120439893D01*
X103215520Y-120418850D01*
X103205030Y-120396671D01*
X103196765Y-120373572D01*
X103190804Y-120349773D01*
X103187204Y-120325505D01*
X103186000Y-120301001D01*
X103186000Y-119775999D01*
X103187204Y-119751495D01*
X103190804Y-119727227D01*
X103196765Y-119703428D01*
X103205030Y-119680329D01*
X103215520Y-119658150D01*
X103228132Y-119637107D01*
X103242747Y-119617401D01*
X103259223Y-119599223D01*
X103277401Y-119582747D01*
X103297107Y-119568132D01*
X103318150Y-119555520D01*
X103340329Y-119545030D01*
X103363428Y-119536765D01*
X103387227Y-119530804D01*
X103411495Y-119527204D01*
X103435999Y-119526000D01*
X104336001Y-119526000D01*
X104360505Y-119527204D01*
G37*
G36*
X101744505Y-108633204D02*
G01*
X101768773Y-108636804D01*
X101792572Y-108642765D01*
X101815671Y-108651030D01*
X101837850Y-108661520D01*
X101858893Y-108674132D01*
X101878599Y-108688747D01*
X101896777Y-108705223D01*
X101913253Y-108723401D01*
X101927868Y-108743107D01*
X101940480Y-108764150D01*
X101950970Y-108786329D01*
X101959235Y-108809428D01*
X101965196Y-108833227D01*
X101968796Y-108857495D01*
X101970000Y-108881999D01*
X101970000Y-111082001D01*
X101968796Y-111106505D01*
X101965196Y-111130773D01*
X101959235Y-111154572D01*
X101950970Y-111177671D01*
X101940480Y-111199850D01*
X101927868Y-111220893D01*
X101913253Y-111240599D01*
X101896777Y-111258777D01*
X101878599Y-111275253D01*
X101858893Y-111289868D01*
X101837850Y-111302480D01*
X101815671Y-111312970D01*
X101792572Y-111321235D01*
X101768773Y-111327196D01*
X101744505Y-111330796D01*
X101720001Y-111332000D01*
X100894999Y-111332000D01*
X100870495Y-111330796D01*
X100846227Y-111327196D01*
X100822428Y-111321235D01*
X100799329Y-111312970D01*
X100777150Y-111302480D01*
X100756107Y-111289868D01*
X100736401Y-111275253D01*
X100718223Y-111258777D01*
X100701747Y-111240599D01*
X100687132Y-111220893D01*
X100674520Y-111199850D01*
X100664030Y-111177671D01*
X100655765Y-111154572D01*
X100649804Y-111130773D01*
X100646204Y-111106505D01*
X100645000Y-111082001D01*
X100645000Y-108881999D01*
X100646204Y-108857495D01*
X100649804Y-108833227D01*
X100655765Y-108809428D01*
X100664030Y-108786329D01*
X100674520Y-108764150D01*
X100687132Y-108743107D01*
X100701747Y-108723401D01*
X100718223Y-108705223D01*
X100736401Y-108688747D01*
X100756107Y-108674132D01*
X100777150Y-108661520D01*
X100799329Y-108651030D01*
X100822428Y-108642765D01*
X100846227Y-108636804D01*
X100870495Y-108633204D01*
X100894999Y-108632000D01*
X101720001Y-108632000D01*
X101744505Y-108633204D01*
G37*
G36*
X104869505Y-108633204D02*
G01*
X104893773Y-108636804D01*
X104917572Y-108642765D01*
X104940671Y-108651030D01*
X104962850Y-108661520D01*
X104983893Y-108674132D01*
X105003599Y-108688747D01*
X105021777Y-108705223D01*
X105038253Y-108723401D01*
X105052868Y-108743107D01*
X105065480Y-108764150D01*
X105075970Y-108786329D01*
X105084235Y-108809428D01*
X105090196Y-108833227D01*
X105093796Y-108857495D01*
X105095000Y-108881999D01*
X105095000Y-111082001D01*
X105093796Y-111106505D01*
X105090196Y-111130773D01*
X105084235Y-111154572D01*
X105075970Y-111177671D01*
X105065480Y-111199850D01*
X105052868Y-111220893D01*
X105038253Y-111240599D01*
X105021777Y-111258777D01*
X105003599Y-111275253D01*
X104983893Y-111289868D01*
X104962850Y-111302480D01*
X104940671Y-111312970D01*
X104917572Y-111321235D01*
X104893773Y-111327196D01*
X104869505Y-111330796D01*
X104845001Y-111332000D01*
X104019999Y-111332000D01*
X103995495Y-111330796D01*
X103971227Y-111327196D01*
X103947428Y-111321235D01*
X103924329Y-111312970D01*
X103902150Y-111302480D01*
X103881107Y-111289868D01*
X103861401Y-111275253D01*
X103843223Y-111258777D01*
X103826747Y-111240599D01*
X103812132Y-111220893D01*
X103799520Y-111199850D01*
X103789030Y-111177671D01*
X103780765Y-111154572D01*
X103774804Y-111130773D01*
X103771204Y-111106505D01*
X103770000Y-111082001D01*
X103770000Y-108881999D01*
X103771204Y-108857495D01*
X103774804Y-108833227D01*
X103780765Y-108809428D01*
X103789030Y-108786329D01*
X103799520Y-108764150D01*
X103812132Y-108743107D01*
X103826747Y-108723401D01*
X103843223Y-108705223D01*
X103861401Y-108688747D01*
X103881107Y-108674132D01*
X103902150Y-108661520D01*
X103924329Y-108651030D01*
X103947428Y-108642765D01*
X103971227Y-108636804D01*
X103995495Y-108633204D01*
X104019999Y-108632000D01*
X104845001Y-108632000D01*
X104869505Y-108633204D01*
G37*
G36*
X104869505Y-111935204D02*
G01*
X104893773Y-111938804D01*
X104917572Y-111944765D01*
X104940671Y-111953030D01*
X104962850Y-111963520D01*
X104983893Y-111976132D01*
X105003599Y-111990747D01*
X105021777Y-112007223D01*
X105038253Y-112025401D01*
X105052868Y-112045107D01*
X105065480Y-112066150D01*
X105075970Y-112088329D01*
X105084235Y-112111428D01*
X105090196Y-112135227D01*
X105093796Y-112159495D01*
X105095000Y-112183999D01*
X105095000Y-114384001D01*
X105093796Y-114408505D01*
X105090196Y-114432773D01*
X105084235Y-114456572D01*
X105075970Y-114479671D01*
X105065480Y-114501850D01*
X105052868Y-114522893D01*
X105038253Y-114542599D01*
X105021777Y-114560777D01*
X105003599Y-114577253D01*
X104983893Y-114591868D01*
X104962850Y-114604480D01*
X104940671Y-114614970D01*
X104917572Y-114623235D01*
X104893773Y-114629196D01*
X104869505Y-114632796D01*
X104845001Y-114634000D01*
X104019999Y-114634000D01*
X103995495Y-114632796D01*
X103971227Y-114629196D01*
X103947428Y-114623235D01*
X103924329Y-114614970D01*
X103902150Y-114604480D01*
X103881107Y-114591868D01*
X103861401Y-114577253D01*
X103843223Y-114560777D01*
X103826747Y-114542599D01*
X103812132Y-114522893D01*
X103799520Y-114501850D01*
X103789030Y-114479671D01*
X103780765Y-114456572D01*
X103774804Y-114432773D01*
X103771204Y-114408505D01*
X103770000Y-114384001D01*
X103770000Y-112183999D01*
X103771204Y-112159495D01*
X103774804Y-112135227D01*
X103780765Y-112111428D01*
X103789030Y-112088329D01*
X103799520Y-112066150D01*
X103812132Y-112045107D01*
X103826747Y-112025401D01*
X103843223Y-112007223D01*
X103861401Y-111990747D01*
X103881107Y-111976132D01*
X103902150Y-111963520D01*
X103924329Y-111953030D01*
X103947428Y-111944765D01*
X103971227Y-111938804D01*
X103995495Y-111935204D01*
X104019999Y-111934000D01*
X104845001Y-111934000D01*
X104869505Y-111935204D01*
G37*
G36*
X101744505Y-111935204D02*
G01*
X101768773Y-111938804D01*
X101792572Y-111944765D01*
X101815671Y-111953030D01*
X101837850Y-111963520D01*
X101858893Y-111976132D01*
X101878599Y-111990747D01*
X101896777Y-112007223D01*
X101913253Y-112025401D01*
X101927868Y-112045107D01*
X101940480Y-112066150D01*
X101950970Y-112088329D01*
X101959235Y-112111428D01*
X101965196Y-112135227D01*
X101968796Y-112159495D01*
X101970000Y-112183999D01*
X101970000Y-114384001D01*
X101968796Y-114408505D01*
X101965196Y-114432773D01*
X101959235Y-114456572D01*
X101950970Y-114479671D01*
X101940480Y-114501850D01*
X101927868Y-114522893D01*
X101913253Y-114542599D01*
X101896777Y-114560777D01*
X101878599Y-114577253D01*
X101858893Y-114591868D01*
X101837850Y-114604480D01*
X101815671Y-114614970D01*
X101792572Y-114623235D01*
X101768773Y-114629196D01*
X101744505Y-114632796D01*
X101720001Y-114634000D01*
X100894999Y-114634000D01*
X100870495Y-114632796D01*
X100846227Y-114629196D01*
X100822428Y-114623235D01*
X100799329Y-114614970D01*
X100777150Y-114604480D01*
X100756107Y-114591868D01*
X100736401Y-114577253D01*
X100718223Y-114560777D01*
X100701747Y-114542599D01*
X100687132Y-114522893D01*
X100674520Y-114501850D01*
X100664030Y-114479671D01*
X100655765Y-114456572D01*
X100649804Y-114432773D01*
X100646204Y-114408505D01*
X100645000Y-114384001D01*
X100645000Y-112183999D01*
X100646204Y-112159495D01*
X100649804Y-112135227D01*
X100655765Y-112111428D01*
X100664030Y-112088329D01*
X100674520Y-112066150D01*
X100687132Y-112045107D01*
X100701747Y-112025401D01*
X100718223Y-112007223D01*
X100736401Y-111990747D01*
X100756107Y-111976132D01*
X100777150Y-111963520D01*
X100799329Y-111953030D01*
X100822428Y-111944765D01*
X100846227Y-111938804D01*
X100870495Y-111935204D01*
X100894999Y-111934000D01*
X101720001Y-111934000D01*
X101744505Y-111935204D01*
G37*
G36*
X68026504Y-107480204D02*
G01*
X68050773Y-107483804D01*
X68074571Y-107489765D01*
X68097671Y-107498030D01*
X68119849Y-107508520D01*
X68140893Y-107521133D01*
X68160598Y-107535747D01*
X68178777Y-107552223D01*
X68195253Y-107570402D01*
X68209867Y-107590107D01*
X68222480Y-107611151D01*
X68232970Y-107633329D01*
X68241235Y-107656429D01*
X68247196Y-107680227D01*
X68250796Y-107704496D01*
X68252000Y-107729000D01*
X68252000Y-108679000D01*
X68250796Y-108703504D01*
X68247196Y-108727773D01*
X68241235Y-108751571D01*
X68232970Y-108774671D01*
X68222480Y-108796849D01*
X68209867Y-108817893D01*
X68195253Y-108837598D01*
X68178777Y-108855777D01*
X68160598Y-108872253D01*
X68140893Y-108886867D01*
X68119849Y-108899480D01*
X68097671Y-108909970D01*
X68074571Y-108918235D01*
X68050773Y-108924196D01*
X68026504Y-108927796D01*
X68002000Y-108929000D01*
X67502000Y-108929000D01*
X67477496Y-108927796D01*
X67453227Y-108924196D01*
X67429429Y-108918235D01*
X67406329Y-108909970D01*
X67384151Y-108899480D01*
X67363107Y-108886867D01*
X67343402Y-108872253D01*
X67325223Y-108855777D01*
X67308747Y-108837598D01*
X67294133Y-108817893D01*
X67281520Y-108796849D01*
X67271030Y-108774671D01*
X67262765Y-108751571D01*
X67256804Y-108727773D01*
X67253204Y-108703504D01*
X67252000Y-108679000D01*
X67252000Y-107729000D01*
X67253204Y-107704496D01*
X67256804Y-107680227D01*
X67262765Y-107656429D01*
X67271030Y-107633329D01*
X67281520Y-107611151D01*
X67294133Y-107590107D01*
X67308747Y-107570402D01*
X67325223Y-107552223D01*
X67343402Y-107535747D01*
X67363107Y-107521133D01*
X67384151Y-107508520D01*
X67406329Y-107498030D01*
X67429429Y-107489765D01*
X67453227Y-107483804D01*
X67477496Y-107480204D01*
X67502000Y-107479000D01*
X68002000Y-107479000D01*
X68026504Y-107480204D01*
G37*
G36*
X66126504Y-107480204D02*
G01*
X66150773Y-107483804D01*
X66174571Y-107489765D01*
X66197671Y-107498030D01*
X66219849Y-107508520D01*
X66240893Y-107521133D01*
X66260598Y-107535747D01*
X66278777Y-107552223D01*
X66295253Y-107570402D01*
X66309867Y-107590107D01*
X66322480Y-107611151D01*
X66332970Y-107633329D01*
X66341235Y-107656429D01*
X66347196Y-107680227D01*
X66350796Y-107704496D01*
X66352000Y-107729000D01*
X66352000Y-108679000D01*
X66350796Y-108703504D01*
X66347196Y-108727773D01*
X66341235Y-108751571D01*
X66332970Y-108774671D01*
X66322480Y-108796849D01*
X66309867Y-108817893D01*
X66295253Y-108837598D01*
X66278777Y-108855777D01*
X66260598Y-108872253D01*
X66240893Y-108886867D01*
X66219849Y-108899480D01*
X66197671Y-108909970D01*
X66174571Y-108918235D01*
X66150773Y-108924196D01*
X66126504Y-108927796D01*
X66102000Y-108929000D01*
X65602000Y-108929000D01*
X65577496Y-108927796D01*
X65553227Y-108924196D01*
X65529429Y-108918235D01*
X65506329Y-108909970D01*
X65484151Y-108899480D01*
X65463107Y-108886867D01*
X65443402Y-108872253D01*
X65425223Y-108855777D01*
X65408747Y-108837598D01*
X65394133Y-108817893D01*
X65381520Y-108796849D01*
X65371030Y-108774671D01*
X65362765Y-108751571D01*
X65356804Y-108727773D01*
X65353204Y-108703504D01*
X65352000Y-108679000D01*
X65352000Y-107729000D01*
X65353204Y-107704496D01*
X65356804Y-107680227D01*
X65362765Y-107656429D01*
X65371030Y-107633329D01*
X65381520Y-107611151D01*
X65394133Y-107590107D01*
X65408747Y-107570402D01*
X65425223Y-107552223D01*
X65443402Y-107535747D01*
X65463107Y-107521133D01*
X65484151Y-107508520D01*
X65506329Y-107498030D01*
X65529429Y-107489765D01*
X65553227Y-107483804D01*
X65577496Y-107480204D01*
X65602000Y-107479000D01*
X66102000Y-107479000D01*
X66126504Y-107480204D01*
G37*
G36*
X65994504Y-103162204D02*
G01*
X66018773Y-103165804D01*
X66042571Y-103171765D01*
X66065671Y-103180030D01*
X66087849Y-103190520D01*
X66108893Y-103203133D01*
X66128598Y-103217747D01*
X66146777Y-103234223D01*
X66163253Y-103252402D01*
X66177867Y-103272107D01*
X66190480Y-103293151D01*
X66200970Y-103315329D01*
X66209235Y-103338429D01*
X66215196Y-103362227D01*
X66218796Y-103386496D01*
X66220000Y-103411000D01*
X66220000Y-104361000D01*
X66218796Y-104385504D01*
X66215196Y-104409773D01*
X66209235Y-104433571D01*
X66200970Y-104456671D01*
X66190480Y-104478849D01*
X66177867Y-104499893D01*
X66163253Y-104519598D01*
X66146777Y-104537777D01*
X66128598Y-104554253D01*
X66108893Y-104568867D01*
X66087849Y-104581480D01*
X66065671Y-104591970D01*
X66042571Y-104600235D01*
X66018773Y-104606196D01*
X65994504Y-104609796D01*
X65970000Y-104611000D01*
X65470000Y-104611000D01*
X65445496Y-104609796D01*
X65421227Y-104606196D01*
X65397429Y-104600235D01*
X65374329Y-104591970D01*
X65352151Y-104581480D01*
X65331107Y-104568867D01*
X65311402Y-104554253D01*
X65293223Y-104537777D01*
X65276747Y-104519598D01*
X65262133Y-104499893D01*
X65249520Y-104478849D01*
X65239030Y-104456671D01*
X65230765Y-104433571D01*
X65224804Y-104409773D01*
X65221204Y-104385504D01*
X65220000Y-104361000D01*
X65220000Y-103411000D01*
X65221204Y-103386496D01*
X65224804Y-103362227D01*
X65230765Y-103338429D01*
X65239030Y-103315329D01*
X65249520Y-103293151D01*
X65262133Y-103272107D01*
X65276747Y-103252402D01*
X65293223Y-103234223D01*
X65311402Y-103217747D01*
X65331107Y-103203133D01*
X65352151Y-103190520D01*
X65374329Y-103180030D01*
X65397429Y-103171765D01*
X65421227Y-103165804D01*
X65445496Y-103162204D01*
X65470000Y-103161000D01*
X65970000Y-103161000D01*
X65994504Y-103162204D01*
G37*
G36*
X64094504Y-103162204D02*
G01*
X64118773Y-103165804D01*
X64142571Y-103171765D01*
X64165671Y-103180030D01*
X64187849Y-103190520D01*
X64208893Y-103203133D01*
X64228598Y-103217747D01*
X64246777Y-103234223D01*
X64263253Y-103252402D01*
X64277867Y-103272107D01*
X64290480Y-103293151D01*
X64300970Y-103315329D01*
X64309235Y-103338429D01*
X64315196Y-103362227D01*
X64318796Y-103386496D01*
X64320000Y-103411000D01*
X64320000Y-104361000D01*
X64318796Y-104385504D01*
X64315196Y-104409773D01*
X64309235Y-104433571D01*
X64300970Y-104456671D01*
X64290480Y-104478849D01*
X64277867Y-104499893D01*
X64263253Y-104519598D01*
X64246777Y-104537777D01*
X64228598Y-104554253D01*
X64208893Y-104568867D01*
X64187849Y-104581480D01*
X64165671Y-104591970D01*
X64142571Y-104600235D01*
X64118773Y-104606196D01*
X64094504Y-104609796D01*
X64070000Y-104611000D01*
X63570000Y-104611000D01*
X63545496Y-104609796D01*
X63521227Y-104606196D01*
X63497429Y-104600235D01*
X63474329Y-104591970D01*
X63452151Y-104581480D01*
X63431107Y-104568867D01*
X63411402Y-104554253D01*
X63393223Y-104537777D01*
X63376747Y-104519598D01*
X63362133Y-104499893D01*
X63349520Y-104478849D01*
X63339030Y-104456671D01*
X63330765Y-104433571D01*
X63324804Y-104409773D01*
X63321204Y-104385504D01*
X63320000Y-104361000D01*
X63320000Y-103411000D01*
X63321204Y-103386496D01*
X63324804Y-103362227D01*
X63330765Y-103338429D01*
X63339030Y-103315329D01*
X63349520Y-103293151D01*
X63362133Y-103272107D01*
X63376747Y-103252402D01*
X63393223Y-103234223D01*
X63411402Y-103217747D01*
X63431107Y-103203133D01*
X63452151Y-103190520D01*
X63474329Y-103180030D01*
X63497429Y-103171765D01*
X63521227Y-103165804D01*
X63545496Y-103162204D01*
X63570000Y-103161000D01*
X64070000Y-103161000D01*
X64094504Y-103162204D01*
G37*
D11*
X48600000Y-106000000D03*
X48600000Y-105050000D03*
X48600000Y-106950000D03*
X46400000Y-106950000D03*
X46400000Y-106000000D03*
X46400000Y-105050000D03*
D10*
G36*
X57434703Y-109425722D02*
G01*
X57449264Y-109427882D01*
X57463543Y-109431459D01*
X57477403Y-109436418D01*
X57490710Y-109442712D01*
X57503336Y-109450280D01*
X57515159Y-109459048D01*
X57526066Y-109468934D01*
X57535952Y-109479841D01*
X57544720Y-109491664D01*
X57552288Y-109504290D01*
X57558582Y-109517597D01*
X57563541Y-109531457D01*
X57567118Y-109545736D01*
X57569278Y-109560297D01*
X57570000Y-109575000D01*
X57570000Y-110750000D01*
X57569278Y-110764703D01*
X57567118Y-110779264D01*
X57563541Y-110793543D01*
X57558582Y-110807403D01*
X57552288Y-110820710D01*
X57544720Y-110833336D01*
X57535952Y-110845159D01*
X57526066Y-110856066D01*
X57515159Y-110865952D01*
X57503336Y-110874720D01*
X57490710Y-110882288D01*
X57477403Y-110888582D01*
X57463543Y-110893541D01*
X57449264Y-110897118D01*
X57434703Y-110899278D01*
X57420000Y-110900000D01*
X57120000Y-110900000D01*
X57105297Y-110899278D01*
X57090736Y-110897118D01*
X57076457Y-110893541D01*
X57062597Y-110888582D01*
X57049290Y-110882288D01*
X57036664Y-110874720D01*
X57024841Y-110865952D01*
X57013934Y-110856066D01*
X57004048Y-110845159D01*
X56995280Y-110833336D01*
X56987712Y-110820710D01*
X56981418Y-110807403D01*
X56976459Y-110793543D01*
X56972882Y-110779264D01*
X56970722Y-110764703D01*
X56970000Y-110750000D01*
X56970000Y-109575000D01*
X56970722Y-109560297D01*
X56972882Y-109545736D01*
X56976459Y-109531457D01*
X56981418Y-109517597D01*
X56987712Y-109504290D01*
X56995280Y-109491664D01*
X57004048Y-109479841D01*
X57013934Y-109468934D01*
X57024841Y-109459048D01*
X57036664Y-109450280D01*
X57049290Y-109442712D01*
X57062597Y-109436418D01*
X57076457Y-109431459D01*
X57090736Y-109427882D01*
X57105297Y-109425722D01*
X57120000Y-109425000D01*
X57420000Y-109425000D01*
X57434703Y-109425722D01*
G37*
G36*
X58704703Y-109425722D02*
G01*
X58719264Y-109427882D01*
X58733543Y-109431459D01*
X58747403Y-109436418D01*
X58760710Y-109442712D01*
X58773336Y-109450280D01*
X58785159Y-109459048D01*
X58796066Y-109468934D01*
X58805952Y-109479841D01*
X58814720Y-109491664D01*
X58822288Y-109504290D01*
X58828582Y-109517597D01*
X58833541Y-109531457D01*
X58837118Y-109545736D01*
X58839278Y-109560297D01*
X58840000Y-109575000D01*
X58840000Y-110750000D01*
X58839278Y-110764703D01*
X58837118Y-110779264D01*
X58833541Y-110793543D01*
X58828582Y-110807403D01*
X58822288Y-110820710D01*
X58814720Y-110833336D01*
X58805952Y-110845159D01*
X58796066Y-110856066D01*
X58785159Y-110865952D01*
X58773336Y-110874720D01*
X58760710Y-110882288D01*
X58747403Y-110888582D01*
X58733543Y-110893541D01*
X58719264Y-110897118D01*
X58704703Y-110899278D01*
X58690000Y-110900000D01*
X58390000Y-110900000D01*
X58375297Y-110899278D01*
X58360736Y-110897118D01*
X58346457Y-110893541D01*
X58332597Y-110888582D01*
X58319290Y-110882288D01*
X58306664Y-110874720D01*
X58294841Y-110865952D01*
X58283934Y-110856066D01*
X58274048Y-110845159D01*
X58265280Y-110833336D01*
X58257712Y-110820710D01*
X58251418Y-110807403D01*
X58246459Y-110793543D01*
X58242882Y-110779264D01*
X58240722Y-110764703D01*
X58240000Y-110750000D01*
X58240000Y-109575000D01*
X58240722Y-109560297D01*
X58242882Y-109545736D01*
X58246459Y-109531457D01*
X58251418Y-109517597D01*
X58257712Y-109504290D01*
X58265280Y-109491664D01*
X58274048Y-109479841D01*
X58283934Y-109468934D01*
X58294841Y-109459048D01*
X58306664Y-109450280D01*
X58319290Y-109442712D01*
X58332597Y-109436418D01*
X58346457Y-109431459D01*
X58360736Y-109427882D01*
X58375297Y-109425722D01*
X58390000Y-109425000D01*
X58690000Y-109425000D01*
X58704703Y-109425722D01*
G37*
G36*
X59974703Y-109425722D02*
G01*
X59989264Y-109427882D01*
X60003543Y-109431459D01*
X60017403Y-109436418D01*
X60030710Y-109442712D01*
X60043336Y-109450280D01*
X60055159Y-109459048D01*
X60066066Y-109468934D01*
X60075952Y-109479841D01*
X60084720Y-109491664D01*
X60092288Y-109504290D01*
X60098582Y-109517597D01*
X60103541Y-109531457D01*
X60107118Y-109545736D01*
X60109278Y-109560297D01*
X60110000Y-109575000D01*
X60110000Y-110750000D01*
X60109278Y-110764703D01*
X60107118Y-110779264D01*
X60103541Y-110793543D01*
X60098582Y-110807403D01*
X60092288Y-110820710D01*
X60084720Y-110833336D01*
X60075952Y-110845159D01*
X60066066Y-110856066D01*
X60055159Y-110865952D01*
X60043336Y-110874720D01*
X60030710Y-110882288D01*
X60017403Y-110888582D01*
X60003543Y-110893541D01*
X59989264Y-110897118D01*
X59974703Y-110899278D01*
X59960000Y-110900000D01*
X59660000Y-110900000D01*
X59645297Y-110899278D01*
X59630736Y-110897118D01*
X59616457Y-110893541D01*
X59602597Y-110888582D01*
X59589290Y-110882288D01*
X59576664Y-110874720D01*
X59564841Y-110865952D01*
X59553934Y-110856066D01*
X59544048Y-110845159D01*
X59535280Y-110833336D01*
X59527712Y-110820710D01*
X59521418Y-110807403D01*
X59516459Y-110793543D01*
X59512882Y-110779264D01*
X59510722Y-110764703D01*
X59510000Y-110750000D01*
X59510000Y-109575000D01*
X59510722Y-109560297D01*
X59512882Y-109545736D01*
X59516459Y-109531457D01*
X59521418Y-109517597D01*
X59527712Y-109504290D01*
X59535280Y-109491664D01*
X59544048Y-109479841D01*
X59553934Y-109468934D01*
X59564841Y-109459048D01*
X59576664Y-109450280D01*
X59589290Y-109442712D01*
X59602597Y-109436418D01*
X59616457Y-109431459D01*
X59630736Y-109427882D01*
X59645297Y-109425722D01*
X59660000Y-109425000D01*
X59960000Y-109425000D01*
X59974703Y-109425722D01*
G37*
G36*
X62164703Y-111620722D02*
G01*
X62179264Y-111622882D01*
X62193543Y-111626459D01*
X62207403Y-111631418D01*
X62220710Y-111637712D01*
X62233336Y-111645280D01*
X62245159Y-111654048D01*
X62256066Y-111663934D01*
X62265952Y-111674841D01*
X62274720Y-111686664D01*
X62282288Y-111699290D01*
X62288582Y-111712597D01*
X62293541Y-111726457D01*
X62297118Y-111740736D01*
X62299278Y-111755297D01*
X62300000Y-111770000D01*
X62300000Y-112070000D01*
X62299278Y-112084703D01*
X62297118Y-112099264D01*
X62293541Y-112113543D01*
X62288582Y-112127403D01*
X62282288Y-112140710D01*
X62274720Y-112153336D01*
X62265952Y-112165159D01*
X62256066Y-112176066D01*
X62245159Y-112185952D01*
X62233336Y-112194720D01*
X62220710Y-112202288D01*
X62207403Y-112208582D01*
X62193543Y-112213541D01*
X62179264Y-112217118D01*
X62164703Y-112219278D01*
X62150000Y-112220000D01*
X60975000Y-112220000D01*
X60960297Y-112219278D01*
X60945736Y-112217118D01*
X60931457Y-112213541D01*
X60917597Y-112208582D01*
X60904290Y-112202288D01*
X60891664Y-112194720D01*
X60879841Y-112185952D01*
X60868934Y-112176066D01*
X60859048Y-112165159D01*
X60850280Y-112153336D01*
X60842712Y-112140710D01*
X60836418Y-112127403D01*
X60831459Y-112113543D01*
X60827882Y-112099264D01*
X60825722Y-112084703D01*
X60825000Y-112070000D01*
X60825000Y-111770000D01*
X60825722Y-111755297D01*
X60827882Y-111740736D01*
X60831459Y-111726457D01*
X60836418Y-111712597D01*
X60842712Y-111699290D01*
X60850280Y-111686664D01*
X60859048Y-111674841D01*
X60868934Y-111663934D01*
X60879841Y-111654048D01*
X60891664Y-111645280D01*
X60904290Y-111637712D01*
X60917597Y-111631418D01*
X60931457Y-111626459D01*
X60945736Y-111622882D01*
X60960297Y-111620722D01*
X60975000Y-111620000D01*
X62150000Y-111620000D01*
X62164703Y-111620722D01*
G37*
G36*
X62164703Y-112890722D02*
G01*
X62179264Y-112892882D01*
X62193543Y-112896459D01*
X62207403Y-112901418D01*
X62220710Y-112907712D01*
X62233336Y-112915280D01*
X62245159Y-112924048D01*
X62256066Y-112933934D01*
X62265952Y-112944841D01*
X62274720Y-112956664D01*
X62282288Y-112969290D01*
X62288582Y-112982597D01*
X62293541Y-112996457D01*
X62297118Y-113010736D01*
X62299278Y-113025297D01*
X62300000Y-113040000D01*
X62300000Y-113340000D01*
X62299278Y-113354703D01*
X62297118Y-113369264D01*
X62293541Y-113383543D01*
X62288582Y-113397403D01*
X62282288Y-113410710D01*
X62274720Y-113423336D01*
X62265952Y-113435159D01*
X62256066Y-113446066D01*
X62245159Y-113455952D01*
X62233336Y-113464720D01*
X62220710Y-113472288D01*
X62207403Y-113478582D01*
X62193543Y-113483541D01*
X62179264Y-113487118D01*
X62164703Y-113489278D01*
X62150000Y-113490000D01*
X60975000Y-113490000D01*
X60960297Y-113489278D01*
X60945736Y-113487118D01*
X60931457Y-113483541D01*
X60917597Y-113478582D01*
X60904290Y-113472288D01*
X60891664Y-113464720D01*
X60879841Y-113455952D01*
X60868934Y-113446066D01*
X60859048Y-113435159D01*
X60850280Y-113423336D01*
X60842712Y-113410710D01*
X60836418Y-113397403D01*
X60831459Y-113383543D01*
X60827882Y-113369264D01*
X60825722Y-113354703D01*
X60825000Y-113340000D01*
X60825000Y-113040000D01*
X60825722Y-113025297D01*
X60827882Y-113010736D01*
X60831459Y-112996457D01*
X60836418Y-112982597D01*
X60842712Y-112969290D01*
X60850280Y-112956664D01*
X60859048Y-112944841D01*
X60868934Y-112933934D01*
X60879841Y-112924048D01*
X60891664Y-112915280D01*
X60904290Y-112907712D01*
X60917597Y-112901418D01*
X60931457Y-112896459D01*
X60945736Y-112892882D01*
X60960297Y-112890722D01*
X60975000Y-112890000D01*
X62150000Y-112890000D01*
X62164703Y-112890722D01*
G37*
G36*
X62164703Y-114160722D02*
G01*
X62179264Y-114162882D01*
X62193543Y-114166459D01*
X62207403Y-114171418D01*
X62220710Y-114177712D01*
X62233336Y-114185280D01*
X62245159Y-114194048D01*
X62256066Y-114203934D01*
X62265952Y-114214841D01*
X62274720Y-114226664D01*
X62282288Y-114239290D01*
X62288582Y-114252597D01*
X62293541Y-114266457D01*
X62297118Y-114280736D01*
X62299278Y-114295297D01*
X62300000Y-114310000D01*
X62300000Y-114610000D01*
X62299278Y-114624703D01*
X62297118Y-114639264D01*
X62293541Y-114653543D01*
X62288582Y-114667403D01*
X62282288Y-114680710D01*
X62274720Y-114693336D01*
X62265952Y-114705159D01*
X62256066Y-114716066D01*
X62245159Y-114725952D01*
X62233336Y-114734720D01*
X62220710Y-114742288D01*
X62207403Y-114748582D01*
X62193543Y-114753541D01*
X62179264Y-114757118D01*
X62164703Y-114759278D01*
X62150000Y-114760000D01*
X60975000Y-114760000D01*
X60960297Y-114759278D01*
X60945736Y-114757118D01*
X60931457Y-114753541D01*
X60917597Y-114748582D01*
X60904290Y-114742288D01*
X60891664Y-114734720D01*
X60879841Y-114725952D01*
X60868934Y-114716066D01*
X60859048Y-114705159D01*
X60850280Y-114693336D01*
X60842712Y-114680710D01*
X60836418Y-114667403D01*
X60831459Y-114653543D01*
X60827882Y-114639264D01*
X60825722Y-114624703D01*
X60825000Y-114610000D01*
X60825000Y-114310000D01*
X60825722Y-114295297D01*
X60827882Y-114280736D01*
X60831459Y-114266457D01*
X60836418Y-114252597D01*
X60842712Y-114239290D01*
X60850280Y-114226664D01*
X60859048Y-114214841D01*
X60868934Y-114203934D01*
X60879841Y-114194048D01*
X60891664Y-114185280D01*
X60904290Y-114177712D01*
X60917597Y-114171418D01*
X60931457Y-114166459D01*
X60945736Y-114162882D01*
X60960297Y-114160722D01*
X60975000Y-114160000D01*
X62150000Y-114160000D01*
X62164703Y-114160722D01*
G37*
G36*
X62164703Y-115430722D02*
G01*
X62179264Y-115432882D01*
X62193543Y-115436459D01*
X62207403Y-115441418D01*
X62220710Y-115447712D01*
X62233336Y-115455280D01*
X62245159Y-115464048D01*
X62256066Y-115473934D01*
X62265952Y-115484841D01*
X62274720Y-115496664D01*
X62282288Y-115509290D01*
X62288582Y-115522597D01*
X62293541Y-115536457D01*
X62297118Y-115550736D01*
X62299278Y-115565297D01*
X62300000Y-115580000D01*
X62300000Y-115880000D01*
X62299278Y-115894703D01*
X62297118Y-115909264D01*
X62293541Y-115923543D01*
X62288582Y-115937403D01*
X62282288Y-115950710D01*
X62274720Y-115963336D01*
X62265952Y-115975159D01*
X62256066Y-115986066D01*
X62245159Y-115995952D01*
X62233336Y-116004720D01*
X62220710Y-116012288D01*
X62207403Y-116018582D01*
X62193543Y-116023541D01*
X62179264Y-116027118D01*
X62164703Y-116029278D01*
X62150000Y-116030000D01*
X60975000Y-116030000D01*
X60960297Y-116029278D01*
X60945736Y-116027118D01*
X60931457Y-116023541D01*
X60917597Y-116018582D01*
X60904290Y-116012288D01*
X60891664Y-116004720D01*
X60879841Y-115995952D01*
X60868934Y-115986066D01*
X60859048Y-115975159D01*
X60850280Y-115963336D01*
X60842712Y-115950710D01*
X60836418Y-115937403D01*
X60831459Y-115923543D01*
X60827882Y-115909264D01*
X60825722Y-115894703D01*
X60825000Y-115880000D01*
X60825000Y-115580000D01*
X60825722Y-115565297D01*
X60827882Y-115550736D01*
X60831459Y-115536457D01*
X60836418Y-115522597D01*
X60842712Y-115509290D01*
X60850280Y-115496664D01*
X60859048Y-115484841D01*
X60868934Y-115473934D01*
X60879841Y-115464048D01*
X60891664Y-115455280D01*
X60904290Y-115447712D01*
X60917597Y-115441418D01*
X60931457Y-115436459D01*
X60945736Y-115432882D01*
X60960297Y-115430722D01*
X60975000Y-115430000D01*
X62150000Y-115430000D01*
X62164703Y-115430722D01*
G37*
G36*
X62164703Y-116700722D02*
G01*
X62179264Y-116702882D01*
X62193543Y-116706459D01*
X62207403Y-116711418D01*
X62220710Y-116717712D01*
X62233336Y-116725280D01*
X62245159Y-116734048D01*
X62256066Y-116743934D01*
X62265952Y-116754841D01*
X62274720Y-116766664D01*
X62282288Y-116779290D01*
X62288582Y-116792597D01*
X62293541Y-116806457D01*
X62297118Y-116820736D01*
X62299278Y-116835297D01*
X62300000Y-116850000D01*
X62300000Y-117150000D01*
X62299278Y-117164703D01*
X62297118Y-117179264D01*
X62293541Y-117193543D01*
X62288582Y-117207403D01*
X62282288Y-117220710D01*
X62274720Y-117233336D01*
X62265952Y-117245159D01*
X62256066Y-117256066D01*
X62245159Y-117265952D01*
X62233336Y-117274720D01*
X62220710Y-117282288D01*
X62207403Y-117288582D01*
X62193543Y-117293541D01*
X62179264Y-117297118D01*
X62164703Y-117299278D01*
X62150000Y-117300000D01*
X60975000Y-117300000D01*
X60960297Y-117299278D01*
X60945736Y-117297118D01*
X60931457Y-117293541D01*
X60917597Y-117288582D01*
X60904290Y-117282288D01*
X60891664Y-117274720D01*
X60879841Y-117265952D01*
X60868934Y-117256066D01*
X60859048Y-117245159D01*
X60850280Y-117233336D01*
X60842712Y-117220710D01*
X60836418Y-117207403D01*
X60831459Y-117193543D01*
X60827882Y-117179264D01*
X60825722Y-117164703D01*
X60825000Y-117150000D01*
X60825000Y-116850000D01*
X60825722Y-116835297D01*
X60827882Y-116820736D01*
X60831459Y-116806457D01*
X60836418Y-116792597D01*
X60842712Y-116779290D01*
X60850280Y-116766664D01*
X60859048Y-116754841D01*
X60868934Y-116743934D01*
X60879841Y-116734048D01*
X60891664Y-116725280D01*
X60904290Y-116717712D01*
X60917597Y-116711418D01*
X60931457Y-116706459D01*
X60945736Y-116702882D01*
X60960297Y-116700722D01*
X60975000Y-116700000D01*
X62150000Y-116700000D01*
X62164703Y-116700722D01*
G37*
G36*
X62164703Y-117970722D02*
G01*
X62179264Y-117972882D01*
X62193543Y-117976459D01*
X62207403Y-117981418D01*
X62220710Y-117987712D01*
X62233336Y-117995280D01*
X62245159Y-118004048D01*
X62256066Y-118013934D01*
X62265952Y-118024841D01*
X62274720Y-118036664D01*
X62282288Y-118049290D01*
X62288582Y-118062597D01*
X62293541Y-118076457D01*
X62297118Y-118090736D01*
X62299278Y-118105297D01*
X62300000Y-118120000D01*
X62300000Y-118420000D01*
X62299278Y-118434703D01*
X62297118Y-118449264D01*
X62293541Y-118463543D01*
X62288582Y-118477403D01*
X62282288Y-118490710D01*
X62274720Y-118503336D01*
X62265952Y-118515159D01*
X62256066Y-118526066D01*
X62245159Y-118535952D01*
X62233336Y-118544720D01*
X62220710Y-118552288D01*
X62207403Y-118558582D01*
X62193543Y-118563541D01*
X62179264Y-118567118D01*
X62164703Y-118569278D01*
X62150000Y-118570000D01*
X60975000Y-118570000D01*
X60960297Y-118569278D01*
X60945736Y-118567118D01*
X60931457Y-118563541D01*
X60917597Y-118558582D01*
X60904290Y-118552288D01*
X60891664Y-118544720D01*
X60879841Y-118535952D01*
X60868934Y-118526066D01*
X60859048Y-118515159D01*
X60850280Y-118503336D01*
X60842712Y-118490710D01*
X60836418Y-118477403D01*
X60831459Y-118463543D01*
X60827882Y-118449264D01*
X60825722Y-118434703D01*
X60825000Y-118420000D01*
X60825000Y-118120000D01*
X60825722Y-118105297D01*
X60827882Y-118090736D01*
X60831459Y-118076457D01*
X60836418Y-118062597D01*
X60842712Y-118049290D01*
X60850280Y-118036664D01*
X60859048Y-118024841D01*
X60868934Y-118013934D01*
X60879841Y-118004048D01*
X60891664Y-117995280D01*
X60904290Y-117987712D01*
X60917597Y-117981418D01*
X60931457Y-117976459D01*
X60945736Y-117972882D01*
X60960297Y-117970722D01*
X60975000Y-117970000D01*
X62150000Y-117970000D01*
X62164703Y-117970722D01*
G37*
G36*
X62164703Y-119240722D02*
G01*
X62179264Y-119242882D01*
X62193543Y-119246459D01*
X62207403Y-119251418D01*
X62220710Y-119257712D01*
X62233336Y-119265280D01*
X62245159Y-119274048D01*
X62256066Y-119283934D01*
X62265952Y-119294841D01*
X62274720Y-119306664D01*
X62282288Y-119319290D01*
X62288582Y-119332597D01*
X62293541Y-119346457D01*
X62297118Y-119360736D01*
X62299278Y-119375297D01*
X62300000Y-119390000D01*
X62300000Y-119690000D01*
X62299278Y-119704703D01*
X62297118Y-119719264D01*
X62293541Y-119733543D01*
X62288582Y-119747403D01*
X62282288Y-119760710D01*
X62274720Y-119773336D01*
X62265952Y-119785159D01*
X62256066Y-119796066D01*
X62245159Y-119805952D01*
X62233336Y-119814720D01*
X62220710Y-119822288D01*
X62207403Y-119828582D01*
X62193543Y-119833541D01*
X62179264Y-119837118D01*
X62164703Y-119839278D01*
X62150000Y-119840000D01*
X60975000Y-119840000D01*
X60960297Y-119839278D01*
X60945736Y-119837118D01*
X60931457Y-119833541D01*
X60917597Y-119828582D01*
X60904290Y-119822288D01*
X60891664Y-119814720D01*
X60879841Y-119805952D01*
X60868934Y-119796066D01*
X60859048Y-119785159D01*
X60850280Y-119773336D01*
X60842712Y-119760710D01*
X60836418Y-119747403D01*
X60831459Y-119733543D01*
X60827882Y-119719264D01*
X60825722Y-119704703D01*
X60825000Y-119690000D01*
X60825000Y-119390000D01*
X60825722Y-119375297D01*
X60827882Y-119360736D01*
X60831459Y-119346457D01*
X60836418Y-119332597D01*
X60842712Y-119319290D01*
X60850280Y-119306664D01*
X60859048Y-119294841D01*
X60868934Y-119283934D01*
X60879841Y-119274048D01*
X60891664Y-119265280D01*
X60904290Y-119257712D01*
X60917597Y-119251418D01*
X60931457Y-119246459D01*
X60945736Y-119242882D01*
X60960297Y-119240722D01*
X60975000Y-119240000D01*
X62150000Y-119240000D01*
X62164703Y-119240722D01*
G37*
G36*
X62164703Y-120510722D02*
G01*
X62179264Y-120512882D01*
X62193543Y-120516459D01*
X62207403Y-120521418D01*
X62220710Y-120527712D01*
X62233336Y-120535280D01*
X62245159Y-120544048D01*
X62256066Y-120553934D01*
X62265952Y-120564841D01*
X62274720Y-120576664D01*
X62282288Y-120589290D01*
X62288582Y-120602597D01*
X62293541Y-120616457D01*
X62297118Y-120630736D01*
X62299278Y-120645297D01*
X62300000Y-120660000D01*
X62300000Y-120960000D01*
X62299278Y-120974703D01*
X62297118Y-120989264D01*
X62293541Y-121003543D01*
X62288582Y-121017403D01*
X62282288Y-121030710D01*
X62274720Y-121043336D01*
X62265952Y-121055159D01*
X62256066Y-121066066D01*
X62245159Y-121075952D01*
X62233336Y-121084720D01*
X62220710Y-121092288D01*
X62207403Y-121098582D01*
X62193543Y-121103541D01*
X62179264Y-121107118D01*
X62164703Y-121109278D01*
X62150000Y-121110000D01*
X60975000Y-121110000D01*
X60960297Y-121109278D01*
X60945736Y-121107118D01*
X60931457Y-121103541D01*
X60917597Y-121098582D01*
X60904290Y-121092288D01*
X60891664Y-121084720D01*
X60879841Y-121075952D01*
X60868934Y-121066066D01*
X60859048Y-121055159D01*
X60850280Y-121043336D01*
X60842712Y-121030710D01*
X60836418Y-121017403D01*
X60831459Y-121003543D01*
X60827882Y-120989264D01*
X60825722Y-120974703D01*
X60825000Y-120960000D01*
X60825000Y-120660000D01*
X60825722Y-120645297D01*
X60827882Y-120630736D01*
X60831459Y-120616457D01*
X60836418Y-120602597D01*
X60842712Y-120589290D01*
X60850280Y-120576664D01*
X60859048Y-120564841D01*
X60868934Y-120553934D01*
X60879841Y-120544048D01*
X60891664Y-120535280D01*
X60904290Y-120527712D01*
X60917597Y-120521418D01*
X60931457Y-120516459D01*
X60945736Y-120512882D01*
X60960297Y-120510722D01*
X60975000Y-120510000D01*
X62150000Y-120510000D01*
X62164703Y-120510722D01*
G37*
G36*
X62164703Y-121780722D02*
G01*
X62179264Y-121782882D01*
X62193543Y-121786459D01*
X62207403Y-121791418D01*
X62220710Y-121797712D01*
X62233336Y-121805280D01*
X62245159Y-121814048D01*
X62256066Y-121823934D01*
X62265952Y-121834841D01*
X62274720Y-121846664D01*
X62282288Y-121859290D01*
X62288582Y-121872597D01*
X62293541Y-121886457D01*
X62297118Y-121900736D01*
X62299278Y-121915297D01*
X62300000Y-121930000D01*
X62300000Y-122230000D01*
X62299278Y-122244703D01*
X62297118Y-122259264D01*
X62293541Y-122273543D01*
X62288582Y-122287403D01*
X62282288Y-122300710D01*
X62274720Y-122313336D01*
X62265952Y-122325159D01*
X62256066Y-122336066D01*
X62245159Y-122345952D01*
X62233336Y-122354720D01*
X62220710Y-122362288D01*
X62207403Y-122368582D01*
X62193543Y-122373541D01*
X62179264Y-122377118D01*
X62164703Y-122379278D01*
X62150000Y-122380000D01*
X60975000Y-122380000D01*
X60960297Y-122379278D01*
X60945736Y-122377118D01*
X60931457Y-122373541D01*
X60917597Y-122368582D01*
X60904290Y-122362288D01*
X60891664Y-122354720D01*
X60879841Y-122345952D01*
X60868934Y-122336066D01*
X60859048Y-122325159D01*
X60850280Y-122313336D01*
X60842712Y-122300710D01*
X60836418Y-122287403D01*
X60831459Y-122273543D01*
X60827882Y-122259264D01*
X60825722Y-122244703D01*
X60825000Y-122230000D01*
X60825000Y-121930000D01*
X60825722Y-121915297D01*
X60827882Y-121900736D01*
X60831459Y-121886457D01*
X60836418Y-121872597D01*
X60842712Y-121859290D01*
X60850280Y-121846664D01*
X60859048Y-121834841D01*
X60868934Y-121823934D01*
X60879841Y-121814048D01*
X60891664Y-121805280D01*
X60904290Y-121797712D01*
X60917597Y-121791418D01*
X60931457Y-121786459D01*
X60945736Y-121782882D01*
X60960297Y-121780722D01*
X60975000Y-121780000D01*
X62150000Y-121780000D01*
X62164703Y-121780722D01*
G37*
G36*
X59974703Y-123100722D02*
G01*
X59989264Y-123102882D01*
X60003543Y-123106459D01*
X60017403Y-123111418D01*
X60030710Y-123117712D01*
X60043336Y-123125280D01*
X60055159Y-123134048D01*
X60066066Y-123143934D01*
X60075952Y-123154841D01*
X60084720Y-123166664D01*
X60092288Y-123179290D01*
X60098582Y-123192597D01*
X60103541Y-123206457D01*
X60107118Y-123220736D01*
X60109278Y-123235297D01*
X60110000Y-123250000D01*
X60110000Y-124425000D01*
X60109278Y-124439703D01*
X60107118Y-124454264D01*
X60103541Y-124468543D01*
X60098582Y-124482403D01*
X60092288Y-124495710D01*
X60084720Y-124508336D01*
X60075952Y-124520159D01*
X60066066Y-124531066D01*
X60055159Y-124540952D01*
X60043336Y-124549720D01*
X60030710Y-124557288D01*
X60017403Y-124563582D01*
X60003543Y-124568541D01*
X59989264Y-124572118D01*
X59974703Y-124574278D01*
X59960000Y-124575000D01*
X59660000Y-124575000D01*
X59645297Y-124574278D01*
X59630736Y-124572118D01*
X59616457Y-124568541D01*
X59602597Y-124563582D01*
X59589290Y-124557288D01*
X59576664Y-124549720D01*
X59564841Y-124540952D01*
X59553934Y-124531066D01*
X59544048Y-124520159D01*
X59535280Y-124508336D01*
X59527712Y-124495710D01*
X59521418Y-124482403D01*
X59516459Y-124468543D01*
X59512882Y-124454264D01*
X59510722Y-124439703D01*
X59510000Y-124425000D01*
X59510000Y-123250000D01*
X59510722Y-123235297D01*
X59512882Y-123220736D01*
X59516459Y-123206457D01*
X59521418Y-123192597D01*
X59527712Y-123179290D01*
X59535280Y-123166664D01*
X59544048Y-123154841D01*
X59553934Y-123143934D01*
X59564841Y-123134048D01*
X59576664Y-123125280D01*
X59589290Y-123117712D01*
X59602597Y-123111418D01*
X59616457Y-123106459D01*
X59630736Y-123102882D01*
X59645297Y-123100722D01*
X59660000Y-123100000D01*
X59960000Y-123100000D01*
X59974703Y-123100722D01*
G37*
G36*
X58704703Y-123100722D02*
G01*
X58719264Y-123102882D01*
X58733543Y-123106459D01*
X58747403Y-123111418D01*
X58760710Y-123117712D01*
X58773336Y-123125280D01*
X58785159Y-123134048D01*
X58796066Y-123143934D01*
X58805952Y-123154841D01*
X58814720Y-123166664D01*
X58822288Y-123179290D01*
X58828582Y-123192597D01*
X58833541Y-123206457D01*
X58837118Y-123220736D01*
X58839278Y-123235297D01*
X58840000Y-123250000D01*
X58840000Y-124425000D01*
X58839278Y-124439703D01*
X58837118Y-124454264D01*
X58833541Y-124468543D01*
X58828582Y-124482403D01*
X58822288Y-124495710D01*
X58814720Y-124508336D01*
X58805952Y-124520159D01*
X58796066Y-124531066D01*
X58785159Y-124540952D01*
X58773336Y-124549720D01*
X58760710Y-124557288D01*
X58747403Y-124563582D01*
X58733543Y-124568541D01*
X58719264Y-124572118D01*
X58704703Y-124574278D01*
X58690000Y-124575000D01*
X58390000Y-124575000D01*
X58375297Y-124574278D01*
X58360736Y-124572118D01*
X58346457Y-124568541D01*
X58332597Y-124563582D01*
X58319290Y-124557288D01*
X58306664Y-124549720D01*
X58294841Y-124540952D01*
X58283934Y-124531066D01*
X58274048Y-124520159D01*
X58265280Y-124508336D01*
X58257712Y-124495710D01*
X58251418Y-124482403D01*
X58246459Y-124468543D01*
X58242882Y-124454264D01*
X58240722Y-124439703D01*
X58240000Y-124425000D01*
X58240000Y-123250000D01*
X58240722Y-123235297D01*
X58242882Y-123220736D01*
X58246459Y-123206457D01*
X58251418Y-123192597D01*
X58257712Y-123179290D01*
X58265280Y-123166664D01*
X58274048Y-123154841D01*
X58283934Y-123143934D01*
X58294841Y-123134048D01*
X58306664Y-123125280D01*
X58319290Y-123117712D01*
X58332597Y-123111418D01*
X58346457Y-123106459D01*
X58360736Y-123102882D01*
X58375297Y-123100722D01*
X58390000Y-123100000D01*
X58690000Y-123100000D01*
X58704703Y-123100722D01*
G37*
G36*
X57434703Y-123100722D02*
G01*
X57449264Y-123102882D01*
X57463543Y-123106459D01*
X57477403Y-123111418D01*
X57490710Y-123117712D01*
X57503336Y-123125280D01*
X57515159Y-123134048D01*
X57526066Y-123143934D01*
X57535952Y-123154841D01*
X57544720Y-123166664D01*
X57552288Y-123179290D01*
X57558582Y-123192597D01*
X57563541Y-123206457D01*
X57567118Y-123220736D01*
X57569278Y-123235297D01*
X57570000Y-123250000D01*
X57570000Y-124425000D01*
X57569278Y-124439703D01*
X57567118Y-124454264D01*
X57563541Y-124468543D01*
X57558582Y-124482403D01*
X57552288Y-124495710D01*
X57544720Y-124508336D01*
X57535952Y-124520159D01*
X57526066Y-124531066D01*
X57515159Y-124540952D01*
X57503336Y-124549720D01*
X57490710Y-124557288D01*
X57477403Y-124563582D01*
X57463543Y-124568541D01*
X57449264Y-124572118D01*
X57434703Y-124574278D01*
X57420000Y-124575000D01*
X57120000Y-124575000D01*
X57105297Y-124574278D01*
X57090736Y-124572118D01*
X57076457Y-124568541D01*
X57062597Y-124563582D01*
X57049290Y-124557288D01*
X57036664Y-124549720D01*
X57024841Y-124540952D01*
X57013934Y-124531066D01*
X57004048Y-124520159D01*
X56995280Y-124508336D01*
X56987712Y-124495710D01*
X56981418Y-124482403D01*
X56976459Y-124468543D01*
X56972882Y-124454264D01*
X56970722Y-124439703D01*
X56970000Y-124425000D01*
X56970000Y-123250000D01*
X56970722Y-123235297D01*
X56972882Y-123220736D01*
X56976459Y-123206457D01*
X56981418Y-123192597D01*
X56987712Y-123179290D01*
X56995280Y-123166664D01*
X57004048Y-123154841D01*
X57013934Y-123143934D01*
X57024841Y-123134048D01*
X57036664Y-123125280D01*
X57049290Y-123117712D01*
X57062597Y-123111418D01*
X57076457Y-123106459D01*
X57090736Y-123102882D01*
X57105297Y-123100722D01*
X57120000Y-123100000D01*
X57420000Y-123100000D01*
X57434703Y-123100722D01*
G37*
G36*
X56164703Y-123100722D02*
G01*
X56179264Y-123102882D01*
X56193543Y-123106459D01*
X56207403Y-123111418D01*
X56220710Y-123117712D01*
X56233336Y-123125280D01*
X56245159Y-123134048D01*
X56256066Y-123143934D01*
X56265952Y-123154841D01*
X56274720Y-123166664D01*
X56282288Y-123179290D01*
X56288582Y-123192597D01*
X56293541Y-123206457D01*
X56297118Y-123220736D01*
X56299278Y-123235297D01*
X56300000Y-123250000D01*
X56300000Y-124425000D01*
X56299278Y-124439703D01*
X56297118Y-124454264D01*
X56293541Y-124468543D01*
X56288582Y-124482403D01*
X56282288Y-124495710D01*
X56274720Y-124508336D01*
X56265952Y-124520159D01*
X56256066Y-124531066D01*
X56245159Y-124540952D01*
X56233336Y-124549720D01*
X56220710Y-124557288D01*
X56207403Y-124563582D01*
X56193543Y-124568541D01*
X56179264Y-124572118D01*
X56164703Y-124574278D01*
X56150000Y-124575000D01*
X55850000Y-124575000D01*
X55835297Y-124574278D01*
X55820736Y-124572118D01*
X55806457Y-124568541D01*
X55792597Y-124563582D01*
X55779290Y-124557288D01*
X55766664Y-124549720D01*
X55754841Y-124540952D01*
X55743934Y-124531066D01*
X55734048Y-124520159D01*
X55725280Y-124508336D01*
X55717712Y-124495710D01*
X55711418Y-124482403D01*
X55706459Y-124468543D01*
X55702882Y-124454264D01*
X55700722Y-124439703D01*
X55700000Y-124425000D01*
X55700000Y-123250000D01*
X55700722Y-123235297D01*
X55702882Y-123220736D01*
X55706459Y-123206457D01*
X55711418Y-123192597D01*
X55717712Y-123179290D01*
X55725280Y-123166664D01*
X55734048Y-123154841D01*
X55743934Y-123143934D01*
X55754841Y-123134048D01*
X55766664Y-123125280D01*
X55779290Y-123117712D01*
X55792597Y-123111418D01*
X55806457Y-123106459D01*
X55820736Y-123102882D01*
X55835297Y-123100722D01*
X55850000Y-123100000D01*
X56150000Y-123100000D01*
X56164703Y-123100722D01*
G37*
G36*
X54894703Y-123100722D02*
G01*
X54909264Y-123102882D01*
X54923543Y-123106459D01*
X54937403Y-123111418D01*
X54950710Y-123117712D01*
X54963336Y-123125280D01*
X54975159Y-123134048D01*
X54986066Y-123143934D01*
X54995952Y-123154841D01*
X55004720Y-123166664D01*
X55012288Y-123179290D01*
X55018582Y-123192597D01*
X55023541Y-123206457D01*
X55027118Y-123220736D01*
X55029278Y-123235297D01*
X55030000Y-123250000D01*
X55030000Y-124425000D01*
X55029278Y-124439703D01*
X55027118Y-124454264D01*
X55023541Y-124468543D01*
X55018582Y-124482403D01*
X55012288Y-124495710D01*
X55004720Y-124508336D01*
X54995952Y-124520159D01*
X54986066Y-124531066D01*
X54975159Y-124540952D01*
X54963336Y-124549720D01*
X54950710Y-124557288D01*
X54937403Y-124563582D01*
X54923543Y-124568541D01*
X54909264Y-124572118D01*
X54894703Y-124574278D01*
X54880000Y-124575000D01*
X54580000Y-124575000D01*
X54565297Y-124574278D01*
X54550736Y-124572118D01*
X54536457Y-124568541D01*
X54522597Y-124563582D01*
X54509290Y-124557288D01*
X54496664Y-124549720D01*
X54484841Y-124540952D01*
X54473934Y-124531066D01*
X54464048Y-124520159D01*
X54455280Y-124508336D01*
X54447712Y-124495710D01*
X54441418Y-124482403D01*
X54436459Y-124468543D01*
X54432882Y-124454264D01*
X54430722Y-124439703D01*
X54430000Y-124425000D01*
X54430000Y-123250000D01*
X54430722Y-123235297D01*
X54432882Y-123220736D01*
X54436459Y-123206457D01*
X54441418Y-123192597D01*
X54447712Y-123179290D01*
X54455280Y-123166664D01*
X54464048Y-123154841D01*
X54473934Y-123143934D01*
X54484841Y-123134048D01*
X54496664Y-123125280D01*
X54509290Y-123117712D01*
X54522597Y-123111418D01*
X54536457Y-123106459D01*
X54550736Y-123102882D01*
X54565297Y-123100722D01*
X54580000Y-123100000D01*
X54880000Y-123100000D01*
X54894703Y-123100722D01*
G37*
G36*
X53624703Y-123100722D02*
G01*
X53639264Y-123102882D01*
X53653543Y-123106459D01*
X53667403Y-123111418D01*
X53680710Y-123117712D01*
X53693336Y-123125280D01*
X53705159Y-123134048D01*
X53716066Y-123143934D01*
X53725952Y-123154841D01*
X53734720Y-123166664D01*
X53742288Y-123179290D01*
X53748582Y-123192597D01*
X53753541Y-123206457D01*
X53757118Y-123220736D01*
X53759278Y-123235297D01*
X53760000Y-123250000D01*
X53760000Y-124425000D01*
X53759278Y-124439703D01*
X53757118Y-124454264D01*
X53753541Y-124468543D01*
X53748582Y-124482403D01*
X53742288Y-124495710D01*
X53734720Y-124508336D01*
X53725952Y-124520159D01*
X53716066Y-124531066D01*
X53705159Y-124540952D01*
X53693336Y-124549720D01*
X53680710Y-124557288D01*
X53667403Y-124563582D01*
X53653543Y-124568541D01*
X53639264Y-124572118D01*
X53624703Y-124574278D01*
X53610000Y-124575000D01*
X53310000Y-124575000D01*
X53295297Y-124574278D01*
X53280736Y-124572118D01*
X53266457Y-124568541D01*
X53252597Y-124563582D01*
X53239290Y-124557288D01*
X53226664Y-124549720D01*
X53214841Y-124540952D01*
X53203934Y-124531066D01*
X53194048Y-124520159D01*
X53185280Y-124508336D01*
X53177712Y-124495710D01*
X53171418Y-124482403D01*
X53166459Y-124468543D01*
X53162882Y-124454264D01*
X53160722Y-124439703D01*
X53160000Y-124425000D01*
X53160000Y-123250000D01*
X53160722Y-123235297D01*
X53162882Y-123220736D01*
X53166459Y-123206457D01*
X53171418Y-123192597D01*
X53177712Y-123179290D01*
X53185280Y-123166664D01*
X53194048Y-123154841D01*
X53203934Y-123143934D01*
X53214841Y-123134048D01*
X53226664Y-123125280D01*
X53239290Y-123117712D01*
X53252597Y-123111418D01*
X53266457Y-123106459D01*
X53280736Y-123102882D01*
X53295297Y-123100722D01*
X53310000Y-123100000D01*
X53610000Y-123100000D01*
X53624703Y-123100722D01*
G37*
G36*
X52354703Y-123100722D02*
G01*
X52369264Y-123102882D01*
X52383543Y-123106459D01*
X52397403Y-123111418D01*
X52410710Y-123117712D01*
X52423336Y-123125280D01*
X52435159Y-123134048D01*
X52446066Y-123143934D01*
X52455952Y-123154841D01*
X52464720Y-123166664D01*
X52472288Y-123179290D01*
X52478582Y-123192597D01*
X52483541Y-123206457D01*
X52487118Y-123220736D01*
X52489278Y-123235297D01*
X52490000Y-123250000D01*
X52490000Y-124425000D01*
X52489278Y-124439703D01*
X52487118Y-124454264D01*
X52483541Y-124468543D01*
X52478582Y-124482403D01*
X52472288Y-124495710D01*
X52464720Y-124508336D01*
X52455952Y-124520159D01*
X52446066Y-124531066D01*
X52435159Y-124540952D01*
X52423336Y-124549720D01*
X52410710Y-124557288D01*
X52397403Y-124563582D01*
X52383543Y-124568541D01*
X52369264Y-124572118D01*
X52354703Y-124574278D01*
X52340000Y-124575000D01*
X52040000Y-124575000D01*
X52025297Y-124574278D01*
X52010736Y-124572118D01*
X51996457Y-124568541D01*
X51982597Y-124563582D01*
X51969290Y-124557288D01*
X51956664Y-124549720D01*
X51944841Y-124540952D01*
X51933934Y-124531066D01*
X51924048Y-124520159D01*
X51915280Y-124508336D01*
X51907712Y-124495710D01*
X51901418Y-124482403D01*
X51896459Y-124468543D01*
X51892882Y-124454264D01*
X51890722Y-124439703D01*
X51890000Y-124425000D01*
X51890000Y-123250000D01*
X51890722Y-123235297D01*
X51892882Y-123220736D01*
X51896459Y-123206457D01*
X51901418Y-123192597D01*
X51907712Y-123179290D01*
X51915280Y-123166664D01*
X51924048Y-123154841D01*
X51933934Y-123143934D01*
X51944841Y-123134048D01*
X51956664Y-123125280D01*
X51969290Y-123117712D01*
X51982597Y-123111418D01*
X51996457Y-123106459D01*
X52010736Y-123102882D01*
X52025297Y-123100722D01*
X52040000Y-123100000D01*
X52340000Y-123100000D01*
X52354703Y-123100722D01*
G37*
G36*
X51039703Y-121780722D02*
G01*
X51054264Y-121782882D01*
X51068543Y-121786459D01*
X51082403Y-121791418D01*
X51095710Y-121797712D01*
X51108336Y-121805280D01*
X51120159Y-121814048D01*
X51131066Y-121823934D01*
X51140952Y-121834841D01*
X51149720Y-121846664D01*
X51157288Y-121859290D01*
X51163582Y-121872597D01*
X51168541Y-121886457D01*
X51172118Y-121900736D01*
X51174278Y-121915297D01*
X51175000Y-121930000D01*
X51175000Y-122230000D01*
X51174278Y-122244703D01*
X51172118Y-122259264D01*
X51168541Y-122273543D01*
X51163582Y-122287403D01*
X51157288Y-122300710D01*
X51149720Y-122313336D01*
X51140952Y-122325159D01*
X51131066Y-122336066D01*
X51120159Y-122345952D01*
X51108336Y-122354720D01*
X51095710Y-122362288D01*
X51082403Y-122368582D01*
X51068543Y-122373541D01*
X51054264Y-122377118D01*
X51039703Y-122379278D01*
X51025000Y-122380000D01*
X49850000Y-122380000D01*
X49835297Y-122379278D01*
X49820736Y-122377118D01*
X49806457Y-122373541D01*
X49792597Y-122368582D01*
X49779290Y-122362288D01*
X49766664Y-122354720D01*
X49754841Y-122345952D01*
X49743934Y-122336066D01*
X49734048Y-122325159D01*
X49725280Y-122313336D01*
X49717712Y-122300710D01*
X49711418Y-122287403D01*
X49706459Y-122273543D01*
X49702882Y-122259264D01*
X49700722Y-122244703D01*
X49700000Y-122230000D01*
X49700000Y-121930000D01*
X49700722Y-121915297D01*
X49702882Y-121900736D01*
X49706459Y-121886457D01*
X49711418Y-121872597D01*
X49717712Y-121859290D01*
X49725280Y-121846664D01*
X49734048Y-121834841D01*
X49743934Y-121823934D01*
X49754841Y-121814048D01*
X49766664Y-121805280D01*
X49779290Y-121797712D01*
X49792597Y-121791418D01*
X49806457Y-121786459D01*
X49820736Y-121782882D01*
X49835297Y-121780722D01*
X49850000Y-121780000D01*
X51025000Y-121780000D01*
X51039703Y-121780722D01*
G37*
G36*
X51039703Y-120510722D02*
G01*
X51054264Y-120512882D01*
X51068543Y-120516459D01*
X51082403Y-120521418D01*
X51095710Y-120527712D01*
X51108336Y-120535280D01*
X51120159Y-120544048D01*
X51131066Y-120553934D01*
X51140952Y-120564841D01*
X51149720Y-120576664D01*
X51157288Y-120589290D01*
X51163582Y-120602597D01*
X51168541Y-120616457D01*
X51172118Y-120630736D01*
X51174278Y-120645297D01*
X51175000Y-120660000D01*
X51175000Y-120960000D01*
X51174278Y-120974703D01*
X51172118Y-120989264D01*
X51168541Y-121003543D01*
X51163582Y-121017403D01*
X51157288Y-121030710D01*
X51149720Y-121043336D01*
X51140952Y-121055159D01*
X51131066Y-121066066D01*
X51120159Y-121075952D01*
X51108336Y-121084720D01*
X51095710Y-121092288D01*
X51082403Y-121098582D01*
X51068543Y-121103541D01*
X51054264Y-121107118D01*
X51039703Y-121109278D01*
X51025000Y-121110000D01*
X49850000Y-121110000D01*
X49835297Y-121109278D01*
X49820736Y-121107118D01*
X49806457Y-121103541D01*
X49792597Y-121098582D01*
X49779290Y-121092288D01*
X49766664Y-121084720D01*
X49754841Y-121075952D01*
X49743934Y-121066066D01*
X49734048Y-121055159D01*
X49725280Y-121043336D01*
X49717712Y-121030710D01*
X49711418Y-121017403D01*
X49706459Y-121003543D01*
X49702882Y-120989264D01*
X49700722Y-120974703D01*
X49700000Y-120960000D01*
X49700000Y-120660000D01*
X49700722Y-120645297D01*
X49702882Y-120630736D01*
X49706459Y-120616457D01*
X49711418Y-120602597D01*
X49717712Y-120589290D01*
X49725280Y-120576664D01*
X49734048Y-120564841D01*
X49743934Y-120553934D01*
X49754841Y-120544048D01*
X49766664Y-120535280D01*
X49779290Y-120527712D01*
X49792597Y-120521418D01*
X49806457Y-120516459D01*
X49820736Y-120512882D01*
X49835297Y-120510722D01*
X49850000Y-120510000D01*
X51025000Y-120510000D01*
X51039703Y-120510722D01*
G37*
G36*
X51039703Y-119240722D02*
G01*
X51054264Y-119242882D01*
X51068543Y-119246459D01*
X51082403Y-119251418D01*
X51095710Y-119257712D01*
X51108336Y-119265280D01*
X51120159Y-119274048D01*
X51131066Y-119283934D01*
X51140952Y-119294841D01*
X51149720Y-119306664D01*
X51157288Y-119319290D01*
X51163582Y-119332597D01*
X51168541Y-119346457D01*
X51172118Y-119360736D01*
X51174278Y-119375297D01*
X51175000Y-119390000D01*
X51175000Y-119690000D01*
X51174278Y-119704703D01*
X51172118Y-119719264D01*
X51168541Y-119733543D01*
X51163582Y-119747403D01*
X51157288Y-119760710D01*
X51149720Y-119773336D01*
X51140952Y-119785159D01*
X51131066Y-119796066D01*
X51120159Y-119805952D01*
X51108336Y-119814720D01*
X51095710Y-119822288D01*
X51082403Y-119828582D01*
X51068543Y-119833541D01*
X51054264Y-119837118D01*
X51039703Y-119839278D01*
X51025000Y-119840000D01*
X49850000Y-119840000D01*
X49835297Y-119839278D01*
X49820736Y-119837118D01*
X49806457Y-119833541D01*
X49792597Y-119828582D01*
X49779290Y-119822288D01*
X49766664Y-119814720D01*
X49754841Y-119805952D01*
X49743934Y-119796066D01*
X49734048Y-119785159D01*
X49725280Y-119773336D01*
X49717712Y-119760710D01*
X49711418Y-119747403D01*
X49706459Y-119733543D01*
X49702882Y-119719264D01*
X49700722Y-119704703D01*
X49700000Y-119690000D01*
X49700000Y-119390000D01*
X49700722Y-119375297D01*
X49702882Y-119360736D01*
X49706459Y-119346457D01*
X49711418Y-119332597D01*
X49717712Y-119319290D01*
X49725280Y-119306664D01*
X49734048Y-119294841D01*
X49743934Y-119283934D01*
X49754841Y-119274048D01*
X49766664Y-119265280D01*
X49779290Y-119257712D01*
X49792597Y-119251418D01*
X49806457Y-119246459D01*
X49820736Y-119242882D01*
X49835297Y-119240722D01*
X49850000Y-119240000D01*
X51025000Y-119240000D01*
X51039703Y-119240722D01*
G37*
G36*
X51039703Y-117970722D02*
G01*
X51054264Y-117972882D01*
X51068543Y-117976459D01*
X51082403Y-117981418D01*
X51095710Y-117987712D01*
X51108336Y-117995280D01*
X51120159Y-118004048D01*
X51131066Y-118013934D01*
X51140952Y-118024841D01*
X51149720Y-118036664D01*
X51157288Y-118049290D01*
X51163582Y-118062597D01*
X51168541Y-118076457D01*
X51172118Y-118090736D01*
X51174278Y-118105297D01*
X51175000Y-118120000D01*
X51175000Y-118420000D01*
X51174278Y-118434703D01*
X51172118Y-118449264D01*
X51168541Y-118463543D01*
X51163582Y-118477403D01*
X51157288Y-118490710D01*
X51149720Y-118503336D01*
X51140952Y-118515159D01*
X51131066Y-118526066D01*
X51120159Y-118535952D01*
X51108336Y-118544720D01*
X51095710Y-118552288D01*
X51082403Y-118558582D01*
X51068543Y-118563541D01*
X51054264Y-118567118D01*
X51039703Y-118569278D01*
X51025000Y-118570000D01*
X49850000Y-118570000D01*
X49835297Y-118569278D01*
X49820736Y-118567118D01*
X49806457Y-118563541D01*
X49792597Y-118558582D01*
X49779290Y-118552288D01*
X49766664Y-118544720D01*
X49754841Y-118535952D01*
X49743934Y-118526066D01*
X49734048Y-118515159D01*
X49725280Y-118503336D01*
X49717712Y-118490710D01*
X49711418Y-118477403D01*
X49706459Y-118463543D01*
X49702882Y-118449264D01*
X49700722Y-118434703D01*
X49700000Y-118420000D01*
X49700000Y-118120000D01*
X49700722Y-118105297D01*
X49702882Y-118090736D01*
X49706459Y-118076457D01*
X49711418Y-118062597D01*
X49717712Y-118049290D01*
X49725280Y-118036664D01*
X49734048Y-118024841D01*
X49743934Y-118013934D01*
X49754841Y-118004048D01*
X49766664Y-117995280D01*
X49779290Y-117987712D01*
X49792597Y-117981418D01*
X49806457Y-117976459D01*
X49820736Y-117972882D01*
X49835297Y-117970722D01*
X49850000Y-117970000D01*
X51025000Y-117970000D01*
X51039703Y-117970722D01*
G37*
G36*
X51039703Y-116700722D02*
G01*
X51054264Y-116702882D01*
X51068543Y-116706459D01*
X51082403Y-116711418D01*
X51095710Y-116717712D01*
X51108336Y-116725280D01*
X51120159Y-116734048D01*
X51131066Y-116743934D01*
X51140952Y-116754841D01*
X51149720Y-116766664D01*
X51157288Y-116779290D01*
X51163582Y-116792597D01*
X51168541Y-116806457D01*
X51172118Y-116820736D01*
X51174278Y-116835297D01*
X51175000Y-116850000D01*
X51175000Y-117150000D01*
X51174278Y-117164703D01*
X51172118Y-117179264D01*
X51168541Y-117193543D01*
X51163582Y-117207403D01*
X51157288Y-117220710D01*
X51149720Y-117233336D01*
X51140952Y-117245159D01*
X51131066Y-117256066D01*
X51120159Y-117265952D01*
X51108336Y-117274720D01*
X51095710Y-117282288D01*
X51082403Y-117288582D01*
X51068543Y-117293541D01*
X51054264Y-117297118D01*
X51039703Y-117299278D01*
X51025000Y-117300000D01*
X49850000Y-117300000D01*
X49835297Y-117299278D01*
X49820736Y-117297118D01*
X49806457Y-117293541D01*
X49792597Y-117288582D01*
X49779290Y-117282288D01*
X49766664Y-117274720D01*
X49754841Y-117265952D01*
X49743934Y-117256066D01*
X49734048Y-117245159D01*
X49725280Y-117233336D01*
X49717712Y-117220710D01*
X49711418Y-117207403D01*
X49706459Y-117193543D01*
X49702882Y-117179264D01*
X49700722Y-117164703D01*
X49700000Y-117150000D01*
X49700000Y-116850000D01*
X49700722Y-116835297D01*
X49702882Y-116820736D01*
X49706459Y-116806457D01*
X49711418Y-116792597D01*
X49717712Y-116779290D01*
X49725280Y-116766664D01*
X49734048Y-116754841D01*
X49743934Y-116743934D01*
X49754841Y-116734048D01*
X49766664Y-116725280D01*
X49779290Y-116717712D01*
X49792597Y-116711418D01*
X49806457Y-116706459D01*
X49820736Y-116702882D01*
X49835297Y-116700722D01*
X49850000Y-116700000D01*
X51025000Y-116700000D01*
X51039703Y-116700722D01*
G37*
G36*
X51039703Y-115430722D02*
G01*
X51054264Y-115432882D01*
X51068543Y-115436459D01*
X51082403Y-115441418D01*
X51095710Y-115447712D01*
X51108336Y-115455280D01*
X51120159Y-115464048D01*
X51131066Y-115473934D01*
X51140952Y-115484841D01*
X51149720Y-115496664D01*
X51157288Y-115509290D01*
X51163582Y-115522597D01*
X51168541Y-115536457D01*
X51172118Y-115550736D01*
X51174278Y-115565297D01*
X51175000Y-115580000D01*
X51175000Y-115880000D01*
X51174278Y-115894703D01*
X51172118Y-115909264D01*
X51168541Y-115923543D01*
X51163582Y-115937403D01*
X51157288Y-115950710D01*
X51149720Y-115963336D01*
X51140952Y-115975159D01*
X51131066Y-115986066D01*
X51120159Y-115995952D01*
X51108336Y-116004720D01*
X51095710Y-116012288D01*
X51082403Y-116018582D01*
X51068543Y-116023541D01*
X51054264Y-116027118D01*
X51039703Y-116029278D01*
X51025000Y-116030000D01*
X49850000Y-116030000D01*
X49835297Y-116029278D01*
X49820736Y-116027118D01*
X49806457Y-116023541D01*
X49792597Y-116018582D01*
X49779290Y-116012288D01*
X49766664Y-116004720D01*
X49754841Y-115995952D01*
X49743934Y-115986066D01*
X49734048Y-115975159D01*
X49725280Y-115963336D01*
X49717712Y-115950710D01*
X49711418Y-115937403D01*
X49706459Y-115923543D01*
X49702882Y-115909264D01*
X49700722Y-115894703D01*
X49700000Y-115880000D01*
X49700000Y-115580000D01*
X49700722Y-115565297D01*
X49702882Y-115550736D01*
X49706459Y-115536457D01*
X49711418Y-115522597D01*
X49717712Y-115509290D01*
X49725280Y-115496664D01*
X49734048Y-115484841D01*
X49743934Y-115473934D01*
X49754841Y-115464048D01*
X49766664Y-115455280D01*
X49779290Y-115447712D01*
X49792597Y-115441418D01*
X49806457Y-115436459D01*
X49820736Y-115432882D01*
X49835297Y-115430722D01*
X49850000Y-115430000D01*
X51025000Y-115430000D01*
X51039703Y-115430722D01*
G37*
G36*
X51039703Y-114160722D02*
G01*
X51054264Y-114162882D01*
X51068543Y-114166459D01*
X51082403Y-114171418D01*
X51095710Y-114177712D01*
X51108336Y-114185280D01*
X51120159Y-114194048D01*
X51131066Y-114203934D01*
X51140952Y-114214841D01*
X51149720Y-114226664D01*
X51157288Y-114239290D01*
X51163582Y-114252597D01*
X51168541Y-114266457D01*
X51172118Y-114280736D01*
X51174278Y-114295297D01*
X51175000Y-114310000D01*
X51175000Y-114610000D01*
X51174278Y-114624703D01*
X51172118Y-114639264D01*
X51168541Y-114653543D01*
X51163582Y-114667403D01*
X51157288Y-114680710D01*
X51149720Y-114693336D01*
X51140952Y-114705159D01*
X51131066Y-114716066D01*
X51120159Y-114725952D01*
X51108336Y-114734720D01*
X51095710Y-114742288D01*
X51082403Y-114748582D01*
X51068543Y-114753541D01*
X51054264Y-114757118D01*
X51039703Y-114759278D01*
X51025000Y-114760000D01*
X49850000Y-114760000D01*
X49835297Y-114759278D01*
X49820736Y-114757118D01*
X49806457Y-114753541D01*
X49792597Y-114748582D01*
X49779290Y-114742288D01*
X49766664Y-114734720D01*
X49754841Y-114725952D01*
X49743934Y-114716066D01*
X49734048Y-114705159D01*
X49725280Y-114693336D01*
X49717712Y-114680710D01*
X49711418Y-114667403D01*
X49706459Y-114653543D01*
X49702882Y-114639264D01*
X49700722Y-114624703D01*
X49700000Y-114610000D01*
X49700000Y-114310000D01*
X49700722Y-114295297D01*
X49702882Y-114280736D01*
X49706459Y-114266457D01*
X49711418Y-114252597D01*
X49717712Y-114239290D01*
X49725280Y-114226664D01*
X49734048Y-114214841D01*
X49743934Y-114203934D01*
X49754841Y-114194048D01*
X49766664Y-114185280D01*
X49779290Y-114177712D01*
X49792597Y-114171418D01*
X49806457Y-114166459D01*
X49820736Y-114162882D01*
X49835297Y-114160722D01*
X49850000Y-114160000D01*
X51025000Y-114160000D01*
X51039703Y-114160722D01*
G37*
G36*
X51039703Y-112890722D02*
G01*
X51054264Y-112892882D01*
X51068543Y-112896459D01*
X51082403Y-112901418D01*
X51095710Y-112907712D01*
X51108336Y-112915280D01*
X51120159Y-112924048D01*
X51131066Y-112933934D01*
X51140952Y-112944841D01*
X51149720Y-112956664D01*
X51157288Y-112969290D01*
X51163582Y-112982597D01*
X51168541Y-112996457D01*
X51172118Y-113010736D01*
X51174278Y-113025297D01*
X51175000Y-113040000D01*
X51175000Y-113340000D01*
X51174278Y-113354703D01*
X51172118Y-113369264D01*
X51168541Y-113383543D01*
X51163582Y-113397403D01*
X51157288Y-113410710D01*
X51149720Y-113423336D01*
X51140952Y-113435159D01*
X51131066Y-113446066D01*
X51120159Y-113455952D01*
X51108336Y-113464720D01*
X51095710Y-113472288D01*
X51082403Y-113478582D01*
X51068543Y-113483541D01*
X51054264Y-113487118D01*
X51039703Y-113489278D01*
X51025000Y-113490000D01*
X49850000Y-113490000D01*
X49835297Y-113489278D01*
X49820736Y-113487118D01*
X49806457Y-113483541D01*
X49792597Y-113478582D01*
X49779290Y-113472288D01*
X49766664Y-113464720D01*
X49754841Y-113455952D01*
X49743934Y-113446066D01*
X49734048Y-113435159D01*
X49725280Y-113423336D01*
X49717712Y-113410710D01*
X49711418Y-113397403D01*
X49706459Y-113383543D01*
X49702882Y-113369264D01*
X49700722Y-113354703D01*
X49700000Y-113340000D01*
X49700000Y-113040000D01*
X49700722Y-113025297D01*
X49702882Y-113010736D01*
X49706459Y-112996457D01*
X49711418Y-112982597D01*
X49717712Y-112969290D01*
X49725280Y-112956664D01*
X49734048Y-112944841D01*
X49743934Y-112933934D01*
X49754841Y-112924048D01*
X49766664Y-112915280D01*
X49779290Y-112907712D01*
X49792597Y-112901418D01*
X49806457Y-112896459D01*
X49820736Y-112892882D01*
X49835297Y-112890722D01*
X49850000Y-112890000D01*
X51025000Y-112890000D01*
X51039703Y-112890722D01*
G37*
G36*
X51039703Y-111620722D02*
G01*
X51054264Y-111622882D01*
X51068543Y-111626459D01*
X51082403Y-111631418D01*
X51095710Y-111637712D01*
X51108336Y-111645280D01*
X51120159Y-111654048D01*
X51131066Y-111663934D01*
X51140952Y-111674841D01*
X51149720Y-111686664D01*
X51157288Y-111699290D01*
X51163582Y-111712597D01*
X51168541Y-111726457D01*
X51172118Y-111740736D01*
X51174278Y-111755297D01*
X51175000Y-111770000D01*
X51175000Y-112070000D01*
X51174278Y-112084703D01*
X51172118Y-112099264D01*
X51168541Y-112113543D01*
X51163582Y-112127403D01*
X51157288Y-112140710D01*
X51149720Y-112153336D01*
X51140952Y-112165159D01*
X51131066Y-112176066D01*
X51120159Y-112185952D01*
X51108336Y-112194720D01*
X51095710Y-112202288D01*
X51082403Y-112208582D01*
X51068543Y-112213541D01*
X51054264Y-112217118D01*
X51039703Y-112219278D01*
X51025000Y-112220000D01*
X49850000Y-112220000D01*
X49835297Y-112219278D01*
X49820736Y-112217118D01*
X49806457Y-112213541D01*
X49792597Y-112208582D01*
X49779290Y-112202288D01*
X49766664Y-112194720D01*
X49754841Y-112185952D01*
X49743934Y-112176066D01*
X49734048Y-112165159D01*
X49725280Y-112153336D01*
X49717712Y-112140710D01*
X49711418Y-112127403D01*
X49706459Y-112113543D01*
X49702882Y-112099264D01*
X49700722Y-112084703D01*
X49700000Y-112070000D01*
X49700000Y-111770000D01*
X49700722Y-111755297D01*
X49702882Y-111740736D01*
X49706459Y-111726457D01*
X49711418Y-111712597D01*
X49717712Y-111699290D01*
X49725280Y-111686664D01*
X49734048Y-111674841D01*
X49743934Y-111663934D01*
X49754841Y-111654048D01*
X49766664Y-111645280D01*
X49779290Y-111637712D01*
X49792597Y-111631418D01*
X49806457Y-111626459D01*
X49820736Y-111622882D01*
X49835297Y-111620722D01*
X49850000Y-111620000D01*
X51025000Y-111620000D01*
X51039703Y-111620722D01*
G37*
G36*
X52354703Y-109425722D02*
G01*
X52369264Y-109427882D01*
X52383543Y-109431459D01*
X52397403Y-109436418D01*
X52410710Y-109442712D01*
X52423336Y-109450280D01*
X52435159Y-109459048D01*
X52446066Y-109468934D01*
X52455952Y-109479841D01*
X52464720Y-109491664D01*
X52472288Y-109504290D01*
X52478582Y-109517597D01*
X52483541Y-109531457D01*
X52487118Y-109545736D01*
X52489278Y-109560297D01*
X52490000Y-109575000D01*
X52490000Y-110750000D01*
X52489278Y-110764703D01*
X52487118Y-110779264D01*
X52483541Y-110793543D01*
X52478582Y-110807403D01*
X52472288Y-110820710D01*
X52464720Y-110833336D01*
X52455952Y-110845159D01*
X52446066Y-110856066D01*
X52435159Y-110865952D01*
X52423336Y-110874720D01*
X52410710Y-110882288D01*
X52397403Y-110888582D01*
X52383543Y-110893541D01*
X52369264Y-110897118D01*
X52354703Y-110899278D01*
X52340000Y-110900000D01*
X52040000Y-110900000D01*
X52025297Y-110899278D01*
X52010736Y-110897118D01*
X51996457Y-110893541D01*
X51982597Y-110888582D01*
X51969290Y-110882288D01*
X51956664Y-110874720D01*
X51944841Y-110865952D01*
X51933934Y-110856066D01*
X51924048Y-110845159D01*
X51915280Y-110833336D01*
X51907712Y-110820710D01*
X51901418Y-110807403D01*
X51896459Y-110793543D01*
X51892882Y-110779264D01*
X51890722Y-110764703D01*
X51890000Y-110750000D01*
X51890000Y-109575000D01*
X51890722Y-109560297D01*
X51892882Y-109545736D01*
X51896459Y-109531457D01*
X51901418Y-109517597D01*
X51907712Y-109504290D01*
X51915280Y-109491664D01*
X51924048Y-109479841D01*
X51933934Y-109468934D01*
X51944841Y-109459048D01*
X51956664Y-109450280D01*
X51969290Y-109442712D01*
X51982597Y-109436418D01*
X51996457Y-109431459D01*
X52010736Y-109427882D01*
X52025297Y-109425722D01*
X52040000Y-109425000D01*
X52340000Y-109425000D01*
X52354703Y-109425722D01*
G37*
G36*
X53624703Y-109425722D02*
G01*
X53639264Y-109427882D01*
X53653543Y-109431459D01*
X53667403Y-109436418D01*
X53680710Y-109442712D01*
X53693336Y-109450280D01*
X53705159Y-109459048D01*
X53716066Y-109468934D01*
X53725952Y-109479841D01*
X53734720Y-109491664D01*
X53742288Y-109504290D01*
X53748582Y-109517597D01*
X53753541Y-109531457D01*
X53757118Y-109545736D01*
X53759278Y-109560297D01*
X53760000Y-109575000D01*
X53760000Y-110750000D01*
X53759278Y-110764703D01*
X53757118Y-110779264D01*
X53753541Y-110793543D01*
X53748582Y-110807403D01*
X53742288Y-110820710D01*
X53734720Y-110833336D01*
X53725952Y-110845159D01*
X53716066Y-110856066D01*
X53705159Y-110865952D01*
X53693336Y-110874720D01*
X53680710Y-110882288D01*
X53667403Y-110888582D01*
X53653543Y-110893541D01*
X53639264Y-110897118D01*
X53624703Y-110899278D01*
X53610000Y-110900000D01*
X53310000Y-110900000D01*
X53295297Y-110899278D01*
X53280736Y-110897118D01*
X53266457Y-110893541D01*
X53252597Y-110888582D01*
X53239290Y-110882288D01*
X53226664Y-110874720D01*
X53214841Y-110865952D01*
X53203934Y-110856066D01*
X53194048Y-110845159D01*
X53185280Y-110833336D01*
X53177712Y-110820710D01*
X53171418Y-110807403D01*
X53166459Y-110793543D01*
X53162882Y-110779264D01*
X53160722Y-110764703D01*
X53160000Y-110750000D01*
X53160000Y-109575000D01*
X53160722Y-109560297D01*
X53162882Y-109545736D01*
X53166459Y-109531457D01*
X53171418Y-109517597D01*
X53177712Y-109504290D01*
X53185280Y-109491664D01*
X53194048Y-109479841D01*
X53203934Y-109468934D01*
X53214841Y-109459048D01*
X53226664Y-109450280D01*
X53239290Y-109442712D01*
X53252597Y-109436418D01*
X53266457Y-109431459D01*
X53280736Y-109427882D01*
X53295297Y-109425722D01*
X53310000Y-109425000D01*
X53610000Y-109425000D01*
X53624703Y-109425722D01*
G37*
G36*
X54894703Y-109425722D02*
G01*
X54909264Y-109427882D01*
X54923543Y-109431459D01*
X54937403Y-109436418D01*
X54950710Y-109442712D01*
X54963336Y-109450280D01*
X54975159Y-109459048D01*
X54986066Y-109468934D01*
X54995952Y-109479841D01*
X55004720Y-109491664D01*
X55012288Y-109504290D01*
X55018582Y-109517597D01*
X55023541Y-109531457D01*
X55027118Y-109545736D01*
X55029278Y-109560297D01*
X55030000Y-109575000D01*
X55030000Y-110750000D01*
X55029278Y-110764703D01*
X55027118Y-110779264D01*
X55023541Y-110793543D01*
X55018582Y-110807403D01*
X55012288Y-110820710D01*
X55004720Y-110833336D01*
X54995952Y-110845159D01*
X54986066Y-110856066D01*
X54975159Y-110865952D01*
X54963336Y-110874720D01*
X54950710Y-110882288D01*
X54937403Y-110888582D01*
X54923543Y-110893541D01*
X54909264Y-110897118D01*
X54894703Y-110899278D01*
X54880000Y-110900000D01*
X54580000Y-110900000D01*
X54565297Y-110899278D01*
X54550736Y-110897118D01*
X54536457Y-110893541D01*
X54522597Y-110888582D01*
X54509290Y-110882288D01*
X54496664Y-110874720D01*
X54484841Y-110865952D01*
X54473934Y-110856066D01*
X54464048Y-110845159D01*
X54455280Y-110833336D01*
X54447712Y-110820710D01*
X54441418Y-110807403D01*
X54436459Y-110793543D01*
X54432882Y-110779264D01*
X54430722Y-110764703D01*
X54430000Y-110750000D01*
X54430000Y-109575000D01*
X54430722Y-109560297D01*
X54432882Y-109545736D01*
X54436459Y-109531457D01*
X54441418Y-109517597D01*
X54447712Y-109504290D01*
X54455280Y-109491664D01*
X54464048Y-109479841D01*
X54473934Y-109468934D01*
X54484841Y-109459048D01*
X54496664Y-109450280D01*
X54509290Y-109442712D01*
X54522597Y-109436418D01*
X54536457Y-109431459D01*
X54550736Y-109427882D01*
X54565297Y-109425722D01*
X54580000Y-109425000D01*
X54880000Y-109425000D01*
X54894703Y-109425722D01*
G37*
G36*
X56164703Y-109425722D02*
G01*
X56179264Y-109427882D01*
X56193543Y-109431459D01*
X56207403Y-109436418D01*
X56220710Y-109442712D01*
X56233336Y-109450280D01*
X56245159Y-109459048D01*
X56256066Y-109468934D01*
X56265952Y-109479841D01*
X56274720Y-109491664D01*
X56282288Y-109504290D01*
X56288582Y-109517597D01*
X56293541Y-109531457D01*
X56297118Y-109545736D01*
X56299278Y-109560297D01*
X56300000Y-109575000D01*
X56300000Y-110750000D01*
X56299278Y-110764703D01*
X56297118Y-110779264D01*
X56293541Y-110793543D01*
X56288582Y-110807403D01*
X56282288Y-110820710D01*
X56274720Y-110833336D01*
X56265952Y-110845159D01*
X56256066Y-110856066D01*
X56245159Y-110865952D01*
X56233336Y-110874720D01*
X56220710Y-110882288D01*
X56207403Y-110888582D01*
X56193543Y-110893541D01*
X56179264Y-110897118D01*
X56164703Y-110899278D01*
X56150000Y-110900000D01*
X55850000Y-110900000D01*
X55835297Y-110899278D01*
X55820736Y-110897118D01*
X55806457Y-110893541D01*
X55792597Y-110888582D01*
X55779290Y-110882288D01*
X55766664Y-110874720D01*
X55754841Y-110865952D01*
X55743934Y-110856066D01*
X55734048Y-110845159D01*
X55725280Y-110833336D01*
X55717712Y-110820710D01*
X55711418Y-110807403D01*
X55706459Y-110793543D01*
X55702882Y-110779264D01*
X55700722Y-110764703D01*
X55700000Y-110750000D01*
X55700000Y-109575000D01*
X55700722Y-109560297D01*
X55702882Y-109545736D01*
X55706459Y-109531457D01*
X55711418Y-109517597D01*
X55717712Y-109504290D01*
X55725280Y-109491664D01*
X55734048Y-109479841D01*
X55743934Y-109468934D01*
X55754841Y-109459048D01*
X55766664Y-109450280D01*
X55779290Y-109442712D01*
X55792597Y-109436418D01*
X55806457Y-109431459D01*
X55820736Y-109427882D01*
X55835297Y-109425722D01*
X55850000Y-109425000D01*
X56150000Y-109425000D01*
X56164703Y-109425722D01*
G37*
G36*
X60699505Y-100801204D02*
G01*
X60723773Y-100804804D01*
X60747572Y-100810765D01*
X60770671Y-100819030D01*
X60792850Y-100829520D01*
X60813893Y-100842132D01*
X60833599Y-100856747D01*
X60851777Y-100873223D01*
X60868253Y-100891401D01*
X60882868Y-100911107D01*
X60895480Y-100932150D01*
X60905970Y-100954329D01*
X60914235Y-100977428D01*
X60920196Y-101001227D01*
X60923796Y-101025495D01*
X60925000Y-101049999D01*
X60925000Y-101950001D01*
X60923796Y-101974505D01*
X60920196Y-101998773D01*
X60914235Y-102022572D01*
X60905970Y-102045671D01*
X60895480Y-102067850D01*
X60882868Y-102088893D01*
X60868253Y-102108599D01*
X60851777Y-102126777D01*
X60833599Y-102143253D01*
X60813893Y-102157868D01*
X60792850Y-102170480D01*
X60770671Y-102180970D01*
X60747572Y-102189235D01*
X60723773Y-102195196D01*
X60699505Y-102198796D01*
X60675001Y-102200000D01*
X60149999Y-102200000D01*
X60125495Y-102198796D01*
X60101227Y-102195196D01*
X60077428Y-102189235D01*
X60054329Y-102180970D01*
X60032150Y-102170480D01*
X60011107Y-102157868D01*
X59991401Y-102143253D01*
X59973223Y-102126777D01*
X59956747Y-102108599D01*
X59942132Y-102088893D01*
X59929520Y-102067850D01*
X59919030Y-102045671D01*
X59910765Y-102022572D01*
X59904804Y-101998773D01*
X59901204Y-101974505D01*
X59900000Y-101950001D01*
X59900000Y-101049999D01*
X59901204Y-101025495D01*
X59904804Y-101001227D01*
X59910765Y-100977428D01*
X59919030Y-100954329D01*
X59929520Y-100932150D01*
X59942132Y-100911107D01*
X59956747Y-100891401D01*
X59973223Y-100873223D01*
X59991401Y-100856747D01*
X60011107Y-100842132D01*
X60032150Y-100829520D01*
X60054329Y-100819030D01*
X60077428Y-100810765D01*
X60101227Y-100804804D01*
X60125495Y-100801204D01*
X60149999Y-100800000D01*
X60675001Y-100800000D01*
X60699505Y-100801204D01*
G37*
G36*
X58874505Y-100801204D02*
G01*
X58898773Y-100804804D01*
X58922572Y-100810765D01*
X58945671Y-100819030D01*
X58967850Y-100829520D01*
X58988893Y-100842132D01*
X59008599Y-100856747D01*
X59026777Y-100873223D01*
X59043253Y-100891401D01*
X59057868Y-100911107D01*
X59070480Y-100932150D01*
X59080970Y-100954329D01*
X59089235Y-100977428D01*
X59095196Y-101001227D01*
X59098796Y-101025495D01*
X59100000Y-101049999D01*
X59100000Y-101950001D01*
X59098796Y-101974505D01*
X59095196Y-101998773D01*
X59089235Y-102022572D01*
X59080970Y-102045671D01*
X59070480Y-102067850D01*
X59057868Y-102088893D01*
X59043253Y-102108599D01*
X59026777Y-102126777D01*
X59008599Y-102143253D01*
X58988893Y-102157868D01*
X58967850Y-102170480D01*
X58945671Y-102180970D01*
X58922572Y-102189235D01*
X58898773Y-102195196D01*
X58874505Y-102198796D01*
X58850001Y-102200000D01*
X58324999Y-102200000D01*
X58300495Y-102198796D01*
X58276227Y-102195196D01*
X58252428Y-102189235D01*
X58229329Y-102180970D01*
X58207150Y-102170480D01*
X58186107Y-102157868D01*
X58166401Y-102143253D01*
X58148223Y-102126777D01*
X58131747Y-102108599D01*
X58117132Y-102088893D01*
X58104520Y-102067850D01*
X58094030Y-102045671D01*
X58085765Y-102022572D01*
X58079804Y-101998773D01*
X58076204Y-101974505D01*
X58075000Y-101950001D01*
X58075000Y-101049999D01*
X58076204Y-101025495D01*
X58079804Y-101001227D01*
X58085765Y-100977428D01*
X58094030Y-100954329D01*
X58104520Y-100932150D01*
X58117132Y-100911107D01*
X58131747Y-100891401D01*
X58148223Y-100873223D01*
X58166401Y-100856747D01*
X58186107Y-100842132D01*
X58207150Y-100829520D01*
X58229329Y-100819030D01*
X58252428Y-100810765D01*
X58276227Y-100804804D01*
X58300495Y-100801204D01*
X58324999Y-100800000D01*
X58850001Y-100800000D01*
X58874505Y-100801204D01*
G37*
G36*
X60164505Y-125576204D02*
G01*
X60188773Y-125579804D01*
X60212572Y-125585765D01*
X60235671Y-125594030D01*
X60257850Y-125604520D01*
X60278893Y-125617132D01*
X60298599Y-125631747D01*
X60316777Y-125648223D01*
X60333253Y-125666401D01*
X60347868Y-125686107D01*
X60360480Y-125707150D01*
X60370970Y-125729329D01*
X60379235Y-125752428D01*
X60385196Y-125776227D01*
X60388796Y-125800495D01*
X60390000Y-125824999D01*
X60390000Y-126350001D01*
X60388796Y-126374505D01*
X60385196Y-126398773D01*
X60379235Y-126422572D01*
X60370970Y-126445671D01*
X60360480Y-126467850D01*
X60347868Y-126488893D01*
X60333253Y-126508599D01*
X60316777Y-126526777D01*
X60298599Y-126543253D01*
X60278893Y-126557868D01*
X60257850Y-126570480D01*
X60235671Y-126580970D01*
X60212572Y-126589235D01*
X60188773Y-126595196D01*
X60164505Y-126598796D01*
X60140001Y-126600000D01*
X59239999Y-126600000D01*
X59215495Y-126598796D01*
X59191227Y-126595196D01*
X59167428Y-126589235D01*
X59144329Y-126580970D01*
X59122150Y-126570480D01*
X59101107Y-126557868D01*
X59081401Y-126543253D01*
X59063223Y-126526777D01*
X59046747Y-126508599D01*
X59032132Y-126488893D01*
X59019520Y-126467850D01*
X59009030Y-126445671D01*
X59000765Y-126422572D01*
X58994804Y-126398773D01*
X58991204Y-126374505D01*
X58990000Y-126350001D01*
X58990000Y-125824999D01*
X58991204Y-125800495D01*
X58994804Y-125776227D01*
X59000765Y-125752428D01*
X59009030Y-125729329D01*
X59019520Y-125707150D01*
X59032132Y-125686107D01*
X59046747Y-125666401D01*
X59063223Y-125648223D01*
X59081401Y-125631747D01*
X59101107Y-125617132D01*
X59122150Y-125604520D01*
X59144329Y-125594030D01*
X59167428Y-125585765D01*
X59191227Y-125579804D01*
X59215495Y-125576204D01*
X59239999Y-125575000D01*
X60140001Y-125575000D01*
X60164505Y-125576204D01*
G37*
G36*
X60164505Y-127401204D02*
G01*
X60188773Y-127404804D01*
X60212572Y-127410765D01*
X60235671Y-127419030D01*
X60257850Y-127429520D01*
X60278893Y-127442132D01*
X60298599Y-127456747D01*
X60316777Y-127473223D01*
X60333253Y-127491401D01*
X60347868Y-127511107D01*
X60360480Y-127532150D01*
X60370970Y-127554329D01*
X60379235Y-127577428D01*
X60385196Y-127601227D01*
X60388796Y-127625495D01*
X60390000Y-127649999D01*
X60390000Y-128175001D01*
X60388796Y-128199505D01*
X60385196Y-128223773D01*
X60379235Y-128247572D01*
X60370970Y-128270671D01*
X60360480Y-128292850D01*
X60347868Y-128313893D01*
X60333253Y-128333599D01*
X60316777Y-128351777D01*
X60298599Y-128368253D01*
X60278893Y-128382868D01*
X60257850Y-128395480D01*
X60235671Y-128405970D01*
X60212572Y-128414235D01*
X60188773Y-128420196D01*
X60164505Y-128423796D01*
X60140001Y-128425000D01*
X59239999Y-128425000D01*
X59215495Y-128423796D01*
X59191227Y-128420196D01*
X59167428Y-128414235D01*
X59144329Y-128405970D01*
X59122150Y-128395480D01*
X59101107Y-128382868D01*
X59081401Y-128368253D01*
X59063223Y-128351777D01*
X59046747Y-128333599D01*
X59032132Y-128313893D01*
X59019520Y-128292850D01*
X59009030Y-128270671D01*
X59000765Y-128247572D01*
X58994804Y-128223773D01*
X58991204Y-128199505D01*
X58990000Y-128175001D01*
X58990000Y-127649999D01*
X58991204Y-127625495D01*
X58994804Y-127601227D01*
X59000765Y-127577428D01*
X59009030Y-127554329D01*
X59019520Y-127532150D01*
X59032132Y-127511107D01*
X59046747Y-127491401D01*
X59063223Y-127473223D01*
X59081401Y-127456747D01*
X59101107Y-127442132D01*
X59122150Y-127429520D01*
X59144329Y-127419030D01*
X59167428Y-127410765D01*
X59191227Y-127404804D01*
X59215495Y-127401204D01*
X59239999Y-127400000D01*
X60140001Y-127400000D01*
X60164505Y-127401204D01*
G37*
G36*
X62450505Y-125576204D02*
G01*
X62474773Y-125579804D01*
X62498572Y-125585765D01*
X62521671Y-125594030D01*
X62543850Y-125604520D01*
X62564893Y-125617132D01*
X62584599Y-125631747D01*
X62602777Y-125648223D01*
X62619253Y-125666401D01*
X62633868Y-125686107D01*
X62646480Y-125707150D01*
X62656970Y-125729329D01*
X62665235Y-125752428D01*
X62671196Y-125776227D01*
X62674796Y-125800495D01*
X62676000Y-125824999D01*
X62676000Y-126350001D01*
X62674796Y-126374505D01*
X62671196Y-126398773D01*
X62665235Y-126422572D01*
X62656970Y-126445671D01*
X62646480Y-126467850D01*
X62633868Y-126488893D01*
X62619253Y-126508599D01*
X62602777Y-126526777D01*
X62584599Y-126543253D01*
X62564893Y-126557868D01*
X62543850Y-126570480D01*
X62521671Y-126580970D01*
X62498572Y-126589235D01*
X62474773Y-126595196D01*
X62450505Y-126598796D01*
X62426001Y-126600000D01*
X61525999Y-126600000D01*
X61501495Y-126598796D01*
X61477227Y-126595196D01*
X61453428Y-126589235D01*
X61430329Y-126580970D01*
X61408150Y-126570480D01*
X61387107Y-126557868D01*
X61367401Y-126543253D01*
X61349223Y-126526777D01*
X61332747Y-126508599D01*
X61318132Y-126488893D01*
X61305520Y-126467850D01*
X61295030Y-126445671D01*
X61286765Y-126422572D01*
X61280804Y-126398773D01*
X61277204Y-126374505D01*
X61276000Y-126350001D01*
X61276000Y-125824999D01*
X61277204Y-125800495D01*
X61280804Y-125776227D01*
X61286765Y-125752428D01*
X61295030Y-125729329D01*
X61305520Y-125707150D01*
X61318132Y-125686107D01*
X61332747Y-125666401D01*
X61349223Y-125648223D01*
X61367401Y-125631747D01*
X61387107Y-125617132D01*
X61408150Y-125604520D01*
X61430329Y-125594030D01*
X61453428Y-125585765D01*
X61477227Y-125579804D01*
X61501495Y-125576204D01*
X61525999Y-125575000D01*
X62426001Y-125575000D01*
X62450505Y-125576204D01*
G37*
G36*
X62450505Y-127401204D02*
G01*
X62474773Y-127404804D01*
X62498572Y-127410765D01*
X62521671Y-127419030D01*
X62543850Y-127429520D01*
X62564893Y-127442132D01*
X62584599Y-127456747D01*
X62602777Y-127473223D01*
X62619253Y-127491401D01*
X62633868Y-127511107D01*
X62646480Y-127532150D01*
X62656970Y-127554329D01*
X62665235Y-127577428D01*
X62671196Y-127601227D01*
X62674796Y-127625495D01*
X62676000Y-127649999D01*
X62676000Y-128175001D01*
X62674796Y-128199505D01*
X62671196Y-128223773D01*
X62665235Y-128247572D01*
X62656970Y-128270671D01*
X62646480Y-128292850D01*
X62633868Y-128313893D01*
X62619253Y-128333599D01*
X62602777Y-128351777D01*
X62584599Y-128368253D01*
X62564893Y-128382868D01*
X62543850Y-128395480D01*
X62521671Y-128405970D01*
X62498572Y-128414235D01*
X62474773Y-128420196D01*
X62450505Y-128423796D01*
X62426001Y-128425000D01*
X61525999Y-128425000D01*
X61501495Y-128423796D01*
X61477227Y-128420196D01*
X61453428Y-128414235D01*
X61430329Y-128405970D01*
X61408150Y-128395480D01*
X61387107Y-128382868D01*
X61367401Y-128368253D01*
X61349223Y-128351777D01*
X61332747Y-128333599D01*
X61318132Y-128313893D01*
X61305520Y-128292850D01*
X61295030Y-128270671D01*
X61286765Y-128247572D01*
X61280804Y-128223773D01*
X61277204Y-128199505D01*
X61276000Y-128175001D01*
X61276000Y-127649999D01*
X61277204Y-127625495D01*
X61280804Y-127601227D01*
X61286765Y-127577428D01*
X61295030Y-127554329D01*
X61305520Y-127532150D01*
X61318132Y-127511107D01*
X61332747Y-127491401D01*
X61349223Y-127473223D01*
X61367401Y-127456747D01*
X61387107Y-127442132D01*
X61408150Y-127429520D01*
X61430329Y-127419030D01*
X61453428Y-127410765D01*
X61477227Y-127404804D01*
X61501495Y-127401204D01*
X61525999Y-127400000D01*
X62426001Y-127400000D01*
X62450505Y-127401204D01*
G37*
G36*
X96740505Y-129433204D02*
G01*
X96764773Y-129436804D01*
X96788572Y-129442765D01*
X96811671Y-129451030D01*
X96833850Y-129461520D01*
X96854893Y-129474132D01*
X96874599Y-129488747D01*
X96892777Y-129505223D01*
X96909253Y-129523401D01*
X96923868Y-129543107D01*
X96936480Y-129564150D01*
X96946970Y-129586329D01*
X96955235Y-129609428D01*
X96961196Y-129633227D01*
X96964796Y-129657495D01*
X96966000Y-129681999D01*
X96966000Y-130207001D01*
X96964796Y-130231505D01*
X96961196Y-130255773D01*
X96955235Y-130279572D01*
X96946970Y-130302671D01*
X96936480Y-130324850D01*
X96923868Y-130345893D01*
X96909253Y-130365599D01*
X96892777Y-130383777D01*
X96874599Y-130400253D01*
X96854893Y-130414868D01*
X96833850Y-130427480D01*
X96811671Y-130437970D01*
X96788572Y-130446235D01*
X96764773Y-130452196D01*
X96740505Y-130455796D01*
X96716001Y-130457000D01*
X95815999Y-130457000D01*
X95791495Y-130455796D01*
X95767227Y-130452196D01*
X95743428Y-130446235D01*
X95720329Y-130437970D01*
X95698150Y-130427480D01*
X95677107Y-130414868D01*
X95657401Y-130400253D01*
X95639223Y-130383777D01*
X95622747Y-130365599D01*
X95608132Y-130345893D01*
X95595520Y-130324850D01*
X95585030Y-130302671D01*
X95576765Y-130279572D01*
X95570804Y-130255773D01*
X95567204Y-130231505D01*
X95566000Y-130207001D01*
X95566000Y-129681999D01*
X95567204Y-129657495D01*
X95570804Y-129633227D01*
X95576765Y-129609428D01*
X95585030Y-129586329D01*
X95595520Y-129564150D01*
X95608132Y-129543107D01*
X95622747Y-129523401D01*
X95639223Y-129505223D01*
X95657401Y-129488747D01*
X95677107Y-129474132D01*
X95698150Y-129461520D01*
X95720329Y-129451030D01*
X95743428Y-129442765D01*
X95767227Y-129436804D01*
X95791495Y-129433204D01*
X95815999Y-129432000D01*
X96716001Y-129432000D01*
X96740505Y-129433204D01*
G37*
G36*
X96740505Y-127608204D02*
G01*
X96764773Y-127611804D01*
X96788572Y-127617765D01*
X96811671Y-127626030D01*
X96833850Y-127636520D01*
X96854893Y-127649132D01*
X96874599Y-127663747D01*
X96892777Y-127680223D01*
X96909253Y-127698401D01*
X96923868Y-127718107D01*
X96936480Y-127739150D01*
X96946970Y-127761329D01*
X96955235Y-127784428D01*
X96961196Y-127808227D01*
X96964796Y-127832495D01*
X96966000Y-127856999D01*
X96966000Y-128382001D01*
X96964796Y-128406505D01*
X96961196Y-128430773D01*
X96955235Y-128454572D01*
X96946970Y-128477671D01*
X96936480Y-128499850D01*
X96923868Y-128520893D01*
X96909253Y-128540599D01*
X96892777Y-128558777D01*
X96874599Y-128575253D01*
X96854893Y-128589868D01*
X96833850Y-128602480D01*
X96811671Y-128612970D01*
X96788572Y-128621235D01*
X96764773Y-128627196D01*
X96740505Y-128630796D01*
X96716001Y-128632000D01*
X95815999Y-128632000D01*
X95791495Y-128630796D01*
X95767227Y-128627196D01*
X95743428Y-128621235D01*
X95720329Y-128612970D01*
X95698150Y-128602480D01*
X95677107Y-128589868D01*
X95657401Y-128575253D01*
X95639223Y-128558777D01*
X95622747Y-128540599D01*
X95608132Y-128520893D01*
X95595520Y-128499850D01*
X95585030Y-128477671D01*
X95576765Y-128454572D01*
X95570804Y-128430773D01*
X95567204Y-128406505D01*
X95566000Y-128382001D01*
X95566000Y-127856999D01*
X95567204Y-127832495D01*
X95570804Y-127808227D01*
X95576765Y-127784428D01*
X95585030Y-127761329D01*
X95595520Y-127739150D01*
X95608132Y-127718107D01*
X95622747Y-127698401D01*
X95639223Y-127680223D01*
X95657401Y-127663747D01*
X95677107Y-127649132D01*
X95698150Y-127636520D01*
X95720329Y-127626030D01*
X95743428Y-127617765D01*
X95767227Y-127611804D01*
X95791495Y-127608204D01*
X95815999Y-127607000D01*
X96716001Y-127607000D01*
X96740505Y-127608204D01*
G37*
G36*
X99280505Y-129433204D02*
G01*
X99304773Y-129436804D01*
X99328572Y-129442765D01*
X99351671Y-129451030D01*
X99373850Y-129461520D01*
X99394893Y-129474132D01*
X99414599Y-129488747D01*
X99432777Y-129505223D01*
X99449253Y-129523401D01*
X99463868Y-129543107D01*
X99476480Y-129564150D01*
X99486970Y-129586329D01*
X99495235Y-129609428D01*
X99501196Y-129633227D01*
X99504796Y-129657495D01*
X99506000Y-129681999D01*
X99506000Y-130207001D01*
X99504796Y-130231505D01*
X99501196Y-130255773D01*
X99495235Y-130279572D01*
X99486970Y-130302671D01*
X99476480Y-130324850D01*
X99463868Y-130345893D01*
X99449253Y-130365599D01*
X99432777Y-130383777D01*
X99414599Y-130400253D01*
X99394893Y-130414868D01*
X99373850Y-130427480D01*
X99351671Y-130437970D01*
X99328572Y-130446235D01*
X99304773Y-130452196D01*
X99280505Y-130455796D01*
X99256001Y-130457000D01*
X98355999Y-130457000D01*
X98331495Y-130455796D01*
X98307227Y-130452196D01*
X98283428Y-130446235D01*
X98260329Y-130437970D01*
X98238150Y-130427480D01*
X98217107Y-130414868D01*
X98197401Y-130400253D01*
X98179223Y-130383777D01*
X98162747Y-130365599D01*
X98148132Y-130345893D01*
X98135520Y-130324850D01*
X98125030Y-130302671D01*
X98116765Y-130279572D01*
X98110804Y-130255773D01*
X98107204Y-130231505D01*
X98106000Y-130207001D01*
X98106000Y-129681999D01*
X98107204Y-129657495D01*
X98110804Y-129633227D01*
X98116765Y-129609428D01*
X98125030Y-129586329D01*
X98135520Y-129564150D01*
X98148132Y-129543107D01*
X98162747Y-129523401D01*
X98179223Y-129505223D01*
X98197401Y-129488747D01*
X98217107Y-129474132D01*
X98238150Y-129461520D01*
X98260329Y-129451030D01*
X98283428Y-129442765D01*
X98307227Y-129436804D01*
X98331495Y-129433204D01*
X98355999Y-129432000D01*
X99256001Y-129432000D01*
X99280505Y-129433204D01*
G37*
G36*
X99280505Y-127608204D02*
G01*
X99304773Y-127611804D01*
X99328572Y-127617765D01*
X99351671Y-127626030D01*
X99373850Y-127636520D01*
X99394893Y-127649132D01*
X99414599Y-127663747D01*
X99432777Y-127680223D01*
X99449253Y-127698401D01*
X99463868Y-127718107D01*
X99476480Y-127739150D01*
X99486970Y-127761329D01*
X99495235Y-127784428D01*
X99501196Y-127808227D01*
X99504796Y-127832495D01*
X99506000Y-127856999D01*
X99506000Y-128382001D01*
X99504796Y-128406505D01*
X99501196Y-128430773D01*
X99495235Y-128454572D01*
X99486970Y-128477671D01*
X99476480Y-128499850D01*
X99463868Y-128520893D01*
X99449253Y-128540599D01*
X99432777Y-128558777D01*
X99414599Y-128575253D01*
X99394893Y-128589868D01*
X99373850Y-128602480D01*
X99351671Y-128612970D01*
X99328572Y-128621235D01*
X99304773Y-128627196D01*
X99280505Y-128630796D01*
X99256001Y-128632000D01*
X98355999Y-128632000D01*
X98331495Y-128630796D01*
X98307227Y-128627196D01*
X98283428Y-128621235D01*
X98260329Y-128612970D01*
X98238150Y-128602480D01*
X98217107Y-128589868D01*
X98197401Y-128575253D01*
X98179223Y-128558777D01*
X98162747Y-128540599D01*
X98148132Y-128520893D01*
X98135520Y-128499850D01*
X98125030Y-128477671D01*
X98116765Y-128454572D01*
X98110804Y-128430773D01*
X98107204Y-128406505D01*
X98106000Y-128382001D01*
X98106000Y-127856999D01*
X98107204Y-127832495D01*
X98110804Y-127808227D01*
X98116765Y-127784428D01*
X98125030Y-127761329D01*
X98135520Y-127739150D01*
X98148132Y-127718107D01*
X98162747Y-127698401D01*
X98179223Y-127680223D01*
X98197401Y-127663747D01*
X98217107Y-127649132D01*
X98238150Y-127636520D01*
X98260329Y-127626030D01*
X98283428Y-127617765D01*
X98307227Y-127611804D01*
X98331495Y-127608204D01*
X98355999Y-127607000D01*
X99256001Y-127607000D01*
X99280505Y-127608204D01*
G37*
G36*
X94200505Y-127608204D02*
G01*
X94224773Y-127611804D01*
X94248572Y-127617765D01*
X94271671Y-127626030D01*
X94293850Y-127636520D01*
X94314893Y-127649132D01*
X94334599Y-127663747D01*
X94352777Y-127680223D01*
X94369253Y-127698401D01*
X94383868Y-127718107D01*
X94396480Y-127739150D01*
X94406970Y-127761329D01*
X94415235Y-127784428D01*
X94421196Y-127808227D01*
X94424796Y-127832495D01*
X94426000Y-127856999D01*
X94426000Y-128382001D01*
X94424796Y-128406505D01*
X94421196Y-128430773D01*
X94415235Y-128454572D01*
X94406970Y-128477671D01*
X94396480Y-128499850D01*
X94383868Y-128520893D01*
X94369253Y-128540599D01*
X94352777Y-128558777D01*
X94334599Y-128575253D01*
X94314893Y-128589868D01*
X94293850Y-128602480D01*
X94271671Y-128612970D01*
X94248572Y-128621235D01*
X94224773Y-128627196D01*
X94200505Y-128630796D01*
X94176001Y-128632000D01*
X93275999Y-128632000D01*
X93251495Y-128630796D01*
X93227227Y-128627196D01*
X93203428Y-128621235D01*
X93180329Y-128612970D01*
X93158150Y-128602480D01*
X93137107Y-128589868D01*
X93117401Y-128575253D01*
X93099223Y-128558777D01*
X93082747Y-128540599D01*
X93068132Y-128520893D01*
X93055520Y-128499850D01*
X93045030Y-128477671D01*
X93036765Y-128454572D01*
X93030804Y-128430773D01*
X93027204Y-128406505D01*
X93026000Y-128382001D01*
X93026000Y-127856999D01*
X93027204Y-127832495D01*
X93030804Y-127808227D01*
X93036765Y-127784428D01*
X93045030Y-127761329D01*
X93055520Y-127739150D01*
X93068132Y-127718107D01*
X93082747Y-127698401D01*
X93099223Y-127680223D01*
X93117401Y-127663747D01*
X93137107Y-127649132D01*
X93158150Y-127636520D01*
X93180329Y-127626030D01*
X93203428Y-127617765D01*
X93227227Y-127611804D01*
X93251495Y-127608204D01*
X93275999Y-127607000D01*
X94176001Y-127607000D01*
X94200505Y-127608204D01*
G37*
G36*
X94200505Y-129433204D02*
G01*
X94224773Y-129436804D01*
X94248572Y-129442765D01*
X94271671Y-129451030D01*
X94293850Y-129461520D01*
X94314893Y-129474132D01*
X94334599Y-129488747D01*
X94352777Y-129505223D01*
X94369253Y-129523401D01*
X94383868Y-129543107D01*
X94396480Y-129564150D01*
X94406970Y-129586329D01*
X94415235Y-129609428D01*
X94421196Y-129633227D01*
X94424796Y-129657495D01*
X94426000Y-129681999D01*
X94426000Y-130207001D01*
X94424796Y-130231505D01*
X94421196Y-130255773D01*
X94415235Y-130279572D01*
X94406970Y-130302671D01*
X94396480Y-130324850D01*
X94383868Y-130345893D01*
X94369253Y-130365599D01*
X94352777Y-130383777D01*
X94334599Y-130400253D01*
X94314893Y-130414868D01*
X94293850Y-130427480D01*
X94271671Y-130437970D01*
X94248572Y-130446235D01*
X94224773Y-130452196D01*
X94200505Y-130455796D01*
X94176001Y-130457000D01*
X93275999Y-130457000D01*
X93251495Y-130455796D01*
X93227227Y-130452196D01*
X93203428Y-130446235D01*
X93180329Y-130437970D01*
X93158150Y-130427480D01*
X93137107Y-130414868D01*
X93117401Y-130400253D01*
X93099223Y-130383777D01*
X93082747Y-130365599D01*
X93068132Y-130345893D01*
X93055520Y-130324850D01*
X93045030Y-130302671D01*
X93036765Y-130279572D01*
X93030804Y-130255773D01*
X93027204Y-130231505D01*
X93026000Y-130207001D01*
X93026000Y-129681999D01*
X93027204Y-129657495D01*
X93030804Y-129633227D01*
X93036765Y-129609428D01*
X93045030Y-129586329D01*
X93055520Y-129564150D01*
X93068132Y-129543107D01*
X93082747Y-129523401D01*
X93099223Y-129505223D01*
X93117401Y-129488747D01*
X93137107Y-129474132D01*
X93158150Y-129461520D01*
X93180329Y-129451030D01*
X93203428Y-129442765D01*
X93227227Y-129436804D01*
X93251495Y-129433204D01*
X93275999Y-129432000D01*
X94176001Y-129432000D01*
X94200505Y-129433204D01*
G37*
G36*
X44745000Y-102200000D02*
G01*
X44745000Y-98800000D01*
X45800000Y-97745000D01*
X46740000Y-97745000D01*
X46740000Y-98800000D01*
X45800000Y-99655500D01*
X45800000Y-101344500D01*
X46740000Y-102200000D01*
X46740000Y-103255000D01*
X45800000Y-103255000D01*
X44745000Y-102200000D01*
G37*
G36*
X48260000Y-102200000D02*
G01*
X49200000Y-101344500D01*
X49200000Y-99655500D01*
X48260000Y-98800000D01*
X48260000Y-97745000D01*
X49200000Y-97745000D01*
X50255000Y-98800000D01*
X50255000Y-102200000D01*
X49200000Y-103255000D01*
X48260000Y-103255000D01*
X48260000Y-102200000D01*
G37*
D12*
X73820000Y-101630000D03*
X69180000Y-101630000D03*
D13*
X72625000Y-99400000D03*
D14*
X71500000Y-102050000D03*
X70850000Y-102050000D03*
X70200000Y-102050000D03*
X72800000Y-102050000D03*
X72150000Y-102050000D03*
D13*
X70375000Y-99400000D03*
D10*
G36*
X102099504Y-119577204D02*
G01*
X102123773Y-119580804D01*
X102147571Y-119586765D01*
X102170671Y-119595030D01*
X102192849Y-119605520D01*
X102213893Y-119618133D01*
X102233598Y-119632747D01*
X102251777Y-119649223D01*
X102268253Y-119667402D01*
X102282867Y-119687107D01*
X102295480Y-119708151D01*
X102305970Y-119730329D01*
X102314235Y-119753429D01*
X102320196Y-119777227D01*
X102323796Y-119801496D01*
X102325000Y-119826000D01*
X102325000Y-120326000D01*
X102323796Y-120350504D01*
X102320196Y-120374773D01*
X102314235Y-120398571D01*
X102305970Y-120421671D01*
X102295480Y-120443849D01*
X102282867Y-120464893D01*
X102268253Y-120484598D01*
X102251777Y-120502777D01*
X102233598Y-120519253D01*
X102213893Y-120533867D01*
X102192849Y-120546480D01*
X102170671Y-120556970D01*
X102147571Y-120565235D01*
X102123773Y-120571196D01*
X102099504Y-120574796D01*
X102075000Y-120576000D01*
X101125000Y-120576000D01*
X101100496Y-120574796D01*
X101076227Y-120571196D01*
X101052429Y-120565235D01*
X101029329Y-120556970D01*
X101007151Y-120546480D01*
X100986107Y-120533867D01*
X100966402Y-120519253D01*
X100948223Y-120502777D01*
X100931747Y-120484598D01*
X100917133Y-120464893D01*
X100904520Y-120443849D01*
X100894030Y-120421671D01*
X100885765Y-120398571D01*
X100879804Y-120374773D01*
X100876204Y-120350504D01*
X100875000Y-120326000D01*
X100875000Y-119826000D01*
X100876204Y-119801496D01*
X100879804Y-119777227D01*
X100885765Y-119753429D01*
X100894030Y-119730329D01*
X100904520Y-119708151D01*
X100917133Y-119687107D01*
X100931747Y-119667402D01*
X100948223Y-119649223D01*
X100966402Y-119632747D01*
X100986107Y-119618133D01*
X101007151Y-119605520D01*
X101029329Y-119595030D01*
X101052429Y-119586765D01*
X101076227Y-119580804D01*
X101100496Y-119577204D01*
X101125000Y-119576000D01*
X102075000Y-119576000D01*
X102099504Y-119577204D01*
G37*
G36*
X102099504Y-117677204D02*
G01*
X102123773Y-117680804D01*
X102147571Y-117686765D01*
X102170671Y-117695030D01*
X102192849Y-117705520D01*
X102213893Y-117718133D01*
X102233598Y-117732747D01*
X102251777Y-117749223D01*
X102268253Y-117767402D01*
X102282867Y-117787107D01*
X102295480Y-117808151D01*
X102305970Y-117830329D01*
X102314235Y-117853429D01*
X102320196Y-117877227D01*
X102323796Y-117901496D01*
X102325000Y-117926000D01*
X102325000Y-118426000D01*
X102323796Y-118450504D01*
X102320196Y-118474773D01*
X102314235Y-118498571D01*
X102305970Y-118521671D01*
X102295480Y-118543849D01*
X102282867Y-118564893D01*
X102268253Y-118584598D01*
X102251777Y-118602777D01*
X102233598Y-118619253D01*
X102213893Y-118633867D01*
X102192849Y-118646480D01*
X102170671Y-118656970D01*
X102147571Y-118665235D01*
X102123773Y-118671196D01*
X102099504Y-118674796D01*
X102075000Y-118676000D01*
X101125000Y-118676000D01*
X101100496Y-118674796D01*
X101076227Y-118671196D01*
X101052429Y-118665235D01*
X101029329Y-118656970D01*
X101007151Y-118646480D01*
X100986107Y-118633867D01*
X100966402Y-118619253D01*
X100948223Y-118602777D01*
X100931747Y-118584598D01*
X100917133Y-118564893D01*
X100904520Y-118543849D01*
X100894030Y-118521671D01*
X100885765Y-118498571D01*
X100879804Y-118474773D01*
X100876204Y-118450504D01*
X100875000Y-118426000D01*
X100875000Y-117926000D01*
X100876204Y-117901496D01*
X100879804Y-117877227D01*
X100885765Y-117853429D01*
X100894030Y-117830329D01*
X100904520Y-117808151D01*
X100917133Y-117787107D01*
X100931747Y-117767402D01*
X100948223Y-117749223D01*
X100966402Y-117732747D01*
X100986107Y-117718133D01*
X101007151Y-117705520D01*
X101029329Y-117695030D01*
X101052429Y-117686765D01*
X101076227Y-117680804D01*
X101100496Y-117677204D01*
X101125000Y-117676000D01*
X102075000Y-117676000D01*
X102099504Y-117677204D01*
G37*
G36*
X73106504Y-103924204D02*
G01*
X73130773Y-103927804D01*
X73154571Y-103933765D01*
X73177671Y-103942030D01*
X73199849Y-103952520D01*
X73220893Y-103965133D01*
X73240598Y-103979747D01*
X73258777Y-103996223D01*
X73275253Y-104014402D01*
X73289867Y-104034107D01*
X73302480Y-104055151D01*
X73312970Y-104077329D01*
X73321235Y-104100429D01*
X73327196Y-104124227D01*
X73330796Y-104148496D01*
X73332000Y-104173000D01*
X73332000Y-105123000D01*
X73330796Y-105147504D01*
X73327196Y-105171773D01*
X73321235Y-105195571D01*
X73312970Y-105218671D01*
X73302480Y-105240849D01*
X73289867Y-105261893D01*
X73275253Y-105281598D01*
X73258777Y-105299777D01*
X73240598Y-105316253D01*
X73220893Y-105330867D01*
X73199849Y-105343480D01*
X73177671Y-105353970D01*
X73154571Y-105362235D01*
X73130773Y-105368196D01*
X73106504Y-105371796D01*
X73082000Y-105373000D01*
X72582000Y-105373000D01*
X72557496Y-105371796D01*
X72533227Y-105368196D01*
X72509429Y-105362235D01*
X72486329Y-105353970D01*
X72464151Y-105343480D01*
X72443107Y-105330867D01*
X72423402Y-105316253D01*
X72405223Y-105299777D01*
X72388747Y-105281598D01*
X72374133Y-105261893D01*
X72361520Y-105240849D01*
X72351030Y-105218671D01*
X72342765Y-105195571D01*
X72336804Y-105171773D01*
X72333204Y-105147504D01*
X72332000Y-105123000D01*
X72332000Y-104173000D01*
X72333204Y-104148496D01*
X72336804Y-104124227D01*
X72342765Y-104100429D01*
X72351030Y-104077329D01*
X72361520Y-104055151D01*
X72374133Y-104034107D01*
X72388747Y-104014402D01*
X72405223Y-103996223D01*
X72423402Y-103979747D01*
X72443107Y-103965133D01*
X72464151Y-103952520D01*
X72486329Y-103942030D01*
X72509429Y-103933765D01*
X72533227Y-103927804D01*
X72557496Y-103924204D01*
X72582000Y-103923000D01*
X73082000Y-103923000D01*
X73106504Y-103924204D01*
G37*
G36*
X71206504Y-103924204D02*
G01*
X71230773Y-103927804D01*
X71254571Y-103933765D01*
X71277671Y-103942030D01*
X71299849Y-103952520D01*
X71320893Y-103965133D01*
X71340598Y-103979747D01*
X71358777Y-103996223D01*
X71375253Y-104014402D01*
X71389867Y-104034107D01*
X71402480Y-104055151D01*
X71412970Y-104077329D01*
X71421235Y-104100429D01*
X71427196Y-104124227D01*
X71430796Y-104148496D01*
X71432000Y-104173000D01*
X71432000Y-105123000D01*
X71430796Y-105147504D01*
X71427196Y-105171773D01*
X71421235Y-105195571D01*
X71412970Y-105218671D01*
X71402480Y-105240849D01*
X71389867Y-105261893D01*
X71375253Y-105281598D01*
X71358777Y-105299777D01*
X71340598Y-105316253D01*
X71320893Y-105330867D01*
X71299849Y-105343480D01*
X71277671Y-105353970D01*
X71254571Y-105362235D01*
X71230773Y-105368196D01*
X71206504Y-105371796D01*
X71182000Y-105373000D01*
X70682000Y-105373000D01*
X70657496Y-105371796D01*
X70633227Y-105368196D01*
X70609429Y-105362235D01*
X70586329Y-105353970D01*
X70564151Y-105343480D01*
X70543107Y-105330867D01*
X70523402Y-105316253D01*
X70505223Y-105299777D01*
X70488747Y-105281598D01*
X70474133Y-105261893D01*
X70461520Y-105240849D01*
X70451030Y-105218671D01*
X70442765Y-105195571D01*
X70436804Y-105171773D01*
X70433204Y-105147504D01*
X70432000Y-105123000D01*
X70432000Y-104173000D01*
X70433204Y-104148496D01*
X70436804Y-104124227D01*
X70442765Y-104100429D01*
X70451030Y-104077329D01*
X70461520Y-104055151D01*
X70474133Y-104034107D01*
X70488747Y-104014402D01*
X70505223Y-103996223D01*
X70523402Y-103979747D01*
X70543107Y-103965133D01*
X70564151Y-103952520D01*
X70586329Y-103942030D01*
X70609429Y-103933765D01*
X70633227Y-103927804D01*
X70657496Y-103924204D01*
X70682000Y-103923000D01*
X71182000Y-103923000D01*
X71206504Y-103924204D01*
G37*
G36*
X56724504Y-125776204D02*
G01*
X56748773Y-125779804D01*
X56772571Y-125785765D01*
X56795671Y-125794030D01*
X56817849Y-125804520D01*
X56838893Y-125817133D01*
X56858598Y-125831747D01*
X56876777Y-125848223D01*
X56893253Y-125866402D01*
X56907867Y-125886107D01*
X56920480Y-125907151D01*
X56930970Y-125929329D01*
X56939235Y-125952429D01*
X56945196Y-125976227D01*
X56948796Y-126000496D01*
X56950000Y-126025000D01*
X56950000Y-126975000D01*
X56948796Y-126999504D01*
X56945196Y-127023773D01*
X56939235Y-127047571D01*
X56930970Y-127070671D01*
X56920480Y-127092849D01*
X56907867Y-127113893D01*
X56893253Y-127133598D01*
X56876777Y-127151777D01*
X56858598Y-127168253D01*
X56838893Y-127182867D01*
X56817849Y-127195480D01*
X56795671Y-127205970D01*
X56772571Y-127214235D01*
X56748773Y-127220196D01*
X56724504Y-127223796D01*
X56700000Y-127225000D01*
X56200000Y-127225000D01*
X56175496Y-127223796D01*
X56151227Y-127220196D01*
X56127429Y-127214235D01*
X56104329Y-127205970D01*
X56082151Y-127195480D01*
X56061107Y-127182867D01*
X56041402Y-127168253D01*
X56023223Y-127151777D01*
X56006747Y-127133598D01*
X55992133Y-127113893D01*
X55979520Y-127092849D01*
X55969030Y-127070671D01*
X55960765Y-127047571D01*
X55954804Y-127023773D01*
X55951204Y-126999504D01*
X55950000Y-126975000D01*
X55950000Y-126025000D01*
X55951204Y-126000496D01*
X55954804Y-125976227D01*
X55960765Y-125952429D01*
X55969030Y-125929329D01*
X55979520Y-125907151D01*
X55992133Y-125886107D01*
X56006747Y-125866402D01*
X56023223Y-125848223D01*
X56041402Y-125831747D01*
X56061107Y-125817133D01*
X56082151Y-125804520D01*
X56104329Y-125794030D01*
X56127429Y-125785765D01*
X56151227Y-125779804D01*
X56175496Y-125776204D01*
X56200000Y-125775000D01*
X56700000Y-125775000D01*
X56724504Y-125776204D01*
G37*
G36*
X54824504Y-125776204D02*
G01*
X54848773Y-125779804D01*
X54872571Y-125785765D01*
X54895671Y-125794030D01*
X54917849Y-125804520D01*
X54938893Y-125817133D01*
X54958598Y-125831747D01*
X54976777Y-125848223D01*
X54993253Y-125866402D01*
X55007867Y-125886107D01*
X55020480Y-125907151D01*
X55030970Y-125929329D01*
X55039235Y-125952429D01*
X55045196Y-125976227D01*
X55048796Y-126000496D01*
X55050000Y-126025000D01*
X55050000Y-126975000D01*
X55048796Y-126999504D01*
X55045196Y-127023773D01*
X55039235Y-127047571D01*
X55030970Y-127070671D01*
X55020480Y-127092849D01*
X55007867Y-127113893D01*
X54993253Y-127133598D01*
X54976777Y-127151777D01*
X54958598Y-127168253D01*
X54938893Y-127182867D01*
X54917849Y-127195480D01*
X54895671Y-127205970D01*
X54872571Y-127214235D01*
X54848773Y-127220196D01*
X54824504Y-127223796D01*
X54800000Y-127225000D01*
X54300000Y-127225000D01*
X54275496Y-127223796D01*
X54251227Y-127220196D01*
X54227429Y-127214235D01*
X54204329Y-127205970D01*
X54182151Y-127195480D01*
X54161107Y-127182867D01*
X54141402Y-127168253D01*
X54123223Y-127151777D01*
X54106747Y-127133598D01*
X54092133Y-127113893D01*
X54079520Y-127092849D01*
X54069030Y-127070671D01*
X54060765Y-127047571D01*
X54054804Y-127023773D01*
X54051204Y-126999504D01*
X54050000Y-126975000D01*
X54050000Y-126025000D01*
X54051204Y-126000496D01*
X54054804Y-125976227D01*
X54060765Y-125952429D01*
X54069030Y-125929329D01*
X54079520Y-125907151D01*
X54092133Y-125886107D01*
X54106747Y-125866402D01*
X54123223Y-125848223D01*
X54141402Y-125831747D01*
X54161107Y-125817133D01*
X54182151Y-125804520D01*
X54204329Y-125794030D01*
X54227429Y-125785765D01*
X54251227Y-125779804D01*
X54275496Y-125776204D01*
X54300000Y-125775000D01*
X54800000Y-125775000D01*
X54824504Y-125776204D01*
G37*
G36*
X57124505Y-103901204D02*
G01*
X57148773Y-103904804D01*
X57172572Y-103910765D01*
X57195671Y-103919030D01*
X57217850Y-103929520D01*
X57238893Y-103942132D01*
X57258599Y-103956747D01*
X57276777Y-103973223D01*
X57293253Y-103991401D01*
X57307868Y-104011107D01*
X57320480Y-104032150D01*
X57330970Y-104054329D01*
X57339235Y-104077428D01*
X57345196Y-104101227D01*
X57348796Y-104125495D01*
X57350000Y-104149999D01*
X57350000Y-104975001D01*
X57348796Y-104999505D01*
X57345196Y-105023773D01*
X57339235Y-105047572D01*
X57330970Y-105070671D01*
X57320480Y-105092850D01*
X57307868Y-105113893D01*
X57293253Y-105133599D01*
X57276777Y-105151777D01*
X57258599Y-105168253D01*
X57238893Y-105182868D01*
X57217850Y-105195480D01*
X57195671Y-105205970D01*
X57172572Y-105214235D01*
X57148773Y-105220196D01*
X57124505Y-105223796D01*
X57100001Y-105225000D01*
X54899999Y-105225000D01*
X54875495Y-105223796D01*
X54851227Y-105220196D01*
X54827428Y-105214235D01*
X54804329Y-105205970D01*
X54782150Y-105195480D01*
X54761107Y-105182868D01*
X54741401Y-105168253D01*
X54723223Y-105151777D01*
X54706747Y-105133599D01*
X54692132Y-105113893D01*
X54679520Y-105092850D01*
X54669030Y-105070671D01*
X54660765Y-105047572D01*
X54654804Y-105023773D01*
X54651204Y-104999505D01*
X54650000Y-104975001D01*
X54650000Y-104149999D01*
X54651204Y-104125495D01*
X54654804Y-104101227D01*
X54660765Y-104077428D01*
X54669030Y-104054329D01*
X54679520Y-104032150D01*
X54692132Y-104011107D01*
X54706747Y-103991401D01*
X54723223Y-103973223D01*
X54741401Y-103956747D01*
X54761107Y-103942132D01*
X54782150Y-103929520D01*
X54804329Y-103919030D01*
X54827428Y-103910765D01*
X54851227Y-103904804D01*
X54875495Y-103901204D01*
X54899999Y-103900000D01*
X57100001Y-103900000D01*
X57124505Y-103901204D01*
G37*
G36*
X57124505Y-100776204D02*
G01*
X57148773Y-100779804D01*
X57172572Y-100785765D01*
X57195671Y-100794030D01*
X57217850Y-100804520D01*
X57238893Y-100817132D01*
X57258599Y-100831747D01*
X57276777Y-100848223D01*
X57293253Y-100866401D01*
X57307868Y-100886107D01*
X57320480Y-100907150D01*
X57330970Y-100929329D01*
X57339235Y-100952428D01*
X57345196Y-100976227D01*
X57348796Y-101000495D01*
X57350000Y-101024999D01*
X57350000Y-101850001D01*
X57348796Y-101874505D01*
X57345196Y-101898773D01*
X57339235Y-101922572D01*
X57330970Y-101945671D01*
X57320480Y-101967850D01*
X57307868Y-101988893D01*
X57293253Y-102008599D01*
X57276777Y-102026777D01*
X57258599Y-102043253D01*
X57238893Y-102057868D01*
X57217850Y-102070480D01*
X57195671Y-102080970D01*
X57172572Y-102089235D01*
X57148773Y-102095196D01*
X57124505Y-102098796D01*
X57100001Y-102100000D01*
X54899999Y-102100000D01*
X54875495Y-102098796D01*
X54851227Y-102095196D01*
X54827428Y-102089235D01*
X54804329Y-102080970D01*
X54782150Y-102070480D01*
X54761107Y-102057868D01*
X54741401Y-102043253D01*
X54723223Y-102026777D01*
X54706747Y-102008599D01*
X54692132Y-101988893D01*
X54679520Y-101967850D01*
X54669030Y-101945671D01*
X54660765Y-101922572D01*
X54654804Y-101898773D01*
X54651204Y-101874505D01*
X54650000Y-101850001D01*
X54650000Y-101024999D01*
X54651204Y-101000495D01*
X54654804Y-100976227D01*
X54660765Y-100952428D01*
X54669030Y-100929329D01*
X54679520Y-100907150D01*
X54692132Y-100886107D01*
X54706747Y-100866401D01*
X54723223Y-100848223D01*
X54741401Y-100831747D01*
X54761107Y-100817132D01*
X54782150Y-100804520D01*
X54804329Y-100794030D01*
X54827428Y-100785765D01*
X54851227Y-100779804D01*
X54875495Y-100776204D01*
X54899999Y-100775000D01*
X57100001Y-100775000D01*
X57124505Y-100776204D01*
G37*
G36*
X47624505Y-113401204D02*
G01*
X47648773Y-113404804D01*
X47672572Y-113410765D01*
X47695671Y-113419030D01*
X47717850Y-113429520D01*
X47738893Y-113442132D01*
X47758599Y-113456747D01*
X47776777Y-113473223D01*
X47793253Y-113491401D01*
X47807868Y-113511107D01*
X47820480Y-113532150D01*
X47830970Y-113554329D01*
X47839235Y-113577428D01*
X47845196Y-113601227D01*
X47848796Y-113625495D01*
X47850000Y-113649999D01*
X47850000Y-114475001D01*
X47848796Y-114499505D01*
X47845196Y-114523773D01*
X47839235Y-114547572D01*
X47830970Y-114570671D01*
X47820480Y-114592850D01*
X47807868Y-114613893D01*
X47793253Y-114633599D01*
X47776777Y-114651777D01*
X47758599Y-114668253D01*
X47738893Y-114682868D01*
X47717850Y-114695480D01*
X47695671Y-114705970D01*
X47672572Y-114714235D01*
X47648773Y-114720196D01*
X47624505Y-114723796D01*
X47600001Y-114725000D01*
X45399999Y-114725000D01*
X45375495Y-114723796D01*
X45351227Y-114720196D01*
X45327428Y-114714235D01*
X45304329Y-114705970D01*
X45282150Y-114695480D01*
X45261107Y-114682868D01*
X45241401Y-114668253D01*
X45223223Y-114651777D01*
X45206747Y-114633599D01*
X45192132Y-114613893D01*
X45179520Y-114592850D01*
X45169030Y-114570671D01*
X45160765Y-114547572D01*
X45154804Y-114523773D01*
X45151204Y-114499505D01*
X45150000Y-114475001D01*
X45150000Y-113649999D01*
X45151204Y-113625495D01*
X45154804Y-113601227D01*
X45160765Y-113577428D01*
X45169030Y-113554329D01*
X45179520Y-113532150D01*
X45192132Y-113511107D01*
X45206747Y-113491401D01*
X45223223Y-113473223D01*
X45241401Y-113456747D01*
X45261107Y-113442132D01*
X45282150Y-113429520D01*
X45304329Y-113419030D01*
X45327428Y-113410765D01*
X45351227Y-113404804D01*
X45375495Y-113401204D01*
X45399999Y-113400000D01*
X47600001Y-113400000D01*
X47624505Y-113401204D01*
G37*
G36*
X47624505Y-110276204D02*
G01*
X47648773Y-110279804D01*
X47672572Y-110285765D01*
X47695671Y-110294030D01*
X47717850Y-110304520D01*
X47738893Y-110317132D01*
X47758599Y-110331747D01*
X47776777Y-110348223D01*
X47793253Y-110366401D01*
X47807868Y-110386107D01*
X47820480Y-110407150D01*
X47830970Y-110429329D01*
X47839235Y-110452428D01*
X47845196Y-110476227D01*
X47848796Y-110500495D01*
X47850000Y-110524999D01*
X47850000Y-111350001D01*
X47848796Y-111374505D01*
X47845196Y-111398773D01*
X47839235Y-111422572D01*
X47830970Y-111445671D01*
X47820480Y-111467850D01*
X47807868Y-111488893D01*
X47793253Y-111508599D01*
X47776777Y-111526777D01*
X47758599Y-111543253D01*
X47738893Y-111557868D01*
X47717850Y-111570480D01*
X47695671Y-111580970D01*
X47672572Y-111589235D01*
X47648773Y-111595196D01*
X47624505Y-111598796D01*
X47600001Y-111600000D01*
X45399999Y-111600000D01*
X45375495Y-111598796D01*
X45351227Y-111595196D01*
X45327428Y-111589235D01*
X45304329Y-111580970D01*
X45282150Y-111570480D01*
X45261107Y-111557868D01*
X45241401Y-111543253D01*
X45223223Y-111526777D01*
X45206747Y-111508599D01*
X45192132Y-111488893D01*
X45179520Y-111467850D01*
X45169030Y-111445671D01*
X45160765Y-111422572D01*
X45154804Y-111398773D01*
X45151204Y-111374505D01*
X45150000Y-111350001D01*
X45150000Y-110524999D01*
X45151204Y-110500495D01*
X45154804Y-110476227D01*
X45160765Y-110452428D01*
X45169030Y-110429329D01*
X45179520Y-110407150D01*
X45192132Y-110386107D01*
X45206747Y-110366401D01*
X45223223Y-110348223D01*
X45241401Y-110331747D01*
X45261107Y-110317132D01*
X45282150Y-110304520D01*
X45304329Y-110294030D01*
X45327428Y-110285765D01*
X45351227Y-110279804D01*
X45375495Y-110276204D01*
X45399999Y-110275000D01*
X47600001Y-110275000D01*
X47624505Y-110276204D01*
G37*
G36*
X53124505Y-106901204D02*
G01*
X53148773Y-106904804D01*
X53172572Y-106910765D01*
X53195671Y-106919030D01*
X53217850Y-106929520D01*
X53238893Y-106942132D01*
X53258599Y-106956747D01*
X53276777Y-106973223D01*
X53293253Y-106991401D01*
X53307868Y-107011107D01*
X53320480Y-107032150D01*
X53330970Y-107054329D01*
X53339235Y-107077428D01*
X53345196Y-107101227D01*
X53348796Y-107125495D01*
X53350000Y-107149999D01*
X53350000Y-107975001D01*
X53348796Y-107999505D01*
X53345196Y-108023773D01*
X53339235Y-108047572D01*
X53330970Y-108070671D01*
X53320480Y-108092850D01*
X53307868Y-108113893D01*
X53293253Y-108133599D01*
X53276777Y-108151777D01*
X53258599Y-108168253D01*
X53238893Y-108182868D01*
X53217850Y-108195480D01*
X53195671Y-108205970D01*
X53172572Y-108214235D01*
X53148773Y-108220196D01*
X53124505Y-108223796D01*
X53100001Y-108225000D01*
X50899999Y-108225000D01*
X50875495Y-108223796D01*
X50851227Y-108220196D01*
X50827428Y-108214235D01*
X50804329Y-108205970D01*
X50782150Y-108195480D01*
X50761107Y-108182868D01*
X50741401Y-108168253D01*
X50723223Y-108151777D01*
X50706747Y-108133599D01*
X50692132Y-108113893D01*
X50679520Y-108092850D01*
X50669030Y-108070671D01*
X50660765Y-108047572D01*
X50654804Y-108023773D01*
X50651204Y-107999505D01*
X50650000Y-107975001D01*
X50650000Y-107149999D01*
X50651204Y-107125495D01*
X50654804Y-107101227D01*
X50660765Y-107077428D01*
X50669030Y-107054329D01*
X50679520Y-107032150D01*
X50692132Y-107011107D01*
X50706747Y-106991401D01*
X50723223Y-106973223D01*
X50741401Y-106956747D01*
X50761107Y-106942132D01*
X50782150Y-106929520D01*
X50804329Y-106919030D01*
X50827428Y-106910765D01*
X50851227Y-106904804D01*
X50875495Y-106901204D01*
X50899999Y-106900000D01*
X53100001Y-106900000D01*
X53124505Y-106901204D01*
G37*
G36*
X53124505Y-103776204D02*
G01*
X53148773Y-103779804D01*
X53172572Y-103785765D01*
X53195671Y-103794030D01*
X53217850Y-103804520D01*
X53238893Y-103817132D01*
X53258599Y-103831747D01*
X53276777Y-103848223D01*
X53293253Y-103866401D01*
X53307868Y-103886107D01*
X53320480Y-103907150D01*
X53330970Y-103929329D01*
X53339235Y-103952428D01*
X53345196Y-103976227D01*
X53348796Y-104000495D01*
X53350000Y-104024999D01*
X53350000Y-104850001D01*
X53348796Y-104874505D01*
X53345196Y-104898773D01*
X53339235Y-104922572D01*
X53330970Y-104945671D01*
X53320480Y-104967850D01*
X53307868Y-104988893D01*
X53293253Y-105008599D01*
X53276777Y-105026777D01*
X53258599Y-105043253D01*
X53238893Y-105057868D01*
X53217850Y-105070480D01*
X53195671Y-105080970D01*
X53172572Y-105089235D01*
X53148773Y-105095196D01*
X53124505Y-105098796D01*
X53100001Y-105100000D01*
X50899999Y-105100000D01*
X50875495Y-105098796D01*
X50851227Y-105095196D01*
X50827428Y-105089235D01*
X50804329Y-105080970D01*
X50782150Y-105070480D01*
X50761107Y-105057868D01*
X50741401Y-105043253D01*
X50723223Y-105026777D01*
X50706747Y-105008599D01*
X50692132Y-104988893D01*
X50679520Y-104967850D01*
X50669030Y-104945671D01*
X50660765Y-104922572D01*
X50654804Y-104898773D01*
X50651204Y-104874505D01*
X50650000Y-104850001D01*
X50650000Y-104024999D01*
X50651204Y-104000495D01*
X50654804Y-103976227D01*
X50660765Y-103952428D01*
X50669030Y-103929329D01*
X50679520Y-103907150D01*
X50692132Y-103886107D01*
X50706747Y-103866401D01*
X50723223Y-103848223D01*
X50741401Y-103831747D01*
X50761107Y-103817132D01*
X50782150Y-103804520D01*
X50804329Y-103794030D01*
X50827428Y-103785765D01*
X50851227Y-103779804D01*
X50875495Y-103776204D01*
X50899999Y-103775000D01*
X53100001Y-103775000D01*
X53124505Y-103776204D01*
G37*
G36*
X78731504Y-98881204D02*
G01*
X78755773Y-98884804D01*
X78779571Y-98890765D01*
X78802671Y-98899030D01*
X78824849Y-98909520D01*
X78845893Y-98922133D01*
X78865598Y-98936747D01*
X78883777Y-98953223D01*
X78900253Y-98971402D01*
X78914867Y-98991107D01*
X78927480Y-99012151D01*
X78937970Y-99034329D01*
X78946235Y-99057429D01*
X78952196Y-99081227D01*
X78955796Y-99105496D01*
X78957000Y-99130000D01*
X78957000Y-99630000D01*
X78955796Y-99654504D01*
X78952196Y-99678773D01*
X78946235Y-99702571D01*
X78937970Y-99725671D01*
X78927480Y-99747849D01*
X78914867Y-99768893D01*
X78900253Y-99788598D01*
X78883777Y-99806777D01*
X78865598Y-99823253D01*
X78845893Y-99837867D01*
X78824849Y-99850480D01*
X78802671Y-99860970D01*
X78779571Y-99869235D01*
X78755773Y-99875196D01*
X78731504Y-99878796D01*
X78707000Y-99880000D01*
X77757000Y-99880000D01*
X77732496Y-99878796D01*
X77708227Y-99875196D01*
X77684429Y-99869235D01*
X77661329Y-99860970D01*
X77639151Y-99850480D01*
X77618107Y-99837867D01*
X77598402Y-99823253D01*
X77580223Y-99806777D01*
X77563747Y-99788598D01*
X77549133Y-99768893D01*
X77536520Y-99747849D01*
X77526030Y-99725671D01*
X77517765Y-99702571D01*
X77511804Y-99678773D01*
X77508204Y-99654504D01*
X77507000Y-99630000D01*
X77507000Y-99130000D01*
X77508204Y-99105496D01*
X77511804Y-99081227D01*
X77517765Y-99057429D01*
X77526030Y-99034329D01*
X77536520Y-99012151D01*
X77549133Y-98991107D01*
X77563747Y-98971402D01*
X77580223Y-98953223D01*
X77598402Y-98936747D01*
X77618107Y-98922133D01*
X77639151Y-98909520D01*
X77661329Y-98899030D01*
X77684429Y-98890765D01*
X77708227Y-98884804D01*
X77732496Y-98881204D01*
X77757000Y-98880000D01*
X78707000Y-98880000D01*
X78731504Y-98881204D01*
G37*
G36*
X78731504Y-100781204D02*
G01*
X78755773Y-100784804D01*
X78779571Y-100790765D01*
X78802671Y-100799030D01*
X78824849Y-100809520D01*
X78845893Y-100822133D01*
X78865598Y-100836747D01*
X78883777Y-100853223D01*
X78900253Y-100871402D01*
X78914867Y-100891107D01*
X78927480Y-100912151D01*
X78937970Y-100934329D01*
X78946235Y-100957429D01*
X78952196Y-100981227D01*
X78955796Y-101005496D01*
X78957000Y-101030000D01*
X78957000Y-101530000D01*
X78955796Y-101554504D01*
X78952196Y-101578773D01*
X78946235Y-101602571D01*
X78937970Y-101625671D01*
X78927480Y-101647849D01*
X78914867Y-101668893D01*
X78900253Y-101688598D01*
X78883777Y-101706777D01*
X78865598Y-101723253D01*
X78845893Y-101737867D01*
X78824849Y-101750480D01*
X78802671Y-101760970D01*
X78779571Y-101769235D01*
X78755773Y-101775196D01*
X78731504Y-101778796D01*
X78707000Y-101780000D01*
X77757000Y-101780000D01*
X77732496Y-101778796D01*
X77708227Y-101775196D01*
X77684429Y-101769235D01*
X77661329Y-101760970D01*
X77639151Y-101750480D01*
X77618107Y-101737867D01*
X77598402Y-101723253D01*
X77580223Y-101706777D01*
X77563747Y-101688598D01*
X77549133Y-101668893D01*
X77536520Y-101647849D01*
X77526030Y-101625671D01*
X77517765Y-101602571D01*
X77511804Y-101578773D01*
X77508204Y-101554504D01*
X77507000Y-101530000D01*
X77507000Y-101030000D01*
X77508204Y-101005496D01*
X77511804Y-100981227D01*
X77517765Y-100957429D01*
X77526030Y-100934329D01*
X77536520Y-100912151D01*
X77549133Y-100891107D01*
X77563747Y-100871402D01*
X77580223Y-100853223D01*
X77598402Y-100836747D01*
X77618107Y-100822133D01*
X77639151Y-100809520D01*
X77661329Y-100799030D01*
X77684429Y-100790765D01*
X77708227Y-100784804D01*
X77732496Y-100781204D01*
X77757000Y-100780000D01*
X78707000Y-100780000D01*
X78731504Y-100781204D01*
G37*
M02*
