G04 #@! TF.GenerationSoftware,KiCad,Pcbnew,5.1.5+dfsg1-2build2*
G04 #@! TF.CreationDate,2022-11-02T21:13:42+00:00*
G04 #@! TF.ProjectId,psion-speech-sp0256al2,7073696f-6e2d-4737-9065-6563682d7370,rev?*
G04 #@! TF.SameCoordinates,Original*
G04 #@! TF.FileFunction,Legend,Bot*
G04 #@! TF.FilePolarity,Positive*
%FSLAX46Y46*%
G04 Gerber Fmt 4.6, Leading zero omitted, Abs format (unit mm)*
G04 Created by KiCad (PCBNEW 5.1.5+dfsg1-2build2) date 2022-11-02 21:13:42*
%MOMM*%
%LPD*%
G04 APERTURE LIST*
%ADD10C,0.120000*%
%ADD11C,0.150000*%
G04 APERTURE END LIST*
D10*
X105320000Y-99738748D02*
X105320000Y-101161252D01*
X102600000Y-99738748D02*
X102600000Y-101161252D01*
X90050000Y-123435000D02*
X86600000Y-123435000D01*
X90050000Y-123435000D02*
X92000000Y-123435000D01*
X90050000Y-113315000D02*
X88100000Y-113315000D01*
X90050000Y-113315000D02*
X92000000Y-113315000D01*
X68300000Y-102800000D02*
X68200000Y-102800000D01*
X68300000Y-109600000D02*
X68300000Y-102800000D01*
X59600000Y-109600000D02*
X68300000Y-109600000D01*
X59600000Y-102800000D02*
X59600000Y-109600000D01*
X68200000Y-102800000D02*
X59600000Y-102800000D01*
X79248000Y-123815000D02*
X75798000Y-123815000D01*
X79248000Y-123815000D02*
X81198000Y-123815000D01*
X79248000Y-114945000D02*
X77298000Y-114945000D01*
X79248000Y-114945000D02*
X81198000Y-114945000D01*
X99897000Y-116366000D02*
X99897000Y-114676000D01*
X99152000Y-116366000D02*
X99897000Y-116366000D01*
X99152000Y-119126000D02*
X99152000Y-116366000D01*
X99152000Y-121886000D02*
X99897000Y-121886000D01*
X99152000Y-119126000D02*
X99152000Y-121886000D01*
X105572000Y-116366000D02*
X104827000Y-116366000D01*
X105572000Y-119126000D02*
X105572000Y-116366000D01*
X105572000Y-121886000D02*
X104827000Y-121886000D01*
X105572000Y-119126000D02*
X105572000Y-121886000D01*
X103913000Y-112241064D02*
X103913000Y-111786936D01*
X105383000Y-112241064D02*
X105383000Y-111786936D01*
X101627000Y-112495064D02*
X101627000Y-112040936D01*
X103097000Y-112495064D02*
X103097000Y-112040936D01*
X79529000Y-101065064D02*
X79529000Y-100610936D01*
X80999000Y-101065064D02*
X80999000Y-100610936D01*
X75157064Y-106653000D02*
X74702936Y-106653000D01*
X75157064Y-105183000D02*
X74702936Y-105183000D01*
X74806436Y-107215000D02*
X75260564Y-107215000D01*
X74806436Y-108685000D02*
X75260564Y-108685000D01*
X98642000Y-117398748D02*
X98642000Y-118821252D01*
X95922000Y-117398748D02*
X95922000Y-118821252D01*
X78732748Y-112549000D02*
X79255252Y-112549000D01*
X78732748Y-114019000D02*
X79255252Y-114019000D01*
X94226748Y-98071000D02*
X94749252Y-98071000D01*
X94226748Y-99541000D02*
X94749252Y-99541000D01*
X94226748Y-100611000D02*
X94749252Y-100611000D01*
X94226748Y-102081000D02*
X94749252Y-102081000D01*
X78459000Y-106926748D02*
X78459000Y-107449252D01*
X76989000Y-106926748D02*
X76989000Y-107449252D01*
X72871000Y-106926748D02*
X72871000Y-107449252D01*
X71401000Y-106926748D02*
X71401000Y-107449252D01*
X68326000Y-122799000D02*
X64876000Y-122799000D01*
X68326000Y-122799000D02*
X70276000Y-122799000D01*
X68326000Y-113929000D02*
X66376000Y-113929000D01*
X68326000Y-113929000D02*
X70276000Y-113929000D01*
X56642000Y-123815000D02*
X53192000Y-123815000D01*
X56642000Y-123815000D02*
X58592000Y-123815000D01*
X56642000Y-114945000D02*
X54692000Y-114945000D01*
X56642000Y-114945000D02*
X58592000Y-114945000D01*
X54235000Y-105772936D02*
X54235000Y-106227064D01*
X52765000Y-105772936D02*
X52765000Y-106227064D01*
X50265000Y-106227064D02*
X50265000Y-105772936D01*
X51735000Y-106227064D02*
X51735000Y-105772936D01*
X44985000Y-108227064D02*
X44985000Y-107772936D01*
X46455000Y-108227064D02*
X46455000Y-107772936D01*
X98779000Y-113564936D02*
X98779000Y-114019064D01*
X97309000Y-113564936D02*
X97309000Y-114019064D01*
X97054936Y-107723000D02*
X97509064Y-107723000D01*
X97054936Y-109193000D02*
X97509064Y-109193000D01*
X90397064Y-109193000D02*
X89942936Y-109193000D01*
X90397064Y-107723000D02*
X89942936Y-107723000D01*
X53918000Y-113376000D02*
X56218000Y-113376000D01*
X56218000Y-113376000D02*
X56218000Y-112176000D01*
X56218000Y-112176000D02*
X53918000Y-112176000D01*
X53918000Y-112176000D02*
X53918000Y-113376000D01*
X57220000Y-113376000D02*
X59520000Y-113376000D01*
X59520000Y-113376000D02*
X59520000Y-112176000D01*
X59520000Y-112176000D02*
X57220000Y-112176000D01*
X57220000Y-112176000D02*
X57220000Y-113376000D01*
X98525000Y-122420748D02*
X98525000Y-122943252D01*
X97055000Y-122420748D02*
X97055000Y-122943252D01*
X80150000Y-130100000D02*
X84050000Y-130100000D01*
X80150000Y-128100000D02*
X84050000Y-128100000D01*
X80150000Y-130100000D02*
X80150000Y-128100000D01*
X49000000Y-108750000D02*
X49000000Y-104850000D01*
X47000000Y-108750000D02*
X47000000Y-104850000D01*
X49000000Y-108750000D02*
X47000000Y-108750000D01*
D11*
X101910000Y-100000000D02*
X101943333Y-99966666D01*
X101976666Y-99866666D01*
X101976666Y-99800000D01*
X101943333Y-99700000D01*
X101876666Y-99633333D01*
X101810000Y-99600000D01*
X101676666Y-99566666D01*
X101576666Y-99566666D01*
X101443333Y-99600000D01*
X101376666Y-99633333D01*
X101310000Y-99700000D01*
X101276666Y-99800000D01*
X101276666Y-99866666D01*
X101310000Y-99966666D01*
X101343333Y-100000000D01*
X101976666Y-100666666D02*
X101976666Y-100266666D01*
X101976666Y-100466666D02*
X101276666Y-100466666D01*
X101376666Y-100400000D01*
X101443333Y-100333333D01*
X101476666Y-100266666D01*
X101276666Y-100900000D02*
X101276666Y-101333333D01*
X101543333Y-101100000D01*
X101543333Y-101200000D01*
X101576666Y-101266666D01*
X101610000Y-101300000D01*
X101676666Y-101333333D01*
X101843333Y-101333333D01*
X101910000Y-101300000D01*
X101943333Y-101266666D01*
X101976666Y-101200000D01*
X101976666Y-101000000D01*
X101943333Y-100933333D01*
X101910000Y-100900000D01*
X90583333Y-123891666D02*
X90583333Y-124458333D01*
X90550000Y-124525000D01*
X90516666Y-124558333D01*
X90450000Y-124591666D01*
X90316666Y-124591666D01*
X90250000Y-124558333D01*
X90216666Y-124525000D01*
X90183333Y-124458333D01*
X90183333Y-123891666D01*
X89516666Y-123891666D02*
X89850000Y-123891666D01*
X89883333Y-124225000D01*
X89850000Y-124191666D01*
X89783333Y-124158333D01*
X89616666Y-124158333D01*
X89550000Y-124191666D01*
X89516666Y-124225000D01*
X89483333Y-124291666D01*
X89483333Y-124458333D01*
X89516666Y-124525000D01*
X89550000Y-124558333D01*
X89616666Y-124591666D01*
X89783333Y-124591666D01*
X89850000Y-124558333D01*
X89883333Y-124525000D01*
X58753333Y-106409333D02*
X58753333Y-106742666D01*
X58986666Y-106042666D02*
X58753333Y-106409333D01*
X58520000Y-106042666D01*
X57920000Y-106742666D02*
X58320000Y-106742666D01*
X58120000Y-106742666D02*
X58120000Y-106042666D01*
X58186666Y-106142666D01*
X58253333Y-106209333D01*
X58320000Y-106242666D01*
X79781333Y-124276666D02*
X79781333Y-124843333D01*
X79748000Y-124910000D01*
X79714666Y-124943333D01*
X79648000Y-124976666D01*
X79514666Y-124976666D01*
X79448000Y-124943333D01*
X79414666Y-124910000D01*
X79381333Y-124843333D01*
X79381333Y-124276666D01*
X78748000Y-124510000D02*
X78748000Y-124976666D01*
X78914666Y-124243333D02*
X79081333Y-124743333D01*
X78648000Y-124743333D01*
X106042666Y-121894666D02*
X106609333Y-121894666D01*
X106676000Y-121928000D01*
X106709333Y-121961333D01*
X106742666Y-122028000D01*
X106742666Y-122161333D01*
X106709333Y-122228000D01*
X106676000Y-122261333D01*
X106609333Y-122294666D01*
X106042666Y-122294666D01*
X106042666Y-122561333D02*
X106042666Y-122994666D01*
X106309333Y-122761333D01*
X106309333Y-122861333D01*
X106342666Y-122928000D01*
X106376000Y-122961333D01*
X106442666Y-122994666D01*
X106609333Y-122994666D01*
X106676000Y-122961333D01*
X106709333Y-122928000D01*
X106742666Y-122861333D01*
X106742666Y-122661333D01*
X106709333Y-122594666D01*
X106676000Y-122561333D01*
X104964666Y-109357333D02*
X104631333Y-109124000D01*
X104964666Y-108957333D02*
X104264666Y-108957333D01*
X104264666Y-109224000D01*
X104298000Y-109290666D01*
X104331333Y-109324000D01*
X104398000Y-109357333D01*
X104498000Y-109357333D01*
X104564666Y-109324000D01*
X104598000Y-109290666D01*
X104631333Y-109224000D01*
X104631333Y-108957333D01*
X104264666Y-109957333D02*
X104264666Y-109824000D01*
X104298000Y-109757333D01*
X104331333Y-109724000D01*
X104431333Y-109657333D01*
X104564666Y-109624000D01*
X104831333Y-109624000D01*
X104898000Y-109657333D01*
X104931333Y-109690666D01*
X104964666Y-109757333D01*
X104964666Y-109890666D01*
X104931333Y-109957333D01*
X104898000Y-109990666D01*
X104831333Y-110024000D01*
X104664666Y-110024000D01*
X104598000Y-109990666D01*
X104564666Y-109957333D01*
X104531333Y-109890666D01*
X104531333Y-109757333D01*
X104564666Y-109690666D01*
X104598000Y-109657333D01*
X104664666Y-109624000D01*
X102424666Y-109357333D02*
X102091333Y-109124000D01*
X102424666Y-108957333D02*
X101724666Y-108957333D01*
X101724666Y-109224000D01*
X101758000Y-109290666D01*
X101791333Y-109324000D01*
X101858000Y-109357333D01*
X101958000Y-109357333D01*
X102024666Y-109324000D01*
X102058000Y-109290666D01*
X102091333Y-109224000D01*
X102091333Y-108957333D01*
X101724666Y-109990666D02*
X101724666Y-109657333D01*
X102058000Y-109624000D01*
X102024666Y-109657333D01*
X101991333Y-109724000D01*
X101991333Y-109890666D01*
X102024666Y-109957333D01*
X102058000Y-109990666D01*
X102124666Y-110024000D01*
X102291333Y-110024000D01*
X102358000Y-109990666D01*
X102391333Y-109957333D01*
X102424666Y-109890666D01*
X102424666Y-109724000D01*
X102391333Y-109657333D01*
X102358000Y-109624000D01*
X82230666Y-100721333D02*
X81897333Y-100488000D01*
X82230666Y-100321333D02*
X81530666Y-100321333D01*
X81530666Y-100588000D01*
X81564000Y-100654666D01*
X81597333Y-100688000D01*
X81664000Y-100721333D01*
X81764000Y-100721333D01*
X81830666Y-100688000D01*
X81864000Y-100654666D01*
X81897333Y-100588000D01*
X81897333Y-100321333D01*
X81530666Y-100954666D02*
X81530666Y-101388000D01*
X81797333Y-101154666D01*
X81797333Y-101254666D01*
X81830666Y-101321333D01*
X81864000Y-101354666D01*
X81930666Y-101388000D01*
X82097333Y-101388000D01*
X82164000Y-101354666D01*
X82197333Y-101321333D01*
X82230666Y-101254666D01*
X82230666Y-101054666D01*
X82197333Y-100988000D01*
X82164000Y-100954666D01*
X75046666Y-104584666D02*
X75280000Y-104251333D01*
X75446666Y-104584666D02*
X75446666Y-103884666D01*
X75180000Y-103884666D01*
X75113333Y-103918000D01*
X75080000Y-103951333D01*
X75046666Y-104018000D01*
X75046666Y-104118000D01*
X75080000Y-104184666D01*
X75113333Y-104218000D01*
X75180000Y-104251333D01*
X75446666Y-104251333D01*
X74780000Y-103951333D02*
X74746666Y-103918000D01*
X74680000Y-103884666D01*
X74513333Y-103884666D01*
X74446666Y-103918000D01*
X74413333Y-103951333D01*
X74380000Y-104018000D01*
X74380000Y-104084666D01*
X74413333Y-104184666D01*
X74813333Y-104584666D01*
X74380000Y-104584666D01*
X75046666Y-109536666D02*
X75280000Y-109203333D01*
X75446666Y-109536666D02*
X75446666Y-108836666D01*
X75180000Y-108836666D01*
X75113333Y-108870000D01*
X75080000Y-108903333D01*
X75046666Y-108970000D01*
X75046666Y-109070000D01*
X75080000Y-109136666D01*
X75113333Y-109170000D01*
X75180000Y-109203333D01*
X75446666Y-109203333D01*
X74380000Y-109536666D02*
X74780000Y-109536666D01*
X74580000Y-109536666D02*
X74580000Y-108836666D01*
X74646666Y-108936666D01*
X74713333Y-109003333D01*
X74780000Y-109036666D01*
X95232000Y-117660000D02*
X95265333Y-117626666D01*
X95298666Y-117526666D01*
X95298666Y-117460000D01*
X95265333Y-117360000D01*
X95198666Y-117293333D01*
X95132000Y-117260000D01*
X94998666Y-117226666D01*
X94898666Y-117226666D01*
X94765333Y-117260000D01*
X94698666Y-117293333D01*
X94632000Y-117360000D01*
X94598666Y-117460000D01*
X94598666Y-117526666D01*
X94632000Y-117626666D01*
X94665333Y-117660000D01*
X95298666Y-118326666D02*
X95298666Y-117926666D01*
X95298666Y-118126666D02*
X94598666Y-118126666D01*
X94698666Y-118060000D01*
X94765333Y-117993333D01*
X94798666Y-117926666D01*
X95298666Y-118993333D02*
X95298666Y-118593333D01*
X95298666Y-118793333D02*
X94598666Y-118793333D01*
X94698666Y-118726666D01*
X94765333Y-118660000D01*
X94798666Y-118593333D01*
X82746000Y-113534000D02*
X82779333Y-113567333D01*
X82879333Y-113600666D01*
X82946000Y-113600666D01*
X83046000Y-113567333D01*
X83112666Y-113500666D01*
X83146000Y-113434000D01*
X83179333Y-113300666D01*
X83179333Y-113200666D01*
X83146000Y-113067333D01*
X83112666Y-113000666D01*
X83046000Y-112934000D01*
X82946000Y-112900666D01*
X82879333Y-112900666D01*
X82779333Y-112934000D01*
X82746000Y-112967333D01*
X82079333Y-113600666D02*
X82479333Y-113600666D01*
X82279333Y-113600666D02*
X82279333Y-112900666D01*
X82346000Y-113000666D01*
X82412666Y-113067333D01*
X82479333Y-113100666D01*
X81646000Y-112900666D02*
X81579333Y-112900666D01*
X81512666Y-112934000D01*
X81479333Y-112967333D01*
X81446000Y-113034000D01*
X81412666Y-113167333D01*
X81412666Y-113334000D01*
X81446000Y-113467333D01*
X81479333Y-113534000D01*
X81512666Y-113567333D01*
X81579333Y-113600666D01*
X81646000Y-113600666D01*
X81712666Y-113567333D01*
X81746000Y-113534000D01*
X81779333Y-113467333D01*
X81812666Y-113334000D01*
X81812666Y-113167333D01*
X81779333Y-113034000D01*
X81746000Y-112967333D01*
X81712666Y-112934000D01*
X81646000Y-112900666D01*
X97144666Y-99056000D02*
X97178000Y-99089333D01*
X97278000Y-99122666D01*
X97344666Y-99122666D01*
X97444666Y-99089333D01*
X97511333Y-99022666D01*
X97544666Y-98956000D01*
X97578000Y-98822666D01*
X97578000Y-98722666D01*
X97544666Y-98589333D01*
X97511333Y-98522666D01*
X97444666Y-98456000D01*
X97344666Y-98422666D01*
X97278000Y-98422666D01*
X97178000Y-98456000D01*
X97144666Y-98489333D01*
X96811333Y-99122666D02*
X96678000Y-99122666D01*
X96611333Y-99089333D01*
X96578000Y-99056000D01*
X96511333Y-98956000D01*
X96478000Y-98822666D01*
X96478000Y-98556000D01*
X96511333Y-98489333D01*
X96544666Y-98456000D01*
X96611333Y-98422666D01*
X96744666Y-98422666D01*
X96811333Y-98456000D01*
X96844666Y-98489333D01*
X96878000Y-98556000D01*
X96878000Y-98722666D01*
X96844666Y-98789333D01*
X96811333Y-98822666D01*
X96744666Y-98856000D01*
X96611333Y-98856000D01*
X96544666Y-98822666D01*
X96511333Y-98789333D01*
X96478000Y-98722666D01*
X97144666Y-101596000D02*
X97178000Y-101629333D01*
X97278000Y-101662666D01*
X97344666Y-101662666D01*
X97444666Y-101629333D01*
X97511333Y-101562666D01*
X97544666Y-101496000D01*
X97578000Y-101362666D01*
X97578000Y-101262666D01*
X97544666Y-101129333D01*
X97511333Y-101062666D01*
X97444666Y-100996000D01*
X97344666Y-100962666D01*
X97278000Y-100962666D01*
X97178000Y-100996000D01*
X97144666Y-101029333D01*
X96744666Y-101262666D02*
X96811333Y-101229333D01*
X96844666Y-101196000D01*
X96878000Y-101129333D01*
X96878000Y-101096000D01*
X96844666Y-101029333D01*
X96811333Y-100996000D01*
X96744666Y-100962666D01*
X96611333Y-100962666D01*
X96544666Y-100996000D01*
X96511333Y-101029333D01*
X96478000Y-101096000D01*
X96478000Y-101129333D01*
X96511333Y-101196000D01*
X96544666Y-101229333D01*
X96611333Y-101262666D01*
X96744666Y-101262666D01*
X96811333Y-101296000D01*
X96844666Y-101329333D01*
X96878000Y-101396000D01*
X96878000Y-101529333D01*
X96844666Y-101596000D01*
X96811333Y-101629333D01*
X96744666Y-101662666D01*
X96611333Y-101662666D01*
X96544666Y-101629333D01*
X96511333Y-101596000D01*
X96478000Y-101529333D01*
X96478000Y-101396000D01*
X96511333Y-101329333D01*
X96544666Y-101296000D01*
X96611333Y-101262666D01*
X77974000Y-104277333D02*
X78007333Y-104244000D01*
X78040666Y-104144000D01*
X78040666Y-104077333D01*
X78007333Y-103977333D01*
X77940666Y-103910666D01*
X77874000Y-103877333D01*
X77740666Y-103844000D01*
X77640666Y-103844000D01*
X77507333Y-103877333D01*
X77440666Y-103910666D01*
X77374000Y-103977333D01*
X77340666Y-104077333D01*
X77340666Y-104144000D01*
X77374000Y-104244000D01*
X77407333Y-104277333D01*
X77340666Y-104910666D02*
X77340666Y-104577333D01*
X77674000Y-104544000D01*
X77640666Y-104577333D01*
X77607333Y-104644000D01*
X77607333Y-104810666D01*
X77640666Y-104877333D01*
X77674000Y-104910666D01*
X77740666Y-104944000D01*
X77907333Y-104944000D01*
X77974000Y-104910666D01*
X78007333Y-104877333D01*
X78040666Y-104810666D01*
X78040666Y-104644000D01*
X78007333Y-104577333D01*
X77974000Y-104544000D01*
X70608000Y-106309333D02*
X70641333Y-106276000D01*
X70674666Y-106176000D01*
X70674666Y-106109333D01*
X70641333Y-106009333D01*
X70574666Y-105942666D01*
X70508000Y-105909333D01*
X70374666Y-105876000D01*
X70274666Y-105876000D01*
X70141333Y-105909333D01*
X70074666Y-105942666D01*
X70008000Y-106009333D01*
X69974666Y-106109333D01*
X69974666Y-106176000D01*
X70008000Y-106276000D01*
X70041333Y-106309333D01*
X69974666Y-106542666D02*
X69974666Y-106976000D01*
X70241333Y-106742666D01*
X70241333Y-106842666D01*
X70274666Y-106909333D01*
X70308000Y-106942666D01*
X70374666Y-106976000D01*
X70541333Y-106976000D01*
X70608000Y-106942666D01*
X70641333Y-106909333D01*
X70674666Y-106842666D01*
X70674666Y-106642666D01*
X70641333Y-106576000D01*
X70608000Y-106542666D01*
X68859333Y-123260666D02*
X68859333Y-123827333D01*
X68826000Y-123894000D01*
X68792666Y-123927333D01*
X68726000Y-123960666D01*
X68592666Y-123960666D01*
X68526000Y-123927333D01*
X68492666Y-123894000D01*
X68459333Y-123827333D01*
X68459333Y-123260666D01*
X68192666Y-123260666D02*
X67726000Y-123260666D01*
X68026000Y-123960666D01*
X52603333Y-123822666D02*
X52603333Y-124389333D01*
X52570000Y-124456000D01*
X52536666Y-124489333D01*
X52470000Y-124522666D01*
X52336666Y-124522666D01*
X52270000Y-124489333D01*
X52236666Y-124456000D01*
X52203333Y-124389333D01*
X52203333Y-123822666D01*
X51570000Y-123822666D02*
X51703333Y-123822666D01*
X51770000Y-123856000D01*
X51803333Y-123889333D01*
X51870000Y-123989333D01*
X51903333Y-124122666D01*
X51903333Y-124389333D01*
X51870000Y-124456000D01*
X51836666Y-124489333D01*
X51770000Y-124522666D01*
X51636666Y-124522666D01*
X51570000Y-124489333D01*
X51536666Y-124456000D01*
X51503333Y-124389333D01*
X51503333Y-124222666D01*
X51536666Y-124156000D01*
X51570000Y-124122666D01*
X51636666Y-124089333D01*
X51770000Y-124089333D01*
X51836666Y-124122666D01*
X51870000Y-124156000D01*
X51903333Y-124222666D01*
X53910666Y-102420000D02*
X53577333Y-102186666D01*
X53910666Y-102020000D02*
X53210666Y-102020000D01*
X53210666Y-102286666D01*
X53244000Y-102353333D01*
X53277333Y-102386666D01*
X53344000Y-102420000D01*
X53444000Y-102420000D01*
X53510666Y-102386666D01*
X53544000Y-102353333D01*
X53577333Y-102286666D01*
X53577333Y-102020000D01*
X53277333Y-102686666D02*
X53244000Y-102720000D01*
X53210666Y-102786666D01*
X53210666Y-102953333D01*
X53244000Y-103020000D01*
X53277333Y-103053333D01*
X53344000Y-103086666D01*
X53410666Y-103086666D01*
X53510666Y-103053333D01*
X53910666Y-102653333D01*
X53910666Y-103086666D01*
X53210666Y-103720000D02*
X53210666Y-103386666D01*
X53544000Y-103353333D01*
X53510666Y-103386666D01*
X53477333Y-103453333D01*
X53477333Y-103620000D01*
X53510666Y-103686666D01*
X53544000Y-103720000D01*
X53610666Y-103753333D01*
X53777333Y-103753333D01*
X53844000Y-103720000D01*
X53877333Y-103686666D01*
X53910666Y-103620000D01*
X53910666Y-103453333D01*
X53877333Y-103386666D01*
X53844000Y-103353333D01*
X51370666Y-102420000D02*
X51037333Y-102186666D01*
X51370666Y-102020000D02*
X50670666Y-102020000D01*
X50670666Y-102286666D01*
X50704000Y-102353333D01*
X50737333Y-102386666D01*
X50804000Y-102420000D01*
X50904000Y-102420000D01*
X50970666Y-102386666D01*
X51004000Y-102353333D01*
X51037333Y-102286666D01*
X51037333Y-102020000D01*
X50737333Y-102686666D02*
X50704000Y-102720000D01*
X50670666Y-102786666D01*
X50670666Y-102953333D01*
X50704000Y-103020000D01*
X50737333Y-103053333D01*
X50804000Y-103086666D01*
X50870666Y-103086666D01*
X50970666Y-103053333D01*
X51370666Y-102653333D01*
X51370666Y-103086666D01*
X50904000Y-103686666D02*
X51370666Y-103686666D01*
X50637333Y-103520000D02*
X51137333Y-103353333D01*
X51137333Y-103786666D01*
X46290666Y-104452000D02*
X45957333Y-104218666D01*
X46290666Y-104052000D02*
X45590666Y-104052000D01*
X45590666Y-104318666D01*
X45624000Y-104385333D01*
X45657333Y-104418666D01*
X45724000Y-104452000D01*
X45824000Y-104452000D01*
X45890666Y-104418666D01*
X45924000Y-104385333D01*
X45957333Y-104318666D01*
X45957333Y-104052000D01*
X45657333Y-104718666D02*
X45624000Y-104752000D01*
X45590666Y-104818666D01*
X45590666Y-104985333D01*
X45624000Y-105052000D01*
X45657333Y-105085333D01*
X45724000Y-105118666D01*
X45790666Y-105118666D01*
X45890666Y-105085333D01*
X46290666Y-104685333D01*
X46290666Y-105118666D01*
X45590666Y-105352000D02*
X45590666Y-105785333D01*
X45857333Y-105552000D01*
X45857333Y-105652000D01*
X45890666Y-105718666D01*
X45924000Y-105752000D01*
X45990666Y-105785333D01*
X46157333Y-105785333D01*
X46224000Y-105752000D01*
X46257333Y-105718666D01*
X46290666Y-105652000D01*
X46290666Y-105452000D01*
X46257333Y-105385333D01*
X46224000Y-105352000D01*
X96710666Y-113342000D02*
X96377333Y-113108666D01*
X96710666Y-112942000D02*
X96010666Y-112942000D01*
X96010666Y-113208666D01*
X96044000Y-113275333D01*
X96077333Y-113308666D01*
X96144000Y-113342000D01*
X96244000Y-113342000D01*
X96310666Y-113308666D01*
X96344000Y-113275333D01*
X96377333Y-113208666D01*
X96377333Y-112942000D01*
X96710666Y-114008666D02*
X96710666Y-113608666D01*
X96710666Y-113808666D02*
X96010666Y-113808666D01*
X96110666Y-113742000D01*
X96177333Y-113675333D01*
X96210666Y-113608666D01*
X96310666Y-114408666D02*
X96277333Y-114342000D01*
X96244000Y-114308666D01*
X96177333Y-114275333D01*
X96144000Y-114275333D01*
X96077333Y-114308666D01*
X96044000Y-114342000D01*
X96010666Y-114408666D01*
X96010666Y-114542000D01*
X96044000Y-114608666D01*
X96077333Y-114642000D01*
X96144000Y-114675333D01*
X96177333Y-114675333D01*
X96244000Y-114642000D01*
X96277333Y-114608666D01*
X96310666Y-114542000D01*
X96310666Y-114408666D01*
X96344000Y-114342000D01*
X96377333Y-114308666D01*
X96444000Y-114275333D01*
X96577333Y-114275333D01*
X96644000Y-114308666D01*
X96677333Y-114342000D01*
X96710666Y-114408666D01*
X96710666Y-114542000D01*
X96677333Y-114608666D01*
X96644000Y-114642000D01*
X96577333Y-114675333D01*
X96444000Y-114675333D01*
X96377333Y-114642000D01*
X96344000Y-114608666D01*
X96310666Y-114542000D01*
X100780000Y-108774666D02*
X101013333Y-108441333D01*
X101180000Y-108774666D02*
X101180000Y-108074666D01*
X100913333Y-108074666D01*
X100846666Y-108108000D01*
X100813333Y-108141333D01*
X100780000Y-108208000D01*
X100780000Y-108308000D01*
X100813333Y-108374666D01*
X100846666Y-108408000D01*
X100913333Y-108441333D01*
X101180000Y-108441333D01*
X100113333Y-108774666D02*
X100513333Y-108774666D01*
X100313333Y-108774666D02*
X100313333Y-108074666D01*
X100380000Y-108174666D01*
X100446666Y-108241333D01*
X100513333Y-108274666D01*
X99880000Y-108074666D02*
X99413333Y-108074666D01*
X99713333Y-108774666D01*
X90620000Y-107124666D02*
X90853333Y-106791333D01*
X91020000Y-107124666D02*
X91020000Y-106424666D01*
X90753333Y-106424666D01*
X90686666Y-106458000D01*
X90653333Y-106491333D01*
X90620000Y-106558000D01*
X90620000Y-106658000D01*
X90653333Y-106724666D01*
X90686666Y-106758000D01*
X90753333Y-106791333D01*
X91020000Y-106791333D01*
X89953333Y-107124666D02*
X90353333Y-107124666D01*
X90153333Y-107124666D02*
X90153333Y-106424666D01*
X90220000Y-106524666D01*
X90286666Y-106591333D01*
X90353333Y-106624666D01*
X89353333Y-106424666D02*
X89486666Y-106424666D01*
X89553333Y-106458000D01*
X89586666Y-106491333D01*
X89653333Y-106591333D01*
X89686666Y-106724666D01*
X89686666Y-106991333D01*
X89653333Y-107058000D01*
X89620000Y-107091333D01*
X89553333Y-107124666D01*
X89420000Y-107124666D01*
X89353333Y-107091333D01*
X89320000Y-107058000D01*
X89286666Y-106991333D01*
X89286666Y-106824666D01*
X89320000Y-106758000D01*
X89353333Y-106724666D01*
X89420000Y-106691333D01*
X89553333Y-106691333D01*
X89620000Y-106724666D01*
X89653333Y-106758000D01*
X89686666Y-106824666D01*
X55701333Y-113892666D02*
X55701333Y-114392666D01*
X55734666Y-114492666D01*
X55801333Y-114559333D01*
X55901333Y-114592666D01*
X55968000Y-114592666D01*
X55368000Y-114592666D02*
X55368000Y-113892666D01*
X55101333Y-113892666D01*
X55034666Y-113926000D01*
X55001333Y-113959333D01*
X54968000Y-114026000D01*
X54968000Y-114126000D01*
X55001333Y-114192666D01*
X55034666Y-114226000D01*
X55101333Y-114259333D01*
X55368000Y-114259333D01*
X54734666Y-113892666D02*
X54301333Y-113892666D01*
X54534666Y-114159333D01*
X54434666Y-114159333D01*
X54368000Y-114192666D01*
X54334666Y-114226000D01*
X54301333Y-114292666D01*
X54301333Y-114459333D01*
X54334666Y-114526000D01*
X54368000Y-114559333D01*
X54434666Y-114592666D01*
X54634666Y-114592666D01*
X54701333Y-114559333D01*
X54734666Y-114526000D01*
X59003333Y-113892666D02*
X59003333Y-114392666D01*
X59036666Y-114492666D01*
X59103333Y-114559333D01*
X59203333Y-114592666D01*
X59270000Y-114592666D01*
X58670000Y-114592666D02*
X58670000Y-113892666D01*
X58403333Y-113892666D01*
X58336666Y-113926000D01*
X58303333Y-113959333D01*
X58270000Y-114026000D01*
X58270000Y-114126000D01*
X58303333Y-114192666D01*
X58336666Y-114226000D01*
X58403333Y-114259333D01*
X58670000Y-114259333D01*
X57603333Y-114592666D02*
X58003333Y-114592666D01*
X57803333Y-114592666D02*
X57803333Y-113892666D01*
X57870000Y-113992666D01*
X57936666Y-114059333D01*
X58003333Y-114092666D01*
X96060000Y-122098666D02*
X96060000Y-121865333D01*
X96426666Y-121865333D02*
X95726666Y-121865333D01*
X95726666Y-122198666D01*
X96060000Y-122698666D02*
X96093333Y-122798666D01*
X96126666Y-122832000D01*
X96193333Y-122865333D01*
X96293333Y-122865333D01*
X96360000Y-122832000D01*
X96393333Y-122798666D01*
X96426666Y-122732000D01*
X96426666Y-122465333D01*
X95726666Y-122465333D01*
X95726666Y-122698666D01*
X95760000Y-122765333D01*
X95793333Y-122798666D01*
X95860000Y-122832000D01*
X95926666Y-122832000D01*
X95993333Y-122798666D01*
X96026666Y-122765333D01*
X96060000Y-122698666D01*
X96060000Y-122465333D01*
X95726666Y-123098666D02*
X95726666Y-123532000D01*
X95993333Y-123298666D01*
X95993333Y-123398666D01*
X96026666Y-123465333D01*
X96060000Y-123498666D01*
X96126666Y-123532000D01*
X96293333Y-123532000D01*
X96360000Y-123498666D01*
X96393333Y-123465333D01*
X96426666Y-123398666D01*
X96426666Y-123198666D01*
X96393333Y-123132000D01*
X96360000Y-123098666D01*
X82812666Y-130872666D02*
X82812666Y-130172666D01*
X82646000Y-130172666D01*
X82546000Y-130206000D01*
X82479333Y-130272666D01*
X82446000Y-130339333D01*
X82412666Y-130472666D01*
X82412666Y-130572666D01*
X82446000Y-130706000D01*
X82479333Y-130772666D01*
X82546000Y-130839333D01*
X82646000Y-130872666D01*
X82812666Y-130872666D01*
X81812666Y-130172666D02*
X81946000Y-130172666D01*
X82012666Y-130206000D01*
X82046000Y-130239333D01*
X82112666Y-130339333D01*
X82146000Y-130472666D01*
X82146000Y-130739333D01*
X82112666Y-130806000D01*
X82079333Y-130839333D01*
X82012666Y-130872666D01*
X81879333Y-130872666D01*
X81812666Y-130839333D01*
X81779333Y-130806000D01*
X81746000Y-130739333D01*
X81746000Y-130572666D01*
X81779333Y-130506000D01*
X81812666Y-130472666D01*
X81879333Y-130439333D01*
X82012666Y-130439333D01*
X82079333Y-130472666D01*
X82112666Y-130506000D01*
X82146000Y-130572666D01*
X48322666Y-102607333D02*
X47622666Y-102607333D01*
X47622666Y-102774000D01*
X47656000Y-102874000D01*
X47722666Y-102940666D01*
X47789333Y-102974000D01*
X47922666Y-103007333D01*
X48022666Y-103007333D01*
X48156000Y-102974000D01*
X48222666Y-102940666D01*
X48289333Y-102874000D01*
X48322666Y-102774000D01*
X48322666Y-102607333D01*
X47856000Y-103607333D02*
X48322666Y-103607333D01*
X47589333Y-103440666D02*
X48089333Y-103274000D01*
X48089333Y-103707333D01*
M02*
