G04 #@! TF.GenerationSoftware,KiCad,Pcbnew,5.1.5+dfsg1-2build2*
G04 #@! TF.CreationDate,2022-11-02T21:13:42+00:00*
G04 #@! TF.ProjectId,psion-speech-sp0256al2,7073696f-6e2d-4737-9065-6563682d7370,rev?*
G04 #@! TF.SameCoordinates,Original*
G04 #@! TF.FileFunction,Soldermask,Top*
G04 #@! TF.FilePolarity,Negative*
%FSLAX46Y46*%
G04 Gerber Fmt 4.6, Leading zero omitted, Abs format (unit mm)*
G04 Created by KiCad (PCBNEW 5.1.5+dfsg1-2build2) date 2022-11-02 21:13:42*
%MOMM*%
%LPD*%
G04 APERTURE LIST*
%ADD10C,0.100000*%
G04 APERTURE END LIST*
D10*
G36*
X77473512Y-132303927D02*
G01*
X77622812Y-132333624D01*
X77786784Y-132401544D01*
X77934354Y-132500147D01*
X78059853Y-132625646D01*
X78158456Y-132773216D01*
X78226376Y-132937188D01*
X78261000Y-133111259D01*
X78261000Y-133288741D01*
X78226376Y-133462812D01*
X78158456Y-133626784D01*
X78059853Y-133774354D01*
X77934354Y-133899853D01*
X77786784Y-133998456D01*
X77622812Y-134066376D01*
X77473512Y-134096073D01*
X77448742Y-134101000D01*
X77271258Y-134101000D01*
X77246488Y-134096073D01*
X77097188Y-134066376D01*
X76933216Y-133998456D01*
X76785646Y-133899853D01*
X76660147Y-133774354D01*
X76561544Y-133626784D01*
X76493624Y-133462812D01*
X76459000Y-133288741D01*
X76459000Y-133111259D01*
X76493624Y-132937188D01*
X76561544Y-132773216D01*
X76660147Y-132625646D01*
X76785646Y-132500147D01*
X76933216Y-132401544D01*
X77097188Y-132333624D01*
X77246488Y-132303927D01*
X77271258Y-132299000D01*
X77448742Y-132299000D01*
X77473512Y-132303927D01*
G37*
G36*
X74933512Y-132303927D02*
G01*
X75082812Y-132333624D01*
X75246784Y-132401544D01*
X75394354Y-132500147D01*
X75519853Y-132625646D01*
X75618456Y-132773216D01*
X75686376Y-132937188D01*
X75721000Y-133111259D01*
X75721000Y-133288741D01*
X75686376Y-133462812D01*
X75618456Y-133626784D01*
X75519853Y-133774354D01*
X75394354Y-133899853D01*
X75246784Y-133998456D01*
X75082812Y-134066376D01*
X74933512Y-134096073D01*
X74908742Y-134101000D01*
X74731258Y-134101000D01*
X74706488Y-134096073D01*
X74557188Y-134066376D01*
X74393216Y-133998456D01*
X74245646Y-133899853D01*
X74120147Y-133774354D01*
X74021544Y-133626784D01*
X73953624Y-133462812D01*
X73919000Y-133288741D01*
X73919000Y-133111259D01*
X73953624Y-132937188D01*
X74021544Y-132773216D01*
X74120147Y-132625646D01*
X74245646Y-132500147D01*
X74393216Y-132401544D01*
X74557188Y-132333624D01*
X74706488Y-132303927D01*
X74731258Y-132299000D01*
X74908742Y-132299000D01*
X74933512Y-132303927D01*
G37*
G36*
X59693512Y-132303927D02*
G01*
X59842812Y-132333624D01*
X60006784Y-132401544D01*
X60154354Y-132500147D01*
X60279853Y-132625646D01*
X60378456Y-132773216D01*
X60446376Y-132937188D01*
X60481000Y-133111259D01*
X60481000Y-133288741D01*
X60446376Y-133462812D01*
X60378456Y-133626784D01*
X60279853Y-133774354D01*
X60154354Y-133899853D01*
X60006784Y-133998456D01*
X59842812Y-134066376D01*
X59693512Y-134096073D01*
X59668742Y-134101000D01*
X59491258Y-134101000D01*
X59466488Y-134096073D01*
X59317188Y-134066376D01*
X59153216Y-133998456D01*
X59005646Y-133899853D01*
X58880147Y-133774354D01*
X58781544Y-133626784D01*
X58713624Y-133462812D01*
X58679000Y-133288741D01*
X58679000Y-133111259D01*
X58713624Y-132937188D01*
X58781544Y-132773216D01*
X58880147Y-132625646D01*
X59005646Y-132500147D01*
X59153216Y-132401544D01*
X59317188Y-132333624D01*
X59466488Y-132303927D01*
X59491258Y-132299000D01*
X59668742Y-132299000D01*
X59693512Y-132303927D01*
G37*
G36*
X62233512Y-132303927D02*
G01*
X62382812Y-132333624D01*
X62546784Y-132401544D01*
X62694354Y-132500147D01*
X62819853Y-132625646D01*
X62918456Y-132773216D01*
X62986376Y-132937188D01*
X63021000Y-133111259D01*
X63021000Y-133288741D01*
X62986376Y-133462812D01*
X62918456Y-133626784D01*
X62819853Y-133774354D01*
X62694354Y-133899853D01*
X62546784Y-133998456D01*
X62382812Y-134066376D01*
X62233512Y-134096073D01*
X62208742Y-134101000D01*
X62031258Y-134101000D01*
X62006488Y-134096073D01*
X61857188Y-134066376D01*
X61693216Y-133998456D01*
X61545646Y-133899853D01*
X61420147Y-133774354D01*
X61321544Y-133626784D01*
X61253624Y-133462812D01*
X61219000Y-133288741D01*
X61219000Y-133111259D01*
X61253624Y-132937188D01*
X61321544Y-132773216D01*
X61420147Y-132625646D01*
X61545646Y-132500147D01*
X61693216Y-132401544D01*
X61857188Y-132333624D01*
X62006488Y-132303927D01*
X62031258Y-132299000D01*
X62208742Y-132299000D01*
X62233512Y-132303927D01*
G37*
G36*
X64773512Y-132303927D02*
G01*
X64922812Y-132333624D01*
X65086784Y-132401544D01*
X65234354Y-132500147D01*
X65359853Y-132625646D01*
X65458456Y-132773216D01*
X65526376Y-132937188D01*
X65561000Y-133111259D01*
X65561000Y-133288741D01*
X65526376Y-133462812D01*
X65458456Y-133626784D01*
X65359853Y-133774354D01*
X65234354Y-133899853D01*
X65086784Y-133998456D01*
X64922812Y-134066376D01*
X64773512Y-134096073D01*
X64748742Y-134101000D01*
X64571258Y-134101000D01*
X64546488Y-134096073D01*
X64397188Y-134066376D01*
X64233216Y-133998456D01*
X64085646Y-133899853D01*
X63960147Y-133774354D01*
X63861544Y-133626784D01*
X63793624Y-133462812D01*
X63759000Y-133288741D01*
X63759000Y-133111259D01*
X63793624Y-132937188D01*
X63861544Y-132773216D01*
X63960147Y-132625646D01*
X64085646Y-132500147D01*
X64233216Y-132401544D01*
X64397188Y-132333624D01*
X64546488Y-132303927D01*
X64571258Y-132299000D01*
X64748742Y-132299000D01*
X64773512Y-132303927D01*
G37*
G36*
X69853512Y-132303927D02*
G01*
X70002812Y-132333624D01*
X70166784Y-132401544D01*
X70314354Y-132500147D01*
X70439853Y-132625646D01*
X70538456Y-132773216D01*
X70606376Y-132937188D01*
X70641000Y-133111259D01*
X70641000Y-133288741D01*
X70606376Y-133462812D01*
X70538456Y-133626784D01*
X70439853Y-133774354D01*
X70314354Y-133899853D01*
X70166784Y-133998456D01*
X70002812Y-134066376D01*
X69853512Y-134096073D01*
X69828742Y-134101000D01*
X69651258Y-134101000D01*
X69626488Y-134096073D01*
X69477188Y-134066376D01*
X69313216Y-133998456D01*
X69165646Y-133899853D01*
X69040147Y-133774354D01*
X68941544Y-133626784D01*
X68873624Y-133462812D01*
X68839000Y-133288741D01*
X68839000Y-133111259D01*
X68873624Y-132937188D01*
X68941544Y-132773216D01*
X69040147Y-132625646D01*
X69165646Y-132500147D01*
X69313216Y-132401544D01*
X69477188Y-132333624D01*
X69626488Y-132303927D01*
X69651258Y-132299000D01*
X69828742Y-132299000D01*
X69853512Y-132303927D01*
G37*
G36*
X72393512Y-132303927D02*
G01*
X72542812Y-132333624D01*
X72706784Y-132401544D01*
X72854354Y-132500147D01*
X72979853Y-132625646D01*
X73078456Y-132773216D01*
X73146376Y-132937188D01*
X73181000Y-133111259D01*
X73181000Y-133288741D01*
X73146376Y-133462812D01*
X73078456Y-133626784D01*
X72979853Y-133774354D01*
X72854354Y-133899853D01*
X72706784Y-133998456D01*
X72542812Y-134066376D01*
X72393512Y-134096073D01*
X72368742Y-134101000D01*
X72191258Y-134101000D01*
X72166488Y-134096073D01*
X72017188Y-134066376D01*
X71853216Y-133998456D01*
X71705646Y-133899853D01*
X71580147Y-133774354D01*
X71481544Y-133626784D01*
X71413624Y-133462812D01*
X71379000Y-133288741D01*
X71379000Y-133111259D01*
X71413624Y-132937188D01*
X71481544Y-132773216D01*
X71580147Y-132625646D01*
X71705646Y-132500147D01*
X71853216Y-132401544D01*
X72017188Y-132333624D01*
X72166488Y-132303927D01*
X72191258Y-132299000D01*
X72368742Y-132299000D01*
X72393512Y-132303927D01*
G37*
G36*
X67313512Y-132303927D02*
G01*
X67462812Y-132333624D01*
X67626784Y-132401544D01*
X67774354Y-132500147D01*
X67899853Y-132625646D01*
X67998456Y-132773216D01*
X68066376Y-132937188D01*
X68101000Y-133111259D01*
X68101000Y-133288741D01*
X68066376Y-133462812D01*
X67998456Y-133626784D01*
X67899853Y-133774354D01*
X67774354Y-133899853D01*
X67626784Y-133998456D01*
X67462812Y-134066376D01*
X67313512Y-134096073D01*
X67288742Y-134101000D01*
X67111258Y-134101000D01*
X67086488Y-134096073D01*
X66937188Y-134066376D01*
X66773216Y-133998456D01*
X66625646Y-133899853D01*
X66500147Y-133774354D01*
X66401544Y-133626784D01*
X66333624Y-133462812D01*
X66299000Y-133288741D01*
X66299000Y-133111259D01*
X66333624Y-132937188D01*
X66401544Y-132773216D01*
X66500147Y-132625646D01*
X66625646Y-132500147D01*
X66773216Y-132401544D01*
X66937188Y-132333624D01*
X67086488Y-132303927D01*
X67111258Y-132299000D01*
X67288742Y-132299000D01*
X67313512Y-132303927D01*
G37*
G36*
X62233512Y-129763927D02*
G01*
X62382812Y-129793624D01*
X62546784Y-129861544D01*
X62694354Y-129960147D01*
X62819853Y-130085646D01*
X62918456Y-130233216D01*
X62986376Y-130397188D01*
X63021000Y-130571259D01*
X63021000Y-130748741D01*
X62986376Y-130922812D01*
X62918456Y-131086784D01*
X62819853Y-131234354D01*
X62694354Y-131359853D01*
X62546784Y-131458456D01*
X62382812Y-131526376D01*
X62233512Y-131556073D01*
X62208742Y-131561000D01*
X62031258Y-131561000D01*
X62006488Y-131556073D01*
X61857188Y-131526376D01*
X61693216Y-131458456D01*
X61545646Y-131359853D01*
X61420147Y-131234354D01*
X61321544Y-131086784D01*
X61253624Y-130922812D01*
X61219000Y-130748741D01*
X61219000Y-130571259D01*
X61253624Y-130397188D01*
X61321544Y-130233216D01*
X61420147Y-130085646D01*
X61545646Y-129960147D01*
X61693216Y-129861544D01*
X61857188Y-129793624D01*
X62006488Y-129763927D01*
X62031258Y-129759000D01*
X62208742Y-129759000D01*
X62233512Y-129763927D01*
G37*
G36*
X64773512Y-129763927D02*
G01*
X64922812Y-129793624D01*
X65086784Y-129861544D01*
X65234354Y-129960147D01*
X65359853Y-130085646D01*
X65458456Y-130233216D01*
X65526376Y-130397188D01*
X65561000Y-130571259D01*
X65561000Y-130748741D01*
X65526376Y-130922812D01*
X65458456Y-131086784D01*
X65359853Y-131234354D01*
X65234354Y-131359853D01*
X65086784Y-131458456D01*
X64922812Y-131526376D01*
X64773512Y-131556073D01*
X64748742Y-131561000D01*
X64571258Y-131561000D01*
X64546488Y-131556073D01*
X64397188Y-131526376D01*
X64233216Y-131458456D01*
X64085646Y-131359853D01*
X63960147Y-131234354D01*
X63861544Y-131086784D01*
X63793624Y-130922812D01*
X63759000Y-130748741D01*
X63759000Y-130571259D01*
X63793624Y-130397188D01*
X63861544Y-130233216D01*
X63960147Y-130085646D01*
X64085646Y-129960147D01*
X64233216Y-129861544D01*
X64397188Y-129793624D01*
X64546488Y-129763927D01*
X64571258Y-129759000D01*
X64748742Y-129759000D01*
X64773512Y-129763927D01*
G37*
G36*
X69853512Y-129763927D02*
G01*
X70002812Y-129793624D01*
X70166784Y-129861544D01*
X70314354Y-129960147D01*
X70439853Y-130085646D01*
X70538456Y-130233216D01*
X70606376Y-130397188D01*
X70641000Y-130571259D01*
X70641000Y-130748741D01*
X70606376Y-130922812D01*
X70538456Y-131086784D01*
X70439853Y-131234354D01*
X70314354Y-131359853D01*
X70166784Y-131458456D01*
X70002812Y-131526376D01*
X69853512Y-131556073D01*
X69828742Y-131561000D01*
X69651258Y-131561000D01*
X69626488Y-131556073D01*
X69477188Y-131526376D01*
X69313216Y-131458456D01*
X69165646Y-131359853D01*
X69040147Y-131234354D01*
X68941544Y-131086784D01*
X68873624Y-130922812D01*
X68839000Y-130748741D01*
X68839000Y-130571259D01*
X68873624Y-130397188D01*
X68941544Y-130233216D01*
X69040147Y-130085646D01*
X69165646Y-129960147D01*
X69313216Y-129861544D01*
X69477188Y-129793624D01*
X69626488Y-129763927D01*
X69651258Y-129759000D01*
X69828742Y-129759000D01*
X69853512Y-129763927D01*
G37*
G36*
X67313512Y-129763927D02*
G01*
X67462812Y-129793624D01*
X67626784Y-129861544D01*
X67774354Y-129960147D01*
X67899853Y-130085646D01*
X67998456Y-130233216D01*
X68066376Y-130397188D01*
X68101000Y-130571259D01*
X68101000Y-130748741D01*
X68066376Y-130922812D01*
X67998456Y-131086784D01*
X67899853Y-131234354D01*
X67774354Y-131359853D01*
X67626784Y-131458456D01*
X67462812Y-131526376D01*
X67313512Y-131556073D01*
X67288742Y-131561000D01*
X67111258Y-131561000D01*
X67086488Y-131556073D01*
X66937188Y-131526376D01*
X66773216Y-131458456D01*
X66625646Y-131359853D01*
X66500147Y-131234354D01*
X66401544Y-131086784D01*
X66333624Y-130922812D01*
X66299000Y-130748741D01*
X66299000Y-130571259D01*
X66333624Y-130397188D01*
X66401544Y-130233216D01*
X66500147Y-130085646D01*
X66625646Y-129960147D01*
X66773216Y-129861544D01*
X66937188Y-129793624D01*
X67086488Y-129763927D01*
X67111258Y-129759000D01*
X67288742Y-129759000D01*
X67313512Y-129763927D01*
G37*
G36*
X77473512Y-129763927D02*
G01*
X77622812Y-129793624D01*
X77786784Y-129861544D01*
X77934354Y-129960147D01*
X78059853Y-130085646D01*
X78158456Y-130233216D01*
X78226376Y-130397188D01*
X78261000Y-130571259D01*
X78261000Y-130748741D01*
X78226376Y-130922812D01*
X78158456Y-131086784D01*
X78059853Y-131234354D01*
X77934354Y-131359853D01*
X77786784Y-131458456D01*
X77622812Y-131526376D01*
X77473512Y-131556073D01*
X77448742Y-131561000D01*
X77271258Y-131561000D01*
X77246488Y-131556073D01*
X77097188Y-131526376D01*
X76933216Y-131458456D01*
X76785646Y-131359853D01*
X76660147Y-131234354D01*
X76561544Y-131086784D01*
X76493624Y-130922812D01*
X76459000Y-130748741D01*
X76459000Y-130571259D01*
X76493624Y-130397188D01*
X76561544Y-130233216D01*
X76660147Y-130085646D01*
X76785646Y-129960147D01*
X76933216Y-129861544D01*
X77097188Y-129793624D01*
X77246488Y-129763927D01*
X77271258Y-129759000D01*
X77448742Y-129759000D01*
X77473512Y-129763927D01*
G37*
G36*
X60561000Y-131561000D02*
G01*
X58759000Y-131561000D01*
X58759000Y-129759000D01*
X60561000Y-129759000D01*
X60561000Y-131561000D01*
G37*
G36*
X72393512Y-129763927D02*
G01*
X72542812Y-129793624D01*
X72706784Y-129861544D01*
X72854354Y-129960147D01*
X72979853Y-130085646D01*
X73078456Y-130233216D01*
X73146376Y-130397188D01*
X73181000Y-130571259D01*
X73181000Y-130748741D01*
X73146376Y-130922812D01*
X73078456Y-131086784D01*
X72979853Y-131234354D01*
X72854354Y-131359853D01*
X72706784Y-131458456D01*
X72542812Y-131526376D01*
X72393512Y-131556073D01*
X72368742Y-131561000D01*
X72191258Y-131561000D01*
X72166488Y-131556073D01*
X72017188Y-131526376D01*
X71853216Y-131458456D01*
X71705646Y-131359853D01*
X71580147Y-131234354D01*
X71481544Y-131086784D01*
X71413624Y-130922812D01*
X71379000Y-130748741D01*
X71379000Y-130571259D01*
X71413624Y-130397188D01*
X71481544Y-130233216D01*
X71580147Y-130085646D01*
X71705646Y-129960147D01*
X71853216Y-129861544D01*
X72017188Y-129793624D01*
X72166488Y-129763927D01*
X72191258Y-129759000D01*
X72368742Y-129759000D01*
X72393512Y-129763927D01*
G37*
G36*
X74933512Y-129763927D02*
G01*
X75082812Y-129793624D01*
X75246784Y-129861544D01*
X75394354Y-129960147D01*
X75519853Y-130085646D01*
X75618456Y-130233216D01*
X75686376Y-130397188D01*
X75721000Y-130571259D01*
X75721000Y-130748741D01*
X75686376Y-130922812D01*
X75618456Y-131086784D01*
X75519853Y-131234354D01*
X75394354Y-131359853D01*
X75246784Y-131458456D01*
X75082812Y-131526376D01*
X74933512Y-131556073D01*
X74908742Y-131561000D01*
X74731258Y-131561000D01*
X74706488Y-131556073D01*
X74557188Y-131526376D01*
X74393216Y-131458456D01*
X74245646Y-131359853D01*
X74120147Y-131234354D01*
X74021544Y-131086784D01*
X73953624Y-130922812D01*
X73919000Y-130748741D01*
X73919000Y-130571259D01*
X73953624Y-130397188D01*
X74021544Y-130233216D01*
X74120147Y-130085646D01*
X74245646Y-129960147D01*
X74393216Y-129861544D01*
X74557188Y-129793624D01*
X74706488Y-129763927D01*
X74731258Y-129759000D01*
X74908742Y-129759000D01*
X74933512Y-129763927D01*
G37*
G36*
X94307162Y-129385644D02*
G01*
X94346608Y-129397610D01*
X94382953Y-129417037D01*
X94414815Y-129443185D01*
X94440963Y-129475047D01*
X94460390Y-129511392D01*
X94472356Y-129550838D01*
X94477000Y-129597993D01*
X94477000Y-130291007D01*
X94472356Y-130338162D01*
X94460390Y-130377608D01*
X94440963Y-130413953D01*
X94414815Y-130445815D01*
X94382953Y-130471963D01*
X94346608Y-130491390D01*
X94307162Y-130503356D01*
X94260007Y-130508000D01*
X93191993Y-130508000D01*
X93144838Y-130503356D01*
X93105392Y-130491390D01*
X93069047Y-130471963D01*
X93037185Y-130445815D01*
X93011037Y-130413953D01*
X92991610Y-130377608D01*
X92979644Y-130338162D01*
X92975000Y-130291007D01*
X92975000Y-129597993D01*
X92979644Y-129550838D01*
X92991610Y-129511392D01*
X93011037Y-129475047D01*
X93037185Y-129443185D01*
X93069047Y-129417037D01*
X93105392Y-129397610D01*
X93144838Y-129385644D01*
X93191993Y-129381000D01*
X94260007Y-129381000D01*
X94307162Y-129385644D01*
G37*
G36*
X96847162Y-129385644D02*
G01*
X96886608Y-129397610D01*
X96922953Y-129417037D01*
X96954815Y-129443185D01*
X96980963Y-129475047D01*
X97000390Y-129511392D01*
X97012356Y-129550838D01*
X97017000Y-129597993D01*
X97017000Y-130291007D01*
X97012356Y-130338162D01*
X97000390Y-130377608D01*
X96980963Y-130413953D01*
X96954815Y-130445815D01*
X96922953Y-130471963D01*
X96886608Y-130491390D01*
X96847162Y-130503356D01*
X96800007Y-130508000D01*
X95731993Y-130508000D01*
X95684838Y-130503356D01*
X95645392Y-130491390D01*
X95609047Y-130471963D01*
X95577185Y-130445815D01*
X95551037Y-130413953D01*
X95531610Y-130377608D01*
X95519644Y-130338162D01*
X95515000Y-130291007D01*
X95515000Y-129597993D01*
X95519644Y-129550838D01*
X95531610Y-129511392D01*
X95551037Y-129475047D01*
X95577185Y-129443185D01*
X95609047Y-129417037D01*
X95645392Y-129397610D01*
X95684838Y-129385644D01*
X95731993Y-129381000D01*
X96800007Y-129381000D01*
X96847162Y-129385644D01*
G37*
G36*
X99387162Y-129385644D02*
G01*
X99426608Y-129397610D01*
X99462953Y-129417037D01*
X99494815Y-129443185D01*
X99520963Y-129475047D01*
X99540390Y-129511392D01*
X99552356Y-129550838D01*
X99557000Y-129597993D01*
X99557000Y-130291007D01*
X99552356Y-130338162D01*
X99540390Y-130377608D01*
X99520963Y-130413953D01*
X99494815Y-130445815D01*
X99462953Y-130471963D01*
X99426608Y-130491390D01*
X99387162Y-130503356D01*
X99340007Y-130508000D01*
X98271993Y-130508000D01*
X98224838Y-130503356D01*
X98185392Y-130491390D01*
X98149047Y-130471963D01*
X98117185Y-130445815D01*
X98091037Y-130413953D01*
X98071610Y-130377608D01*
X98059644Y-130338162D01*
X98055000Y-130291007D01*
X98055000Y-129597993D01*
X98059644Y-129550838D01*
X98071610Y-129511392D01*
X98091037Y-129475047D01*
X98117185Y-129443185D01*
X98149047Y-129417037D01*
X98185392Y-129397610D01*
X98224838Y-129385644D01*
X98271993Y-129381000D01*
X99340007Y-129381000D01*
X99387162Y-129385644D01*
G37*
G36*
X94307162Y-127560644D02*
G01*
X94346608Y-127572610D01*
X94382953Y-127592037D01*
X94414815Y-127618185D01*
X94440963Y-127650047D01*
X94460390Y-127686392D01*
X94472356Y-127725838D01*
X94477000Y-127772993D01*
X94477000Y-128466007D01*
X94472356Y-128513162D01*
X94460390Y-128552608D01*
X94440963Y-128588953D01*
X94414815Y-128620815D01*
X94382953Y-128646963D01*
X94346608Y-128666390D01*
X94307162Y-128678356D01*
X94260007Y-128683000D01*
X93191993Y-128683000D01*
X93144838Y-128678356D01*
X93105392Y-128666390D01*
X93069047Y-128646963D01*
X93037185Y-128620815D01*
X93011037Y-128588953D01*
X92991610Y-128552608D01*
X92979644Y-128513162D01*
X92975000Y-128466007D01*
X92975000Y-127772993D01*
X92979644Y-127725838D01*
X92991610Y-127686392D01*
X93011037Y-127650047D01*
X93037185Y-127618185D01*
X93069047Y-127592037D01*
X93105392Y-127572610D01*
X93144838Y-127560644D01*
X93191993Y-127556000D01*
X94260007Y-127556000D01*
X94307162Y-127560644D01*
G37*
G36*
X99387162Y-127560644D02*
G01*
X99426608Y-127572610D01*
X99462953Y-127592037D01*
X99494815Y-127618185D01*
X99520963Y-127650047D01*
X99540390Y-127686392D01*
X99552356Y-127725838D01*
X99557000Y-127772993D01*
X99557000Y-128466007D01*
X99552356Y-128513162D01*
X99540390Y-128552608D01*
X99520963Y-128588953D01*
X99494815Y-128620815D01*
X99462953Y-128646963D01*
X99426608Y-128666390D01*
X99387162Y-128678356D01*
X99340007Y-128683000D01*
X98271993Y-128683000D01*
X98224838Y-128678356D01*
X98185392Y-128666390D01*
X98149047Y-128646963D01*
X98117185Y-128620815D01*
X98091037Y-128588953D01*
X98071610Y-128552608D01*
X98059644Y-128513162D01*
X98055000Y-128466007D01*
X98055000Y-127772993D01*
X98059644Y-127725838D01*
X98071610Y-127686392D01*
X98091037Y-127650047D01*
X98117185Y-127618185D01*
X98149047Y-127592037D01*
X98185392Y-127572610D01*
X98224838Y-127560644D01*
X98271993Y-127556000D01*
X99340007Y-127556000D01*
X99387162Y-127560644D01*
G37*
G36*
X96847162Y-127560644D02*
G01*
X96886608Y-127572610D01*
X96922953Y-127592037D01*
X96954815Y-127618185D01*
X96980963Y-127650047D01*
X97000390Y-127686392D01*
X97012356Y-127725838D01*
X97017000Y-127772993D01*
X97017000Y-128466007D01*
X97012356Y-128513162D01*
X97000390Y-128552608D01*
X96980963Y-128588953D01*
X96954815Y-128620815D01*
X96922953Y-128646963D01*
X96886608Y-128666390D01*
X96847162Y-128678356D01*
X96800007Y-128683000D01*
X95731993Y-128683000D01*
X95684838Y-128678356D01*
X95645392Y-128666390D01*
X95609047Y-128646963D01*
X95577185Y-128620815D01*
X95551037Y-128588953D01*
X95531610Y-128552608D01*
X95519644Y-128513162D01*
X95515000Y-128466007D01*
X95515000Y-127772993D01*
X95519644Y-127725838D01*
X95531610Y-127686392D01*
X95551037Y-127650047D01*
X95577185Y-127618185D01*
X95609047Y-127592037D01*
X95645392Y-127572610D01*
X95684838Y-127560644D01*
X95731993Y-127556000D01*
X96800007Y-127556000D01*
X96847162Y-127560644D01*
G37*
G36*
X62557162Y-127353644D02*
G01*
X62596608Y-127365610D01*
X62632953Y-127385037D01*
X62664815Y-127411185D01*
X62690963Y-127443047D01*
X62710390Y-127479392D01*
X62722356Y-127518838D01*
X62727000Y-127565993D01*
X62727000Y-128259007D01*
X62722356Y-128306162D01*
X62710390Y-128345608D01*
X62690963Y-128381953D01*
X62664815Y-128413815D01*
X62632953Y-128439963D01*
X62596608Y-128459390D01*
X62557162Y-128471356D01*
X62510007Y-128476000D01*
X61441993Y-128476000D01*
X61394838Y-128471356D01*
X61355392Y-128459390D01*
X61319047Y-128439963D01*
X61287185Y-128413815D01*
X61261037Y-128381953D01*
X61241610Y-128345608D01*
X61229644Y-128306162D01*
X61225000Y-128259007D01*
X61225000Y-127565993D01*
X61229644Y-127518838D01*
X61241610Y-127479392D01*
X61261037Y-127443047D01*
X61287185Y-127411185D01*
X61319047Y-127385037D01*
X61355392Y-127365610D01*
X61394838Y-127353644D01*
X61441993Y-127349000D01*
X62510007Y-127349000D01*
X62557162Y-127353644D01*
G37*
G36*
X60271162Y-127353644D02*
G01*
X60310608Y-127365610D01*
X60346953Y-127385037D01*
X60378815Y-127411185D01*
X60404963Y-127443047D01*
X60424390Y-127479392D01*
X60436356Y-127518838D01*
X60441000Y-127565993D01*
X60441000Y-128259007D01*
X60436356Y-128306162D01*
X60424390Y-128345608D01*
X60404963Y-128381953D01*
X60378815Y-128413815D01*
X60346953Y-128439963D01*
X60310608Y-128459390D01*
X60271162Y-128471356D01*
X60224007Y-128476000D01*
X59155993Y-128476000D01*
X59108838Y-128471356D01*
X59069392Y-128459390D01*
X59033047Y-128439963D01*
X59001185Y-128413815D01*
X58975037Y-128381953D01*
X58955610Y-128345608D01*
X58943644Y-128306162D01*
X58939000Y-128259007D01*
X58939000Y-127565993D01*
X58943644Y-127518838D01*
X58955610Y-127479392D01*
X58975037Y-127443047D01*
X59001185Y-127411185D01*
X59033047Y-127385037D01*
X59069392Y-127365610D01*
X59108838Y-127353644D01*
X59155993Y-127349000D01*
X60224007Y-127349000D01*
X60271162Y-127353644D01*
G37*
G36*
X56829434Y-125728686D02*
G01*
X56869284Y-125740774D01*
X56905999Y-125760399D01*
X56938186Y-125786814D01*
X56964601Y-125819001D01*
X56984226Y-125855716D01*
X56996314Y-125895566D01*
X57001000Y-125943141D01*
X57001000Y-127056859D01*
X56996314Y-127104434D01*
X56984226Y-127144284D01*
X56964601Y-127180999D01*
X56938186Y-127213186D01*
X56905999Y-127239601D01*
X56869284Y-127259226D01*
X56829434Y-127271314D01*
X56781859Y-127276000D01*
X56118141Y-127276000D01*
X56070566Y-127271314D01*
X56030716Y-127259226D01*
X55994001Y-127239601D01*
X55961814Y-127213186D01*
X55935399Y-127180999D01*
X55915774Y-127144284D01*
X55903686Y-127104434D01*
X55899000Y-127056859D01*
X55899000Y-125943141D01*
X55903686Y-125895566D01*
X55915774Y-125855716D01*
X55935399Y-125819001D01*
X55961814Y-125786814D01*
X55994001Y-125760399D01*
X56030716Y-125740774D01*
X56070566Y-125728686D01*
X56118141Y-125724000D01*
X56781859Y-125724000D01*
X56829434Y-125728686D01*
G37*
G36*
X54929434Y-125728686D02*
G01*
X54969284Y-125740774D01*
X55005999Y-125760399D01*
X55038186Y-125786814D01*
X55064601Y-125819001D01*
X55084226Y-125855716D01*
X55096314Y-125895566D01*
X55101000Y-125943141D01*
X55101000Y-127056859D01*
X55096314Y-127104434D01*
X55084226Y-127144284D01*
X55064601Y-127180999D01*
X55038186Y-127213186D01*
X55005999Y-127239601D01*
X54969284Y-127259226D01*
X54929434Y-127271314D01*
X54881859Y-127276000D01*
X54218141Y-127276000D01*
X54170566Y-127271314D01*
X54130716Y-127259226D01*
X54094001Y-127239601D01*
X54061814Y-127213186D01*
X54035399Y-127180999D01*
X54015774Y-127144284D01*
X54003686Y-127104434D01*
X53999000Y-127056859D01*
X53999000Y-125943141D01*
X54003686Y-125895566D01*
X54015774Y-125855716D01*
X54035399Y-125819001D01*
X54061814Y-125786814D01*
X54094001Y-125760399D01*
X54130716Y-125740774D01*
X54170566Y-125728686D01*
X54218141Y-125724000D01*
X54881859Y-125724000D01*
X54929434Y-125728686D01*
G37*
G36*
X96514228Y-125165703D02*
G01*
X96669100Y-125229853D01*
X96808481Y-125322985D01*
X96927015Y-125441519D01*
X97020147Y-125580900D01*
X97084297Y-125735772D01*
X97117000Y-125900184D01*
X97117000Y-126067816D01*
X97084297Y-126232228D01*
X97020147Y-126387100D01*
X96927015Y-126526481D01*
X96808481Y-126645015D01*
X96669100Y-126738147D01*
X96514228Y-126802297D01*
X96349816Y-126835000D01*
X96182184Y-126835000D01*
X96017772Y-126802297D01*
X95862900Y-126738147D01*
X95723519Y-126645015D01*
X95604985Y-126526481D01*
X95511853Y-126387100D01*
X95447703Y-126232228D01*
X95415000Y-126067816D01*
X95415000Y-125900184D01*
X95447703Y-125735772D01*
X95511853Y-125580900D01*
X95604985Y-125441519D01*
X95723519Y-125322985D01*
X95862900Y-125229853D01*
X96017772Y-125165703D01*
X96182184Y-125133000D01*
X96349816Y-125133000D01*
X96514228Y-125165703D01*
G37*
G36*
X99054228Y-125165703D02*
G01*
X99209100Y-125229853D01*
X99348481Y-125322985D01*
X99467015Y-125441519D01*
X99560147Y-125580900D01*
X99624297Y-125735772D01*
X99657000Y-125900184D01*
X99657000Y-126067816D01*
X99624297Y-126232228D01*
X99560147Y-126387100D01*
X99467015Y-126526481D01*
X99348481Y-126645015D01*
X99209100Y-126738147D01*
X99054228Y-126802297D01*
X98889816Y-126835000D01*
X98722184Y-126835000D01*
X98557772Y-126802297D01*
X98402900Y-126738147D01*
X98263519Y-126645015D01*
X98144985Y-126526481D01*
X98051853Y-126387100D01*
X97987703Y-126232228D01*
X97955000Y-126067816D01*
X97955000Y-125900184D01*
X97987703Y-125735772D01*
X98051853Y-125580900D01*
X98144985Y-125441519D01*
X98263519Y-125322985D01*
X98402900Y-125229853D01*
X98557772Y-125165703D01*
X98722184Y-125133000D01*
X98889816Y-125133000D01*
X99054228Y-125165703D01*
G37*
G36*
X91434228Y-125165703D02*
G01*
X91589100Y-125229853D01*
X91728481Y-125322985D01*
X91847015Y-125441519D01*
X91940147Y-125580900D01*
X92004297Y-125735772D01*
X92037000Y-125900184D01*
X92037000Y-126067816D01*
X92004297Y-126232228D01*
X91940147Y-126387100D01*
X91847015Y-126526481D01*
X91728481Y-126645015D01*
X91589100Y-126738147D01*
X91434228Y-126802297D01*
X91269816Y-126835000D01*
X91102184Y-126835000D01*
X90937772Y-126802297D01*
X90782900Y-126738147D01*
X90643519Y-126645015D01*
X90524985Y-126526481D01*
X90431853Y-126387100D01*
X90367703Y-126232228D01*
X90335000Y-126067816D01*
X90335000Y-125900184D01*
X90367703Y-125735772D01*
X90431853Y-125580900D01*
X90524985Y-125441519D01*
X90643519Y-125322985D01*
X90782900Y-125229853D01*
X90937772Y-125165703D01*
X91102184Y-125133000D01*
X91269816Y-125133000D01*
X91434228Y-125165703D01*
G37*
G36*
X86354228Y-125165703D02*
G01*
X86509100Y-125229853D01*
X86648481Y-125322985D01*
X86767015Y-125441519D01*
X86860147Y-125580900D01*
X86924297Y-125735772D01*
X86957000Y-125900184D01*
X86957000Y-126067816D01*
X86924297Y-126232228D01*
X86860147Y-126387100D01*
X86767015Y-126526481D01*
X86648481Y-126645015D01*
X86509100Y-126738147D01*
X86354228Y-126802297D01*
X86189816Y-126835000D01*
X86022184Y-126835000D01*
X85857772Y-126802297D01*
X85702900Y-126738147D01*
X85563519Y-126645015D01*
X85444985Y-126526481D01*
X85351853Y-126387100D01*
X85287703Y-126232228D01*
X85255000Y-126067816D01*
X85255000Y-125900184D01*
X85287703Y-125735772D01*
X85351853Y-125580900D01*
X85444985Y-125441519D01*
X85563519Y-125322985D01*
X85702900Y-125229853D01*
X85857772Y-125165703D01*
X86022184Y-125133000D01*
X86189816Y-125133000D01*
X86354228Y-125165703D01*
G37*
G36*
X83814228Y-125165703D02*
G01*
X83969100Y-125229853D01*
X84108481Y-125322985D01*
X84227015Y-125441519D01*
X84320147Y-125580900D01*
X84384297Y-125735772D01*
X84417000Y-125900184D01*
X84417000Y-126067816D01*
X84384297Y-126232228D01*
X84320147Y-126387100D01*
X84227015Y-126526481D01*
X84108481Y-126645015D01*
X83969100Y-126738147D01*
X83814228Y-126802297D01*
X83649816Y-126835000D01*
X83482184Y-126835000D01*
X83317772Y-126802297D01*
X83162900Y-126738147D01*
X83023519Y-126645015D01*
X82904985Y-126526481D01*
X82811853Y-126387100D01*
X82747703Y-126232228D01*
X82715000Y-126067816D01*
X82715000Y-125900184D01*
X82747703Y-125735772D01*
X82811853Y-125580900D01*
X82904985Y-125441519D01*
X83023519Y-125322985D01*
X83162900Y-125229853D01*
X83317772Y-125165703D01*
X83482184Y-125133000D01*
X83649816Y-125133000D01*
X83814228Y-125165703D01*
G37*
G36*
X81274228Y-125165703D02*
G01*
X81429100Y-125229853D01*
X81568481Y-125322985D01*
X81687015Y-125441519D01*
X81780147Y-125580900D01*
X81844297Y-125735772D01*
X81877000Y-125900184D01*
X81877000Y-126067816D01*
X81844297Y-126232228D01*
X81780147Y-126387100D01*
X81687015Y-126526481D01*
X81568481Y-126645015D01*
X81429100Y-126738147D01*
X81274228Y-126802297D01*
X81109816Y-126835000D01*
X80942184Y-126835000D01*
X80777772Y-126802297D01*
X80622900Y-126738147D01*
X80483519Y-126645015D01*
X80364985Y-126526481D01*
X80271853Y-126387100D01*
X80207703Y-126232228D01*
X80175000Y-126067816D01*
X80175000Y-125900184D01*
X80207703Y-125735772D01*
X80271853Y-125580900D01*
X80364985Y-125441519D01*
X80483519Y-125322985D01*
X80622900Y-125229853D01*
X80777772Y-125165703D01*
X80942184Y-125133000D01*
X81109816Y-125133000D01*
X81274228Y-125165703D01*
G37*
G36*
X88894228Y-125165703D02*
G01*
X89049100Y-125229853D01*
X89188481Y-125322985D01*
X89307015Y-125441519D01*
X89400147Y-125580900D01*
X89464297Y-125735772D01*
X89497000Y-125900184D01*
X89497000Y-126067816D01*
X89464297Y-126232228D01*
X89400147Y-126387100D01*
X89307015Y-126526481D01*
X89188481Y-126645015D01*
X89049100Y-126738147D01*
X88894228Y-126802297D01*
X88729816Y-126835000D01*
X88562184Y-126835000D01*
X88397772Y-126802297D01*
X88242900Y-126738147D01*
X88103519Y-126645015D01*
X87984985Y-126526481D01*
X87891853Y-126387100D01*
X87827703Y-126232228D01*
X87795000Y-126067816D01*
X87795000Y-125900184D01*
X87827703Y-125735772D01*
X87891853Y-125580900D01*
X87984985Y-125441519D01*
X88103519Y-125322985D01*
X88242900Y-125229853D01*
X88397772Y-125165703D01*
X88562184Y-125133000D01*
X88729816Y-125133000D01*
X88894228Y-125165703D01*
G37*
G36*
X68574228Y-125165703D02*
G01*
X68729100Y-125229853D01*
X68868481Y-125322985D01*
X68987015Y-125441519D01*
X69080147Y-125580900D01*
X69144297Y-125735772D01*
X69177000Y-125900184D01*
X69177000Y-126067816D01*
X69144297Y-126232228D01*
X69080147Y-126387100D01*
X68987015Y-126526481D01*
X68868481Y-126645015D01*
X68729100Y-126738147D01*
X68574228Y-126802297D01*
X68409816Y-126835000D01*
X68242184Y-126835000D01*
X68077772Y-126802297D01*
X67922900Y-126738147D01*
X67783519Y-126645015D01*
X67664985Y-126526481D01*
X67571853Y-126387100D01*
X67507703Y-126232228D01*
X67475000Y-126067816D01*
X67475000Y-125900184D01*
X67507703Y-125735772D01*
X67571853Y-125580900D01*
X67664985Y-125441519D01*
X67783519Y-125322985D01*
X67922900Y-125229853D01*
X68077772Y-125165703D01*
X68242184Y-125133000D01*
X68409816Y-125133000D01*
X68574228Y-125165703D01*
G37*
G36*
X66637000Y-126835000D02*
G01*
X64935000Y-126835000D01*
X64935000Y-125133000D01*
X66637000Y-125133000D01*
X66637000Y-126835000D01*
G37*
G36*
X78734228Y-125165703D02*
G01*
X78889100Y-125229853D01*
X79028481Y-125322985D01*
X79147015Y-125441519D01*
X79240147Y-125580900D01*
X79304297Y-125735772D01*
X79337000Y-125900184D01*
X79337000Y-126067816D01*
X79304297Y-126232228D01*
X79240147Y-126387100D01*
X79147015Y-126526481D01*
X79028481Y-126645015D01*
X78889100Y-126738147D01*
X78734228Y-126802297D01*
X78569816Y-126835000D01*
X78402184Y-126835000D01*
X78237772Y-126802297D01*
X78082900Y-126738147D01*
X77943519Y-126645015D01*
X77824985Y-126526481D01*
X77731853Y-126387100D01*
X77667703Y-126232228D01*
X77635000Y-126067816D01*
X77635000Y-125900184D01*
X77667703Y-125735772D01*
X77731853Y-125580900D01*
X77824985Y-125441519D01*
X77943519Y-125322985D01*
X78082900Y-125229853D01*
X78237772Y-125165703D01*
X78402184Y-125133000D01*
X78569816Y-125133000D01*
X78734228Y-125165703D01*
G37*
G36*
X76194228Y-125165703D02*
G01*
X76349100Y-125229853D01*
X76488481Y-125322985D01*
X76607015Y-125441519D01*
X76700147Y-125580900D01*
X76764297Y-125735772D01*
X76797000Y-125900184D01*
X76797000Y-126067816D01*
X76764297Y-126232228D01*
X76700147Y-126387100D01*
X76607015Y-126526481D01*
X76488481Y-126645015D01*
X76349100Y-126738147D01*
X76194228Y-126802297D01*
X76029816Y-126835000D01*
X75862184Y-126835000D01*
X75697772Y-126802297D01*
X75542900Y-126738147D01*
X75403519Y-126645015D01*
X75284985Y-126526481D01*
X75191853Y-126387100D01*
X75127703Y-126232228D01*
X75095000Y-126067816D01*
X75095000Y-125900184D01*
X75127703Y-125735772D01*
X75191853Y-125580900D01*
X75284985Y-125441519D01*
X75403519Y-125322985D01*
X75542900Y-125229853D01*
X75697772Y-125165703D01*
X75862184Y-125133000D01*
X76029816Y-125133000D01*
X76194228Y-125165703D01*
G37*
G36*
X73654228Y-125165703D02*
G01*
X73809100Y-125229853D01*
X73948481Y-125322985D01*
X74067015Y-125441519D01*
X74160147Y-125580900D01*
X74224297Y-125735772D01*
X74257000Y-125900184D01*
X74257000Y-126067816D01*
X74224297Y-126232228D01*
X74160147Y-126387100D01*
X74067015Y-126526481D01*
X73948481Y-126645015D01*
X73809100Y-126738147D01*
X73654228Y-126802297D01*
X73489816Y-126835000D01*
X73322184Y-126835000D01*
X73157772Y-126802297D01*
X73002900Y-126738147D01*
X72863519Y-126645015D01*
X72744985Y-126526481D01*
X72651853Y-126387100D01*
X72587703Y-126232228D01*
X72555000Y-126067816D01*
X72555000Y-125900184D01*
X72587703Y-125735772D01*
X72651853Y-125580900D01*
X72744985Y-125441519D01*
X72863519Y-125322985D01*
X73002900Y-125229853D01*
X73157772Y-125165703D01*
X73322184Y-125133000D01*
X73489816Y-125133000D01*
X73654228Y-125165703D01*
G37*
G36*
X93974228Y-125165703D02*
G01*
X94129100Y-125229853D01*
X94268481Y-125322985D01*
X94387015Y-125441519D01*
X94480147Y-125580900D01*
X94544297Y-125735772D01*
X94577000Y-125900184D01*
X94577000Y-126067816D01*
X94544297Y-126232228D01*
X94480147Y-126387100D01*
X94387015Y-126526481D01*
X94268481Y-126645015D01*
X94129100Y-126738147D01*
X93974228Y-126802297D01*
X93809816Y-126835000D01*
X93642184Y-126835000D01*
X93477772Y-126802297D01*
X93322900Y-126738147D01*
X93183519Y-126645015D01*
X93064985Y-126526481D01*
X92971853Y-126387100D01*
X92907703Y-126232228D01*
X92875000Y-126067816D01*
X92875000Y-125900184D01*
X92907703Y-125735772D01*
X92971853Y-125580900D01*
X93064985Y-125441519D01*
X93183519Y-125322985D01*
X93322900Y-125229853D01*
X93477772Y-125165703D01*
X93642184Y-125133000D01*
X93809816Y-125133000D01*
X93974228Y-125165703D01*
G37*
G36*
X71114228Y-125165703D02*
G01*
X71269100Y-125229853D01*
X71408481Y-125322985D01*
X71527015Y-125441519D01*
X71620147Y-125580900D01*
X71684297Y-125735772D01*
X71717000Y-125900184D01*
X71717000Y-126067816D01*
X71684297Y-126232228D01*
X71620147Y-126387100D01*
X71527015Y-126526481D01*
X71408481Y-126645015D01*
X71269100Y-126738147D01*
X71114228Y-126802297D01*
X70949816Y-126835000D01*
X70782184Y-126835000D01*
X70617772Y-126802297D01*
X70462900Y-126738147D01*
X70323519Y-126645015D01*
X70204985Y-126526481D01*
X70111853Y-126387100D01*
X70047703Y-126232228D01*
X70015000Y-126067816D01*
X70015000Y-125900184D01*
X70047703Y-125735772D01*
X70111853Y-125580900D01*
X70204985Y-125441519D01*
X70323519Y-125322985D01*
X70462900Y-125229853D01*
X70617772Y-125165703D01*
X70782184Y-125133000D01*
X70949816Y-125133000D01*
X71114228Y-125165703D01*
G37*
G36*
X62557162Y-125528644D02*
G01*
X62596608Y-125540610D01*
X62632953Y-125560037D01*
X62664815Y-125586185D01*
X62690963Y-125618047D01*
X62710390Y-125654392D01*
X62722356Y-125693838D01*
X62727000Y-125740993D01*
X62727000Y-126434007D01*
X62722356Y-126481162D01*
X62710390Y-126520608D01*
X62690963Y-126556953D01*
X62664815Y-126588815D01*
X62632953Y-126614963D01*
X62596608Y-126634390D01*
X62557162Y-126646356D01*
X62510007Y-126651000D01*
X61441993Y-126651000D01*
X61394838Y-126646356D01*
X61355392Y-126634390D01*
X61319047Y-126614963D01*
X61287185Y-126588815D01*
X61261037Y-126556953D01*
X61241610Y-126520608D01*
X61229644Y-126481162D01*
X61225000Y-126434007D01*
X61225000Y-125740993D01*
X61229644Y-125693838D01*
X61241610Y-125654392D01*
X61261037Y-125618047D01*
X61287185Y-125586185D01*
X61319047Y-125560037D01*
X61355392Y-125540610D01*
X61394838Y-125528644D01*
X61441993Y-125524000D01*
X62510007Y-125524000D01*
X62557162Y-125528644D01*
G37*
G36*
X60271162Y-125528644D02*
G01*
X60310608Y-125540610D01*
X60346953Y-125560037D01*
X60378815Y-125586185D01*
X60404963Y-125618047D01*
X60424390Y-125654392D01*
X60436356Y-125693838D01*
X60441000Y-125740993D01*
X60441000Y-126434007D01*
X60436356Y-126481162D01*
X60424390Y-126520608D01*
X60404963Y-126556953D01*
X60378815Y-126588815D01*
X60346953Y-126614963D01*
X60310608Y-126634390D01*
X60271162Y-126646356D01*
X60224007Y-126651000D01*
X59155993Y-126651000D01*
X59108838Y-126646356D01*
X59069392Y-126634390D01*
X59033047Y-126614963D01*
X59001185Y-126588815D01*
X58975037Y-126556953D01*
X58955610Y-126520608D01*
X58943644Y-126481162D01*
X58939000Y-126434007D01*
X58939000Y-125740993D01*
X58943644Y-125693838D01*
X58955610Y-125654392D01*
X58975037Y-125618047D01*
X59001185Y-125586185D01*
X59033047Y-125560037D01*
X59069392Y-125540610D01*
X59108838Y-125528644D01*
X59155993Y-125524000D01*
X60224007Y-125524000D01*
X60271162Y-125528644D01*
G37*
G36*
X58799928Y-123051764D02*
G01*
X58821009Y-123058160D01*
X58840445Y-123068548D01*
X58857476Y-123082524D01*
X58871452Y-123099555D01*
X58881840Y-123118991D01*
X58888236Y-123140072D01*
X58891000Y-123168140D01*
X58891000Y-124506860D01*
X58888236Y-124534928D01*
X58881840Y-124556009D01*
X58871452Y-124575445D01*
X58857476Y-124592476D01*
X58840445Y-124606452D01*
X58821009Y-124616840D01*
X58799928Y-124623236D01*
X58771860Y-124626000D01*
X58308140Y-124626000D01*
X58280072Y-124623236D01*
X58258991Y-124616840D01*
X58239555Y-124606452D01*
X58222524Y-124592476D01*
X58208548Y-124575445D01*
X58198160Y-124556009D01*
X58191764Y-124534928D01*
X58189000Y-124506860D01*
X58189000Y-123168140D01*
X58191764Y-123140072D01*
X58198160Y-123118991D01*
X58208548Y-123099555D01*
X58222524Y-123082524D01*
X58239555Y-123068548D01*
X58258991Y-123058160D01*
X58280072Y-123051764D01*
X58308140Y-123049000D01*
X58771860Y-123049000D01*
X58799928Y-123051764D01*
G37*
G36*
X54989928Y-123051764D02*
G01*
X55011009Y-123058160D01*
X55030445Y-123068548D01*
X55047476Y-123082524D01*
X55061452Y-123099555D01*
X55071840Y-123118991D01*
X55078236Y-123140072D01*
X55081000Y-123168140D01*
X55081000Y-124506860D01*
X55078236Y-124534928D01*
X55071840Y-124556009D01*
X55061452Y-124575445D01*
X55047476Y-124592476D01*
X55030445Y-124606452D01*
X55011009Y-124616840D01*
X54989928Y-124623236D01*
X54961860Y-124626000D01*
X54498140Y-124626000D01*
X54470072Y-124623236D01*
X54448991Y-124616840D01*
X54429555Y-124606452D01*
X54412524Y-124592476D01*
X54398548Y-124575445D01*
X54388160Y-124556009D01*
X54381764Y-124534928D01*
X54379000Y-124506860D01*
X54379000Y-123168140D01*
X54381764Y-123140072D01*
X54388160Y-123118991D01*
X54398548Y-123099555D01*
X54412524Y-123082524D01*
X54429555Y-123068548D01*
X54448991Y-123058160D01*
X54470072Y-123051764D01*
X54498140Y-123049000D01*
X54961860Y-123049000D01*
X54989928Y-123051764D01*
G37*
G36*
X56259928Y-123051764D02*
G01*
X56281009Y-123058160D01*
X56300445Y-123068548D01*
X56317476Y-123082524D01*
X56331452Y-123099555D01*
X56341840Y-123118991D01*
X56348236Y-123140072D01*
X56351000Y-123168140D01*
X56351000Y-124506860D01*
X56348236Y-124534928D01*
X56341840Y-124556009D01*
X56331452Y-124575445D01*
X56317476Y-124592476D01*
X56300445Y-124606452D01*
X56281009Y-124616840D01*
X56259928Y-124623236D01*
X56231860Y-124626000D01*
X55768140Y-124626000D01*
X55740072Y-124623236D01*
X55718991Y-124616840D01*
X55699555Y-124606452D01*
X55682524Y-124592476D01*
X55668548Y-124575445D01*
X55658160Y-124556009D01*
X55651764Y-124534928D01*
X55649000Y-124506860D01*
X55649000Y-123168140D01*
X55651764Y-123140072D01*
X55658160Y-123118991D01*
X55668548Y-123099555D01*
X55682524Y-123082524D01*
X55699555Y-123068548D01*
X55718991Y-123058160D01*
X55740072Y-123051764D01*
X55768140Y-123049000D01*
X56231860Y-123049000D01*
X56259928Y-123051764D01*
G37*
G36*
X57529928Y-123051764D02*
G01*
X57551009Y-123058160D01*
X57570445Y-123068548D01*
X57587476Y-123082524D01*
X57601452Y-123099555D01*
X57611840Y-123118991D01*
X57618236Y-123140072D01*
X57621000Y-123168140D01*
X57621000Y-124506860D01*
X57618236Y-124534928D01*
X57611840Y-124556009D01*
X57601452Y-124575445D01*
X57587476Y-124592476D01*
X57570445Y-124606452D01*
X57551009Y-124616840D01*
X57529928Y-124623236D01*
X57501860Y-124626000D01*
X57038140Y-124626000D01*
X57010072Y-124623236D01*
X56988991Y-124616840D01*
X56969555Y-124606452D01*
X56952524Y-124592476D01*
X56938548Y-124575445D01*
X56928160Y-124556009D01*
X56921764Y-124534928D01*
X56919000Y-124506860D01*
X56919000Y-123168140D01*
X56921764Y-123140072D01*
X56928160Y-123118991D01*
X56938548Y-123099555D01*
X56952524Y-123082524D01*
X56969555Y-123068548D01*
X56988991Y-123058160D01*
X57010072Y-123051764D01*
X57038140Y-123049000D01*
X57501860Y-123049000D01*
X57529928Y-123051764D01*
G37*
G36*
X60069928Y-123051764D02*
G01*
X60091009Y-123058160D01*
X60110445Y-123068548D01*
X60127476Y-123082524D01*
X60141452Y-123099555D01*
X60151840Y-123118991D01*
X60158236Y-123140072D01*
X60161000Y-123168140D01*
X60161000Y-124506860D01*
X60158236Y-124534928D01*
X60151840Y-124556009D01*
X60141452Y-124575445D01*
X60127476Y-124592476D01*
X60110445Y-124606452D01*
X60091009Y-124616840D01*
X60069928Y-124623236D01*
X60041860Y-124626000D01*
X59578140Y-124626000D01*
X59550072Y-124623236D01*
X59528991Y-124616840D01*
X59509555Y-124606452D01*
X59492524Y-124592476D01*
X59478548Y-124575445D01*
X59468160Y-124556009D01*
X59461764Y-124534928D01*
X59459000Y-124506860D01*
X59459000Y-123168140D01*
X59461764Y-123140072D01*
X59468160Y-123118991D01*
X59478548Y-123099555D01*
X59492524Y-123082524D01*
X59509555Y-123068548D01*
X59528991Y-123058160D01*
X59550072Y-123051764D01*
X59578140Y-123049000D01*
X60041860Y-123049000D01*
X60069928Y-123051764D01*
G37*
G36*
X53719928Y-123051764D02*
G01*
X53741009Y-123058160D01*
X53760445Y-123068548D01*
X53777476Y-123082524D01*
X53791452Y-123099555D01*
X53801840Y-123118991D01*
X53808236Y-123140072D01*
X53811000Y-123168140D01*
X53811000Y-124506860D01*
X53808236Y-124534928D01*
X53801840Y-124556009D01*
X53791452Y-124575445D01*
X53777476Y-124592476D01*
X53760445Y-124606452D01*
X53741009Y-124616840D01*
X53719928Y-124623236D01*
X53691860Y-124626000D01*
X53228140Y-124626000D01*
X53200072Y-124623236D01*
X53178991Y-124616840D01*
X53159555Y-124606452D01*
X53142524Y-124592476D01*
X53128548Y-124575445D01*
X53118160Y-124556009D01*
X53111764Y-124534928D01*
X53109000Y-124506860D01*
X53109000Y-123168140D01*
X53111764Y-123140072D01*
X53118160Y-123118991D01*
X53128548Y-123099555D01*
X53142524Y-123082524D01*
X53159555Y-123068548D01*
X53178991Y-123058160D01*
X53200072Y-123051764D01*
X53228140Y-123049000D01*
X53691860Y-123049000D01*
X53719928Y-123051764D01*
G37*
G36*
X52449928Y-123051764D02*
G01*
X52471009Y-123058160D01*
X52490445Y-123068548D01*
X52507476Y-123082524D01*
X52521452Y-123099555D01*
X52531840Y-123118991D01*
X52538236Y-123140072D01*
X52541000Y-123168140D01*
X52541000Y-124506860D01*
X52538236Y-124534928D01*
X52531840Y-124556009D01*
X52521452Y-124575445D01*
X52507476Y-124592476D01*
X52490445Y-124606452D01*
X52471009Y-124616840D01*
X52449928Y-124623236D01*
X52421860Y-124626000D01*
X51958140Y-124626000D01*
X51930072Y-124623236D01*
X51908991Y-124616840D01*
X51889555Y-124606452D01*
X51872524Y-124592476D01*
X51858548Y-124575445D01*
X51848160Y-124556009D01*
X51841764Y-124534928D01*
X51839000Y-124506860D01*
X51839000Y-123168140D01*
X51841764Y-123140072D01*
X51848160Y-123118991D01*
X51858548Y-123099555D01*
X51872524Y-123082524D01*
X51889555Y-123068548D01*
X51908991Y-123058160D01*
X51930072Y-123051764D01*
X51958140Y-123049000D01*
X52421860Y-123049000D01*
X52449928Y-123051764D01*
G37*
G36*
X105439434Y-122118686D02*
G01*
X105479284Y-122130774D01*
X105515999Y-122150399D01*
X105548186Y-122176814D01*
X105574601Y-122209001D01*
X105594226Y-122245716D01*
X105606314Y-122285566D01*
X105611000Y-122333141D01*
X105611000Y-123446859D01*
X105606314Y-123494434D01*
X105594226Y-123534284D01*
X105574601Y-123570999D01*
X105548186Y-123603186D01*
X105515999Y-123629601D01*
X105479284Y-123649226D01*
X105439434Y-123661314D01*
X105391859Y-123666000D01*
X104728141Y-123666000D01*
X104680566Y-123661314D01*
X104640716Y-123649226D01*
X104604001Y-123629601D01*
X104571814Y-123603186D01*
X104545399Y-123570999D01*
X104525774Y-123534284D01*
X104513686Y-123494434D01*
X104509000Y-123446859D01*
X104509000Y-122333141D01*
X104513686Y-122285566D01*
X104525774Y-122245716D01*
X104545399Y-122209001D01*
X104571814Y-122176814D01*
X104604001Y-122150399D01*
X104640716Y-122130774D01*
X104680566Y-122118686D01*
X104728141Y-122114000D01*
X105391859Y-122114000D01*
X105439434Y-122118686D01*
G37*
G36*
X103539434Y-122118686D02*
G01*
X103579284Y-122130774D01*
X103615999Y-122150399D01*
X103648186Y-122176814D01*
X103674601Y-122209001D01*
X103694226Y-122245716D01*
X103706314Y-122285566D01*
X103711000Y-122333141D01*
X103711000Y-123446859D01*
X103706314Y-123494434D01*
X103694226Y-123534284D01*
X103674601Y-123570999D01*
X103648186Y-123603186D01*
X103615999Y-123629601D01*
X103579284Y-123649226D01*
X103539434Y-123661314D01*
X103491859Y-123666000D01*
X102828141Y-123666000D01*
X102780566Y-123661314D01*
X102740716Y-123649226D01*
X102704001Y-123629601D01*
X102671814Y-123603186D01*
X102645399Y-123570999D01*
X102625774Y-123534284D01*
X102613686Y-123494434D01*
X102609000Y-123446859D01*
X102609000Y-122333141D01*
X102613686Y-122285566D01*
X102625774Y-122245716D01*
X102645399Y-122209001D01*
X102671814Y-122176814D01*
X102704001Y-122150399D01*
X102740716Y-122130774D01*
X102780566Y-122118686D01*
X102828141Y-122114000D01*
X103491859Y-122114000D01*
X103539434Y-122118686D01*
G37*
G36*
X47951000Y-122451000D02*
G01*
X45899000Y-122451000D01*
X45899000Y-121549000D01*
X47951000Y-121549000D01*
X47951000Y-122451000D01*
G37*
G36*
X51134928Y-121731764D02*
G01*
X51156009Y-121738160D01*
X51175445Y-121748548D01*
X51192476Y-121762524D01*
X51206452Y-121779555D01*
X51216840Y-121798991D01*
X51223236Y-121820072D01*
X51226000Y-121848140D01*
X51226000Y-122311860D01*
X51223236Y-122339928D01*
X51216840Y-122361009D01*
X51206452Y-122380445D01*
X51192476Y-122397476D01*
X51175445Y-122411452D01*
X51156009Y-122421840D01*
X51134928Y-122428236D01*
X51106860Y-122431000D01*
X49768140Y-122431000D01*
X49740072Y-122428236D01*
X49718991Y-122421840D01*
X49699555Y-122411452D01*
X49682524Y-122397476D01*
X49668548Y-122380445D01*
X49658160Y-122361009D01*
X49651764Y-122339928D01*
X49649000Y-122311860D01*
X49649000Y-121848140D01*
X49651764Y-121820072D01*
X49658160Y-121798991D01*
X49668548Y-121779555D01*
X49682524Y-121762524D01*
X49699555Y-121748548D01*
X49718991Y-121738160D01*
X49740072Y-121731764D01*
X49768140Y-121729000D01*
X51106860Y-121729000D01*
X51134928Y-121731764D01*
G37*
G36*
X62259928Y-121731764D02*
G01*
X62281009Y-121738160D01*
X62300445Y-121748548D01*
X62317476Y-121762524D01*
X62331452Y-121779555D01*
X62341840Y-121798991D01*
X62348236Y-121820072D01*
X62351000Y-121848140D01*
X62351000Y-122311860D01*
X62348236Y-122339928D01*
X62341840Y-122361009D01*
X62331452Y-122380445D01*
X62317476Y-122397476D01*
X62300445Y-122411452D01*
X62281009Y-122421840D01*
X62259928Y-122428236D01*
X62231860Y-122431000D01*
X60893140Y-122431000D01*
X60865072Y-122428236D01*
X60843991Y-122421840D01*
X60824555Y-122411452D01*
X60807524Y-122397476D01*
X60793548Y-122380445D01*
X60783160Y-122361009D01*
X60776764Y-122339928D01*
X60774000Y-122311860D01*
X60774000Y-121848140D01*
X60776764Y-121820072D01*
X60783160Y-121798991D01*
X60793548Y-121779555D01*
X60807524Y-121762524D01*
X60824555Y-121748548D01*
X60843991Y-121738160D01*
X60865072Y-121731764D01*
X60893140Y-121729000D01*
X62231860Y-121729000D01*
X62259928Y-121731764D01*
G37*
G36*
X62259928Y-120461764D02*
G01*
X62281009Y-120468160D01*
X62300445Y-120478548D01*
X62317476Y-120492524D01*
X62331452Y-120509555D01*
X62341840Y-120528991D01*
X62348236Y-120550072D01*
X62351000Y-120578140D01*
X62351000Y-121041860D01*
X62348236Y-121069928D01*
X62341840Y-121091009D01*
X62331452Y-121110445D01*
X62317476Y-121127476D01*
X62300445Y-121141452D01*
X62281009Y-121151840D01*
X62259928Y-121158236D01*
X62231860Y-121161000D01*
X60893140Y-121161000D01*
X60865072Y-121158236D01*
X60843991Y-121151840D01*
X60824555Y-121141452D01*
X60807524Y-121127476D01*
X60793548Y-121110445D01*
X60783160Y-121091009D01*
X60776764Y-121069928D01*
X60774000Y-121041860D01*
X60774000Y-120578140D01*
X60776764Y-120550072D01*
X60783160Y-120528991D01*
X60793548Y-120509555D01*
X60807524Y-120492524D01*
X60824555Y-120478548D01*
X60843991Y-120468160D01*
X60865072Y-120461764D01*
X60893140Y-120459000D01*
X62231860Y-120459000D01*
X62259928Y-120461764D01*
G37*
G36*
X51134928Y-120461764D02*
G01*
X51156009Y-120468160D01*
X51175445Y-120478548D01*
X51192476Y-120492524D01*
X51206452Y-120509555D01*
X51216840Y-120528991D01*
X51223236Y-120550072D01*
X51226000Y-120578140D01*
X51226000Y-121041860D01*
X51223236Y-121069928D01*
X51216840Y-121091009D01*
X51206452Y-121110445D01*
X51192476Y-121127476D01*
X51175445Y-121141452D01*
X51156009Y-121151840D01*
X51134928Y-121158236D01*
X51106860Y-121161000D01*
X49768140Y-121161000D01*
X49740072Y-121158236D01*
X49718991Y-121151840D01*
X49699555Y-121141452D01*
X49682524Y-121127476D01*
X49668548Y-121110445D01*
X49658160Y-121091009D01*
X49651764Y-121069928D01*
X49649000Y-121041860D01*
X49649000Y-120578140D01*
X49651764Y-120550072D01*
X49658160Y-120528991D01*
X49668548Y-120509555D01*
X49682524Y-120492524D01*
X49699555Y-120478548D01*
X49718991Y-120468160D01*
X49740072Y-120461764D01*
X49768140Y-120459000D01*
X51106860Y-120459000D01*
X51134928Y-120461764D01*
G37*
G36*
X102204434Y-119529686D02*
G01*
X102244284Y-119541774D01*
X102280999Y-119561399D01*
X102313186Y-119587814D01*
X102339601Y-119620001D01*
X102359226Y-119656716D01*
X102371314Y-119696566D01*
X102376000Y-119744141D01*
X102376000Y-120407859D01*
X102371314Y-120455434D01*
X102359226Y-120495284D01*
X102339601Y-120531999D01*
X102313186Y-120564186D01*
X102280999Y-120590601D01*
X102244284Y-120610226D01*
X102204434Y-120622314D01*
X102156859Y-120627000D01*
X101043141Y-120627000D01*
X100995566Y-120622314D01*
X100955716Y-120610226D01*
X100919001Y-120590601D01*
X100886814Y-120564186D01*
X100860399Y-120531999D01*
X100840774Y-120495284D01*
X100828686Y-120455434D01*
X100824000Y-120407859D01*
X100824000Y-119744141D01*
X100828686Y-119696566D01*
X100840774Y-119656716D01*
X100860399Y-119620001D01*
X100886814Y-119587814D01*
X100919001Y-119561399D01*
X100955716Y-119541774D01*
X100995566Y-119529686D01*
X101043141Y-119525000D01*
X102156859Y-119525000D01*
X102204434Y-119529686D01*
G37*
G36*
X104467162Y-119479644D02*
G01*
X104506608Y-119491610D01*
X104542953Y-119511037D01*
X104574815Y-119537185D01*
X104600963Y-119569047D01*
X104620390Y-119605392D01*
X104632356Y-119644838D01*
X104637000Y-119691993D01*
X104637000Y-120385007D01*
X104632356Y-120432162D01*
X104620390Y-120471608D01*
X104600963Y-120507953D01*
X104574815Y-120539815D01*
X104542953Y-120565963D01*
X104506608Y-120585390D01*
X104467162Y-120597356D01*
X104420007Y-120602000D01*
X103351993Y-120602000D01*
X103304838Y-120597356D01*
X103265392Y-120585390D01*
X103229047Y-120565963D01*
X103197185Y-120539815D01*
X103171037Y-120507953D01*
X103151610Y-120471608D01*
X103139644Y-120432162D01*
X103135000Y-120385007D01*
X103135000Y-119691993D01*
X103139644Y-119644838D01*
X103151610Y-119605392D01*
X103171037Y-119569047D01*
X103197185Y-119537185D01*
X103229047Y-119511037D01*
X103265392Y-119491610D01*
X103304838Y-119479644D01*
X103351993Y-119475000D01*
X104420007Y-119475000D01*
X104467162Y-119479644D01*
G37*
G36*
X48091000Y-120085000D02*
G01*
X46039000Y-120085000D01*
X46039000Y-119183000D01*
X48091000Y-119183000D01*
X48091000Y-120085000D01*
G37*
G36*
X51134928Y-119191764D02*
G01*
X51156009Y-119198160D01*
X51175445Y-119208548D01*
X51192476Y-119222524D01*
X51206452Y-119239555D01*
X51216840Y-119258991D01*
X51223236Y-119280072D01*
X51226000Y-119308140D01*
X51226000Y-119771860D01*
X51223236Y-119799928D01*
X51216840Y-119821009D01*
X51206452Y-119840445D01*
X51192476Y-119857476D01*
X51175445Y-119871452D01*
X51156009Y-119881840D01*
X51134928Y-119888236D01*
X51106860Y-119891000D01*
X49768140Y-119891000D01*
X49740072Y-119888236D01*
X49718991Y-119881840D01*
X49699555Y-119871452D01*
X49682524Y-119857476D01*
X49668548Y-119840445D01*
X49658160Y-119821009D01*
X49651764Y-119799928D01*
X49649000Y-119771860D01*
X49649000Y-119308140D01*
X49651764Y-119280072D01*
X49658160Y-119258991D01*
X49668548Y-119239555D01*
X49682524Y-119222524D01*
X49699555Y-119208548D01*
X49718991Y-119198160D01*
X49740072Y-119191764D01*
X49768140Y-119189000D01*
X51106860Y-119189000D01*
X51134928Y-119191764D01*
G37*
G36*
X62259928Y-119191764D02*
G01*
X62281009Y-119198160D01*
X62300445Y-119208548D01*
X62317476Y-119222524D01*
X62331452Y-119239555D01*
X62341840Y-119258991D01*
X62348236Y-119280072D01*
X62351000Y-119308140D01*
X62351000Y-119771860D01*
X62348236Y-119799928D01*
X62341840Y-119821009D01*
X62331452Y-119840445D01*
X62317476Y-119857476D01*
X62300445Y-119871452D01*
X62281009Y-119881840D01*
X62259928Y-119888236D01*
X62231860Y-119891000D01*
X60893140Y-119891000D01*
X60865072Y-119888236D01*
X60843991Y-119881840D01*
X60824555Y-119871452D01*
X60807524Y-119857476D01*
X60793548Y-119840445D01*
X60783160Y-119821009D01*
X60776764Y-119799928D01*
X60774000Y-119771860D01*
X60774000Y-119308140D01*
X60776764Y-119280072D01*
X60783160Y-119258991D01*
X60793548Y-119239555D01*
X60807524Y-119222524D01*
X60824555Y-119208548D01*
X60843991Y-119198160D01*
X60865072Y-119191764D01*
X60893140Y-119189000D01*
X62231860Y-119189000D01*
X62259928Y-119191764D01*
G37*
G36*
X104467162Y-117654644D02*
G01*
X104506608Y-117666610D01*
X104542953Y-117686037D01*
X104574815Y-117712185D01*
X104600963Y-117744047D01*
X104620390Y-117780392D01*
X104632356Y-117819838D01*
X104637000Y-117866993D01*
X104637000Y-118560007D01*
X104632356Y-118607162D01*
X104620390Y-118646608D01*
X104600963Y-118682953D01*
X104574815Y-118714815D01*
X104542953Y-118740963D01*
X104506608Y-118760390D01*
X104467162Y-118772356D01*
X104420007Y-118777000D01*
X103351993Y-118777000D01*
X103304838Y-118772356D01*
X103265392Y-118760390D01*
X103229047Y-118740963D01*
X103197185Y-118714815D01*
X103171037Y-118682953D01*
X103151610Y-118646608D01*
X103139644Y-118607162D01*
X103135000Y-118560007D01*
X103135000Y-117866993D01*
X103139644Y-117819838D01*
X103151610Y-117780392D01*
X103171037Y-117744047D01*
X103197185Y-117712185D01*
X103229047Y-117686037D01*
X103265392Y-117666610D01*
X103304838Y-117654644D01*
X103351993Y-117650000D01*
X104420007Y-117650000D01*
X104467162Y-117654644D01*
G37*
G36*
X102204434Y-117629686D02*
G01*
X102244284Y-117641774D01*
X102280999Y-117661399D01*
X102313186Y-117687814D01*
X102339601Y-117720001D01*
X102359226Y-117756716D01*
X102371314Y-117796566D01*
X102376000Y-117844141D01*
X102376000Y-118507859D01*
X102371314Y-118555434D01*
X102359226Y-118595284D01*
X102339601Y-118631999D01*
X102313186Y-118664186D01*
X102280999Y-118690601D01*
X102244284Y-118710226D01*
X102204434Y-118722314D01*
X102156859Y-118727000D01*
X101043141Y-118727000D01*
X100995566Y-118722314D01*
X100955716Y-118710226D01*
X100919001Y-118690601D01*
X100886814Y-118664186D01*
X100860399Y-118631999D01*
X100840774Y-118595284D01*
X100828686Y-118555434D01*
X100824000Y-118507859D01*
X100824000Y-117844141D01*
X100828686Y-117796566D01*
X100840774Y-117756716D01*
X100860399Y-117720001D01*
X100886814Y-117687814D01*
X100919001Y-117661399D01*
X100955716Y-117641774D01*
X100995566Y-117629686D01*
X101043141Y-117625000D01*
X102156859Y-117625000D01*
X102204434Y-117629686D01*
G37*
G36*
X62259928Y-117921764D02*
G01*
X62281009Y-117928160D01*
X62300445Y-117938548D01*
X62317476Y-117952524D01*
X62331452Y-117969555D01*
X62341840Y-117988991D01*
X62348236Y-118010072D01*
X62351000Y-118038140D01*
X62351000Y-118501860D01*
X62348236Y-118529928D01*
X62341840Y-118551009D01*
X62331452Y-118570445D01*
X62317476Y-118587476D01*
X62300445Y-118601452D01*
X62281009Y-118611840D01*
X62259928Y-118618236D01*
X62231860Y-118621000D01*
X60893140Y-118621000D01*
X60865072Y-118618236D01*
X60843991Y-118611840D01*
X60824555Y-118601452D01*
X60807524Y-118587476D01*
X60793548Y-118570445D01*
X60783160Y-118551009D01*
X60776764Y-118529928D01*
X60774000Y-118501860D01*
X60774000Y-118038140D01*
X60776764Y-118010072D01*
X60783160Y-117988991D01*
X60793548Y-117969555D01*
X60807524Y-117952524D01*
X60824555Y-117938548D01*
X60843991Y-117928160D01*
X60865072Y-117921764D01*
X60893140Y-117919000D01*
X62231860Y-117919000D01*
X62259928Y-117921764D01*
G37*
G36*
X51134928Y-117921764D02*
G01*
X51156009Y-117928160D01*
X51175445Y-117938548D01*
X51192476Y-117952524D01*
X51206452Y-117969555D01*
X51216840Y-117988991D01*
X51223236Y-118010072D01*
X51226000Y-118038140D01*
X51226000Y-118501860D01*
X51223236Y-118529928D01*
X51216840Y-118551009D01*
X51206452Y-118570445D01*
X51192476Y-118587476D01*
X51175445Y-118601452D01*
X51156009Y-118611840D01*
X51134928Y-118618236D01*
X51106860Y-118621000D01*
X49768140Y-118621000D01*
X49740072Y-118618236D01*
X49718991Y-118611840D01*
X49699555Y-118601452D01*
X49682524Y-118587476D01*
X49668548Y-118570445D01*
X49658160Y-118551009D01*
X49651764Y-118529928D01*
X49649000Y-118501860D01*
X49649000Y-118038140D01*
X49651764Y-118010072D01*
X49658160Y-117988991D01*
X49668548Y-117969555D01*
X49682524Y-117952524D01*
X49699555Y-117938548D01*
X49718991Y-117928160D01*
X49740072Y-117921764D01*
X49768140Y-117919000D01*
X51106860Y-117919000D01*
X51134928Y-117921764D01*
G37*
G36*
X47951000Y-117451000D02*
G01*
X45899000Y-117451000D01*
X45899000Y-116549000D01*
X47951000Y-116549000D01*
X47951000Y-117451000D01*
G37*
G36*
X62259928Y-116651764D02*
G01*
X62281009Y-116658160D01*
X62300445Y-116668548D01*
X62317476Y-116682524D01*
X62331452Y-116699555D01*
X62341840Y-116718991D01*
X62348236Y-116740072D01*
X62351000Y-116768140D01*
X62351000Y-117231860D01*
X62348236Y-117259928D01*
X62341840Y-117281009D01*
X62331452Y-117300445D01*
X62317476Y-117317476D01*
X62300445Y-117331452D01*
X62281009Y-117341840D01*
X62259928Y-117348236D01*
X62231860Y-117351000D01*
X60893140Y-117351000D01*
X60865072Y-117348236D01*
X60843991Y-117341840D01*
X60824555Y-117331452D01*
X60807524Y-117317476D01*
X60793548Y-117300445D01*
X60783160Y-117281009D01*
X60776764Y-117259928D01*
X60774000Y-117231860D01*
X60774000Y-116768140D01*
X60776764Y-116740072D01*
X60783160Y-116718991D01*
X60793548Y-116699555D01*
X60807524Y-116682524D01*
X60824555Y-116668548D01*
X60843991Y-116658160D01*
X60865072Y-116651764D01*
X60893140Y-116649000D01*
X62231860Y-116649000D01*
X62259928Y-116651764D01*
G37*
G36*
X51134928Y-116651764D02*
G01*
X51156009Y-116658160D01*
X51175445Y-116668548D01*
X51192476Y-116682524D01*
X51206452Y-116699555D01*
X51216840Y-116718991D01*
X51223236Y-116740072D01*
X51226000Y-116768140D01*
X51226000Y-117231860D01*
X51223236Y-117259928D01*
X51216840Y-117281009D01*
X51206452Y-117300445D01*
X51192476Y-117317476D01*
X51175445Y-117331452D01*
X51156009Y-117341840D01*
X51134928Y-117348236D01*
X51106860Y-117351000D01*
X49768140Y-117351000D01*
X49740072Y-117348236D01*
X49718991Y-117341840D01*
X49699555Y-117331452D01*
X49682524Y-117317476D01*
X49668548Y-117300445D01*
X49658160Y-117281009D01*
X49651764Y-117259928D01*
X49649000Y-117231860D01*
X49649000Y-116768140D01*
X49651764Y-116740072D01*
X49658160Y-116718991D01*
X49668548Y-116699555D01*
X49682524Y-116682524D01*
X49699555Y-116668548D01*
X49718991Y-116658160D01*
X49740072Y-116651764D01*
X49768140Y-116649000D01*
X51106860Y-116649000D01*
X51134928Y-116651764D01*
G37*
G36*
X62259928Y-115381764D02*
G01*
X62281009Y-115388160D01*
X62300445Y-115398548D01*
X62317476Y-115412524D01*
X62331452Y-115429555D01*
X62341840Y-115448991D01*
X62348236Y-115470072D01*
X62351000Y-115498140D01*
X62351000Y-115961860D01*
X62348236Y-115989928D01*
X62341840Y-116011009D01*
X62331452Y-116030445D01*
X62317476Y-116047476D01*
X62300445Y-116061452D01*
X62281009Y-116071840D01*
X62259928Y-116078236D01*
X62231860Y-116081000D01*
X60893140Y-116081000D01*
X60865072Y-116078236D01*
X60843991Y-116071840D01*
X60824555Y-116061452D01*
X60807524Y-116047476D01*
X60793548Y-116030445D01*
X60783160Y-116011009D01*
X60776764Y-115989928D01*
X60774000Y-115961860D01*
X60774000Y-115498140D01*
X60776764Y-115470072D01*
X60783160Y-115448991D01*
X60793548Y-115429555D01*
X60807524Y-115412524D01*
X60824555Y-115398548D01*
X60843991Y-115388160D01*
X60865072Y-115381764D01*
X60893140Y-115379000D01*
X62231860Y-115379000D01*
X62259928Y-115381764D01*
G37*
G36*
X51134928Y-115381764D02*
G01*
X51156009Y-115388160D01*
X51175445Y-115398548D01*
X51192476Y-115412524D01*
X51206452Y-115429555D01*
X51216840Y-115448991D01*
X51223236Y-115470072D01*
X51226000Y-115498140D01*
X51226000Y-115961860D01*
X51223236Y-115989928D01*
X51216840Y-116011009D01*
X51206452Y-116030445D01*
X51192476Y-116047476D01*
X51175445Y-116061452D01*
X51156009Y-116071840D01*
X51134928Y-116078236D01*
X51106860Y-116081000D01*
X49768140Y-116081000D01*
X49740072Y-116078236D01*
X49718991Y-116071840D01*
X49699555Y-116061452D01*
X49682524Y-116047476D01*
X49668548Y-116030445D01*
X49658160Y-116011009D01*
X49651764Y-115989928D01*
X49649000Y-115961860D01*
X49649000Y-115498140D01*
X49651764Y-115470072D01*
X49658160Y-115448991D01*
X49668548Y-115429555D01*
X49682524Y-115412524D01*
X49699555Y-115398548D01*
X49718991Y-115388160D01*
X49740072Y-115381764D01*
X49768140Y-115379000D01*
X51106860Y-115379000D01*
X51134928Y-115381764D01*
G37*
G36*
X62259928Y-114111764D02*
G01*
X62281009Y-114118160D01*
X62300445Y-114128548D01*
X62317476Y-114142524D01*
X62331452Y-114159555D01*
X62341840Y-114178991D01*
X62348236Y-114200072D01*
X62351000Y-114228140D01*
X62351000Y-114691860D01*
X62348236Y-114719928D01*
X62341840Y-114741009D01*
X62331452Y-114760445D01*
X62317476Y-114777476D01*
X62300445Y-114791452D01*
X62281009Y-114801840D01*
X62259928Y-114808236D01*
X62231860Y-114811000D01*
X60893140Y-114811000D01*
X60865072Y-114808236D01*
X60843991Y-114801840D01*
X60824555Y-114791452D01*
X60807524Y-114777476D01*
X60793548Y-114760445D01*
X60783160Y-114741009D01*
X60776764Y-114719928D01*
X60774000Y-114691860D01*
X60774000Y-114228140D01*
X60776764Y-114200072D01*
X60783160Y-114178991D01*
X60793548Y-114159555D01*
X60807524Y-114142524D01*
X60824555Y-114128548D01*
X60843991Y-114118160D01*
X60865072Y-114111764D01*
X60893140Y-114109000D01*
X62231860Y-114109000D01*
X62259928Y-114111764D01*
G37*
G36*
X51134928Y-114111764D02*
G01*
X51156009Y-114118160D01*
X51175445Y-114128548D01*
X51192476Y-114142524D01*
X51206452Y-114159555D01*
X51216840Y-114178991D01*
X51223236Y-114200072D01*
X51226000Y-114228140D01*
X51226000Y-114691860D01*
X51223236Y-114719928D01*
X51216840Y-114741009D01*
X51206452Y-114760445D01*
X51192476Y-114777476D01*
X51175445Y-114791452D01*
X51156009Y-114801840D01*
X51134928Y-114808236D01*
X51106860Y-114811000D01*
X49768140Y-114811000D01*
X49740072Y-114808236D01*
X49718991Y-114801840D01*
X49699555Y-114791452D01*
X49682524Y-114777476D01*
X49668548Y-114760445D01*
X49658160Y-114741009D01*
X49651764Y-114719928D01*
X49649000Y-114691860D01*
X49649000Y-114228140D01*
X49651764Y-114200072D01*
X49658160Y-114178991D01*
X49668548Y-114159555D01*
X49682524Y-114142524D01*
X49699555Y-114128548D01*
X49718991Y-114118160D01*
X49740072Y-114111764D01*
X49768140Y-114109000D01*
X51106860Y-114109000D01*
X51134928Y-114111764D01*
G37*
G36*
X47746811Y-113353271D02*
G01*
X47782603Y-113364129D01*
X47815595Y-113381763D01*
X47844508Y-113405492D01*
X47868237Y-113434405D01*
X47885871Y-113467397D01*
X47896729Y-113503189D01*
X47901000Y-113546555D01*
X47901000Y-114578445D01*
X47896729Y-114621811D01*
X47885871Y-114657603D01*
X47868237Y-114690595D01*
X47844508Y-114719508D01*
X47815595Y-114743237D01*
X47782603Y-114760871D01*
X47746811Y-114771729D01*
X47703445Y-114776000D01*
X45296555Y-114776000D01*
X45253189Y-114771729D01*
X45217397Y-114760871D01*
X45184405Y-114743237D01*
X45155492Y-114719508D01*
X45131763Y-114690595D01*
X45114129Y-114657603D01*
X45103271Y-114621811D01*
X45099000Y-114578445D01*
X45099000Y-113546555D01*
X45103271Y-113503189D01*
X45114129Y-113467397D01*
X45131763Y-113434405D01*
X45155492Y-113405492D01*
X45184405Y-113381763D01*
X45217397Y-113364129D01*
X45253189Y-113353271D01*
X45296555Y-113349000D01*
X47703445Y-113349000D01*
X47746811Y-113353271D01*
G37*
G36*
X104991811Y-111887271D02*
G01*
X105027603Y-111898129D01*
X105060595Y-111915763D01*
X105089508Y-111939492D01*
X105113237Y-111968405D01*
X105130871Y-112001397D01*
X105141729Y-112037189D01*
X105146000Y-112080555D01*
X105146000Y-114487445D01*
X105141729Y-114530811D01*
X105130871Y-114566603D01*
X105113237Y-114599595D01*
X105089508Y-114628508D01*
X105060595Y-114652237D01*
X105027603Y-114669871D01*
X104991811Y-114680729D01*
X104948445Y-114685000D01*
X103916555Y-114685000D01*
X103873189Y-114680729D01*
X103837397Y-114669871D01*
X103804405Y-114652237D01*
X103775492Y-114628508D01*
X103751763Y-114599595D01*
X103734129Y-114566603D01*
X103723271Y-114530811D01*
X103719000Y-114487445D01*
X103719000Y-112080555D01*
X103723271Y-112037189D01*
X103734129Y-112001397D01*
X103751763Y-111968405D01*
X103775492Y-111939492D01*
X103804405Y-111915763D01*
X103837397Y-111898129D01*
X103873189Y-111887271D01*
X103916555Y-111883000D01*
X104948445Y-111883000D01*
X104991811Y-111887271D01*
G37*
G36*
X101866811Y-111887271D02*
G01*
X101902603Y-111898129D01*
X101935595Y-111915763D01*
X101964508Y-111939492D01*
X101988237Y-111968405D01*
X102005871Y-112001397D01*
X102016729Y-112037189D01*
X102021000Y-112080555D01*
X102021000Y-114487445D01*
X102016729Y-114530811D01*
X102005871Y-114566603D01*
X101988237Y-114599595D01*
X101964508Y-114628508D01*
X101935595Y-114652237D01*
X101902603Y-114669871D01*
X101866811Y-114680729D01*
X101823445Y-114685000D01*
X100791555Y-114685000D01*
X100748189Y-114680729D01*
X100712397Y-114669871D01*
X100679405Y-114652237D01*
X100650492Y-114628508D01*
X100626763Y-114599595D01*
X100609129Y-114566603D01*
X100598271Y-114530811D01*
X100594000Y-114487445D01*
X100594000Y-112080555D01*
X100598271Y-112037189D01*
X100609129Y-112001397D01*
X100626763Y-111968405D01*
X100650492Y-111939492D01*
X100679405Y-111915763D01*
X100712397Y-111898129D01*
X100748189Y-111887271D01*
X100791555Y-111883000D01*
X101823445Y-111883000D01*
X101866811Y-111887271D01*
G37*
G36*
X62259928Y-112841764D02*
G01*
X62281009Y-112848160D01*
X62300445Y-112858548D01*
X62317476Y-112872524D01*
X62331452Y-112889555D01*
X62341840Y-112908991D01*
X62348236Y-112930072D01*
X62351000Y-112958140D01*
X62351000Y-113421860D01*
X62348236Y-113449928D01*
X62341840Y-113471009D01*
X62331452Y-113490445D01*
X62317476Y-113507476D01*
X62300445Y-113521452D01*
X62281009Y-113531840D01*
X62259928Y-113538236D01*
X62231860Y-113541000D01*
X60893140Y-113541000D01*
X60865072Y-113538236D01*
X60843991Y-113531840D01*
X60824555Y-113521452D01*
X60807524Y-113507476D01*
X60793548Y-113490445D01*
X60783160Y-113471009D01*
X60776764Y-113449928D01*
X60774000Y-113421860D01*
X60774000Y-112958140D01*
X60776764Y-112930072D01*
X60783160Y-112908991D01*
X60793548Y-112889555D01*
X60807524Y-112872524D01*
X60824555Y-112858548D01*
X60843991Y-112848160D01*
X60865072Y-112841764D01*
X60893140Y-112839000D01*
X62231860Y-112839000D01*
X62259928Y-112841764D01*
G37*
G36*
X51134928Y-112841764D02*
G01*
X51156009Y-112848160D01*
X51175445Y-112858548D01*
X51192476Y-112872524D01*
X51206452Y-112889555D01*
X51216840Y-112908991D01*
X51223236Y-112930072D01*
X51226000Y-112958140D01*
X51226000Y-113421860D01*
X51223236Y-113449928D01*
X51216840Y-113471009D01*
X51206452Y-113490445D01*
X51192476Y-113507476D01*
X51175445Y-113521452D01*
X51156009Y-113531840D01*
X51134928Y-113538236D01*
X51106860Y-113541000D01*
X49768140Y-113541000D01*
X49740072Y-113538236D01*
X49718991Y-113531840D01*
X49699555Y-113521452D01*
X49682524Y-113507476D01*
X49668548Y-113490445D01*
X49658160Y-113471009D01*
X49651764Y-113449928D01*
X49649000Y-113421860D01*
X49649000Y-112958140D01*
X49651764Y-112930072D01*
X49658160Y-112908991D01*
X49668548Y-112889555D01*
X49682524Y-112872524D01*
X49699555Y-112858548D01*
X49718991Y-112848160D01*
X49740072Y-112841764D01*
X49768140Y-112839000D01*
X51106860Y-112839000D01*
X51134928Y-112841764D01*
G37*
G36*
X51134928Y-111571764D02*
G01*
X51156009Y-111578160D01*
X51175445Y-111588548D01*
X51192476Y-111602524D01*
X51206452Y-111619555D01*
X51216840Y-111638991D01*
X51223236Y-111660072D01*
X51226000Y-111688140D01*
X51226000Y-112151860D01*
X51223236Y-112179928D01*
X51216840Y-112201009D01*
X51206452Y-112220445D01*
X51192476Y-112237476D01*
X51175445Y-112251452D01*
X51156009Y-112261840D01*
X51134928Y-112268236D01*
X51106860Y-112271000D01*
X49768140Y-112271000D01*
X49740072Y-112268236D01*
X49718991Y-112261840D01*
X49699555Y-112251452D01*
X49682524Y-112237476D01*
X49668548Y-112220445D01*
X49658160Y-112201009D01*
X49651764Y-112179928D01*
X49649000Y-112151860D01*
X49649000Y-111688140D01*
X49651764Y-111660072D01*
X49658160Y-111638991D01*
X49668548Y-111619555D01*
X49682524Y-111602524D01*
X49699555Y-111588548D01*
X49718991Y-111578160D01*
X49740072Y-111571764D01*
X49768140Y-111569000D01*
X51106860Y-111569000D01*
X51134928Y-111571764D01*
G37*
G36*
X62259928Y-111571764D02*
G01*
X62281009Y-111578160D01*
X62300445Y-111588548D01*
X62317476Y-111602524D01*
X62331452Y-111619555D01*
X62341840Y-111638991D01*
X62348236Y-111660072D01*
X62351000Y-111688140D01*
X62351000Y-112151860D01*
X62348236Y-112179928D01*
X62341840Y-112201009D01*
X62331452Y-112220445D01*
X62317476Y-112237476D01*
X62300445Y-112251452D01*
X62281009Y-112261840D01*
X62259928Y-112268236D01*
X62231860Y-112271000D01*
X60893140Y-112271000D01*
X60865072Y-112268236D01*
X60843991Y-112261840D01*
X60824555Y-112251452D01*
X60807524Y-112237476D01*
X60793548Y-112220445D01*
X60783160Y-112201009D01*
X60776764Y-112179928D01*
X60774000Y-112151860D01*
X60774000Y-111688140D01*
X60776764Y-111660072D01*
X60783160Y-111638991D01*
X60793548Y-111619555D01*
X60807524Y-111602524D01*
X60824555Y-111588548D01*
X60843991Y-111578160D01*
X60865072Y-111571764D01*
X60893140Y-111569000D01*
X62231860Y-111569000D01*
X62259928Y-111571764D01*
G37*
G36*
X47746811Y-110228271D02*
G01*
X47782603Y-110239129D01*
X47815595Y-110256763D01*
X47844508Y-110280492D01*
X47868237Y-110309405D01*
X47885871Y-110342397D01*
X47896729Y-110378189D01*
X47901000Y-110421555D01*
X47901000Y-111453445D01*
X47896729Y-111496811D01*
X47885871Y-111532603D01*
X47868237Y-111565595D01*
X47844508Y-111594508D01*
X47815595Y-111618237D01*
X47782603Y-111635871D01*
X47746811Y-111646729D01*
X47703445Y-111651000D01*
X45296555Y-111651000D01*
X45253189Y-111646729D01*
X45217397Y-111635871D01*
X45184405Y-111618237D01*
X45155492Y-111594508D01*
X45131763Y-111565595D01*
X45114129Y-111532603D01*
X45103271Y-111496811D01*
X45099000Y-111453445D01*
X45099000Y-110421555D01*
X45103271Y-110378189D01*
X45114129Y-110342397D01*
X45131763Y-110309405D01*
X45155492Y-110280492D01*
X45184405Y-110256763D01*
X45217397Y-110239129D01*
X45253189Y-110228271D01*
X45296555Y-110224000D01*
X47703445Y-110224000D01*
X47746811Y-110228271D01*
G37*
G36*
X78734228Y-109925703D02*
G01*
X78889100Y-109989853D01*
X79028481Y-110082985D01*
X79147015Y-110201519D01*
X79240147Y-110340900D01*
X79304297Y-110495772D01*
X79337000Y-110660184D01*
X79337000Y-110827816D01*
X79304297Y-110992228D01*
X79240147Y-111147100D01*
X79147015Y-111286481D01*
X79028481Y-111405015D01*
X78889100Y-111498147D01*
X78734228Y-111562297D01*
X78569816Y-111595000D01*
X78402184Y-111595000D01*
X78237772Y-111562297D01*
X78082900Y-111498147D01*
X77943519Y-111405015D01*
X77824985Y-111286481D01*
X77731853Y-111147100D01*
X77667703Y-110992228D01*
X77635000Y-110827816D01*
X77635000Y-110660184D01*
X77667703Y-110495772D01*
X77731853Y-110340900D01*
X77824985Y-110201519D01*
X77943519Y-110082985D01*
X78082900Y-109989853D01*
X78237772Y-109925703D01*
X78402184Y-109893000D01*
X78569816Y-109893000D01*
X78734228Y-109925703D01*
G37*
G36*
X81274228Y-109925703D02*
G01*
X81429100Y-109989853D01*
X81568481Y-110082985D01*
X81687015Y-110201519D01*
X81780147Y-110340900D01*
X81844297Y-110495772D01*
X81877000Y-110660184D01*
X81877000Y-110827816D01*
X81844297Y-110992228D01*
X81780147Y-111147100D01*
X81687015Y-111286481D01*
X81568481Y-111405015D01*
X81429100Y-111498147D01*
X81274228Y-111562297D01*
X81109816Y-111595000D01*
X80942184Y-111595000D01*
X80777772Y-111562297D01*
X80622900Y-111498147D01*
X80483519Y-111405015D01*
X80364985Y-111286481D01*
X80271853Y-111147100D01*
X80207703Y-110992228D01*
X80175000Y-110827816D01*
X80175000Y-110660184D01*
X80207703Y-110495772D01*
X80271853Y-110340900D01*
X80364985Y-110201519D01*
X80483519Y-110082985D01*
X80622900Y-109989853D01*
X80777772Y-109925703D01*
X80942184Y-109893000D01*
X81109816Y-109893000D01*
X81274228Y-109925703D01*
G37*
G36*
X76194228Y-109925703D02*
G01*
X76349100Y-109989853D01*
X76488481Y-110082985D01*
X76607015Y-110201519D01*
X76700147Y-110340900D01*
X76764297Y-110495772D01*
X76797000Y-110660184D01*
X76797000Y-110827816D01*
X76764297Y-110992228D01*
X76700147Y-111147100D01*
X76607015Y-111286481D01*
X76488481Y-111405015D01*
X76349100Y-111498147D01*
X76194228Y-111562297D01*
X76029816Y-111595000D01*
X75862184Y-111595000D01*
X75697772Y-111562297D01*
X75542900Y-111498147D01*
X75403519Y-111405015D01*
X75284985Y-111286481D01*
X75191853Y-111147100D01*
X75127703Y-110992228D01*
X75095000Y-110827816D01*
X75095000Y-110660184D01*
X75127703Y-110495772D01*
X75191853Y-110340900D01*
X75284985Y-110201519D01*
X75403519Y-110082985D01*
X75542900Y-109989853D01*
X75697772Y-109925703D01*
X75862184Y-109893000D01*
X76029816Y-109893000D01*
X76194228Y-109925703D01*
G37*
G36*
X73654228Y-109925703D02*
G01*
X73809100Y-109989853D01*
X73948481Y-110082985D01*
X74067015Y-110201519D01*
X74160147Y-110340900D01*
X74224297Y-110495772D01*
X74257000Y-110660184D01*
X74257000Y-110827816D01*
X74224297Y-110992228D01*
X74160147Y-111147100D01*
X74067015Y-111286481D01*
X73948481Y-111405015D01*
X73809100Y-111498147D01*
X73654228Y-111562297D01*
X73489816Y-111595000D01*
X73322184Y-111595000D01*
X73157772Y-111562297D01*
X73002900Y-111498147D01*
X72863519Y-111405015D01*
X72744985Y-111286481D01*
X72651853Y-111147100D01*
X72587703Y-110992228D01*
X72555000Y-110827816D01*
X72555000Y-110660184D01*
X72587703Y-110495772D01*
X72651853Y-110340900D01*
X72744985Y-110201519D01*
X72863519Y-110082985D01*
X73002900Y-109989853D01*
X73157772Y-109925703D01*
X73322184Y-109893000D01*
X73489816Y-109893000D01*
X73654228Y-109925703D01*
G37*
G36*
X71114228Y-109925703D02*
G01*
X71269100Y-109989853D01*
X71408481Y-110082985D01*
X71527015Y-110201519D01*
X71620147Y-110340900D01*
X71684297Y-110495772D01*
X71717000Y-110660184D01*
X71717000Y-110827816D01*
X71684297Y-110992228D01*
X71620147Y-111147100D01*
X71527015Y-111286481D01*
X71408481Y-111405015D01*
X71269100Y-111498147D01*
X71114228Y-111562297D01*
X70949816Y-111595000D01*
X70782184Y-111595000D01*
X70617772Y-111562297D01*
X70462900Y-111498147D01*
X70323519Y-111405015D01*
X70204985Y-111286481D01*
X70111853Y-111147100D01*
X70047703Y-110992228D01*
X70015000Y-110827816D01*
X70015000Y-110660184D01*
X70047703Y-110495772D01*
X70111853Y-110340900D01*
X70204985Y-110201519D01*
X70323519Y-110082985D01*
X70462900Y-109989853D01*
X70617772Y-109925703D01*
X70782184Y-109893000D01*
X70949816Y-109893000D01*
X71114228Y-109925703D01*
G37*
G36*
X68574228Y-109925703D02*
G01*
X68729100Y-109989853D01*
X68868481Y-110082985D01*
X68987015Y-110201519D01*
X69080147Y-110340900D01*
X69144297Y-110495772D01*
X69177000Y-110660184D01*
X69177000Y-110827816D01*
X69144297Y-110992228D01*
X69080147Y-111147100D01*
X68987015Y-111286481D01*
X68868481Y-111405015D01*
X68729100Y-111498147D01*
X68574228Y-111562297D01*
X68409816Y-111595000D01*
X68242184Y-111595000D01*
X68077772Y-111562297D01*
X67922900Y-111498147D01*
X67783519Y-111405015D01*
X67664985Y-111286481D01*
X67571853Y-111147100D01*
X67507703Y-110992228D01*
X67475000Y-110827816D01*
X67475000Y-110660184D01*
X67507703Y-110495772D01*
X67571853Y-110340900D01*
X67664985Y-110201519D01*
X67783519Y-110082985D01*
X67922900Y-109989853D01*
X68077772Y-109925703D01*
X68242184Y-109893000D01*
X68409816Y-109893000D01*
X68574228Y-109925703D01*
G37*
G36*
X66034228Y-109925703D02*
G01*
X66189100Y-109989853D01*
X66328481Y-110082985D01*
X66447015Y-110201519D01*
X66540147Y-110340900D01*
X66604297Y-110495772D01*
X66637000Y-110660184D01*
X66637000Y-110827816D01*
X66604297Y-110992228D01*
X66540147Y-111147100D01*
X66447015Y-111286481D01*
X66328481Y-111405015D01*
X66189100Y-111498147D01*
X66034228Y-111562297D01*
X65869816Y-111595000D01*
X65702184Y-111595000D01*
X65537772Y-111562297D01*
X65382900Y-111498147D01*
X65243519Y-111405015D01*
X65124985Y-111286481D01*
X65031853Y-111147100D01*
X64967703Y-110992228D01*
X64935000Y-110827816D01*
X64935000Y-110660184D01*
X64967703Y-110495772D01*
X65031853Y-110340900D01*
X65124985Y-110201519D01*
X65243519Y-110082985D01*
X65382900Y-109989853D01*
X65537772Y-109925703D01*
X65702184Y-109893000D01*
X65869816Y-109893000D01*
X66034228Y-109925703D01*
G37*
G36*
X88894228Y-109925703D02*
G01*
X89049100Y-109989853D01*
X89188481Y-110082985D01*
X89307015Y-110201519D01*
X89400147Y-110340900D01*
X89464297Y-110495772D01*
X89497000Y-110660184D01*
X89497000Y-110827816D01*
X89464297Y-110992228D01*
X89400147Y-111147100D01*
X89307015Y-111286481D01*
X89188481Y-111405015D01*
X89049100Y-111498147D01*
X88894228Y-111562297D01*
X88729816Y-111595000D01*
X88562184Y-111595000D01*
X88397772Y-111562297D01*
X88242900Y-111498147D01*
X88103519Y-111405015D01*
X87984985Y-111286481D01*
X87891853Y-111147100D01*
X87827703Y-110992228D01*
X87795000Y-110827816D01*
X87795000Y-110660184D01*
X87827703Y-110495772D01*
X87891853Y-110340900D01*
X87984985Y-110201519D01*
X88103519Y-110082985D01*
X88242900Y-109989853D01*
X88397772Y-109925703D01*
X88562184Y-109893000D01*
X88729816Y-109893000D01*
X88894228Y-109925703D01*
G37*
G36*
X91434228Y-109925703D02*
G01*
X91589100Y-109989853D01*
X91728481Y-110082985D01*
X91847015Y-110201519D01*
X91940147Y-110340900D01*
X92004297Y-110495772D01*
X92037000Y-110660184D01*
X92037000Y-110827816D01*
X92004297Y-110992228D01*
X91940147Y-111147100D01*
X91847015Y-111286481D01*
X91728481Y-111405015D01*
X91589100Y-111498147D01*
X91434228Y-111562297D01*
X91269816Y-111595000D01*
X91102184Y-111595000D01*
X90937772Y-111562297D01*
X90782900Y-111498147D01*
X90643519Y-111405015D01*
X90524985Y-111286481D01*
X90431853Y-111147100D01*
X90367703Y-110992228D01*
X90335000Y-110827816D01*
X90335000Y-110660184D01*
X90367703Y-110495772D01*
X90431853Y-110340900D01*
X90524985Y-110201519D01*
X90643519Y-110082985D01*
X90782900Y-109989853D01*
X90937772Y-109925703D01*
X91102184Y-109893000D01*
X91269816Y-109893000D01*
X91434228Y-109925703D01*
G37*
G36*
X83814228Y-109925703D02*
G01*
X83969100Y-109989853D01*
X84108481Y-110082985D01*
X84227015Y-110201519D01*
X84320147Y-110340900D01*
X84384297Y-110495772D01*
X84417000Y-110660184D01*
X84417000Y-110827816D01*
X84384297Y-110992228D01*
X84320147Y-111147100D01*
X84227015Y-111286481D01*
X84108481Y-111405015D01*
X83969100Y-111498147D01*
X83814228Y-111562297D01*
X83649816Y-111595000D01*
X83482184Y-111595000D01*
X83317772Y-111562297D01*
X83162900Y-111498147D01*
X83023519Y-111405015D01*
X82904985Y-111286481D01*
X82811853Y-111147100D01*
X82747703Y-110992228D01*
X82715000Y-110827816D01*
X82715000Y-110660184D01*
X82747703Y-110495772D01*
X82811853Y-110340900D01*
X82904985Y-110201519D01*
X83023519Y-110082985D01*
X83162900Y-109989853D01*
X83317772Y-109925703D01*
X83482184Y-109893000D01*
X83649816Y-109893000D01*
X83814228Y-109925703D01*
G37*
G36*
X93974228Y-109925703D02*
G01*
X94129100Y-109989853D01*
X94268481Y-110082985D01*
X94387015Y-110201519D01*
X94480147Y-110340900D01*
X94544297Y-110495772D01*
X94577000Y-110660184D01*
X94577000Y-110827816D01*
X94544297Y-110992228D01*
X94480147Y-111147100D01*
X94387015Y-111286481D01*
X94268481Y-111405015D01*
X94129100Y-111498147D01*
X93974228Y-111562297D01*
X93809816Y-111595000D01*
X93642184Y-111595000D01*
X93477772Y-111562297D01*
X93322900Y-111498147D01*
X93183519Y-111405015D01*
X93064985Y-111286481D01*
X92971853Y-111147100D01*
X92907703Y-110992228D01*
X92875000Y-110827816D01*
X92875000Y-110660184D01*
X92907703Y-110495772D01*
X92971853Y-110340900D01*
X93064985Y-110201519D01*
X93183519Y-110082985D01*
X93322900Y-109989853D01*
X93477772Y-109925703D01*
X93642184Y-109893000D01*
X93809816Y-109893000D01*
X93974228Y-109925703D01*
G37*
G36*
X99054228Y-109925703D02*
G01*
X99209100Y-109989853D01*
X99348481Y-110082985D01*
X99467015Y-110201519D01*
X99560147Y-110340900D01*
X99624297Y-110495772D01*
X99657000Y-110660184D01*
X99657000Y-110827816D01*
X99624297Y-110992228D01*
X99560147Y-111147100D01*
X99467015Y-111286481D01*
X99348481Y-111405015D01*
X99209100Y-111498147D01*
X99054228Y-111562297D01*
X98889816Y-111595000D01*
X98722184Y-111595000D01*
X98557772Y-111562297D01*
X98402900Y-111498147D01*
X98263519Y-111405015D01*
X98144985Y-111286481D01*
X98051853Y-111147100D01*
X97987703Y-110992228D01*
X97955000Y-110827816D01*
X97955000Y-110660184D01*
X97987703Y-110495772D01*
X98051853Y-110340900D01*
X98144985Y-110201519D01*
X98263519Y-110082985D01*
X98402900Y-109989853D01*
X98557772Y-109925703D01*
X98722184Y-109893000D01*
X98889816Y-109893000D01*
X99054228Y-109925703D01*
G37*
G36*
X96514228Y-109925703D02*
G01*
X96669100Y-109989853D01*
X96808481Y-110082985D01*
X96927015Y-110201519D01*
X97020147Y-110340900D01*
X97084297Y-110495772D01*
X97117000Y-110660184D01*
X97117000Y-110827816D01*
X97084297Y-110992228D01*
X97020147Y-111147100D01*
X96927015Y-111286481D01*
X96808481Y-111405015D01*
X96669100Y-111498147D01*
X96514228Y-111562297D01*
X96349816Y-111595000D01*
X96182184Y-111595000D01*
X96017772Y-111562297D01*
X95862900Y-111498147D01*
X95723519Y-111405015D01*
X95604985Y-111286481D01*
X95511853Y-111147100D01*
X95447703Y-110992228D01*
X95415000Y-110827816D01*
X95415000Y-110660184D01*
X95447703Y-110495772D01*
X95511853Y-110340900D01*
X95604985Y-110201519D01*
X95723519Y-110082985D01*
X95862900Y-109989853D01*
X96017772Y-109925703D01*
X96182184Y-109893000D01*
X96349816Y-109893000D01*
X96514228Y-109925703D01*
G37*
G36*
X86354228Y-109925703D02*
G01*
X86509100Y-109989853D01*
X86648481Y-110082985D01*
X86767015Y-110201519D01*
X86860147Y-110340900D01*
X86924297Y-110495772D01*
X86957000Y-110660184D01*
X86957000Y-110827816D01*
X86924297Y-110992228D01*
X86860147Y-111147100D01*
X86767015Y-111286481D01*
X86648481Y-111405015D01*
X86509100Y-111498147D01*
X86354228Y-111562297D01*
X86189816Y-111595000D01*
X86022184Y-111595000D01*
X85857772Y-111562297D01*
X85702900Y-111498147D01*
X85563519Y-111405015D01*
X85444985Y-111286481D01*
X85351853Y-111147100D01*
X85287703Y-110992228D01*
X85255000Y-110827816D01*
X85255000Y-110660184D01*
X85287703Y-110495772D01*
X85351853Y-110340900D01*
X85444985Y-110201519D01*
X85563519Y-110082985D01*
X85702900Y-109989853D01*
X85857772Y-109925703D01*
X86022184Y-109893000D01*
X86189816Y-109893000D01*
X86354228Y-109925703D01*
G37*
G36*
X101866811Y-108585271D02*
G01*
X101902603Y-108596129D01*
X101935595Y-108613763D01*
X101964508Y-108637492D01*
X101988237Y-108666405D01*
X102005871Y-108699397D01*
X102016729Y-108735189D01*
X102021000Y-108778555D01*
X102021000Y-111185445D01*
X102016729Y-111228811D01*
X102005871Y-111264603D01*
X101988237Y-111297595D01*
X101964508Y-111326508D01*
X101935595Y-111350237D01*
X101902603Y-111367871D01*
X101866811Y-111378729D01*
X101823445Y-111383000D01*
X100791555Y-111383000D01*
X100748189Y-111378729D01*
X100712397Y-111367871D01*
X100679405Y-111350237D01*
X100650492Y-111326508D01*
X100626763Y-111297595D01*
X100609129Y-111264603D01*
X100598271Y-111228811D01*
X100594000Y-111185445D01*
X100594000Y-108778555D01*
X100598271Y-108735189D01*
X100609129Y-108699397D01*
X100626763Y-108666405D01*
X100650492Y-108637492D01*
X100679405Y-108613763D01*
X100712397Y-108596129D01*
X100748189Y-108585271D01*
X100791555Y-108581000D01*
X101823445Y-108581000D01*
X101866811Y-108585271D01*
G37*
G36*
X104991811Y-108585271D02*
G01*
X105027603Y-108596129D01*
X105060595Y-108613763D01*
X105089508Y-108637492D01*
X105113237Y-108666405D01*
X105130871Y-108699397D01*
X105141729Y-108735189D01*
X105146000Y-108778555D01*
X105146000Y-111185445D01*
X105141729Y-111228811D01*
X105130871Y-111264603D01*
X105113237Y-111297595D01*
X105089508Y-111326508D01*
X105060595Y-111350237D01*
X105027603Y-111367871D01*
X104991811Y-111378729D01*
X104948445Y-111383000D01*
X103916555Y-111383000D01*
X103873189Y-111378729D01*
X103837397Y-111367871D01*
X103804405Y-111350237D01*
X103775492Y-111326508D01*
X103751763Y-111297595D01*
X103734129Y-111264603D01*
X103723271Y-111228811D01*
X103719000Y-111185445D01*
X103719000Y-108778555D01*
X103723271Y-108735189D01*
X103734129Y-108699397D01*
X103751763Y-108666405D01*
X103775492Y-108637492D01*
X103804405Y-108613763D01*
X103837397Y-108596129D01*
X103873189Y-108585271D01*
X103916555Y-108581000D01*
X104948445Y-108581000D01*
X104991811Y-108585271D01*
G37*
G36*
X54989928Y-109376764D02*
G01*
X55011009Y-109383160D01*
X55030445Y-109393548D01*
X55047476Y-109407524D01*
X55061452Y-109424555D01*
X55071840Y-109443991D01*
X55078236Y-109465072D01*
X55081000Y-109493140D01*
X55081000Y-110831860D01*
X55078236Y-110859928D01*
X55071840Y-110881009D01*
X55061452Y-110900445D01*
X55047476Y-110917476D01*
X55030445Y-110931452D01*
X55011009Y-110941840D01*
X54989928Y-110948236D01*
X54961860Y-110951000D01*
X54498140Y-110951000D01*
X54470072Y-110948236D01*
X54448991Y-110941840D01*
X54429555Y-110931452D01*
X54412524Y-110917476D01*
X54398548Y-110900445D01*
X54388160Y-110881009D01*
X54381764Y-110859928D01*
X54379000Y-110831860D01*
X54379000Y-109493140D01*
X54381764Y-109465072D01*
X54388160Y-109443991D01*
X54398548Y-109424555D01*
X54412524Y-109407524D01*
X54429555Y-109393548D01*
X54448991Y-109383160D01*
X54470072Y-109376764D01*
X54498140Y-109374000D01*
X54961860Y-109374000D01*
X54989928Y-109376764D01*
G37*
G36*
X58799928Y-109376764D02*
G01*
X58821009Y-109383160D01*
X58840445Y-109393548D01*
X58857476Y-109407524D01*
X58871452Y-109424555D01*
X58881840Y-109443991D01*
X58888236Y-109465072D01*
X58891000Y-109493140D01*
X58891000Y-110831860D01*
X58888236Y-110859928D01*
X58881840Y-110881009D01*
X58871452Y-110900445D01*
X58857476Y-110917476D01*
X58840445Y-110931452D01*
X58821009Y-110941840D01*
X58799928Y-110948236D01*
X58771860Y-110951000D01*
X58308140Y-110951000D01*
X58280072Y-110948236D01*
X58258991Y-110941840D01*
X58239555Y-110931452D01*
X58222524Y-110917476D01*
X58208548Y-110900445D01*
X58198160Y-110881009D01*
X58191764Y-110859928D01*
X58189000Y-110831860D01*
X58189000Y-109493140D01*
X58191764Y-109465072D01*
X58198160Y-109443991D01*
X58208548Y-109424555D01*
X58222524Y-109407524D01*
X58239555Y-109393548D01*
X58258991Y-109383160D01*
X58280072Y-109376764D01*
X58308140Y-109374000D01*
X58771860Y-109374000D01*
X58799928Y-109376764D01*
G37*
G36*
X57529928Y-109376764D02*
G01*
X57551009Y-109383160D01*
X57570445Y-109393548D01*
X57587476Y-109407524D01*
X57601452Y-109424555D01*
X57611840Y-109443991D01*
X57618236Y-109465072D01*
X57621000Y-109493140D01*
X57621000Y-110831860D01*
X57618236Y-110859928D01*
X57611840Y-110881009D01*
X57601452Y-110900445D01*
X57587476Y-110917476D01*
X57570445Y-110931452D01*
X57551009Y-110941840D01*
X57529928Y-110948236D01*
X57501860Y-110951000D01*
X57038140Y-110951000D01*
X57010072Y-110948236D01*
X56988991Y-110941840D01*
X56969555Y-110931452D01*
X56952524Y-110917476D01*
X56938548Y-110900445D01*
X56928160Y-110881009D01*
X56921764Y-110859928D01*
X56919000Y-110831860D01*
X56919000Y-109493140D01*
X56921764Y-109465072D01*
X56928160Y-109443991D01*
X56938548Y-109424555D01*
X56952524Y-109407524D01*
X56969555Y-109393548D01*
X56988991Y-109383160D01*
X57010072Y-109376764D01*
X57038140Y-109374000D01*
X57501860Y-109374000D01*
X57529928Y-109376764D01*
G37*
G36*
X52449928Y-109376764D02*
G01*
X52471009Y-109383160D01*
X52490445Y-109393548D01*
X52507476Y-109407524D01*
X52521452Y-109424555D01*
X52531840Y-109443991D01*
X52538236Y-109465072D01*
X52541000Y-109493140D01*
X52541000Y-110831860D01*
X52538236Y-110859928D01*
X52531840Y-110881009D01*
X52521452Y-110900445D01*
X52507476Y-110917476D01*
X52490445Y-110931452D01*
X52471009Y-110941840D01*
X52449928Y-110948236D01*
X52421860Y-110951000D01*
X51958140Y-110951000D01*
X51930072Y-110948236D01*
X51908991Y-110941840D01*
X51889555Y-110931452D01*
X51872524Y-110917476D01*
X51858548Y-110900445D01*
X51848160Y-110881009D01*
X51841764Y-110859928D01*
X51839000Y-110831860D01*
X51839000Y-109493140D01*
X51841764Y-109465072D01*
X51848160Y-109443991D01*
X51858548Y-109424555D01*
X51872524Y-109407524D01*
X51889555Y-109393548D01*
X51908991Y-109383160D01*
X51930072Y-109376764D01*
X51958140Y-109374000D01*
X52421860Y-109374000D01*
X52449928Y-109376764D01*
G37*
G36*
X53719928Y-109376764D02*
G01*
X53741009Y-109383160D01*
X53760445Y-109393548D01*
X53777476Y-109407524D01*
X53791452Y-109424555D01*
X53801840Y-109443991D01*
X53808236Y-109465072D01*
X53811000Y-109493140D01*
X53811000Y-110831860D01*
X53808236Y-110859928D01*
X53801840Y-110881009D01*
X53791452Y-110900445D01*
X53777476Y-110917476D01*
X53760445Y-110931452D01*
X53741009Y-110941840D01*
X53719928Y-110948236D01*
X53691860Y-110951000D01*
X53228140Y-110951000D01*
X53200072Y-110948236D01*
X53178991Y-110941840D01*
X53159555Y-110931452D01*
X53142524Y-110917476D01*
X53128548Y-110900445D01*
X53118160Y-110881009D01*
X53111764Y-110859928D01*
X53109000Y-110831860D01*
X53109000Y-109493140D01*
X53111764Y-109465072D01*
X53118160Y-109443991D01*
X53128548Y-109424555D01*
X53142524Y-109407524D01*
X53159555Y-109393548D01*
X53178991Y-109383160D01*
X53200072Y-109376764D01*
X53228140Y-109374000D01*
X53691860Y-109374000D01*
X53719928Y-109376764D01*
G37*
G36*
X56259928Y-109376764D02*
G01*
X56281009Y-109383160D01*
X56300445Y-109393548D01*
X56317476Y-109407524D01*
X56331452Y-109424555D01*
X56341840Y-109443991D01*
X56348236Y-109465072D01*
X56351000Y-109493140D01*
X56351000Y-110831860D01*
X56348236Y-110859928D01*
X56341840Y-110881009D01*
X56331452Y-110900445D01*
X56317476Y-110917476D01*
X56300445Y-110931452D01*
X56281009Y-110941840D01*
X56259928Y-110948236D01*
X56231860Y-110951000D01*
X55768140Y-110951000D01*
X55740072Y-110948236D01*
X55718991Y-110941840D01*
X55699555Y-110931452D01*
X55682524Y-110917476D01*
X55668548Y-110900445D01*
X55658160Y-110881009D01*
X55651764Y-110859928D01*
X55649000Y-110831860D01*
X55649000Y-109493140D01*
X55651764Y-109465072D01*
X55658160Y-109443991D01*
X55668548Y-109424555D01*
X55682524Y-109407524D01*
X55699555Y-109393548D01*
X55718991Y-109383160D01*
X55740072Y-109376764D01*
X55768140Y-109374000D01*
X56231860Y-109374000D01*
X56259928Y-109376764D01*
G37*
G36*
X60069928Y-109376764D02*
G01*
X60091009Y-109383160D01*
X60110445Y-109393548D01*
X60127476Y-109407524D01*
X60141452Y-109424555D01*
X60151840Y-109443991D01*
X60158236Y-109465072D01*
X60161000Y-109493140D01*
X60161000Y-110831860D01*
X60158236Y-110859928D01*
X60151840Y-110881009D01*
X60141452Y-110900445D01*
X60127476Y-110917476D01*
X60110445Y-110931452D01*
X60091009Y-110941840D01*
X60069928Y-110948236D01*
X60041860Y-110951000D01*
X59578140Y-110951000D01*
X59550072Y-110948236D01*
X59528991Y-110941840D01*
X59509555Y-110931452D01*
X59492524Y-110917476D01*
X59478548Y-110900445D01*
X59468160Y-110881009D01*
X59461764Y-110859928D01*
X59459000Y-110831860D01*
X59459000Y-109493140D01*
X59461764Y-109465072D01*
X59468160Y-109443991D01*
X59478548Y-109424555D01*
X59492524Y-109407524D01*
X59509555Y-109393548D01*
X59528991Y-109383160D01*
X59550072Y-109376764D01*
X59578140Y-109374000D01*
X60041860Y-109374000D01*
X60069928Y-109376764D01*
G37*
G36*
X63781162Y-108513644D02*
G01*
X63820608Y-108525610D01*
X63856953Y-108545037D01*
X63888815Y-108571185D01*
X63914963Y-108603047D01*
X63934390Y-108639392D01*
X63946356Y-108678838D01*
X63951000Y-108725993D01*
X63951000Y-109419007D01*
X63946356Y-109466162D01*
X63934390Y-109505608D01*
X63914963Y-109541953D01*
X63888815Y-109573815D01*
X63856953Y-109599963D01*
X63820608Y-109619390D01*
X63781162Y-109631356D01*
X63734007Y-109636000D01*
X62665993Y-109636000D01*
X62618838Y-109631356D01*
X62579392Y-109619390D01*
X62543047Y-109599963D01*
X62511185Y-109573815D01*
X62485037Y-109541953D01*
X62465610Y-109505608D01*
X62453644Y-109466162D01*
X62449000Y-109419007D01*
X62449000Y-108725993D01*
X62453644Y-108678838D01*
X62465610Y-108639392D01*
X62485037Y-108603047D01*
X62511185Y-108571185D01*
X62543047Y-108545037D01*
X62579392Y-108525610D01*
X62618838Y-108513644D01*
X62665993Y-108509000D01*
X63734007Y-108509000D01*
X63781162Y-108513644D01*
G37*
G36*
X66231434Y-107432686D02*
G01*
X66271284Y-107444774D01*
X66307999Y-107464399D01*
X66340186Y-107490814D01*
X66366601Y-107523001D01*
X66386226Y-107559716D01*
X66398314Y-107599566D01*
X66403000Y-107647141D01*
X66403000Y-108760859D01*
X66398314Y-108808434D01*
X66386226Y-108848284D01*
X66366601Y-108884999D01*
X66340186Y-108917186D01*
X66307999Y-108943601D01*
X66271284Y-108963226D01*
X66231434Y-108975314D01*
X66183859Y-108980000D01*
X65520141Y-108980000D01*
X65472566Y-108975314D01*
X65432716Y-108963226D01*
X65396001Y-108943601D01*
X65363814Y-108917186D01*
X65337399Y-108884999D01*
X65317774Y-108848284D01*
X65305686Y-108808434D01*
X65301000Y-108760859D01*
X65301000Y-107647141D01*
X65305686Y-107599566D01*
X65317774Y-107559716D01*
X65337399Y-107523001D01*
X65363814Y-107490814D01*
X65396001Y-107464399D01*
X65432716Y-107444774D01*
X65472566Y-107432686D01*
X65520141Y-107428000D01*
X66183859Y-107428000D01*
X66231434Y-107432686D01*
G37*
G36*
X68131434Y-107432686D02*
G01*
X68171284Y-107444774D01*
X68207999Y-107464399D01*
X68240186Y-107490814D01*
X68266601Y-107523001D01*
X68286226Y-107559716D01*
X68298314Y-107599566D01*
X68303000Y-107647141D01*
X68303000Y-108760859D01*
X68298314Y-108808434D01*
X68286226Y-108848284D01*
X68266601Y-108884999D01*
X68240186Y-108917186D01*
X68207999Y-108943601D01*
X68171284Y-108963226D01*
X68131434Y-108975314D01*
X68083859Y-108980000D01*
X67420141Y-108980000D01*
X67372566Y-108975314D01*
X67332716Y-108963226D01*
X67296001Y-108943601D01*
X67263814Y-108917186D01*
X67237399Y-108884999D01*
X67217774Y-108848284D01*
X67205686Y-108808434D01*
X67201000Y-108760859D01*
X67201000Y-107647141D01*
X67205686Y-107599566D01*
X67217774Y-107559716D01*
X67237399Y-107523001D01*
X67263814Y-107490814D01*
X67296001Y-107464399D01*
X67332716Y-107444774D01*
X67372566Y-107432686D01*
X67420141Y-107428000D01*
X68083859Y-107428000D01*
X68131434Y-107432686D01*
G37*
G36*
X53246811Y-106853271D02*
G01*
X53282603Y-106864129D01*
X53315595Y-106881763D01*
X53344508Y-106905492D01*
X53368237Y-106934405D01*
X53385871Y-106967397D01*
X53396729Y-107003189D01*
X53401000Y-107046555D01*
X53401000Y-108078445D01*
X53396729Y-108121811D01*
X53385871Y-108157603D01*
X53368237Y-108190595D01*
X53344508Y-108219508D01*
X53315595Y-108243237D01*
X53282603Y-108260871D01*
X53246811Y-108271729D01*
X53203445Y-108276000D01*
X50796555Y-108276000D01*
X50753189Y-108271729D01*
X50717397Y-108260871D01*
X50684405Y-108243237D01*
X50655492Y-108219508D01*
X50631763Y-108190595D01*
X50614129Y-108157603D01*
X50603271Y-108121811D01*
X50599000Y-108078445D01*
X50599000Y-107046555D01*
X50603271Y-107003189D01*
X50614129Y-106967397D01*
X50631763Y-106934405D01*
X50655492Y-106905492D01*
X50684405Y-106881763D01*
X50717397Y-106864129D01*
X50753189Y-106853271D01*
X50796555Y-106849000D01*
X53203445Y-106849000D01*
X53246811Y-106853271D01*
G37*
G36*
X63781162Y-106688644D02*
G01*
X63820608Y-106700610D01*
X63856953Y-106720037D01*
X63888815Y-106746185D01*
X63914963Y-106778047D01*
X63934390Y-106814392D01*
X63946356Y-106853838D01*
X63951000Y-106900993D01*
X63951000Y-107594007D01*
X63946356Y-107641162D01*
X63934390Y-107680608D01*
X63914963Y-107716953D01*
X63888815Y-107748815D01*
X63856953Y-107774963D01*
X63820608Y-107794390D01*
X63781162Y-107806356D01*
X63734007Y-107811000D01*
X62665993Y-107811000D01*
X62618838Y-107806356D01*
X62579392Y-107794390D01*
X62543047Y-107774963D01*
X62511185Y-107748815D01*
X62485037Y-107716953D01*
X62465610Y-107680608D01*
X62453644Y-107641162D01*
X62449000Y-107594007D01*
X62449000Y-106900993D01*
X62453644Y-106853838D01*
X62465610Y-106814392D01*
X62485037Y-106778047D01*
X62511185Y-106746185D01*
X62543047Y-106720037D01*
X62579392Y-106700610D01*
X62618838Y-106688644D01*
X62665993Y-106684000D01*
X63734007Y-106684000D01*
X63781162Y-106688644D01*
G37*
G36*
X46981000Y-107326000D02*
G01*
X45819000Y-107326000D01*
X45819000Y-104674000D01*
X46981000Y-104674000D01*
X46981000Y-107326000D01*
G37*
G36*
X49181000Y-107326000D02*
G01*
X48019000Y-107326000D01*
X48019000Y-104674000D01*
X49181000Y-104674000D01*
X49181000Y-107326000D01*
G37*
G36*
X96267395Y-104595546D02*
G01*
X96440466Y-104667234D01*
X96440467Y-104667235D01*
X96596227Y-104771310D01*
X96728690Y-104903773D01*
X96781081Y-104982182D01*
X96832766Y-105059534D01*
X96904454Y-105232605D01*
X96941000Y-105416333D01*
X96941000Y-105603667D01*
X96904454Y-105787395D01*
X96832766Y-105960466D01*
X96832765Y-105960467D01*
X96728690Y-106116227D01*
X96596227Y-106248690D01*
X96517818Y-106301081D01*
X96440466Y-106352766D01*
X96267395Y-106424454D01*
X96083667Y-106461000D01*
X95896333Y-106461000D01*
X95712605Y-106424454D01*
X95539534Y-106352766D01*
X95462182Y-106301081D01*
X95383773Y-106248690D01*
X95251310Y-106116227D01*
X95147235Y-105960467D01*
X95147234Y-105960466D01*
X95075546Y-105787395D01*
X95039000Y-105603667D01*
X95039000Y-105416333D01*
X95075546Y-105232605D01*
X95147234Y-105059534D01*
X95198919Y-104982182D01*
X95251310Y-104903773D01*
X95383773Y-104771310D01*
X95539533Y-104667235D01*
X95539534Y-104667234D01*
X95712605Y-104595546D01*
X95896333Y-104559000D01*
X96083667Y-104559000D01*
X96267395Y-104595546D01*
G37*
G36*
X101267395Y-104595546D02*
G01*
X101440466Y-104667234D01*
X101440467Y-104667235D01*
X101596227Y-104771310D01*
X101728690Y-104903773D01*
X101781081Y-104982182D01*
X101832766Y-105059534D01*
X101904454Y-105232605D01*
X101941000Y-105416333D01*
X101941000Y-105603667D01*
X101904454Y-105787395D01*
X101832766Y-105960466D01*
X101832765Y-105960467D01*
X101728690Y-106116227D01*
X101596227Y-106248690D01*
X101517818Y-106301081D01*
X101440466Y-106352766D01*
X101267395Y-106424454D01*
X101083667Y-106461000D01*
X100896333Y-106461000D01*
X100712605Y-106424454D01*
X100539534Y-106352766D01*
X100462182Y-106301081D01*
X100383773Y-106248690D01*
X100251310Y-106116227D01*
X100147235Y-105960467D01*
X100147234Y-105960466D01*
X100075546Y-105787395D01*
X100039000Y-105603667D01*
X100039000Y-105416333D01*
X100075546Y-105232605D01*
X100147234Y-105059534D01*
X100198919Y-104982182D01*
X100251310Y-104903773D01*
X100383773Y-104771310D01*
X100539533Y-104667235D01*
X100539534Y-104667234D01*
X100712605Y-104595546D01*
X100896333Y-104559000D01*
X101083667Y-104559000D01*
X101267395Y-104595546D01*
G37*
G36*
X103767395Y-104595546D02*
G01*
X103940466Y-104667234D01*
X103940467Y-104667235D01*
X104096227Y-104771310D01*
X104228690Y-104903773D01*
X104281081Y-104982182D01*
X104332766Y-105059534D01*
X104404454Y-105232605D01*
X104441000Y-105416333D01*
X104441000Y-105603667D01*
X104404454Y-105787395D01*
X104332766Y-105960466D01*
X104332765Y-105960467D01*
X104228690Y-106116227D01*
X104096227Y-106248690D01*
X104017818Y-106301081D01*
X103940466Y-106352766D01*
X103767395Y-106424454D01*
X103583667Y-106461000D01*
X103396333Y-106461000D01*
X103212605Y-106424454D01*
X103039534Y-106352766D01*
X102962182Y-106301081D01*
X102883773Y-106248690D01*
X102751310Y-106116227D01*
X102647235Y-105960467D01*
X102647234Y-105960466D01*
X102575546Y-105787395D01*
X102539000Y-105603667D01*
X102539000Y-105416333D01*
X102575546Y-105232605D01*
X102647234Y-105059534D01*
X102698919Y-104982182D01*
X102751310Y-104903773D01*
X102883773Y-104771310D01*
X103039533Y-104667235D01*
X103039534Y-104667234D01*
X103212605Y-104595546D01*
X103396333Y-104559000D01*
X103583667Y-104559000D01*
X103767395Y-104595546D01*
G37*
G36*
X93767395Y-104595546D02*
G01*
X93940466Y-104667234D01*
X93940467Y-104667235D01*
X94096227Y-104771310D01*
X94228690Y-104903773D01*
X94281081Y-104982182D01*
X94332766Y-105059534D01*
X94404454Y-105232605D01*
X94441000Y-105416333D01*
X94441000Y-105603667D01*
X94404454Y-105787395D01*
X94332766Y-105960466D01*
X94332765Y-105960467D01*
X94228690Y-106116227D01*
X94096227Y-106248690D01*
X94017818Y-106301081D01*
X93940466Y-106352766D01*
X93767395Y-106424454D01*
X93583667Y-106461000D01*
X93396333Y-106461000D01*
X93212605Y-106424454D01*
X93039534Y-106352766D01*
X92962182Y-106301081D01*
X92883773Y-106248690D01*
X92751310Y-106116227D01*
X92647235Y-105960467D01*
X92647234Y-105960466D01*
X92575546Y-105787395D01*
X92539000Y-105603667D01*
X92539000Y-105416333D01*
X92575546Y-105232605D01*
X92647234Y-105059534D01*
X92698919Y-104982182D01*
X92751310Y-104903773D01*
X92883773Y-104771310D01*
X93039533Y-104667235D01*
X93039534Y-104667234D01*
X93212605Y-104595546D01*
X93396333Y-104559000D01*
X93583667Y-104559000D01*
X93767395Y-104595546D01*
G37*
G36*
X61951000Y-106451000D02*
G01*
X59899000Y-106451000D01*
X59899000Y-105549000D01*
X61951000Y-105549000D01*
X61951000Y-106451000D01*
G37*
G36*
X84125589Y-104318876D02*
G01*
X84224893Y-104338629D01*
X84365206Y-104396748D01*
X84491484Y-104481125D01*
X84598875Y-104588516D01*
X84683252Y-104714794D01*
X84741371Y-104855107D01*
X84757120Y-104934283D01*
X84769558Y-104996811D01*
X84771000Y-105004063D01*
X84771000Y-105155937D01*
X84741371Y-105304893D01*
X84683252Y-105445206D01*
X84598875Y-105571484D01*
X84491484Y-105678875D01*
X84365206Y-105763252D01*
X84224893Y-105821371D01*
X84125589Y-105841124D01*
X84075938Y-105851000D01*
X83924062Y-105851000D01*
X83874411Y-105841124D01*
X83775107Y-105821371D01*
X83634794Y-105763252D01*
X83508516Y-105678875D01*
X83401125Y-105571484D01*
X83316748Y-105445206D01*
X83258629Y-105304893D01*
X83229000Y-105155937D01*
X83229000Y-105004063D01*
X83230443Y-104996811D01*
X83242880Y-104934283D01*
X83258629Y-104855107D01*
X83316748Y-104714794D01*
X83401125Y-104588516D01*
X83508516Y-104481125D01*
X83634794Y-104396748D01*
X83775107Y-104338629D01*
X83874411Y-104318876D01*
X83924062Y-104309000D01*
X84075938Y-104309000D01*
X84125589Y-104318876D01*
G37*
G36*
X71311434Y-103876686D02*
G01*
X71351284Y-103888774D01*
X71387999Y-103908399D01*
X71420186Y-103934814D01*
X71446601Y-103967001D01*
X71466226Y-104003716D01*
X71478314Y-104043566D01*
X71483000Y-104091141D01*
X71483000Y-105204859D01*
X71478314Y-105252434D01*
X71466226Y-105292284D01*
X71446601Y-105328999D01*
X71420186Y-105361186D01*
X71387999Y-105387601D01*
X71351284Y-105407226D01*
X71311434Y-105419314D01*
X71263859Y-105424000D01*
X70600141Y-105424000D01*
X70552566Y-105419314D01*
X70512716Y-105407226D01*
X70476001Y-105387601D01*
X70443814Y-105361186D01*
X70417399Y-105328999D01*
X70397774Y-105292284D01*
X70385686Y-105252434D01*
X70381000Y-105204859D01*
X70381000Y-104091141D01*
X70385686Y-104043566D01*
X70397774Y-104003716D01*
X70417399Y-103967001D01*
X70443814Y-103934814D01*
X70476001Y-103908399D01*
X70512716Y-103888774D01*
X70552566Y-103876686D01*
X70600141Y-103872000D01*
X71263859Y-103872000D01*
X71311434Y-103876686D01*
G37*
G36*
X73211434Y-103876686D02*
G01*
X73251284Y-103888774D01*
X73287999Y-103908399D01*
X73320186Y-103934814D01*
X73346601Y-103967001D01*
X73366226Y-104003716D01*
X73378314Y-104043566D01*
X73383000Y-104091141D01*
X73383000Y-105204859D01*
X73378314Y-105252434D01*
X73366226Y-105292284D01*
X73346601Y-105328999D01*
X73320186Y-105361186D01*
X73287999Y-105387601D01*
X73251284Y-105407226D01*
X73211434Y-105419314D01*
X73163859Y-105424000D01*
X72500141Y-105424000D01*
X72452566Y-105419314D01*
X72412716Y-105407226D01*
X72376001Y-105387601D01*
X72343814Y-105361186D01*
X72317399Y-105328999D01*
X72297774Y-105292284D01*
X72285686Y-105252434D01*
X72281000Y-105204859D01*
X72281000Y-104091141D01*
X72285686Y-104043566D01*
X72297774Y-104003716D01*
X72317399Y-103967001D01*
X72343814Y-103934814D01*
X72376001Y-103908399D01*
X72412716Y-103888774D01*
X72452566Y-103876686D01*
X72500141Y-103872000D01*
X73163859Y-103872000D01*
X73211434Y-103876686D01*
G37*
G36*
X57246811Y-103853271D02*
G01*
X57282603Y-103864129D01*
X57315595Y-103881763D01*
X57344508Y-103905492D01*
X57368237Y-103934405D01*
X57385871Y-103967397D01*
X57396729Y-104003189D01*
X57401000Y-104046555D01*
X57401000Y-105078445D01*
X57396729Y-105121811D01*
X57385871Y-105157603D01*
X57368237Y-105190595D01*
X57344508Y-105219508D01*
X57315595Y-105243237D01*
X57282603Y-105260871D01*
X57246811Y-105271729D01*
X57203445Y-105276000D01*
X54796555Y-105276000D01*
X54753189Y-105271729D01*
X54717397Y-105260871D01*
X54684405Y-105243237D01*
X54655492Y-105219508D01*
X54631763Y-105190595D01*
X54614129Y-105157603D01*
X54603271Y-105121811D01*
X54599000Y-105078445D01*
X54599000Y-104046555D01*
X54603271Y-104003189D01*
X54614129Y-103967397D01*
X54631763Y-103934405D01*
X54655492Y-103905492D01*
X54684405Y-103881763D01*
X54717397Y-103864129D01*
X54753189Y-103853271D01*
X54796555Y-103849000D01*
X57203445Y-103849000D01*
X57246811Y-103853271D01*
G37*
G36*
X53246811Y-103728271D02*
G01*
X53282603Y-103739129D01*
X53315595Y-103756763D01*
X53344508Y-103780492D01*
X53368237Y-103809405D01*
X53385871Y-103842397D01*
X53396729Y-103878189D01*
X53401000Y-103921555D01*
X53401000Y-104953445D01*
X53396729Y-104996811D01*
X53385871Y-105032603D01*
X53368237Y-105065595D01*
X53344508Y-105094508D01*
X53315595Y-105118237D01*
X53282603Y-105135871D01*
X53246811Y-105146729D01*
X53203445Y-105151000D01*
X50796555Y-105151000D01*
X50753189Y-105146729D01*
X50717397Y-105135871D01*
X50684405Y-105118237D01*
X50655492Y-105094508D01*
X50631763Y-105065595D01*
X50614129Y-105032603D01*
X50603271Y-104996811D01*
X50599000Y-104953445D01*
X50599000Y-103921555D01*
X50603271Y-103878189D01*
X50614129Y-103842397D01*
X50631763Y-103809405D01*
X50655492Y-103780492D01*
X50684405Y-103756763D01*
X50717397Y-103739129D01*
X50753189Y-103728271D01*
X50796555Y-103724000D01*
X53203445Y-103724000D01*
X53246811Y-103728271D01*
G37*
G36*
X66099434Y-103114686D02*
G01*
X66139284Y-103126774D01*
X66175999Y-103146399D01*
X66208186Y-103172814D01*
X66234601Y-103205001D01*
X66254226Y-103241716D01*
X66266314Y-103281566D01*
X66271000Y-103329141D01*
X66271000Y-104442859D01*
X66266314Y-104490434D01*
X66254226Y-104530284D01*
X66234601Y-104566999D01*
X66208186Y-104599186D01*
X66175999Y-104625601D01*
X66139284Y-104645226D01*
X66099434Y-104657314D01*
X66051859Y-104662000D01*
X65388141Y-104662000D01*
X65340566Y-104657314D01*
X65300716Y-104645226D01*
X65264001Y-104625601D01*
X65231814Y-104599186D01*
X65205399Y-104566999D01*
X65185774Y-104530284D01*
X65173686Y-104490434D01*
X65169000Y-104442859D01*
X65169000Y-103329141D01*
X65173686Y-103281566D01*
X65185774Y-103241716D01*
X65205399Y-103205001D01*
X65231814Y-103172814D01*
X65264001Y-103146399D01*
X65300716Y-103126774D01*
X65340566Y-103114686D01*
X65388141Y-103110000D01*
X66051859Y-103110000D01*
X66099434Y-103114686D01*
G37*
G36*
X64199434Y-103114686D02*
G01*
X64239284Y-103126774D01*
X64275999Y-103146399D01*
X64308186Y-103172814D01*
X64334601Y-103205001D01*
X64354226Y-103241716D01*
X64366314Y-103281566D01*
X64371000Y-103329141D01*
X64371000Y-104442859D01*
X64366314Y-104490434D01*
X64354226Y-104530284D01*
X64334601Y-104566999D01*
X64308186Y-104599186D01*
X64275999Y-104625601D01*
X64239284Y-104645226D01*
X64199434Y-104657314D01*
X64151859Y-104662000D01*
X63488141Y-104662000D01*
X63440566Y-104657314D01*
X63400716Y-104645226D01*
X63364001Y-104625601D01*
X63331814Y-104599186D01*
X63305399Y-104566999D01*
X63285774Y-104530284D01*
X63273686Y-104490434D01*
X63269000Y-104442859D01*
X63269000Y-103329141D01*
X63273686Y-103281566D01*
X63285774Y-103241716D01*
X63305399Y-103205001D01*
X63331814Y-103172814D01*
X63364001Y-103146399D01*
X63400716Y-103126774D01*
X63440566Y-103114686D01*
X63488141Y-103110000D01*
X64151859Y-103110000D01*
X64199434Y-103114686D01*
G37*
G36*
X84125589Y-101778876D02*
G01*
X84224893Y-101798629D01*
X84365206Y-101856748D01*
X84491484Y-101941125D01*
X84598875Y-102048516D01*
X84683252Y-102174794D01*
X84741371Y-102315107D01*
X84771000Y-102464063D01*
X84771000Y-102615937D01*
X84741371Y-102764893D01*
X84683252Y-102905206D01*
X84598875Y-103031484D01*
X84491484Y-103138875D01*
X84365206Y-103223252D01*
X84224893Y-103281371D01*
X84125589Y-103301124D01*
X84075938Y-103311000D01*
X83924062Y-103311000D01*
X83874411Y-103301124D01*
X83775107Y-103281371D01*
X83634794Y-103223252D01*
X83508516Y-103138875D01*
X83401125Y-103031484D01*
X83316748Y-102905206D01*
X83258629Y-102764893D01*
X83229000Y-102615937D01*
X83229000Y-102464063D01*
X83258629Y-102315107D01*
X83316748Y-102174794D01*
X83401125Y-102048516D01*
X83508516Y-101941125D01*
X83634794Y-101856748D01*
X83775107Y-101798629D01*
X83874411Y-101778876D01*
X83924062Y-101769000D01*
X84075938Y-101769000D01*
X84125589Y-101778876D01*
G37*
G36*
X49209999Y-97694737D02*
G01*
X49219608Y-97697652D01*
X49228472Y-97702390D01*
X49241007Y-97712677D01*
X50287323Y-98758993D01*
X50297610Y-98771528D01*
X50302348Y-98780392D01*
X50305263Y-98790001D01*
X50306852Y-98806140D01*
X50306852Y-102193860D01*
X50305263Y-102209999D01*
X50302348Y-102219608D01*
X50297610Y-102228472D01*
X50287323Y-102241007D01*
X49241007Y-103287323D01*
X49228472Y-103297610D01*
X49219608Y-103302348D01*
X49209999Y-103305263D01*
X49193860Y-103306852D01*
X48266140Y-103306852D01*
X48250001Y-103305263D01*
X48240392Y-103302348D01*
X48231528Y-103297610D01*
X48223763Y-103291237D01*
X48217390Y-103283472D01*
X48212652Y-103274608D01*
X48209737Y-103264999D01*
X48208148Y-103248860D01*
X48208148Y-102206140D01*
X48209737Y-102190001D01*
X48212652Y-102180392D01*
X48216689Y-102172839D01*
X48216691Y-102172837D01*
X48217390Y-102171529D01*
X48225506Y-102162099D01*
X48227482Y-102160301D01*
X48230732Y-102156525D01*
X49107284Y-101358770D01*
X49123702Y-101340580D01*
X49136257Y-101319536D01*
X49144464Y-101296447D01*
X49148148Y-101266325D01*
X49148148Y-99733675D01*
X49145746Y-99709289D01*
X49138633Y-99685840D01*
X49127082Y-99664229D01*
X49107284Y-99641230D01*
X48229645Y-98842485D01*
X48225516Y-98837910D01*
X48225506Y-98837901D01*
X48218775Y-98830443D01*
X48213628Y-98821815D01*
X48210263Y-98812350D01*
X48208753Y-98800000D01*
X48208753Y-98797329D01*
X48208148Y-98792381D01*
X48208148Y-97751140D01*
X48209737Y-97735001D01*
X48212652Y-97725392D01*
X48217390Y-97716528D01*
X48223763Y-97708763D01*
X48231528Y-97702390D01*
X48240392Y-97697652D01*
X48250001Y-97694737D01*
X48266140Y-97693148D01*
X49193860Y-97693148D01*
X49209999Y-97694737D01*
G37*
G36*
X46749999Y-97694737D02*
G01*
X46759608Y-97697652D01*
X46768472Y-97702390D01*
X46776237Y-97708763D01*
X46782610Y-97716528D01*
X46787348Y-97725392D01*
X46790263Y-97735001D01*
X46791852Y-97751140D01*
X46791852Y-98793860D01*
X46790263Y-98809999D01*
X46787348Y-98819608D01*
X46783311Y-98827161D01*
X46783309Y-98827163D01*
X46782610Y-98828471D01*
X46774494Y-98837901D01*
X46772518Y-98839699D01*
X46769268Y-98843475D01*
X45892716Y-99641230D01*
X45876298Y-99659420D01*
X45863743Y-99680464D01*
X45855536Y-99703553D01*
X45851852Y-99733675D01*
X45851852Y-101266325D01*
X45854254Y-101290711D01*
X45861367Y-101314160D01*
X45872918Y-101335771D01*
X45892716Y-101358770D01*
X46770355Y-102157515D01*
X46774484Y-102162090D01*
X46774494Y-102162099D01*
X46781225Y-102169557D01*
X46781228Y-102169562D01*
X46784351Y-102174796D01*
X46786372Y-102178185D01*
X46789737Y-102187650D01*
X46791247Y-102200000D01*
X46791247Y-102202671D01*
X46791852Y-102207619D01*
X46791852Y-103248860D01*
X46790263Y-103264999D01*
X46787348Y-103274608D01*
X46782610Y-103283472D01*
X46776237Y-103291237D01*
X46768472Y-103297610D01*
X46759608Y-103302348D01*
X46749999Y-103305263D01*
X46733860Y-103306852D01*
X45806140Y-103306852D01*
X45790001Y-103305263D01*
X45780392Y-103302348D01*
X45771528Y-103297610D01*
X45758993Y-103287323D01*
X44712677Y-102241007D01*
X44702390Y-102228472D01*
X44697652Y-102219608D01*
X44694737Y-102209999D01*
X44693148Y-102193860D01*
X44693148Y-98806140D01*
X44694737Y-98790001D01*
X44697652Y-98780392D01*
X44702390Y-98771528D01*
X44712677Y-98758993D01*
X45758993Y-97712677D01*
X45771528Y-97702390D01*
X45780392Y-97697652D01*
X45790001Y-97694737D01*
X45806140Y-97693148D01*
X46733860Y-97693148D01*
X46749999Y-97694737D01*
G37*
G36*
X90029512Y-101465927D02*
G01*
X90178812Y-101495624D01*
X90342784Y-101563544D01*
X90490354Y-101662147D01*
X90615853Y-101787646D01*
X90714456Y-101935216D01*
X90782376Y-102099188D01*
X90809269Y-102234390D01*
X90817000Y-102273258D01*
X90817000Y-102450742D01*
X90814350Y-102464062D01*
X90782376Y-102624812D01*
X90714456Y-102788784D01*
X90615853Y-102936354D01*
X90490354Y-103061853D01*
X90342784Y-103160456D01*
X90178812Y-103228376D01*
X90029512Y-103258073D01*
X90004742Y-103263000D01*
X89827258Y-103263000D01*
X89802488Y-103258073D01*
X89653188Y-103228376D01*
X89489216Y-103160456D01*
X89341646Y-103061853D01*
X89216147Y-102936354D01*
X89117544Y-102788784D01*
X89049624Y-102624812D01*
X89017650Y-102464062D01*
X89015000Y-102450742D01*
X89015000Y-102273258D01*
X89022731Y-102234390D01*
X89049624Y-102099188D01*
X89117544Y-101935216D01*
X89216147Y-101787646D01*
X89341646Y-101662147D01*
X89489216Y-101563544D01*
X89653188Y-101495624D01*
X89802488Y-101465927D01*
X89827258Y-101461000D01*
X90004742Y-101461000D01*
X90029512Y-101465927D01*
G37*
G36*
X69806000Y-101174001D02*
G01*
X69808402Y-101198387D01*
X69815515Y-101221836D01*
X69827066Y-101243447D01*
X69842611Y-101262389D01*
X69861553Y-101277934D01*
X69883164Y-101289485D01*
X69906613Y-101296598D01*
X69930999Y-101299000D01*
X73069001Y-101299000D01*
X73093387Y-101296598D01*
X73116836Y-101289485D01*
X73138447Y-101277934D01*
X73157389Y-101262389D01*
X73172934Y-101243447D01*
X73184485Y-101221836D01*
X73191598Y-101198387D01*
X73194000Y-101174001D01*
X73194000Y-100854000D01*
X74446000Y-100854000D01*
X74446000Y-102406000D01*
X73175999Y-102406000D01*
X73151613Y-102408402D01*
X73128164Y-102415515D01*
X73106553Y-102427066D01*
X73087611Y-102442611D01*
X73072066Y-102461553D01*
X73060515Y-102483164D01*
X73053402Y-102506613D01*
X73051000Y-102530999D01*
X73051000Y-102801000D01*
X69949000Y-102801000D01*
X69949000Y-102530999D01*
X69946598Y-102506613D01*
X69939485Y-102483164D01*
X69927934Y-102461553D01*
X69912389Y-102442611D01*
X69893447Y-102427066D01*
X69871836Y-102415515D01*
X69848387Y-102408402D01*
X69824001Y-102406000D01*
X68554000Y-102406000D01*
X68554000Y-100854000D01*
X69806000Y-100854000D01*
X69806000Y-101174001D01*
G37*
G36*
X58981162Y-100753644D02*
G01*
X59020608Y-100765610D01*
X59056953Y-100785037D01*
X59088815Y-100811185D01*
X59114963Y-100843047D01*
X59134390Y-100879392D01*
X59146356Y-100918838D01*
X59151000Y-100965993D01*
X59151000Y-102034007D01*
X59146356Y-102081162D01*
X59134390Y-102120608D01*
X59114963Y-102156953D01*
X59088815Y-102188815D01*
X59056953Y-102214963D01*
X59020608Y-102234390D01*
X58981162Y-102246356D01*
X58934007Y-102251000D01*
X58240993Y-102251000D01*
X58193838Y-102246356D01*
X58154392Y-102234390D01*
X58118047Y-102214963D01*
X58086185Y-102188815D01*
X58060037Y-102156953D01*
X58040610Y-102120608D01*
X58028644Y-102081162D01*
X58024000Y-102034007D01*
X58024000Y-100965993D01*
X58028644Y-100918838D01*
X58040610Y-100879392D01*
X58060037Y-100843047D01*
X58086185Y-100811185D01*
X58118047Y-100785037D01*
X58154392Y-100765610D01*
X58193838Y-100753644D01*
X58240993Y-100749000D01*
X58934007Y-100749000D01*
X58981162Y-100753644D01*
G37*
G36*
X60806162Y-100753644D02*
G01*
X60845608Y-100765610D01*
X60881953Y-100785037D01*
X60913815Y-100811185D01*
X60939963Y-100843047D01*
X60959390Y-100879392D01*
X60971356Y-100918838D01*
X60976000Y-100965993D01*
X60976000Y-102034007D01*
X60971356Y-102081162D01*
X60959390Y-102120608D01*
X60939963Y-102156953D01*
X60913815Y-102188815D01*
X60881953Y-102214963D01*
X60845608Y-102234390D01*
X60806162Y-102246356D01*
X60759007Y-102251000D01*
X60065993Y-102251000D01*
X60018838Y-102246356D01*
X59979392Y-102234390D01*
X59943047Y-102214963D01*
X59911185Y-102188815D01*
X59885037Y-102156953D01*
X59865610Y-102120608D01*
X59853644Y-102081162D01*
X59849000Y-102034007D01*
X59849000Y-100965993D01*
X59853644Y-100918838D01*
X59865610Y-100879392D01*
X59885037Y-100843047D01*
X59911185Y-100811185D01*
X59943047Y-100785037D01*
X59979392Y-100765610D01*
X60018838Y-100753644D01*
X60065993Y-100749000D01*
X60759007Y-100749000D01*
X60806162Y-100753644D01*
G37*
G36*
X57246811Y-100728271D02*
G01*
X57282603Y-100739129D01*
X57315595Y-100756763D01*
X57344508Y-100780492D01*
X57368237Y-100809405D01*
X57385871Y-100842397D01*
X57396729Y-100878189D01*
X57401000Y-100921555D01*
X57401000Y-101953445D01*
X57396729Y-101996811D01*
X57385871Y-102032603D01*
X57368237Y-102065595D01*
X57344508Y-102094508D01*
X57315595Y-102118237D01*
X57282603Y-102135871D01*
X57246811Y-102146729D01*
X57203445Y-102151000D01*
X54796555Y-102151000D01*
X54753189Y-102146729D01*
X54717397Y-102135871D01*
X54684405Y-102118237D01*
X54655492Y-102094508D01*
X54631763Y-102065595D01*
X54614129Y-102032603D01*
X54603271Y-101996811D01*
X54599000Y-101953445D01*
X54599000Y-100921555D01*
X54603271Y-100878189D01*
X54614129Y-100842397D01*
X54631763Y-100809405D01*
X54655492Y-100780492D01*
X54684405Y-100756763D01*
X54717397Y-100739129D01*
X54753189Y-100728271D01*
X54796555Y-100724000D01*
X57203445Y-100724000D01*
X57246811Y-100728271D01*
G37*
G36*
X78836434Y-100733686D02*
G01*
X78876284Y-100745774D01*
X78912999Y-100765399D01*
X78945186Y-100791814D01*
X78971601Y-100824001D01*
X78991226Y-100860716D01*
X79003314Y-100900566D01*
X79008000Y-100948141D01*
X79008000Y-101611859D01*
X79003314Y-101659434D01*
X78991226Y-101699284D01*
X78971601Y-101735999D01*
X78945186Y-101768186D01*
X78912999Y-101794601D01*
X78876284Y-101814226D01*
X78836434Y-101826314D01*
X78788859Y-101831000D01*
X77675141Y-101831000D01*
X77627566Y-101826314D01*
X77587716Y-101814226D01*
X77551001Y-101794601D01*
X77518814Y-101768186D01*
X77492399Y-101735999D01*
X77472774Y-101699284D01*
X77460686Y-101659434D01*
X77456000Y-101611859D01*
X77456000Y-100948141D01*
X77460686Y-100900566D01*
X77472774Y-100860716D01*
X77492399Y-100824001D01*
X77518814Y-100791814D01*
X77551001Y-100765399D01*
X77587716Y-100745774D01*
X77627566Y-100733686D01*
X77675141Y-100729000D01*
X78788859Y-100729000D01*
X78836434Y-100733686D01*
G37*
G36*
X98767395Y-99595546D02*
G01*
X98940466Y-99667234D01*
X98994821Y-99703553D01*
X99096227Y-99771310D01*
X99228690Y-99903773D01*
X99259889Y-99950466D01*
X99332766Y-100059534D01*
X99404454Y-100232605D01*
X99441000Y-100416333D01*
X99441000Y-100603667D01*
X99404454Y-100787395D01*
X99332766Y-100960466D01*
X99332765Y-100960467D01*
X99228690Y-101116227D01*
X99096227Y-101248690D01*
X99075725Y-101262389D01*
X98940466Y-101352766D01*
X98767395Y-101424454D01*
X98583667Y-101461000D01*
X98396333Y-101461000D01*
X98212605Y-101424454D01*
X98039534Y-101352766D01*
X97904275Y-101262389D01*
X97883773Y-101248690D01*
X97751310Y-101116227D01*
X97647235Y-100960467D01*
X97647234Y-100960466D01*
X97575546Y-100787395D01*
X97539000Y-100603667D01*
X97539000Y-100416333D01*
X97575546Y-100232605D01*
X97647234Y-100059534D01*
X97720111Y-99950466D01*
X97751310Y-99903773D01*
X97883773Y-99771310D01*
X97985179Y-99703553D01*
X98039534Y-99667234D01*
X98212605Y-99595546D01*
X98396333Y-99559000D01*
X98583667Y-99559000D01*
X98767395Y-99595546D01*
G37*
G36*
X52451000Y-100951000D02*
G01*
X51549000Y-100951000D01*
X51549000Y-98899000D01*
X52451000Y-98899000D01*
X52451000Y-100951000D01*
G37*
G36*
X84125589Y-99238876D02*
G01*
X84224893Y-99258629D01*
X84365206Y-99316748D01*
X84491484Y-99401125D01*
X84598875Y-99508516D01*
X84683252Y-99634794D01*
X84741371Y-99775107D01*
X84741371Y-99775109D01*
X84768209Y-99910029D01*
X84771000Y-99924063D01*
X84771000Y-100075937D01*
X84741371Y-100224893D01*
X84683252Y-100365206D01*
X84598875Y-100491484D01*
X84491484Y-100598875D01*
X84365206Y-100683252D01*
X84224893Y-100741371D01*
X84125589Y-100761124D01*
X84075938Y-100771000D01*
X83924062Y-100771000D01*
X83874411Y-100761124D01*
X83775107Y-100741371D01*
X83634794Y-100683252D01*
X83508516Y-100598875D01*
X83401125Y-100491484D01*
X83316748Y-100365206D01*
X83258629Y-100224893D01*
X83229000Y-100075937D01*
X83229000Y-99924063D01*
X83231792Y-99910029D01*
X83258629Y-99775109D01*
X83258629Y-99775107D01*
X83316748Y-99634794D01*
X83401125Y-99508516D01*
X83508516Y-99401125D01*
X83634794Y-99316748D01*
X83775107Y-99258629D01*
X83874411Y-99238876D01*
X83924062Y-99229000D01*
X84075938Y-99229000D01*
X84125589Y-99238876D01*
G37*
G36*
X90817000Y-100723000D02*
G01*
X89015000Y-100723000D01*
X89015000Y-98921000D01*
X90817000Y-98921000D01*
X90817000Y-100723000D01*
G37*
G36*
X65417395Y-98585546D02*
G01*
X65590466Y-98657234D01*
X65590467Y-98657235D01*
X65746227Y-98761310D01*
X65878690Y-98893773D01*
X65914064Y-98946714D01*
X65982766Y-99049534D01*
X66054454Y-99222605D01*
X66091000Y-99406333D01*
X66091000Y-99593667D01*
X66054454Y-99777395D01*
X65982766Y-99950466D01*
X65982765Y-99950467D01*
X65878690Y-100106227D01*
X65746227Y-100238690D01*
X65667818Y-100291081D01*
X65590466Y-100342766D01*
X65417395Y-100414454D01*
X65233667Y-100451000D01*
X65046333Y-100451000D01*
X64862605Y-100414454D01*
X64689534Y-100342766D01*
X64612182Y-100291081D01*
X64533773Y-100238690D01*
X64401310Y-100106227D01*
X64297235Y-99950467D01*
X64297234Y-99950466D01*
X64225546Y-99777395D01*
X64189000Y-99593667D01*
X64189000Y-99406333D01*
X64225546Y-99222605D01*
X64297234Y-99049534D01*
X64365936Y-98946714D01*
X64401310Y-98893773D01*
X64533773Y-98761310D01*
X64689533Y-98657235D01*
X64689534Y-98657234D01*
X64862605Y-98585546D01*
X65046333Y-98549000D01*
X65233667Y-98549000D01*
X65417395Y-98585546D01*
G37*
G36*
X63551000Y-100451000D02*
G01*
X61649000Y-100451000D01*
X61649000Y-98549000D01*
X63551000Y-98549000D01*
X63551000Y-100451000D01*
G37*
G36*
X68037916Y-98407334D02*
G01*
X68146492Y-98440271D01*
X68146495Y-98440272D01*
X68182601Y-98459571D01*
X68246557Y-98493756D01*
X68334264Y-98565736D01*
X68406244Y-98653443D01*
X68440429Y-98717399D01*
X68459728Y-98753505D01*
X68459728Y-98753506D01*
X68459729Y-98753508D01*
X68492666Y-98862084D01*
X68501000Y-98946702D01*
X68501000Y-99853298D01*
X68492666Y-99937916D01*
X68459729Y-100046491D01*
X68459728Y-100046495D01*
X68452759Y-100059533D01*
X68406244Y-100146557D01*
X68334264Y-100234264D01*
X68246556Y-100306244D01*
X68182600Y-100340429D01*
X68146494Y-100359728D01*
X68146491Y-100359729D01*
X68037915Y-100392666D01*
X67925000Y-100403787D01*
X67812084Y-100392666D01*
X67703508Y-100359729D01*
X67703505Y-100359728D01*
X67667399Y-100340429D01*
X67603443Y-100306244D01*
X67515736Y-100234264D01*
X67443756Y-100146556D01*
X67406010Y-100075937D01*
X67390272Y-100046494D01*
X67390271Y-100046491D01*
X67357334Y-99937915D01*
X67349000Y-99853297D01*
X67349000Y-98946702D01*
X67357335Y-98862084D01*
X67390272Y-98753508D01*
X67390273Y-98753506D01*
X67390273Y-98753505D01*
X67409572Y-98717399D01*
X67443757Y-98653443D01*
X67515737Y-98565736D01*
X67603444Y-98493756D01*
X67667400Y-98459571D01*
X67703506Y-98440272D01*
X67703509Y-98440271D01*
X67812085Y-98407334D01*
X67925000Y-98396213D01*
X68037916Y-98407334D01*
G37*
G36*
X75187915Y-98407334D02*
G01*
X75296491Y-98440271D01*
X75296494Y-98440272D01*
X75332600Y-98459571D01*
X75396556Y-98493756D01*
X75484264Y-98565736D01*
X75556244Y-98653443D01*
X75590429Y-98717399D01*
X75609728Y-98753505D01*
X75609728Y-98753506D01*
X75609729Y-98753508D01*
X75642666Y-98862084D01*
X75651000Y-98946702D01*
X75651000Y-99853298D01*
X75642666Y-99937916D01*
X75609729Y-100046491D01*
X75609728Y-100046495D01*
X75602759Y-100059533D01*
X75556244Y-100146557D01*
X75484264Y-100234264D01*
X75396557Y-100306244D01*
X75332601Y-100340429D01*
X75296495Y-100359728D01*
X75296492Y-100359729D01*
X75187916Y-100392666D01*
X75075000Y-100403787D01*
X74962085Y-100392666D01*
X74853509Y-100359729D01*
X74853506Y-100359728D01*
X74817400Y-100340429D01*
X74753444Y-100306244D01*
X74665737Y-100234264D01*
X74593757Y-100146557D01*
X74547242Y-100059533D01*
X74540273Y-100046495D01*
X74540272Y-100046491D01*
X74507335Y-99937916D01*
X74499000Y-99853298D01*
X74499000Y-98946703D01*
X74507334Y-98862085D01*
X74540271Y-98753509D01*
X74540272Y-98753506D01*
X74559571Y-98717400D01*
X74593756Y-98653444D01*
X74665736Y-98565736D01*
X74753443Y-98493756D01*
X74817399Y-98459571D01*
X74853505Y-98440272D01*
X74853508Y-98440271D01*
X74962084Y-98407334D01*
X75075000Y-98396213D01*
X75187915Y-98407334D01*
G37*
G36*
X71301000Y-100401000D02*
G01*
X69449000Y-100401000D01*
X69449000Y-98399000D01*
X71301000Y-98399000D01*
X71301000Y-100401000D01*
G37*
G36*
X73551000Y-100401000D02*
G01*
X71699000Y-100401000D01*
X71699000Y-98399000D01*
X73551000Y-98399000D01*
X73551000Y-100401000D01*
G37*
G36*
X60451000Y-99951000D02*
G01*
X58399000Y-99951000D01*
X58399000Y-99049000D01*
X60451000Y-99049000D01*
X60451000Y-99951000D01*
G37*
G36*
X78836434Y-98833686D02*
G01*
X78876284Y-98845774D01*
X78912999Y-98865399D01*
X78945186Y-98891814D01*
X78971601Y-98924001D01*
X78991226Y-98960716D01*
X79003314Y-99000566D01*
X79008000Y-99048141D01*
X79008000Y-99711859D01*
X79003314Y-99759434D01*
X78991226Y-99799284D01*
X78971601Y-99835999D01*
X78945186Y-99868186D01*
X78912999Y-99894601D01*
X78876284Y-99914226D01*
X78836434Y-99926314D01*
X78788859Y-99931000D01*
X77675141Y-99931000D01*
X77627566Y-99926314D01*
X77587716Y-99914226D01*
X77551001Y-99894601D01*
X77518814Y-99868186D01*
X77492399Y-99835999D01*
X77472774Y-99799284D01*
X77460686Y-99759434D01*
X77456000Y-99711859D01*
X77456000Y-99048141D01*
X77460686Y-99000566D01*
X77472774Y-98960716D01*
X77492399Y-98924001D01*
X77518814Y-98891814D01*
X77551001Y-98865399D01*
X77587716Y-98845774D01*
X77627566Y-98833686D01*
X77675141Y-98829000D01*
X78788859Y-98829000D01*
X78836434Y-98833686D01*
G37*
M02*
