G04 #@! TF.GenerationSoftware,KiCad,Pcbnew,5.1.5+dfsg1-2build2*
G04 #@! TF.CreationDate,2022-11-02T21:13:42+00:00*
G04 #@! TF.ProjectId,psion-speech-sp0256al2,7073696f-6e2d-4737-9065-6563682d7370,rev?*
G04 #@! TF.SameCoordinates,Original*
G04 #@! TF.FileFunction,Legend,Top*
G04 #@! TF.FilePolarity,Positive*
%FSLAX46Y46*%
G04 Gerber Fmt 4.6, Leading zero omitted, Abs format (unit mm)*
G04 Created by KiCad (PCBNEW 5.1.5+dfsg1-2build2) date 2022-11-02 21:13:42*
%MOMM*%
%LPD*%
G04 APERTURE LIST*
%ADD10C,0.150000*%
%ADD11C,0.120000*%
G04 APERTURE END LIST*
D10*
X109418380Y-119863238D02*
X108751714Y-119863238D01*
X108846952Y-119863238D02*
X108799333Y-119815619D01*
X108751714Y-119720380D01*
X108751714Y-119577523D01*
X108799333Y-119482285D01*
X108894571Y-119434666D01*
X109418380Y-119434666D01*
X108894571Y-119434666D02*
X108799333Y-119387047D01*
X108751714Y-119291809D01*
X108751714Y-119148952D01*
X108799333Y-119053714D01*
X108894571Y-119006095D01*
X109418380Y-119006095D01*
X109370761Y-118148952D02*
X109418380Y-118244190D01*
X109418380Y-118434666D01*
X109370761Y-118529904D01*
X109275523Y-118577523D01*
X108894571Y-118577523D01*
X108799333Y-118529904D01*
X108751714Y-118434666D01*
X108751714Y-118244190D01*
X108799333Y-118148952D01*
X108894571Y-118101333D01*
X108989809Y-118101333D01*
X109085047Y-118577523D01*
X108751714Y-117672761D02*
X109418380Y-117672761D01*
X108846952Y-117672761D02*
X108799333Y-117625142D01*
X108751714Y-117529904D01*
X108751714Y-117387047D01*
X108799333Y-117291809D01*
X108894571Y-117244190D01*
X109418380Y-117244190D01*
X109418380Y-116339428D02*
X108894571Y-116339428D01*
X108799333Y-116387047D01*
X108751714Y-116482285D01*
X108751714Y-116672761D01*
X108799333Y-116768000D01*
X109370761Y-116339428D02*
X109418380Y-116434666D01*
X109418380Y-116672761D01*
X109370761Y-116768000D01*
X109275523Y-116815619D01*
X109180285Y-116815619D01*
X109085047Y-116768000D01*
X109037428Y-116672761D01*
X109037428Y-116434666D01*
X108989809Y-116339428D01*
X109418380Y-115434666D02*
X108418380Y-115434666D01*
X109370761Y-115434666D02*
X109418380Y-115529904D01*
X109418380Y-115720380D01*
X109370761Y-115815619D01*
X109323142Y-115863238D01*
X109227904Y-115910857D01*
X108942190Y-115910857D01*
X108846952Y-115863238D01*
X108799333Y-115815619D01*
X108751714Y-115720380D01*
X108751714Y-115529904D01*
X108799333Y-115434666D01*
X108751714Y-114529904D02*
X109418380Y-114529904D01*
X108751714Y-114958476D02*
X109275523Y-114958476D01*
X109370761Y-114910857D01*
X109418380Y-114815619D01*
X109418380Y-114672761D01*
X109370761Y-114577523D01*
X109323142Y-114529904D01*
X109370761Y-113672761D02*
X109418380Y-113768000D01*
X109418380Y-113958476D01*
X109370761Y-114053714D01*
X109275523Y-114101333D01*
X108894571Y-114101333D01*
X108799333Y-114053714D01*
X108751714Y-113958476D01*
X108751714Y-113768000D01*
X108799333Y-113672761D01*
X108894571Y-113625142D01*
X108989809Y-113625142D01*
X109085047Y-114101333D01*
X108942190Y-112577523D02*
X108894571Y-112625142D01*
X108846952Y-112720380D01*
X108846952Y-112815619D01*
X108894571Y-112910857D01*
X108942190Y-112958476D01*
X109037428Y-113006095D01*
X109132666Y-113006095D01*
X109227904Y-112958476D01*
X109275523Y-112910857D01*
X109323142Y-112815619D01*
X109323142Y-112720380D01*
X109275523Y-112625142D01*
X109227904Y-112577523D01*
X108846952Y-112577523D02*
X109227904Y-112577523D01*
X109275523Y-112529904D01*
X109275523Y-112482285D01*
X109227904Y-112387047D01*
X109132666Y-112339428D01*
X108894571Y-112339428D01*
X108751714Y-112434666D01*
X108656476Y-112577523D01*
X108608857Y-112768000D01*
X108656476Y-112958476D01*
X108751714Y-113101333D01*
X108894571Y-113196571D01*
X109085047Y-113244190D01*
X109275523Y-113196571D01*
X109418380Y-113101333D01*
X109513619Y-112958476D01*
X109561238Y-112768000D01*
X109513619Y-112577523D01*
X109418380Y-112434666D01*
X108751714Y-111482285D02*
X109561238Y-111482285D01*
X109656476Y-111529904D01*
X109704095Y-111577523D01*
X109751714Y-111672761D01*
X109751714Y-111815619D01*
X109704095Y-111910857D01*
X109370761Y-111482285D02*
X109418380Y-111577523D01*
X109418380Y-111768000D01*
X109370761Y-111863238D01*
X109323142Y-111910857D01*
X109227904Y-111958476D01*
X108942190Y-111958476D01*
X108846952Y-111910857D01*
X108799333Y-111863238D01*
X108751714Y-111768000D01*
X108751714Y-111577523D01*
X108799333Y-111482285D01*
X109418380Y-111006095D02*
X108751714Y-111006095D01*
X108846952Y-111006095D02*
X108799333Y-110958476D01*
X108751714Y-110863238D01*
X108751714Y-110720380D01*
X108799333Y-110625142D01*
X108894571Y-110577523D01*
X109418380Y-110577523D01*
X108894571Y-110577523D02*
X108799333Y-110529904D01*
X108751714Y-110434666D01*
X108751714Y-110291809D01*
X108799333Y-110196571D01*
X108894571Y-110148952D01*
X109418380Y-110148952D01*
X109418380Y-109244190D02*
X108894571Y-109244190D01*
X108799333Y-109291809D01*
X108751714Y-109387047D01*
X108751714Y-109577523D01*
X108799333Y-109672761D01*
X109370761Y-109244190D02*
X109418380Y-109339428D01*
X109418380Y-109577523D01*
X109370761Y-109672761D01*
X109275523Y-109720380D01*
X109180285Y-109720380D01*
X109085047Y-109672761D01*
X109037428Y-109577523D01*
X109037428Y-109339428D01*
X108989809Y-109244190D01*
X109418380Y-108768000D02*
X108751714Y-108768000D01*
X108418380Y-108768000D02*
X108466000Y-108815619D01*
X108513619Y-108768000D01*
X108466000Y-108720380D01*
X108418380Y-108768000D01*
X108513619Y-108768000D01*
X109418380Y-108148952D02*
X109370761Y-108244190D01*
X109275523Y-108291809D01*
X108418380Y-108291809D01*
X109323142Y-107768000D02*
X109370761Y-107720380D01*
X109418380Y-107768000D01*
X109370761Y-107815619D01*
X109323142Y-107768000D01*
X109418380Y-107768000D01*
X109370761Y-106863238D02*
X109418380Y-106958476D01*
X109418380Y-107148952D01*
X109370761Y-107244190D01*
X109323142Y-107291809D01*
X109227904Y-107339428D01*
X108942190Y-107339428D01*
X108846952Y-107291809D01*
X108799333Y-107244190D01*
X108751714Y-107148952D01*
X108751714Y-106958476D01*
X108799333Y-106863238D01*
X109418380Y-106291809D02*
X109370761Y-106387047D01*
X109323142Y-106434666D01*
X109227904Y-106482285D01*
X108942190Y-106482285D01*
X108846952Y-106434666D01*
X108799333Y-106387047D01*
X108751714Y-106291809D01*
X108751714Y-106148952D01*
X108799333Y-106053714D01*
X108846952Y-106006095D01*
X108942190Y-105958476D01*
X109227904Y-105958476D01*
X109323142Y-106006095D01*
X109370761Y-106053714D01*
X109418380Y-106148952D01*
X109418380Y-106291809D01*
X109418380Y-105529904D02*
X108751714Y-105529904D01*
X108846952Y-105529904D02*
X108799333Y-105482285D01*
X108751714Y-105387047D01*
X108751714Y-105244190D01*
X108799333Y-105148952D01*
X108894571Y-105101333D01*
X109418380Y-105101333D01*
X108894571Y-105101333D02*
X108799333Y-105053714D01*
X108751714Y-104958476D01*
X108751714Y-104815619D01*
X108799333Y-104720380D01*
X108894571Y-104672761D01*
X109418380Y-104672761D01*
X41283380Y-124617142D02*
X40283380Y-124617142D01*
X40283380Y-124236190D01*
X40331000Y-124140952D01*
X40378619Y-124093333D01*
X40473857Y-124045714D01*
X40616714Y-124045714D01*
X40711952Y-124093333D01*
X40759571Y-124140952D01*
X40807190Y-124236190D01*
X40807190Y-124617142D01*
X41235761Y-123664761D02*
X41283380Y-123569523D01*
X41283380Y-123379047D01*
X41235761Y-123283809D01*
X41140523Y-123236190D01*
X41092904Y-123236190D01*
X40997666Y-123283809D01*
X40950047Y-123379047D01*
X40950047Y-123521904D01*
X40902428Y-123617142D01*
X40807190Y-123664761D01*
X40759571Y-123664761D01*
X40664333Y-123617142D01*
X40616714Y-123521904D01*
X40616714Y-123379047D01*
X40664333Y-123283809D01*
X41283380Y-122807619D02*
X40616714Y-122807619D01*
X40283380Y-122807619D02*
X40331000Y-122855238D01*
X40378619Y-122807619D01*
X40331000Y-122760000D01*
X40283380Y-122807619D01*
X40378619Y-122807619D01*
X41283380Y-122188571D02*
X41235761Y-122283809D01*
X41188142Y-122331428D01*
X41092904Y-122379047D01*
X40807190Y-122379047D01*
X40711952Y-122331428D01*
X40664333Y-122283809D01*
X40616714Y-122188571D01*
X40616714Y-122045714D01*
X40664333Y-121950476D01*
X40711952Y-121902857D01*
X40807190Y-121855238D01*
X41092904Y-121855238D01*
X41188142Y-121902857D01*
X41235761Y-121950476D01*
X41283380Y-122045714D01*
X41283380Y-122188571D01*
X40616714Y-121426666D02*
X41283380Y-121426666D01*
X40711952Y-121426666D02*
X40664333Y-121379047D01*
X40616714Y-121283809D01*
X40616714Y-121140952D01*
X40664333Y-121045714D01*
X40759571Y-120998095D01*
X41283380Y-120998095D01*
X40283380Y-119569523D02*
X40283380Y-119379047D01*
X40331000Y-119283809D01*
X40426238Y-119188571D01*
X40616714Y-119140952D01*
X40950047Y-119140952D01*
X41140523Y-119188571D01*
X41235761Y-119283809D01*
X41283380Y-119379047D01*
X41283380Y-119569523D01*
X41235761Y-119664761D01*
X41140523Y-119760000D01*
X40950047Y-119807619D01*
X40616714Y-119807619D01*
X40426238Y-119760000D01*
X40331000Y-119664761D01*
X40283380Y-119569523D01*
X41283380Y-118712380D02*
X40616714Y-118712380D01*
X40807190Y-118712380D02*
X40711952Y-118664761D01*
X40664333Y-118617142D01*
X40616714Y-118521904D01*
X40616714Y-118426666D01*
X40616714Y-117664761D02*
X41426238Y-117664761D01*
X41521476Y-117712380D01*
X41569095Y-117760000D01*
X41616714Y-117855238D01*
X41616714Y-117998095D01*
X41569095Y-118093333D01*
X41235761Y-117664761D02*
X41283380Y-117760000D01*
X41283380Y-117950476D01*
X41235761Y-118045714D01*
X41188142Y-118093333D01*
X41092904Y-118140952D01*
X40807190Y-118140952D01*
X40711952Y-118093333D01*
X40664333Y-118045714D01*
X40616714Y-117950476D01*
X40616714Y-117760000D01*
X40664333Y-117664761D01*
X41283380Y-116760000D02*
X40759571Y-116760000D01*
X40664333Y-116807619D01*
X40616714Y-116902857D01*
X40616714Y-117093333D01*
X40664333Y-117188571D01*
X41235761Y-116760000D02*
X41283380Y-116855238D01*
X41283380Y-117093333D01*
X41235761Y-117188571D01*
X41140523Y-117236190D01*
X41045285Y-117236190D01*
X40950047Y-117188571D01*
X40902428Y-117093333D01*
X40902428Y-116855238D01*
X40854809Y-116760000D01*
X40616714Y-116283809D02*
X41283380Y-116283809D01*
X40711952Y-116283809D02*
X40664333Y-116236190D01*
X40616714Y-116140952D01*
X40616714Y-115998095D01*
X40664333Y-115902857D01*
X40759571Y-115855238D01*
X41283380Y-115855238D01*
X41283380Y-115379047D02*
X40616714Y-115379047D01*
X40283380Y-115379047D02*
X40331000Y-115426666D01*
X40378619Y-115379047D01*
X40331000Y-115331428D01*
X40283380Y-115379047D01*
X40378619Y-115379047D01*
X41235761Y-114950476D02*
X41283380Y-114855238D01*
X41283380Y-114664761D01*
X41235761Y-114569523D01*
X41140523Y-114521904D01*
X41092904Y-114521904D01*
X40997666Y-114569523D01*
X40950047Y-114664761D01*
X40950047Y-114807619D01*
X40902428Y-114902857D01*
X40807190Y-114950476D01*
X40759571Y-114950476D01*
X40664333Y-114902857D01*
X40616714Y-114807619D01*
X40616714Y-114664761D01*
X40664333Y-114569523D01*
X41235761Y-113712380D02*
X41283380Y-113807619D01*
X41283380Y-113998095D01*
X41235761Y-114093333D01*
X41140523Y-114140952D01*
X40759571Y-114140952D01*
X40664333Y-114093333D01*
X40616714Y-113998095D01*
X40616714Y-113807619D01*
X40664333Y-113712380D01*
X40759571Y-113664761D01*
X40854809Y-113664761D01*
X40950047Y-114140952D01*
X41283380Y-113236190D02*
X40616714Y-113236190D01*
X40807190Y-113236190D02*
X40711952Y-113188571D01*
X40664333Y-113140952D01*
X40616714Y-113045714D01*
X40616714Y-112950476D01*
X41283380Y-111855238D02*
X40283380Y-111855238D01*
X41283380Y-111379047D02*
X40283380Y-111379047D01*
X41235761Y-110188571D02*
X41283380Y-110045714D01*
X41283380Y-109807619D01*
X41235761Y-109712380D01*
X41188142Y-109664761D01*
X41092904Y-109617142D01*
X40997666Y-109617142D01*
X40902428Y-109664761D01*
X40854809Y-109712380D01*
X40807190Y-109807619D01*
X40759571Y-109998095D01*
X40711952Y-110093333D01*
X40664333Y-110140952D01*
X40569095Y-110188571D01*
X40473857Y-110188571D01*
X40378619Y-110140952D01*
X40331000Y-110093333D01*
X40283380Y-109998095D01*
X40283380Y-109760000D01*
X40331000Y-109617142D01*
X40616714Y-109188571D02*
X41616714Y-109188571D01*
X40664333Y-109188571D02*
X40616714Y-109093333D01*
X40616714Y-108902857D01*
X40664333Y-108807619D01*
X40711952Y-108760000D01*
X40807190Y-108712380D01*
X41092904Y-108712380D01*
X41188142Y-108760000D01*
X41235761Y-108807619D01*
X41283380Y-108902857D01*
X41283380Y-109093333D01*
X41235761Y-109188571D01*
X41235761Y-107902857D02*
X41283380Y-107998095D01*
X41283380Y-108188571D01*
X41235761Y-108283809D01*
X41140523Y-108331428D01*
X40759571Y-108331428D01*
X40664333Y-108283809D01*
X40616714Y-108188571D01*
X40616714Y-107998095D01*
X40664333Y-107902857D01*
X40759571Y-107855238D01*
X40854809Y-107855238D01*
X40950047Y-108331428D01*
X41235761Y-107045714D02*
X41283380Y-107140952D01*
X41283380Y-107331428D01*
X41235761Y-107426666D01*
X41140523Y-107474285D01*
X40759571Y-107474285D01*
X40664333Y-107426666D01*
X40616714Y-107331428D01*
X40616714Y-107140952D01*
X40664333Y-107045714D01*
X40759571Y-106998095D01*
X40854809Y-106998095D01*
X40950047Y-107474285D01*
X41235761Y-106140952D02*
X41283380Y-106236190D01*
X41283380Y-106426666D01*
X41235761Y-106521904D01*
X41188142Y-106569523D01*
X41092904Y-106617142D01*
X40807190Y-106617142D01*
X40711952Y-106569523D01*
X40664333Y-106521904D01*
X40616714Y-106426666D01*
X40616714Y-106236190D01*
X40664333Y-106140952D01*
X41283380Y-105712380D02*
X40283380Y-105712380D01*
X41283380Y-105283809D02*
X40759571Y-105283809D01*
X40664333Y-105331428D01*
X40616714Y-105426666D01*
X40616714Y-105569523D01*
X40664333Y-105664761D01*
X40711952Y-105712380D01*
X40997666Y-104093333D02*
X40997666Y-103617142D01*
X41283380Y-104188571D02*
X40283380Y-103855238D01*
X41283380Y-103521904D01*
X41283380Y-102760000D02*
X40283380Y-102760000D01*
X41235761Y-102760000D02*
X41283380Y-102855238D01*
X41283380Y-103045714D01*
X41235761Y-103140952D01*
X41188142Y-103188571D01*
X41092904Y-103236190D01*
X40807190Y-103236190D01*
X40711952Y-103188571D01*
X40664333Y-103140952D01*
X40616714Y-103045714D01*
X40616714Y-102855238D01*
X40664333Y-102760000D01*
X41283380Y-101855238D02*
X40759571Y-101855238D01*
X40664333Y-101902857D01*
X40616714Y-101998095D01*
X40616714Y-102188571D01*
X40664333Y-102283809D01*
X41235761Y-101855238D02*
X41283380Y-101950476D01*
X41283380Y-102188571D01*
X41235761Y-102283809D01*
X41140523Y-102331428D01*
X41045285Y-102331428D01*
X40950047Y-102283809D01*
X40902428Y-102188571D01*
X40902428Y-101950476D01*
X40854809Y-101855238D01*
X40616714Y-101379047D02*
X41616714Y-101379047D01*
X40664333Y-101379047D02*
X40616714Y-101283809D01*
X40616714Y-101093333D01*
X40664333Y-100998095D01*
X40711952Y-100950476D01*
X40807190Y-100902857D01*
X41092904Y-100902857D01*
X41188142Y-100950476D01*
X41235761Y-100998095D01*
X41283380Y-101093333D01*
X41283380Y-101283809D01*
X41235761Y-101379047D01*
X40616714Y-100617142D02*
X40616714Y-100236190D01*
X40283380Y-100474285D02*
X41140523Y-100474285D01*
X41235761Y-100426666D01*
X41283380Y-100331428D01*
X41283380Y-100236190D01*
X41235761Y-99521904D02*
X41283380Y-99617142D01*
X41283380Y-99807619D01*
X41235761Y-99902857D01*
X41140523Y-99950476D01*
X40759571Y-99950476D01*
X40664333Y-99902857D01*
X40616714Y-99807619D01*
X40616714Y-99617142D01*
X40664333Y-99521904D01*
X40759571Y-99474285D01*
X40854809Y-99474285D01*
X40950047Y-99950476D01*
X41283380Y-99045714D02*
X40616714Y-99045714D01*
X40807190Y-99045714D02*
X40711952Y-98998095D01*
X40664333Y-98950476D01*
X40616714Y-98855238D01*
X40616714Y-98760000D01*
X42933380Y-117926666D02*
X41933380Y-117926666D01*
X42933380Y-117355238D01*
X41933380Y-117355238D01*
X42933380Y-116736190D02*
X42885761Y-116831428D01*
X42838142Y-116879047D01*
X42742904Y-116926666D01*
X42457190Y-116926666D01*
X42361952Y-116879047D01*
X42314333Y-116831428D01*
X42266714Y-116736190D01*
X42266714Y-116593333D01*
X42314333Y-116498095D01*
X42361952Y-116450476D01*
X42457190Y-116402857D01*
X42742904Y-116402857D01*
X42838142Y-116450476D01*
X42885761Y-116498095D01*
X42933380Y-116593333D01*
X42933380Y-116736190D01*
X42266714Y-116069523D02*
X42933380Y-115831428D01*
X42266714Y-115593333D01*
X42028619Y-114498095D02*
X41981000Y-114450476D01*
X41933380Y-114355238D01*
X41933380Y-114117142D01*
X41981000Y-114021904D01*
X42028619Y-113974285D01*
X42123857Y-113926666D01*
X42219095Y-113926666D01*
X42361952Y-113974285D01*
X42933380Y-114545714D01*
X42933380Y-113926666D01*
X41933380Y-113307619D02*
X41933380Y-113212380D01*
X41981000Y-113117142D01*
X42028619Y-113069523D01*
X42123857Y-113021904D01*
X42314333Y-112974285D01*
X42552428Y-112974285D01*
X42742904Y-113021904D01*
X42838142Y-113069523D01*
X42885761Y-113117142D01*
X42933380Y-113212380D01*
X42933380Y-113307619D01*
X42885761Y-113402857D01*
X42838142Y-113450476D01*
X42742904Y-113498095D01*
X42552428Y-113545714D01*
X42314333Y-113545714D01*
X42123857Y-113498095D01*
X42028619Y-113450476D01*
X41981000Y-113402857D01*
X41933380Y-113307619D01*
X42028619Y-112593333D02*
X41981000Y-112545714D01*
X41933380Y-112450476D01*
X41933380Y-112212380D01*
X41981000Y-112117142D01*
X42028619Y-112069523D01*
X42123857Y-112021904D01*
X42219095Y-112021904D01*
X42361952Y-112069523D01*
X42933380Y-112640952D01*
X42933380Y-112021904D01*
X42028619Y-111640952D02*
X41981000Y-111593333D01*
X41933380Y-111498095D01*
X41933380Y-111260000D01*
X41981000Y-111164761D01*
X42028619Y-111117142D01*
X42123857Y-111069523D01*
X42219095Y-111069523D01*
X42361952Y-111117142D01*
X42933380Y-111688571D01*
X42933380Y-111069523D01*
X41933380Y-108498095D02*
X42933380Y-108164761D01*
X41933380Y-107831428D01*
X42933380Y-106974285D02*
X42933380Y-107545714D01*
X42933380Y-107260000D02*
X41933380Y-107260000D01*
X42076238Y-107355238D01*
X42171476Y-107450476D01*
X42219095Y-107545714D01*
X42838142Y-106545714D02*
X42885761Y-106498095D01*
X42933380Y-106545714D01*
X42885761Y-106593333D01*
X42838142Y-106545714D01*
X42933380Y-106545714D01*
X42933380Y-105545714D02*
X42933380Y-106117142D01*
X42933380Y-105831428D02*
X41933380Y-105831428D01*
X42076238Y-105926666D01*
X42171476Y-106021904D01*
X42219095Y-106117142D01*
D11*
X58420000Y-128016000D02*
X58674000Y-127762000D01*
X58420000Y-127508000D02*
X58674000Y-127762000D01*
X58674000Y-127762000D02*
X58420000Y-127508000D01*
X57658000Y-127762000D02*
X58674000Y-127762000D01*
X57658000Y-127762000D02*
X57658000Y-130302000D01*
X57404000Y-127762000D02*
X57658000Y-127762000D01*
X54864000Y-127762000D02*
X57404000Y-127762000D01*
X54864000Y-130302000D02*
X54864000Y-127762000D01*
X57658000Y-130302000D02*
X54864000Y-130302000D01*
X104371252Y-122155000D02*
X103848748Y-122155000D01*
X104371252Y-123625000D02*
X103848748Y-123625000D01*
X63935000Y-108387064D02*
X63935000Y-107932936D01*
X62465000Y-108387064D02*
X62465000Y-107932936D01*
X101490000Y-95010000D02*
X101490000Y-97010000D01*
X95490000Y-95010000D02*
X95490000Y-97010000D01*
X101490000Y-95010000D02*
X95490000Y-95010000D01*
X98490000Y-95010000D02*
X101490000Y-95010000D01*
X92490000Y-97010000D02*
X104490000Y-97010000D01*
X92490000Y-108010000D02*
X92490000Y-97010000D01*
X104490000Y-108010000D02*
X92490000Y-108010000D01*
X104490000Y-97010000D02*
X104490000Y-108010000D01*
X64456000Y-111904000D02*
X64456000Y-117364000D01*
X100136000Y-111904000D02*
X64456000Y-111904000D01*
X100136000Y-124824000D02*
X100136000Y-111904000D01*
X64456000Y-124824000D02*
X100136000Y-124824000D01*
X64456000Y-119364000D02*
X64456000Y-124824000D01*
X64456000Y-117364000D02*
G75*
G02X64456000Y-119364000I0J-1000000D01*
G01*
X78630000Y-129390000D02*
X78630000Y-130660000D01*
X77360000Y-129390000D02*
X78630000Y-129390000D01*
X77740000Y-134697071D02*
X77740000Y-134242929D01*
X76980000Y-134697071D02*
X76980000Y-134242929D01*
X59200000Y-134242929D02*
X59200000Y-134640000D01*
X59960000Y-134242929D02*
X59960000Y-134640000D01*
X59200000Y-143300000D02*
X59200000Y-137300000D01*
X59960000Y-143300000D02*
X59200000Y-143300000D01*
X59960000Y-137300000D02*
X59960000Y-143300000D01*
X60850000Y-134640000D02*
X60850000Y-137300000D01*
X75200000Y-134697071D02*
X75200000Y-134242929D01*
X74440000Y-134697071D02*
X74440000Y-134242929D01*
X61740000Y-134242929D02*
X61740000Y-134640000D01*
X62500000Y-134242929D02*
X62500000Y-134640000D01*
X61740000Y-143300000D02*
X61740000Y-137300000D01*
X62500000Y-143300000D02*
X61740000Y-143300000D01*
X62500000Y-137300000D02*
X62500000Y-143300000D01*
X63390000Y-134640000D02*
X63390000Y-137300000D01*
X72660000Y-134697071D02*
X72660000Y-134242929D01*
X71900000Y-134697071D02*
X71900000Y-134242929D01*
X64280000Y-134242929D02*
X64280000Y-134640000D01*
X65040000Y-134242929D02*
X65040000Y-134640000D01*
X64280000Y-143300000D02*
X64280000Y-137300000D01*
X65040000Y-143300000D02*
X64280000Y-143300000D01*
X65040000Y-137300000D02*
X65040000Y-143300000D01*
X65930000Y-134640000D02*
X65930000Y-137300000D01*
X70120000Y-134697071D02*
X70120000Y-134242929D01*
X69360000Y-134697071D02*
X69360000Y-134242929D01*
X66820000Y-134242929D02*
X66820000Y-134640000D01*
X67580000Y-134242929D02*
X67580000Y-134640000D01*
X66820000Y-143300000D02*
X66820000Y-137300000D01*
X67580000Y-143300000D02*
X66820000Y-143300000D01*
X67580000Y-137300000D02*
X67580000Y-143300000D01*
X68470000Y-134640000D02*
X68470000Y-137300000D01*
X67580000Y-134697071D02*
X67580000Y-134242929D01*
X66820000Y-134697071D02*
X66820000Y-134242929D01*
X69360000Y-134242929D02*
X69360000Y-134640000D01*
X70120000Y-134242929D02*
X70120000Y-134640000D01*
X69360000Y-143300000D02*
X69360000Y-137300000D01*
X70120000Y-143300000D02*
X69360000Y-143300000D01*
X70120000Y-137300000D02*
X70120000Y-143300000D01*
X71010000Y-134640000D02*
X71010000Y-137300000D01*
X65040000Y-134697071D02*
X65040000Y-134242929D01*
X64280000Y-134697071D02*
X64280000Y-134242929D01*
X71900000Y-134242929D02*
X71900000Y-134640000D01*
X72660000Y-134242929D02*
X72660000Y-134640000D01*
X71900000Y-143300000D02*
X71900000Y-137300000D01*
X72660000Y-143300000D02*
X71900000Y-143300000D01*
X72660000Y-137300000D02*
X72660000Y-143300000D01*
X73550000Y-134640000D02*
X73550000Y-137300000D01*
X62500000Y-134697071D02*
X62500000Y-134242929D01*
X61740000Y-134697071D02*
X61740000Y-134242929D01*
X74440000Y-134242929D02*
X74440000Y-134640000D01*
X75200000Y-134242929D02*
X75200000Y-134640000D01*
X74440000Y-143300000D02*
X74440000Y-137300000D01*
X75200000Y-143300000D02*
X74440000Y-143300000D01*
X75200000Y-137300000D02*
X75200000Y-143300000D01*
X76090000Y-134640000D02*
X76090000Y-137300000D01*
X59960000Y-134630000D02*
X59960000Y-134242929D01*
X59200000Y-134630000D02*
X59200000Y-134242929D01*
X76980000Y-134242929D02*
X76980000Y-134640000D01*
X77740000Y-134242929D02*
X77740000Y-134640000D01*
X77080000Y-137300000D02*
X77080000Y-143300000D01*
X77200000Y-137300000D02*
X77200000Y-143300000D01*
X77320000Y-137300000D02*
X77320000Y-143300000D01*
X77440000Y-137300000D02*
X77440000Y-143300000D01*
X77560000Y-137300000D02*
X77560000Y-143300000D01*
X77680000Y-137300000D02*
X77680000Y-143300000D01*
X76980000Y-143300000D02*
X76980000Y-137300000D01*
X77740000Y-143300000D02*
X76980000Y-143300000D01*
X77740000Y-137300000D02*
X77740000Y-143300000D01*
X78690000Y-137300000D02*
X78690000Y-134640000D01*
X58250000Y-137300000D02*
X78690000Y-137300000D01*
X58250000Y-134640000D02*
X58250000Y-137300000D01*
X78690000Y-134640000D02*
X58250000Y-134640000D01*
X81470000Y-97655000D02*
X86540000Y-97655000D01*
X81470000Y-107425000D02*
X86540000Y-107425000D01*
X86540000Y-107425000D02*
X86540000Y-97655000D01*
X81470000Y-107425000D02*
X81470000Y-97655000D01*
X88586000Y-98492000D02*
X89916000Y-98492000D01*
X88586000Y-99822000D02*
X88586000Y-98492000D01*
X88586000Y-101092000D02*
X91246000Y-101092000D01*
X91246000Y-101092000D02*
X91246000Y-103692000D01*
X88586000Y-101092000D02*
X88586000Y-103692000D01*
X88586000Y-103692000D02*
X91246000Y-103692000D01*
X104621000Y-119353064D02*
X104621000Y-118898936D01*
X103151000Y-119353064D02*
X103151000Y-118898936D01*
X103581252Y-108622000D02*
X102158748Y-108622000D01*
X103581252Y-111342000D02*
X102158748Y-111342000D01*
X102158748Y-114644000D02*
X103581252Y-114644000D01*
X102158748Y-111924000D02*
X103581252Y-111924000D01*
X66540748Y-108939000D02*
X67063252Y-108939000D01*
X66540748Y-107469000D02*
X67063252Y-107469000D01*
X64508748Y-104621000D02*
X65031252Y-104621000D01*
X64508748Y-103151000D02*
X65031252Y-103151000D01*
X48400000Y-104390000D02*
X45950000Y-104390000D01*
X46600000Y-107610000D02*
X48400000Y-107610000D01*
X50175000Y-111077218D02*
X50175000Y-111360000D01*
X51347218Y-109905000D02*
X50175000Y-111077218D01*
X51630000Y-109905000D02*
X51347218Y-109905000D01*
X61825000Y-124095000D02*
X61825000Y-122640000D01*
X60370000Y-124095000D02*
X61825000Y-124095000D01*
X50175000Y-124095000D02*
X50175000Y-122640000D01*
X51630000Y-124095000D02*
X50175000Y-124095000D01*
X61825000Y-109905000D02*
X61825000Y-111360000D01*
X60370000Y-109905000D02*
X61825000Y-109905000D01*
X59272936Y-102235000D02*
X59727064Y-102235000D01*
X59272936Y-100765000D02*
X59727064Y-100765000D01*
X60425000Y-127227064D02*
X60425000Y-126772936D01*
X58955000Y-127227064D02*
X58955000Y-126772936D01*
X62711000Y-127227064D02*
X62711000Y-126772936D01*
X61241000Y-127227064D02*
X61241000Y-126772936D01*
X95531000Y-128804936D02*
X95531000Y-129259064D01*
X97001000Y-128804936D02*
X97001000Y-129259064D01*
X98071000Y-128804936D02*
X98071000Y-129259064D01*
X99541000Y-128804936D02*
X99541000Y-129259064D01*
X94461000Y-129259064D02*
X94461000Y-128804936D01*
X92991000Y-129259064D02*
X92991000Y-128804936D01*
X48000000Y-97990000D02*
X47000000Y-97990000D01*
X48000000Y-103010000D02*
X47000000Y-103010000D01*
X58300000Y-98900000D02*
X60600000Y-98900000D01*
X60600000Y-98900000D02*
X60600000Y-100100000D01*
X60600000Y-100100000D02*
X58300000Y-100100000D01*
X58300000Y-100100000D02*
X58300000Y-98900000D01*
X52600000Y-98800000D02*
X52600000Y-101100000D01*
X52600000Y-101100000D02*
X51400000Y-101100000D01*
X51400000Y-101100000D02*
X51400000Y-98800000D01*
X51400000Y-98800000D02*
X52600000Y-98800000D01*
X59800000Y-105400000D02*
X62100000Y-105400000D01*
X62100000Y-105400000D02*
X62100000Y-106600000D01*
X62100000Y-106600000D02*
X59800000Y-106600000D01*
X59800000Y-106600000D02*
X59800000Y-105400000D01*
X45800000Y-121400000D02*
X48100000Y-121400000D01*
X48100000Y-121400000D02*
X48100000Y-122600000D01*
X48100000Y-122600000D02*
X45800000Y-122600000D01*
X45800000Y-122600000D02*
X45800000Y-121400000D01*
X48190000Y-120234000D02*
X45890000Y-120234000D01*
X45890000Y-120234000D02*
X45890000Y-119034000D01*
X45890000Y-119034000D02*
X48190000Y-119034000D01*
X48190000Y-119034000D02*
X48190000Y-120234000D01*
X45800000Y-116400000D02*
X48100000Y-116400000D01*
X48100000Y-116400000D02*
X48100000Y-117600000D01*
X48100000Y-117600000D02*
X45800000Y-117600000D01*
X45800000Y-117600000D02*
X45800000Y-116400000D01*
X73260000Y-103010000D02*
X73260000Y-102620000D01*
X73260000Y-103010000D02*
X72810000Y-103010000D01*
X67690000Y-102310000D02*
X68340000Y-102310000D01*
X67690000Y-100580000D02*
X67690000Y-102310000D01*
X75310000Y-98010000D02*
X75310000Y-98220000D01*
X67690000Y-98010000D02*
X67690000Y-98220000D01*
X75310000Y-100580000D02*
X75310000Y-102310000D01*
X75310000Y-102310000D02*
X74650000Y-102310000D01*
X100865000Y-118864748D02*
X100865000Y-119387252D01*
X102335000Y-118864748D02*
X102335000Y-119387252D01*
X71620748Y-105383000D02*
X72143252Y-105383000D01*
X71620748Y-103913000D02*
X72143252Y-103913000D01*
X62310000Y-100580000D02*
X62310000Y-100736000D01*
X62310000Y-98264000D02*
X62310000Y-98420000D01*
X64911130Y-100579837D02*
G75*
G02X62829039Y-100580000I-1041130J1079837D01*
G01*
X64911130Y-98420163D02*
G75*
G03X62829039Y-98420000I-1041130J-1079837D01*
G01*
X65542335Y-100578608D02*
G75*
G02X62310000Y-100735516I-1672335J1078608D01*
G01*
X65542335Y-98421392D02*
G75*
G03X62310000Y-98264484I-1672335J-1078608D01*
G01*
X55238748Y-127235000D02*
X55761252Y-127235000D01*
X55238748Y-125765000D02*
X55761252Y-125765000D01*
X54640000Y-102288748D02*
X54640000Y-103711252D01*
X57360000Y-102288748D02*
X57360000Y-103711252D01*
X45140000Y-111788748D02*
X45140000Y-113211252D01*
X47860000Y-111788748D02*
X47860000Y-113211252D01*
X50640000Y-105288748D02*
X50640000Y-106711252D01*
X53360000Y-105288748D02*
X53360000Y-106711252D01*
X78967000Y-100591252D02*
X78967000Y-100068748D01*
X77497000Y-100591252D02*
X77497000Y-100068748D01*
D10*
X104020000Y-124950000D02*
X103986666Y-124983333D01*
X103886666Y-125016666D01*
X103820000Y-125016666D01*
X103720000Y-124983333D01*
X103653333Y-124916666D01*
X103620000Y-124850000D01*
X103586666Y-124716666D01*
X103586666Y-124616666D01*
X103620000Y-124483333D01*
X103653333Y-124416666D01*
X103720000Y-124350000D01*
X103820000Y-124316666D01*
X103886666Y-124316666D01*
X103986666Y-124350000D01*
X104020000Y-124383333D01*
X104686666Y-125016666D02*
X104286666Y-125016666D01*
X104486666Y-125016666D02*
X104486666Y-124316666D01*
X104420000Y-124416666D01*
X104353333Y-124483333D01*
X104286666Y-124516666D01*
X104953333Y-124383333D02*
X104986666Y-124350000D01*
X105053333Y-124316666D01*
X105220000Y-124316666D01*
X105286666Y-124350000D01*
X105320000Y-124383333D01*
X105353333Y-124450000D01*
X105353333Y-124516666D01*
X105320000Y-124616666D01*
X104920000Y-125016666D01*
X105353333Y-125016666D01*
X63413333Y-106246666D02*
X63180000Y-105913333D01*
X63013333Y-106246666D02*
X63013333Y-105546666D01*
X63280000Y-105546666D01*
X63346666Y-105580000D01*
X63380000Y-105613333D01*
X63413333Y-105680000D01*
X63413333Y-105780000D01*
X63380000Y-105846666D01*
X63346666Y-105880000D01*
X63280000Y-105913333D01*
X63013333Y-105913333D01*
X63646666Y-105546666D02*
X64113333Y-105546666D01*
X63813333Y-106246666D01*
X104442380Y-106343333D02*
X105156666Y-106343333D01*
X105299523Y-106390952D01*
X105394761Y-106486190D01*
X105442380Y-106629047D01*
X105442380Y-106724285D01*
X104537619Y-105914761D02*
X104490000Y-105867142D01*
X104442380Y-105771904D01*
X104442380Y-105533809D01*
X104490000Y-105438571D01*
X104537619Y-105390952D01*
X104632857Y-105343333D01*
X104728095Y-105343333D01*
X104870952Y-105390952D01*
X105442380Y-105962380D01*
X105442380Y-105343333D01*
X63072666Y-118897333D02*
X63639333Y-118897333D01*
X63706000Y-118864000D01*
X63739333Y-118830666D01*
X63772666Y-118764000D01*
X63772666Y-118630666D01*
X63739333Y-118564000D01*
X63706000Y-118530666D01*
X63639333Y-118497333D01*
X63072666Y-118497333D01*
X63772666Y-117797333D02*
X63772666Y-118197333D01*
X63772666Y-117997333D02*
X63072666Y-117997333D01*
X63172666Y-118064000D01*
X63239333Y-118130666D01*
X63272666Y-118197333D01*
X79246666Y-136548333D02*
X79746666Y-136548333D01*
X79846666Y-136581666D01*
X79913333Y-136648333D01*
X79946666Y-136748333D01*
X79946666Y-136815000D01*
X79246666Y-136281666D02*
X79246666Y-135848333D01*
X79513333Y-136081666D01*
X79513333Y-135981666D01*
X79546666Y-135915000D01*
X79580000Y-135881666D01*
X79646666Y-135848333D01*
X79813333Y-135848333D01*
X79880000Y-135881666D01*
X79913333Y-135915000D01*
X79946666Y-135981666D01*
X79946666Y-136181666D01*
X79913333Y-136248333D01*
X79880000Y-136281666D01*
X80656666Y-102956666D02*
X80323333Y-103190000D01*
X80656666Y-103356666D02*
X79956666Y-103356666D01*
X79956666Y-103090000D01*
X79990000Y-103023333D01*
X80023333Y-102990000D01*
X80090000Y-102956666D01*
X80190000Y-102956666D01*
X80256666Y-102990000D01*
X80290000Y-103023333D01*
X80323333Y-103090000D01*
X80323333Y-103356666D01*
X79956666Y-102756666D02*
X80656666Y-102523333D01*
X79956666Y-102290000D01*
X80656666Y-101690000D02*
X80656666Y-102090000D01*
X80656666Y-101890000D02*
X79956666Y-101890000D01*
X80056666Y-101956666D01*
X80123333Y-102023333D01*
X80156666Y-102090000D01*
X87396666Y-97914666D02*
X87396666Y-98414666D01*
X87363333Y-98514666D01*
X87296666Y-98581333D01*
X87196666Y-98614666D01*
X87130000Y-98614666D01*
X88030000Y-98148000D02*
X88030000Y-98614666D01*
X87863333Y-97881333D02*
X87696666Y-98381333D01*
X88130000Y-98381333D01*
X105876666Y-118226666D02*
X105543333Y-118460000D01*
X105876666Y-118626666D02*
X105176666Y-118626666D01*
X105176666Y-118360000D01*
X105210000Y-118293333D01*
X105243333Y-118260000D01*
X105310000Y-118226666D01*
X105410000Y-118226666D01*
X105476666Y-118260000D01*
X105510000Y-118293333D01*
X105543333Y-118360000D01*
X105543333Y-118626666D01*
X105410000Y-117626666D02*
X105876666Y-117626666D01*
X105143333Y-117793333D02*
X105643333Y-117960000D01*
X105643333Y-117526666D01*
X106055333Y-110232000D02*
X106022000Y-110265333D01*
X105922000Y-110298666D01*
X105855333Y-110298666D01*
X105755333Y-110265333D01*
X105688666Y-110198666D01*
X105655333Y-110132000D01*
X105622000Y-109998666D01*
X105622000Y-109898666D01*
X105655333Y-109765333D01*
X105688666Y-109698666D01*
X105755333Y-109632000D01*
X105855333Y-109598666D01*
X105922000Y-109598666D01*
X106022000Y-109632000D01*
X106055333Y-109665333D01*
X106288666Y-109598666D02*
X106755333Y-109598666D01*
X106455333Y-110298666D01*
X106055333Y-113788000D02*
X106022000Y-113821333D01*
X105922000Y-113854666D01*
X105855333Y-113854666D01*
X105755333Y-113821333D01*
X105688666Y-113754666D01*
X105655333Y-113688000D01*
X105622000Y-113554666D01*
X105622000Y-113454666D01*
X105655333Y-113321333D01*
X105688666Y-113254666D01*
X105755333Y-113188000D01*
X105855333Y-113154666D01*
X105922000Y-113154666D01*
X106022000Y-113188000D01*
X106055333Y-113221333D01*
X106655333Y-113154666D02*
X106522000Y-113154666D01*
X106455333Y-113188000D01*
X106422000Y-113221333D01*
X106355333Y-113321333D01*
X106322000Y-113454666D01*
X106322000Y-113721333D01*
X106355333Y-113788000D01*
X106388666Y-113821333D01*
X106455333Y-113854666D01*
X106588666Y-113854666D01*
X106655333Y-113821333D01*
X106688666Y-113788000D01*
X106722000Y-113721333D01*
X106722000Y-113554666D01*
X106688666Y-113488000D01*
X106655333Y-113454666D01*
X106588666Y-113421333D01*
X106455333Y-113421333D01*
X106388666Y-113454666D01*
X106355333Y-113488000D01*
X106322000Y-113554666D01*
X66685333Y-106774000D02*
X66652000Y-106807333D01*
X66552000Y-106840666D01*
X66485333Y-106840666D01*
X66385333Y-106807333D01*
X66318666Y-106740666D01*
X66285333Y-106674000D01*
X66252000Y-106540666D01*
X66252000Y-106440666D01*
X66285333Y-106307333D01*
X66318666Y-106240666D01*
X66385333Y-106174000D01*
X66485333Y-106140666D01*
X66552000Y-106140666D01*
X66652000Y-106174000D01*
X66685333Y-106207333D01*
X67285333Y-106374000D02*
X67285333Y-106840666D01*
X67118666Y-106107333D02*
X66952000Y-106607333D01*
X67385333Y-106607333D01*
X62113333Y-103882000D02*
X62080000Y-103915333D01*
X61980000Y-103948666D01*
X61913333Y-103948666D01*
X61813333Y-103915333D01*
X61746666Y-103848666D01*
X61713333Y-103782000D01*
X61680000Y-103648666D01*
X61680000Y-103548666D01*
X61713333Y-103415333D01*
X61746666Y-103348666D01*
X61813333Y-103282000D01*
X61913333Y-103248666D01*
X61980000Y-103248666D01*
X62080000Y-103282000D01*
X62113333Y-103315333D01*
X62380000Y-103315333D02*
X62413333Y-103282000D01*
X62480000Y-103248666D01*
X62646666Y-103248666D01*
X62713333Y-103282000D01*
X62746666Y-103315333D01*
X62780000Y-103382000D01*
X62780000Y-103448666D01*
X62746666Y-103548666D01*
X62346666Y-103948666D01*
X62780000Y-103948666D01*
X43662666Y-104264666D02*
X43662666Y-104831333D01*
X43696000Y-104898000D01*
X43729333Y-104931333D01*
X43796000Y-104964666D01*
X43929333Y-104964666D01*
X43996000Y-104931333D01*
X44029333Y-104898000D01*
X44062666Y-104831333D01*
X44062666Y-104264666D01*
X44429333Y-104964666D02*
X44562666Y-104964666D01*
X44629333Y-104931333D01*
X44662666Y-104898000D01*
X44729333Y-104798000D01*
X44762666Y-104664666D01*
X44762666Y-104398000D01*
X44729333Y-104331333D01*
X44696000Y-104298000D01*
X44629333Y-104264666D01*
X44496000Y-104264666D01*
X44429333Y-104298000D01*
X44396000Y-104331333D01*
X44362666Y-104398000D01*
X44362666Y-104564666D01*
X44396000Y-104631333D01*
X44429333Y-104664666D01*
X44496000Y-104698000D01*
X44629333Y-104698000D01*
X44696000Y-104664666D01*
X44729333Y-104631333D01*
X44762666Y-104564666D01*
X55466666Y-108096666D02*
X55466666Y-108663333D01*
X55500000Y-108730000D01*
X55533333Y-108763333D01*
X55600000Y-108796666D01*
X55733333Y-108796666D01*
X55800000Y-108763333D01*
X55833333Y-108730000D01*
X55866666Y-108663333D01*
X55866666Y-108096666D01*
X56300000Y-108396666D02*
X56233333Y-108363333D01*
X56200000Y-108330000D01*
X56166666Y-108263333D01*
X56166666Y-108230000D01*
X56200000Y-108163333D01*
X56233333Y-108130000D01*
X56300000Y-108096666D01*
X56433333Y-108096666D01*
X56500000Y-108130000D01*
X56533333Y-108163333D01*
X56566666Y-108230000D01*
X56566666Y-108263333D01*
X56533333Y-108330000D01*
X56500000Y-108363333D01*
X56433333Y-108396666D01*
X56300000Y-108396666D01*
X56233333Y-108430000D01*
X56200000Y-108463333D01*
X56166666Y-108530000D01*
X56166666Y-108663333D01*
X56200000Y-108730000D01*
X56233333Y-108763333D01*
X56300000Y-108796666D01*
X56433333Y-108796666D01*
X56500000Y-108763333D01*
X56533333Y-108730000D01*
X56566666Y-108663333D01*
X56566666Y-108530000D01*
X56533333Y-108463333D01*
X56500000Y-108430000D01*
X56433333Y-108396666D01*
X58732000Y-103440666D02*
X58498666Y-103107333D01*
X58332000Y-103440666D02*
X58332000Y-102740666D01*
X58598666Y-102740666D01*
X58665333Y-102774000D01*
X58698666Y-102807333D01*
X58732000Y-102874000D01*
X58732000Y-102974000D01*
X58698666Y-103040666D01*
X58665333Y-103074000D01*
X58598666Y-103107333D01*
X58332000Y-103107333D01*
X58998666Y-102807333D02*
X59032000Y-102774000D01*
X59098666Y-102740666D01*
X59265333Y-102740666D01*
X59332000Y-102774000D01*
X59365333Y-102807333D01*
X59398666Y-102874000D01*
X59398666Y-102940666D01*
X59365333Y-103040666D01*
X58965333Y-103440666D01*
X59398666Y-103440666D01*
X59998666Y-102740666D02*
X59865333Y-102740666D01*
X59798666Y-102774000D01*
X59765333Y-102807333D01*
X59698666Y-102907333D01*
X59665333Y-103040666D01*
X59665333Y-103307333D01*
X59698666Y-103374000D01*
X59732000Y-103407333D01*
X59798666Y-103440666D01*
X59932000Y-103440666D01*
X59998666Y-103407333D01*
X60032000Y-103374000D01*
X60065333Y-103307333D01*
X60065333Y-103140666D01*
X60032000Y-103074000D01*
X59998666Y-103040666D01*
X59932000Y-103007333D01*
X59798666Y-103007333D01*
X59732000Y-103040666D01*
X59698666Y-103074000D01*
X59665333Y-103140666D01*
X55942666Y-129482000D02*
X55609333Y-129715333D01*
X55942666Y-129882000D02*
X55242666Y-129882000D01*
X55242666Y-129615333D01*
X55276000Y-129548666D01*
X55309333Y-129515333D01*
X55376000Y-129482000D01*
X55476000Y-129482000D01*
X55542666Y-129515333D01*
X55576000Y-129548666D01*
X55609333Y-129615333D01*
X55609333Y-129882000D01*
X55309333Y-129215333D02*
X55276000Y-129182000D01*
X55242666Y-129115333D01*
X55242666Y-128948666D01*
X55276000Y-128882000D01*
X55309333Y-128848666D01*
X55376000Y-128815333D01*
X55442666Y-128815333D01*
X55542666Y-128848666D01*
X55942666Y-129248666D01*
X55942666Y-128815333D01*
X55309333Y-128548666D02*
X55276000Y-128515333D01*
X55242666Y-128448666D01*
X55242666Y-128282000D01*
X55276000Y-128215333D01*
X55309333Y-128182000D01*
X55376000Y-128148666D01*
X55442666Y-128148666D01*
X55542666Y-128182000D01*
X55942666Y-128582000D01*
X55942666Y-128148666D01*
X57212666Y-129482000D02*
X56879333Y-129715333D01*
X57212666Y-129882000D02*
X56512666Y-129882000D01*
X56512666Y-129615333D01*
X56546000Y-129548666D01*
X56579333Y-129515333D01*
X56646000Y-129482000D01*
X56746000Y-129482000D01*
X56812666Y-129515333D01*
X56846000Y-129548666D01*
X56879333Y-129615333D01*
X56879333Y-129882000D01*
X56579333Y-129215333D02*
X56546000Y-129182000D01*
X56512666Y-129115333D01*
X56512666Y-128948666D01*
X56546000Y-128882000D01*
X56579333Y-128848666D01*
X56646000Y-128815333D01*
X56712666Y-128815333D01*
X56812666Y-128848666D01*
X57212666Y-129248666D01*
X57212666Y-128815333D01*
X57212666Y-128148666D02*
X57212666Y-128548666D01*
X57212666Y-128348666D02*
X56512666Y-128348666D01*
X56612666Y-128415333D01*
X56679333Y-128482000D01*
X56712666Y-128548666D01*
X90232666Y-129228000D02*
X89899333Y-129461333D01*
X90232666Y-129628000D02*
X89532666Y-129628000D01*
X89532666Y-129361333D01*
X89566000Y-129294666D01*
X89599333Y-129261333D01*
X89666000Y-129228000D01*
X89766000Y-129228000D01*
X89832666Y-129261333D01*
X89866000Y-129294666D01*
X89899333Y-129361333D01*
X89899333Y-129628000D01*
X89599333Y-128961333D02*
X89566000Y-128928000D01*
X89532666Y-128861333D01*
X89532666Y-128694666D01*
X89566000Y-128628000D01*
X89599333Y-128594666D01*
X89666000Y-128561333D01*
X89732666Y-128561333D01*
X89832666Y-128594666D01*
X90232666Y-128994666D01*
X90232666Y-128561333D01*
X89532666Y-128128000D02*
X89532666Y-128061333D01*
X89566000Y-127994666D01*
X89599333Y-127961333D01*
X89666000Y-127928000D01*
X89799333Y-127894666D01*
X89966000Y-127894666D01*
X90099333Y-127928000D01*
X90166000Y-127961333D01*
X90199333Y-127994666D01*
X90232666Y-128061333D01*
X90232666Y-128128000D01*
X90199333Y-128194666D01*
X90166000Y-128228000D01*
X90099333Y-128261333D01*
X89966000Y-128294666D01*
X89799333Y-128294666D01*
X89666000Y-128261333D01*
X89599333Y-128228000D01*
X89566000Y-128194666D01*
X89532666Y-128128000D01*
X91502666Y-129228000D02*
X91169333Y-129461333D01*
X91502666Y-129628000D02*
X90802666Y-129628000D01*
X90802666Y-129361333D01*
X90836000Y-129294666D01*
X90869333Y-129261333D01*
X90936000Y-129228000D01*
X91036000Y-129228000D01*
X91102666Y-129261333D01*
X91136000Y-129294666D01*
X91169333Y-129361333D01*
X91169333Y-129628000D01*
X91502666Y-128561333D02*
X91502666Y-128961333D01*
X91502666Y-128761333D02*
X90802666Y-128761333D01*
X90902666Y-128828000D01*
X90969333Y-128894666D01*
X91002666Y-128961333D01*
X91502666Y-128228000D02*
X91502666Y-128094666D01*
X91469333Y-128028000D01*
X91436000Y-127994666D01*
X91336000Y-127928000D01*
X91202666Y-127894666D01*
X90936000Y-127894666D01*
X90869333Y-127928000D01*
X90836000Y-127961333D01*
X90802666Y-128028000D01*
X90802666Y-128161333D01*
X90836000Y-128228000D01*
X90869333Y-128261333D01*
X90936000Y-128294666D01*
X91102666Y-128294666D01*
X91169333Y-128261333D01*
X91202666Y-128228000D01*
X91236000Y-128161333D01*
X91236000Y-128028000D01*
X91202666Y-127961333D01*
X91169333Y-127928000D01*
X91102666Y-127894666D01*
X88962666Y-129228000D02*
X88629333Y-129461333D01*
X88962666Y-129628000D02*
X88262666Y-129628000D01*
X88262666Y-129361333D01*
X88296000Y-129294666D01*
X88329333Y-129261333D01*
X88396000Y-129228000D01*
X88496000Y-129228000D01*
X88562666Y-129261333D01*
X88596000Y-129294666D01*
X88629333Y-129361333D01*
X88629333Y-129628000D01*
X88962666Y-128561333D02*
X88962666Y-128961333D01*
X88962666Y-128761333D02*
X88262666Y-128761333D01*
X88362666Y-128828000D01*
X88429333Y-128894666D01*
X88462666Y-128961333D01*
X88262666Y-127928000D02*
X88262666Y-128261333D01*
X88596000Y-128294666D01*
X88562666Y-128261333D01*
X88529333Y-128194666D01*
X88529333Y-128028000D01*
X88562666Y-127961333D01*
X88596000Y-127928000D01*
X88662666Y-127894666D01*
X88829333Y-127894666D01*
X88896000Y-127928000D01*
X88929333Y-127961333D01*
X88962666Y-128028000D01*
X88962666Y-128194666D01*
X88929333Y-128261333D01*
X88896000Y-128294666D01*
X43317333Y-98614666D02*
X42984000Y-98614666D01*
X42984000Y-97914666D01*
X43917333Y-98614666D02*
X43517333Y-98614666D01*
X43717333Y-98614666D02*
X43717333Y-97914666D01*
X43650666Y-98014666D01*
X43584000Y-98081333D01*
X43517333Y-98114666D01*
X58583333Y-97616666D02*
X58583333Y-98116666D01*
X58550000Y-98216666D01*
X58483333Y-98283333D01*
X58383333Y-98316666D01*
X58316666Y-98316666D01*
X58916666Y-98316666D02*
X58916666Y-97616666D01*
X59183333Y-97616666D01*
X59250000Y-97650000D01*
X59283333Y-97683333D01*
X59316666Y-97750000D01*
X59316666Y-97850000D01*
X59283333Y-97916666D01*
X59250000Y-97950000D01*
X59183333Y-97983333D01*
X58916666Y-97983333D01*
X59983333Y-98316666D02*
X59583333Y-98316666D01*
X59783333Y-98316666D02*
X59783333Y-97616666D01*
X59716666Y-97716666D01*
X59650000Y-97783333D01*
X59583333Y-97816666D01*
X60650000Y-98316666D02*
X60250000Y-98316666D01*
X60450000Y-98316666D02*
X60450000Y-97616666D01*
X60383333Y-97716666D01*
X60316666Y-97783333D01*
X60250000Y-97816666D01*
X52956666Y-101246666D02*
X53456666Y-101246666D01*
X53556666Y-101280000D01*
X53623333Y-101346666D01*
X53656666Y-101446666D01*
X53656666Y-101513333D01*
X53656666Y-100913333D02*
X52956666Y-100913333D01*
X52956666Y-100646666D01*
X52990000Y-100580000D01*
X53023333Y-100546666D01*
X53090000Y-100513333D01*
X53190000Y-100513333D01*
X53256666Y-100546666D01*
X53290000Y-100580000D01*
X53323333Y-100646666D01*
X53323333Y-100913333D01*
X53656666Y-99846666D02*
X53656666Y-100246666D01*
X53656666Y-100046666D02*
X52956666Y-100046666D01*
X53056666Y-100113333D01*
X53123333Y-100180000D01*
X53156666Y-100246666D01*
X52956666Y-99413333D02*
X52956666Y-99346666D01*
X52990000Y-99280000D01*
X53023333Y-99246666D01*
X53090000Y-99213333D01*
X53223333Y-99180000D01*
X53390000Y-99180000D01*
X53523333Y-99213333D01*
X53590000Y-99246666D01*
X53623333Y-99280000D01*
X53656666Y-99346666D01*
X53656666Y-99413333D01*
X53623333Y-99480000D01*
X53590000Y-99513333D01*
X53523333Y-99546666D01*
X53390000Y-99580000D01*
X53223333Y-99580000D01*
X53090000Y-99546666D01*
X53023333Y-99513333D01*
X52990000Y-99480000D01*
X52956666Y-99413333D01*
X58006666Y-105866666D02*
X58006666Y-106366666D01*
X57973333Y-106466666D01*
X57906666Y-106533333D01*
X57806666Y-106566666D01*
X57740000Y-106566666D01*
X58340000Y-106566666D02*
X58340000Y-105866666D01*
X58606666Y-105866666D01*
X58673333Y-105900000D01*
X58706666Y-105933333D01*
X58740000Y-106000000D01*
X58740000Y-106100000D01*
X58706666Y-106166666D01*
X58673333Y-106200000D01*
X58606666Y-106233333D01*
X58340000Y-106233333D01*
X59340000Y-105866666D02*
X59206666Y-105866666D01*
X59140000Y-105900000D01*
X59106666Y-105933333D01*
X59040000Y-106033333D01*
X59006666Y-106166666D01*
X59006666Y-106433333D01*
X59040000Y-106500000D01*
X59073333Y-106533333D01*
X59140000Y-106566666D01*
X59273333Y-106566666D01*
X59340000Y-106533333D01*
X59373333Y-106500000D01*
X59406666Y-106433333D01*
X59406666Y-106266666D01*
X59373333Y-106200000D01*
X59340000Y-106166666D01*
X59273333Y-106133333D01*
X59140000Y-106133333D01*
X59073333Y-106166666D01*
X59040000Y-106200000D01*
X59006666Y-106266666D01*
X43866666Y-121536666D02*
X43866666Y-122036666D01*
X43833333Y-122136666D01*
X43766666Y-122203333D01*
X43666666Y-122236666D01*
X43600000Y-122236666D01*
X44200000Y-122236666D02*
X44200000Y-121536666D01*
X44466666Y-121536666D01*
X44533333Y-121570000D01*
X44566666Y-121603333D01*
X44600000Y-121670000D01*
X44600000Y-121770000D01*
X44566666Y-121836666D01*
X44533333Y-121870000D01*
X44466666Y-121903333D01*
X44200000Y-121903333D01*
X45233333Y-121536666D02*
X44900000Y-121536666D01*
X44866666Y-121870000D01*
X44900000Y-121836666D01*
X44966666Y-121803333D01*
X45133333Y-121803333D01*
X45200000Y-121836666D01*
X45233333Y-121870000D01*
X45266666Y-121936666D01*
X45266666Y-122103333D01*
X45233333Y-122170000D01*
X45200000Y-122203333D01*
X45133333Y-122236666D01*
X44966666Y-122236666D01*
X44900000Y-122203333D01*
X44866666Y-122170000D01*
X44120666Y-119504666D02*
X44120666Y-120004666D01*
X44087333Y-120104666D01*
X44020666Y-120171333D01*
X43920666Y-120204666D01*
X43854000Y-120204666D01*
X44454000Y-120204666D02*
X44454000Y-119504666D01*
X44720666Y-119504666D01*
X44787333Y-119538000D01*
X44820666Y-119571333D01*
X44854000Y-119638000D01*
X44854000Y-119738000D01*
X44820666Y-119804666D01*
X44787333Y-119838000D01*
X44720666Y-119871333D01*
X44454000Y-119871333D01*
X45454000Y-119738000D02*
X45454000Y-120204666D01*
X45287333Y-119471333D02*
X45120666Y-119971333D01*
X45554000Y-119971333D01*
X43866666Y-116456666D02*
X43866666Y-116956666D01*
X43833333Y-117056666D01*
X43766666Y-117123333D01*
X43666666Y-117156666D01*
X43600000Y-117156666D01*
X44200000Y-117156666D02*
X44200000Y-116456666D01*
X44466666Y-116456666D01*
X44533333Y-116490000D01*
X44566666Y-116523333D01*
X44600000Y-116590000D01*
X44600000Y-116690000D01*
X44566666Y-116756666D01*
X44533333Y-116790000D01*
X44466666Y-116823333D01*
X44200000Y-116823333D01*
X44866666Y-116523333D02*
X44900000Y-116490000D01*
X44966666Y-116456666D01*
X45133333Y-116456666D01*
X45200000Y-116490000D01*
X45233333Y-116523333D01*
X45266666Y-116590000D01*
X45266666Y-116656666D01*
X45233333Y-116756666D01*
X44833333Y-117156666D01*
X45266666Y-117156666D01*
X76474666Y-97660666D02*
X76474666Y-98160666D01*
X76441333Y-98260666D01*
X76374666Y-98327333D01*
X76274666Y-98360666D01*
X76208000Y-98360666D01*
X77174666Y-98360666D02*
X76774666Y-98360666D01*
X76974666Y-98360666D02*
X76974666Y-97660666D01*
X76908000Y-97760666D01*
X76841333Y-97827333D01*
X76774666Y-97860666D01*
X100020000Y-119473333D02*
X100020000Y-119706666D01*
X100386666Y-119706666D02*
X99686666Y-119706666D01*
X99686666Y-119373333D01*
X100020000Y-118873333D02*
X100053333Y-118773333D01*
X100086666Y-118740000D01*
X100153333Y-118706666D01*
X100253333Y-118706666D01*
X100320000Y-118740000D01*
X100353333Y-118773333D01*
X100386666Y-118840000D01*
X100386666Y-119106666D01*
X99686666Y-119106666D01*
X99686666Y-118873333D01*
X99720000Y-118806666D01*
X99753333Y-118773333D01*
X99820000Y-118740000D01*
X99886666Y-118740000D01*
X99953333Y-118773333D01*
X99986666Y-118806666D01*
X100020000Y-118873333D01*
X100020000Y-119106666D01*
X99753333Y-118440000D02*
X99720000Y-118406666D01*
X99686666Y-118340000D01*
X99686666Y-118173333D01*
X99720000Y-118106666D01*
X99753333Y-118073333D01*
X99820000Y-118040000D01*
X99886666Y-118040000D01*
X99986666Y-118073333D01*
X100386666Y-118473333D01*
X100386666Y-118040000D01*
X74092666Y-104090000D02*
X73859333Y-104090000D01*
X73859333Y-104456666D02*
X73859333Y-103756666D01*
X74192666Y-103756666D01*
X74692666Y-104090000D02*
X74792666Y-104123333D01*
X74826000Y-104156666D01*
X74859333Y-104223333D01*
X74859333Y-104323333D01*
X74826000Y-104390000D01*
X74792666Y-104423333D01*
X74726000Y-104456666D01*
X74459333Y-104456666D01*
X74459333Y-103756666D01*
X74692666Y-103756666D01*
X74759333Y-103790000D01*
X74792666Y-103823333D01*
X74826000Y-103890000D01*
X74826000Y-103956666D01*
X74792666Y-104023333D01*
X74759333Y-104056666D01*
X74692666Y-104090000D01*
X74459333Y-104090000D01*
X75526000Y-104456666D02*
X75126000Y-104456666D01*
X75326000Y-104456666D02*
X75326000Y-103756666D01*
X75259333Y-103856666D01*
X75192666Y-103923333D01*
X75126000Y-103956666D01*
X65269333Y-98106666D02*
X65269333Y-97406666D01*
X65436000Y-97406666D01*
X65536000Y-97440000D01*
X65602666Y-97506666D01*
X65636000Y-97573333D01*
X65669333Y-97706666D01*
X65669333Y-97806666D01*
X65636000Y-97940000D01*
X65602666Y-98006666D01*
X65536000Y-98073333D01*
X65436000Y-98106666D01*
X65269333Y-98106666D01*
X66302666Y-97406666D02*
X65969333Y-97406666D01*
X65936000Y-97740000D01*
X65969333Y-97706666D01*
X66036000Y-97673333D01*
X66202666Y-97673333D01*
X66269333Y-97706666D01*
X66302666Y-97740000D01*
X66336000Y-97806666D01*
X66336000Y-97973333D01*
X66302666Y-98040000D01*
X66269333Y-98073333D01*
X66202666Y-98106666D01*
X66036000Y-98106666D01*
X65969333Y-98073333D01*
X65936000Y-98040000D01*
X52128000Y-126488000D02*
X52094666Y-126521333D01*
X51994666Y-126554666D01*
X51928000Y-126554666D01*
X51828000Y-126521333D01*
X51761333Y-126454666D01*
X51728000Y-126388000D01*
X51694666Y-126254666D01*
X51694666Y-126154666D01*
X51728000Y-126021333D01*
X51761333Y-125954666D01*
X51828000Y-125888000D01*
X51928000Y-125854666D01*
X51994666Y-125854666D01*
X52094666Y-125888000D01*
X52128000Y-125921333D01*
X52394666Y-125921333D02*
X52428000Y-125888000D01*
X52494666Y-125854666D01*
X52661333Y-125854666D01*
X52728000Y-125888000D01*
X52761333Y-125921333D01*
X52794666Y-125988000D01*
X52794666Y-126054666D01*
X52761333Y-126154666D01*
X52361333Y-126554666D01*
X52794666Y-126554666D01*
X53428000Y-125854666D02*
X53094666Y-125854666D01*
X53061333Y-126188000D01*
X53094666Y-126154666D01*
X53161333Y-126121333D01*
X53328000Y-126121333D01*
X53394666Y-126154666D01*
X53428000Y-126188000D01*
X53461333Y-126254666D01*
X53461333Y-126421333D01*
X53428000Y-126488000D01*
X53394666Y-126521333D01*
X53328000Y-126554666D01*
X53161333Y-126554666D01*
X53094666Y-126521333D01*
X53061333Y-126488000D01*
X55622000Y-99764000D02*
X55655333Y-99797333D01*
X55688666Y-99897333D01*
X55688666Y-99964000D01*
X55655333Y-100064000D01*
X55588666Y-100130666D01*
X55522000Y-100164000D01*
X55388666Y-100197333D01*
X55288666Y-100197333D01*
X55155333Y-100164000D01*
X55088666Y-100130666D01*
X55022000Y-100064000D01*
X54988666Y-99964000D01*
X54988666Y-99897333D01*
X55022000Y-99797333D01*
X55055333Y-99764000D01*
X55055333Y-99497333D02*
X55022000Y-99464000D01*
X54988666Y-99397333D01*
X54988666Y-99230666D01*
X55022000Y-99164000D01*
X55055333Y-99130666D01*
X55122000Y-99097333D01*
X55188666Y-99097333D01*
X55288666Y-99130666D01*
X55688666Y-99530666D01*
X55688666Y-99097333D01*
X55222000Y-98497333D02*
X55688666Y-98497333D01*
X54955333Y-98664000D02*
X55455333Y-98830666D01*
X55455333Y-98397333D01*
X49050000Y-112950000D02*
X49083333Y-112983333D01*
X49116666Y-113083333D01*
X49116666Y-113150000D01*
X49083333Y-113250000D01*
X49016666Y-113316666D01*
X48950000Y-113350000D01*
X48816666Y-113383333D01*
X48716666Y-113383333D01*
X48583333Y-113350000D01*
X48516666Y-113316666D01*
X48450000Y-113250000D01*
X48416666Y-113150000D01*
X48416666Y-113083333D01*
X48450000Y-112983333D01*
X48483333Y-112950000D01*
X48483333Y-112683333D02*
X48450000Y-112650000D01*
X48416666Y-112583333D01*
X48416666Y-112416666D01*
X48450000Y-112350000D01*
X48483333Y-112316666D01*
X48550000Y-112283333D01*
X48616666Y-112283333D01*
X48716666Y-112316666D01*
X49116666Y-112716666D01*
X49116666Y-112283333D01*
X48416666Y-112050000D02*
X48416666Y-111616666D01*
X48683333Y-111850000D01*
X48683333Y-111750000D01*
X48716666Y-111683333D01*
X48750000Y-111650000D01*
X48816666Y-111616666D01*
X48983333Y-111616666D01*
X49050000Y-111650000D01*
X49083333Y-111683333D01*
X49116666Y-111750000D01*
X49116666Y-111950000D01*
X49083333Y-112016666D01*
X49050000Y-112050000D01*
X54550000Y-106450000D02*
X54583333Y-106483333D01*
X54616666Y-106583333D01*
X54616666Y-106650000D01*
X54583333Y-106750000D01*
X54516666Y-106816666D01*
X54450000Y-106850000D01*
X54316666Y-106883333D01*
X54216666Y-106883333D01*
X54083333Y-106850000D01*
X54016666Y-106816666D01*
X53950000Y-106750000D01*
X53916666Y-106650000D01*
X53916666Y-106583333D01*
X53950000Y-106483333D01*
X53983333Y-106450000D01*
X53983333Y-106183333D02*
X53950000Y-106150000D01*
X53916666Y-106083333D01*
X53916666Y-105916666D01*
X53950000Y-105850000D01*
X53983333Y-105816666D01*
X54050000Y-105783333D01*
X54116666Y-105783333D01*
X54216666Y-105816666D01*
X54616666Y-106216666D01*
X54616666Y-105783333D01*
X53983333Y-105516666D02*
X53950000Y-105483333D01*
X53916666Y-105416666D01*
X53916666Y-105250000D01*
X53950000Y-105183333D01*
X53983333Y-105150000D01*
X54050000Y-105116666D01*
X54116666Y-105116666D01*
X54216666Y-105150000D01*
X54616666Y-105550000D01*
X54616666Y-105116666D01*
X76802000Y-100446666D02*
X76835333Y-100480000D01*
X76868666Y-100580000D01*
X76868666Y-100646666D01*
X76835333Y-100746666D01*
X76768666Y-100813333D01*
X76702000Y-100846666D01*
X76568666Y-100880000D01*
X76468666Y-100880000D01*
X76335333Y-100846666D01*
X76268666Y-100813333D01*
X76202000Y-100746666D01*
X76168666Y-100646666D01*
X76168666Y-100580000D01*
X76202000Y-100480000D01*
X76235333Y-100446666D01*
X76868666Y-99780000D02*
X76868666Y-100180000D01*
X76868666Y-99980000D02*
X76168666Y-99980000D01*
X76268666Y-100046666D01*
X76335333Y-100113333D01*
X76368666Y-100180000D01*
M02*
